<svg width="636" height="636" viewBox="0 0 636 636" fill="none" xmlns="http://www.w3.org/2000/svg">
<g clip-path="url(#clip0_1_3626)">
<rect width="635.38" height="635.38" transform="translate(0.380432)" fill="#98F500"/>
<rect x="0.38044" y="423.586" width="635.38" height="211.793" fill="black"/>
<path d="M37.3666 70.0068H33.8085L40.014 55.8167H44.5464L50.7943 70.0068H47.1515L45.8172 66.8723H38.7221L37.3666 70.0068ZM41.2848 60.9209L39.9505 64.0131H44.5888L43.2545 60.9209L42.3861 58.7182H42.1532L41.2848 60.9209ZM57.9803 73.6073H54.8034V59.396H57.7473V62.2976H57.9591C58.3403 60.2643 59.6958 59.1842 62.1949 59.1842C65.4566 59.1842 67.278 61.3445 67.278 64.712C67.278 68.0795 65.4989 70.2186 62.3008 70.2186C59.844 70.2186 58.4886 69.0114 58.1285 67.1476H57.9803V73.6073ZM57.9803 64.8603C57.9803 66.6817 59.0816 67.3171 61.0724 67.3171C63.1057 67.3171 64.0587 66.6393 64.0587 64.712C64.0587 62.7635 63.1057 62.1069 61.0936 62.1069C59.0392 62.1069 57.9803 62.8059 57.9803 64.6908V64.8603ZM71.8605 70.2186C69.5731 70.2186 68.1965 69.1597 68.1965 67.3806C68.1965 65.8133 69.3613 64.8391 71.6275 64.6061L76.1811 64.1402V63.7377C76.1811 62.3611 75.5669 61.9799 73.8725 61.9799C72.2629 61.9799 71.6064 62.4034 71.6064 63.6107V63.6954H68.4083V63.6319C68.4083 61.0056 70.6109 59.1842 74.1055 59.1842C77.6425 59.1842 79.3156 61.0056 79.3156 63.7801V70.0068H76.3505V67.5712H76.1811C75.694 69.2232 74.2114 70.2186 71.8605 70.2186ZM71.3946 67.1688C71.3946 67.7406 71.8393 67.9736 72.7712 67.9736C74.9315 67.9736 76.0964 67.4653 76.1811 65.9616L72.4959 66.3852C71.7334 66.4487 71.3946 66.6605 71.3946 67.1688ZM82.9591 73.6073H81.2224V70.7269H83.8275C84.6111 70.7269 84.95 70.5151 85.1618 70.0492L79.9729 59.396H83.5733L85.8184 64.2461L86.7079 66.7452H86.9197L87.7669 64.2249L89.7789 59.396H93.3158L88.0634 70.7693C87.0468 72.9931 85.6277 73.6073 82.9591 73.6073ZM99.7352 70.2186C96.1135 70.2186 93.6779 68.0583 93.6779 64.712C93.6779 61.3233 96.1135 59.1842 99.7352 59.1842C103.357 59.1842 105.792 61.3233 105.792 64.712C105.792 68.0583 103.357 70.2186 99.7352 70.2186ZM99.7352 67.4018C101.874 67.4018 102.637 66.5758 102.637 64.712C102.637 62.8482 101.874 61.9799 99.7352 61.9799C97.5749 61.9799 96.8336 62.8482 96.8336 64.712C96.8336 66.5758 97.5749 67.4018 99.7352 67.4018ZM111.474 70.2186C108.488 70.2186 107.069 68.376 107.069 66.0039V59.396H110.246V64.945C110.246 66.6605 110.966 67.3806 112.978 67.3806C115.053 67.3806 115.795 66.5758 115.795 64.7755V59.396H118.971V70.0068H116.006V66.7664H115.837C115.562 68.5455 114.27 70.2186 111.474 70.2186ZM128.072 70.0068H125.446C122.968 70.0068 121.464 68.842 121.464 66.1734V62.0222H119.791V59.396H121.464V57.3416H124.641V59.396H128.072V62.0222H124.641V65.8133C124.641 66.8723 125.044 67.1476 126.166 67.1476H128.072V70.0068ZM137.888 70.2186C134.309 70.2186 132.339 68.8208 132.339 66.364V66.3004H135.516V66.4911C135.516 67.4441 136.109 67.6983 137.909 67.6983C139.604 67.6983 140.006 67.423 140.006 66.7876C140.006 66.1946 139.689 66.0251 138.439 65.8557L135.453 65.4956C133.335 65.2627 132.149 64.3096 132.149 62.5305C132.149 60.6667 133.737 59.1842 137.38 59.1842C140.853 59.1842 142.823 60.4973 142.823 63.0812V63.1447H139.646V63.0177C139.646 62.1493 139.223 61.7045 137.274 61.7045C135.686 61.7045 135.283 61.9799 135.283 62.6576C135.283 63.2083 135.58 63.4412 136.978 63.6107L139.244 63.886C142.082 64.2037 143.141 65.1568 143.141 66.9147C143.141 68.9055 141.171 70.2186 137.888 70.2186ZM150.077 70.2186C146.435 70.2186 144.105 68.0583 144.105 64.712C144.105 61.3233 146.435 59.1842 150.077 59.1842C153.487 59.1842 155.817 61.0056 155.817 63.7589V64.0554H152.661V63.886C152.661 62.5305 151.666 62.0434 150.014 62.0434C148.129 62.0434 147.261 62.7423 147.261 64.712C147.261 66.6605 148.129 67.3594 150.014 67.3594C151.666 67.3594 152.661 66.8723 152.661 65.5168V65.3474H155.817V65.6439C155.817 68.376 153.487 70.2186 150.077 70.2186ZM160.361 70.0068H157.184V55.8167H160.361V62.6364H160.53C160.869 60.8362 162.119 59.1842 164.83 59.1842C167.689 59.1842 169.087 61.048 169.087 63.5048V70.0068H165.91V64.4578C165.91 62.6788 165.147 62.0434 163.157 62.0434C161.017 62.0434 160.361 62.9118 160.361 64.6908V70.0068ZM176.324 70.2186C172.787 70.2186 170.372 68.4819 170.372 64.712C170.372 61.3233 172.766 59.1842 176.26 59.1842C179.734 59.1842 182.042 61.0056 182.042 64.3308C182.042 64.712 182 64.9873 181.957 65.3474H173.316C173.401 66.9782 174.163 67.6771 176.218 67.6771C178.103 67.6771 178.759 67.19 178.759 66.2793V66.0675H181.936V66.3004C181.936 68.609 179.691 70.2186 176.324 70.2186ZM176.197 61.6622C174.312 61.6622 173.507 62.2976 173.359 63.6742H178.992C178.908 62.2764 178.06 61.6622 176.197 61.6622ZM188.133 70.2186C184.829 70.2186 183.008 68.0583 183.008 64.712C183.008 61.3233 184.808 59.1842 187.964 59.1842C190.484 59.1842 191.776 60.4338 192.136 62.2128H192.327V55.8167H195.504V70.0068H192.539V67.0629H192.369C191.967 69.1597 190.569 70.2186 188.133 70.2186ZM186.227 64.712C186.227 66.6393 187.18 67.3171 189.214 67.3171C191.226 67.3171 192.327 66.6181 192.327 64.7755V64.6061C192.327 62.7635 191.247 62.0858 189.214 62.0858C187.18 62.0858 186.227 62.7635 186.227 64.712ZM201.569 70.2186C198.583 70.2186 197.164 68.376 197.164 66.0039V59.396H200.341V64.945C200.341 66.6605 201.061 67.3806 203.073 67.3806C205.148 67.3806 205.89 66.5758 205.89 64.7755V59.396H209.066V70.0068H206.101V66.7664H205.932C205.657 68.5455 204.365 70.2186 201.569 70.2186ZM213.868 70.0068H210.691V55.8167H213.868V70.0068ZM221.164 70.2186C217.627 70.2186 215.213 68.4819 215.213 64.712C215.213 61.3233 217.606 59.1842 221.101 59.1842C224.574 59.1842 226.883 61.0056 226.883 64.3308C226.883 64.712 226.84 64.9873 226.798 65.3474H218.157C218.242 66.9782 219.004 67.6771 221.058 67.6771C222.943 67.6771 223.6 67.19 223.6 66.2793V66.0675H226.777V66.3004C226.777 68.609 224.532 70.2186 221.164 70.2186ZM221.037 61.6622C219.152 61.6622 218.347 62.2976 218.199 63.6742H223.833C223.748 62.2764 222.901 61.6622 221.037 61.6622ZM236.856 70.2186C233.277 70.2186 231.307 68.8208 231.307 66.364V66.3004H234.484V66.4911C234.484 67.4441 235.077 67.6983 236.877 67.6983C238.572 67.6983 238.974 67.423 238.974 66.7876C238.974 66.1946 238.656 66.0251 237.407 65.8557L234.421 65.4956C232.303 65.2627 231.117 64.3096 231.117 62.5305C231.117 60.6667 232.705 59.1842 236.348 59.1842C239.821 59.1842 241.791 60.4973 241.791 63.0812V63.1447H238.614V63.0177C238.614 62.1493 238.191 61.7045 236.242 61.7045C234.654 61.7045 234.251 61.9799 234.251 62.6576C234.251 63.2083 234.548 63.4412 235.946 63.6107L238.212 63.886C241.05 64.2037 242.109 65.1568 242.109 66.9147C242.109 68.9055 240.139 70.2186 236.856 70.2186ZM246.567 73.6073H243.391V59.396H246.334V62.2976H246.546C246.928 60.2643 248.283 59.1842 250.782 59.1842C254.044 59.1842 255.865 61.3445 255.865 64.712C255.865 68.0795 254.086 70.2186 250.888 70.2186C248.431 70.2186 247.076 69.0114 246.716 67.1476H246.567V73.6073ZM246.567 64.8603C246.567 66.6817 247.669 67.3171 249.66 67.3171C251.693 67.3171 252.646 66.6393 252.646 64.712C252.646 62.7635 251.693 62.1069 249.681 62.1069C247.626 62.1069 246.567 62.8059 246.567 64.6908V64.8603ZM260.363 70.0068H257.186V59.396H260.13V62.2128H260.321C260.617 60.4973 261.74 59.1842 263.879 59.1842C266.251 59.1842 267.225 60.815 267.225 62.8906V64.6485H264.048V63.5471C264.048 62.3823 263.582 61.874 262.29 61.874C260.871 61.874 260.363 62.5305 260.363 63.8648V70.0068ZM274.009 70.2186C270.472 70.2186 268.058 68.4819 268.058 64.712C268.058 61.3233 270.451 59.1842 273.946 59.1842C277.419 59.1842 279.728 61.0056 279.728 64.3308C279.728 64.712 279.685 64.9873 279.643 65.3474H271.002C271.087 66.9782 271.849 67.6771 273.903 67.6771C275.788 67.6771 276.445 67.19 276.445 66.2793V66.0675H279.622V66.3004C279.622 68.609 277.377 70.2186 274.009 70.2186ZM273.882 61.6622C271.997 61.6622 271.192 62.2976 271.044 63.6742H276.678C276.593 62.2764 275.746 61.6622 273.882 61.6622ZM284.337 70.2186C282.049 70.2186 280.672 69.1597 280.672 67.3806C280.672 65.8133 281.837 64.8391 284.104 64.6061L288.657 64.1402V63.7377C288.657 62.3611 288.043 61.9799 286.349 61.9799C284.739 61.9799 284.082 62.4034 284.082 63.6107V63.6954H280.884V63.6319C280.884 61.0056 283.087 59.1842 286.582 59.1842C290.118 59.1842 291.792 61.0056 291.792 63.7801V70.0068H288.827V67.5712H288.657C288.17 69.2232 286.687 70.2186 284.337 70.2186ZM283.871 67.1688C283.871 67.7406 284.315 67.9736 285.247 67.9736C287.408 67.9736 288.572 67.4653 288.657 65.9616L284.972 66.3852C284.209 66.4487 283.871 66.6605 283.871 67.1688ZM298.146 70.2186C294.842 70.2186 293.021 68.0583 293.021 64.712C293.021 61.3233 294.821 59.1842 297.977 59.1842C300.497 59.1842 301.789 60.4338 302.149 62.2128H302.34V55.8167H305.517V70.0068H302.551V67.0629H302.382C301.98 69.1597 300.582 70.2186 298.146 70.2186ZM296.24 64.712C296.24 66.6393 297.193 67.3171 299.226 67.3171C301.238 67.3171 302.34 66.6181 302.34 64.7755V64.6061C302.34 62.7635 301.259 62.0858 299.226 62.0858C297.193 62.0858 296.24 62.7635 296.24 64.712ZM312.556 70.2186C308.977 70.2186 307.007 68.8208 307.007 66.364V66.3004H310.184V66.4911C310.184 67.4441 310.777 67.6983 312.577 67.6983C314.271 67.6983 314.674 67.423 314.674 66.7876C314.674 66.1946 314.356 66.0251 313.107 65.8557L310.12 65.4956C308.002 65.2627 306.816 64.3096 306.816 62.5305C306.816 60.6667 308.405 59.1842 312.048 59.1842C315.521 59.1842 317.491 60.4973 317.491 63.0812V63.1447H314.314V63.0177C314.314 62.1493 313.89 61.7045 311.942 61.7045C310.353 61.7045 309.951 61.9799 309.951 62.6576C309.951 63.2083 310.247 63.4412 311.645 63.6107L313.911 63.886C316.749 64.2037 317.808 65.1568 317.808 66.9147C317.808 68.9055 315.839 70.2186 312.556 70.2186ZM324.391 73.6073H322.655V70.7269H325.26C326.043 70.7269 326.382 70.5151 326.594 70.0492L321.405 59.396H325.006L327.251 64.2461L328.14 66.7452H328.352L329.199 64.2249L331.211 59.396H334.748L329.496 70.7693C328.479 72.9931 327.06 73.6073 324.391 73.6073ZM341.167 70.2186C337.546 70.2186 335.11 68.0583 335.11 64.712C335.11 61.3233 337.546 59.1842 341.167 59.1842C344.789 59.1842 347.225 61.3233 347.225 64.712C347.225 68.0583 344.789 70.2186 341.167 70.2186ZM341.167 67.4018C343.306 67.4018 344.069 66.5758 344.069 64.712C344.069 62.8482 343.306 61.9799 341.167 61.9799C339.007 61.9799 338.266 62.8482 338.266 64.712C338.266 66.5758 339.007 67.4018 341.167 67.4018ZM352.906 70.2186C349.92 70.2186 348.501 68.376 348.501 66.0039V59.396H351.678V64.945C351.678 66.6605 352.398 67.3806 354.41 67.3806C356.485 67.3806 357.227 66.5758 357.227 64.7755V59.396H360.404V70.0068H357.439V66.7664H357.269C356.994 68.5455 355.702 70.2186 352.906 70.2186ZM365.205 70.0068H362.028V59.396H364.972V62.2128H365.163C365.459 60.4973 366.582 59.1842 368.721 59.1842C371.093 59.1842 372.067 60.815 372.067 62.8906V64.6485H368.89V63.5471C368.89 62.3823 368.424 61.874 367.132 61.874C365.713 61.874 365.205 62.5305 365.205 63.8648V70.0068ZM379.662 70.0068H376.485V59.396H379.429V62.6152H379.599C379.853 60.8362 380.912 59.1842 383.58 59.1842C386.037 59.1842 387.287 60.6879 387.52 62.6576H387.71C387.965 60.8574 389.045 59.1842 391.777 59.1842C394.509 59.1842 395.843 60.9844 395.843 63.3989V70.0068H392.666V64.4578C392.666 62.7 392.052 62.0434 390.231 62.0434C388.303 62.0434 387.753 62.8059 387.753 64.6485V70.0068H384.576V64.4578C384.576 62.7 383.962 62.0434 382.14 62.0434C380.213 62.0434 379.662 62.8059 379.662 64.6485V70.0068ZM403.113 70.2186C399.491 70.2186 397.055 68.0583 397.055 64.712C397.055 61.3233 399.491 59.1842 403.113 59.1842C406.734 59.1842 409.17 61.3233 409.17 64.712C409.17 68.0583 406.734 70.2186 403.113 70.2186ZM403.113 67.4018C405.252 67.4018 406.014 66.5758 406.014 64.712C406.014 62.8482 405.252 61.9799 403.113 61.9799C400.952 61.9799 400.211 62.8482 400.211 64.712C400.211 66.5758 400.952 67.4018 403.113 67.4018ZM413.644 70.0068H410.467V59.396H413.411V62.6576H413.602C413.877 60.8785 415.148 59.1842 417.923 59.1842C420.824 59.1842 422.201 61.048 422.201 63.3989V70.0068H419.024V64.4578C419.024 62.7635 418.325 62.0434 416.377 62.0434C414.364 62.0434 413.644 62.8482 413.644 64.6485V70.0068ZM429.442 70.2186C425.905 70.2186 423.49 68.4819 423.49 64.712C423.49 61.3233 425.884 59.1842 429.378 59.1842C432.852 59.1842 435.16 61.0056 435.16 64.3308C435.16 64.712 435.118 64.9873 435.075 65.3474H426.434C426.519 66.9782 427.281 67.6771 429.336 67.6771C431.221 67.6771 431.877 67.19 431.877 66.2793V66.0675H435.054V66.3004C435.054 68.609 432.809 70.2186 429.442 70.2186ZM429.315 61.6622C427.43 61.6622 426.625 62.2976 426.477 63.6742H432.11C432.026 62.2764 431.178 61.6622 429.315 61.6622ZM438.541 73.6073H436.804V70.7269H439.409C440.193 70.7269 440.531 70.5151 440.743 70.0492L435.554 59.396H439.155L441.4 64.2461L442.289 66.7452H442.501L443.348 64.2249L445.36 59.396H448.897L443.645 70.7693C442.628 72.9931 441.209 73.6073 438.541 73.6073ZM40.4165 96.2186C36.7948 96.2186 34.3592 94.0583 34.3592 90.712C34.3592 87.3233 36.7948 85.1842 40.4165 85.1842C44.0381 85.1842 46.4737 87.3233 46.4737 90.712C46.4737 94.0583 44.0381 96.2186 40.4165 96.2186ZM40.4165 93.4018C42.5556 93.4018 43.318 92.5758 43.318 90.712C43.318 88.8482 42.5556 87.9799 40.4165 87.9799C38.2562 87.9799 37.5149 88.8482 37.5149 90.712C37.5149 92.5758 38.2562 93.4018 40.4165 93.4018ZM55.671 96.0068H51.7529L46.924 85.396H50.4609L53.6378 92.9147H53.8496L57.0477 85.396H60.5211L55.671 96.0068ZM66.9936 96.2186C63.4566 96.2186 61.0422 94.4819 61.0422 90.712C61.0422 87.3233 63.4354 85.1842 66.93 85.1842C70.4034 85.1842 72.712 87.0056 72.712 90.3308C72.712 90.712 72.6696 90.9873 72.6273 91.3474H63.9861C64.0708 92.9782 64.8333 93.6771 66.8877 93.6771C68.7726 93.6771 69.4292 93.19 69.4292 92.2793V92.0675H72.6061V92.3004C72.6061 94.609 70.3611 96.2186 66.9936 96.2186ZM66.8665 87.6622C64.9815 87.6622 64.1767 88.2976 64.0284 89.6742H69.6622C69.5774 88.2764 68.7303 87.6622 66.8665 87.6622ZM77.2361 96.0068H74.0592V85.396H77.0031V88.2128H77.1937C77.4902 86.4973 78.6127 85.1842 80.7519 85.1842C83.1239 85.1842 84.0982 86.815 84.0982 88.8906V90.6485H80.9213V89.5471C80.9213 88.3823 80.4554 87.874 79.1634 87.874C77.7444 87.874 77.2361 88.5305 77.2361 89.8648V96.0068ZM95.9929 96.0068H93.3666C90.8887 96.0068 89.3849 94.842 89.3849 92.1734V88.0222H87.7118V85.396H89.3849V83.3416H92.5618V85.396H95.9929V88.0222H92.5618V91.8133C92.5618 92.8723 92.9642 93.1476 94.0867 93.1476H95.9929V96.0068ZM100.36 84.3158H97.1827V81.8167H100.36V84.3158ZM100.36 96.0068H97.1827V85.396H100.36V96.0068ZM105.199 96.0068H102.023V85.396H104.966V88.6152H105.136C105.39 86.8362 106.449 85.1842 109.118 85.1842C111.574 85.1842 112.824 86.6879 113.057 88.6576H113.248C113.502 86.8574 114.582 85.1842 117.314 85.1842C120.046 85.1842 121.38 86.9844 121.38 89.3989V96.0068H118.204V90.4578C118.204 88.7 117.589 88.0434 115.768 88.0434C113.841 88.0434 113.29 88.8059 113.29 90.6485V96.0068H110.113V90.4578C110.113 88.7 109.499 88.0434 107.677 88.0434C105.75 88.0434 105.199 88.8059 105.199 90.6485V96.0068ZM128.629 96.2186C125.092 96.2186 122.677 94.4819 122.677 90.712C122.677 87.3233 125.071 85.1842 128.565 85.1842C132.039 85.1842 134.347 87.0056 134.347 90.3308C134.347 90.712 134.305 90.9873 134.262 91.3474H125.621C125.706 92.9782 126.468 93.6771 128.523 93.6771C130.408 93.6771 131.064 93.19 131.064 92.2793V92.0675H134.241V92.3004C134.241 94.609 131.996 96.2186 128.629 96.2186ZM128.502 87.6622C126.617 87.6622 125.812 88.2976 125.664 89.6742H131.297C131.213 88.2764 130.365 87.6622 128.502 87.6622ZM136.732 98.9931H135.61V97.0234H136.647C137.071 97.0234 137.283 96.9175 137.283 96.3669V96.0068H135.483V92.3004H139.57V96.3457C139.57 98.1248 138.532 98.9931 136.732 98.9931ZM149.953 96.2186C146.416 96.2186 144.002 94.4819 144.002 90.712C144.002 87.3233 146.395 85.1842 149.889 85.1842C153.363 85.1842 155.671 87.0056 155.671 90.3308C155.671 90.712 155.629 90.9873 155.587 91.3474H146.945C147.03 92.9782 147.793 93.6771 149.847 93.6771C151.732 93.6771 152.389 93.19 152.389 92.2793V92.0675H155.565V92.3004C155.565 94.609 153.32 96.2186 149.953 96.2186ZM149.826 87.6622C147.941 87.6622 147.136 88.2976 146.988 89.6742H152.621C152.537 88.2764 151.69 87.6622 149.826 87.6622ZM160.195 96.0068H157.019V85.396H159.962V88.6576H160.153C160.428 86.8785 161.699 85.1842 164.474 85.1842C167.375 85.1842 168.752 87.048 168.752 89.3989V96.0068H165.575V90.4578C165.575 88.7635 164.876 88.0434 162.928 88.0434C160.916 88.0434 160.195 88.8482 160.195 90.6485V96.0068ZM175.717 96.2186C172.138 96.2186 170.168 94.8208 170.168 92.364V92.3004H173.345V92.4911C173.345 93.4441 173.938 93.6983 175.739 93.6983C177.433 93.6983 177.835 93.423 177.835 92.7876C177.835 92.1946 177.518 92.0251 176.268 91.8557L173.282 91.4956C171.164 91.2627 169.978 90.3096 169.978 88.5305C169.978 86.6667 171.566 85.1842 175.209 85.1842C178.683 85.1842 180.652 86.4973 180.652 89.0812V89.1447H177.475V89.0177C177.475 88.1493 177.052 87.7045 175.103 87.7045C173.515 87.7045 173.112 87.9799 173.112 88.6576C173.112 89.2083 173.409 89.4412 174.807 89.6107L177.073 89.886C179.911 90.2037 180.97 91.1568 180.97 92.9147C180.97 94.9055 179 96.2186 175.717 96.2186ZM186.636 96.2186C183.65 96.2186 182.231 94.376 182.231 92.0039V85.396H185.407V90.945C185.407 92.6605 186.128 93.3806 188.14 93.3806C190.215 93.3806 190.956 92.5758 190.956 90.7755V85.396H194.133V96.0068H191.168V92.7664H190.999C190.723 94.5455 189.432 96.2186 186.636 96.2186ZM198.935 96.0068H195.758V85.396H198.702V88.2128H198.892C199.189 86.4973 200.311 85.1842 202.45 85.1842C204.822 85.1842 205.797 86.815 205.797 88.8906V90.6485H202.62V89.5471C202.62 88.3823 202.154 87.874 200.862 87.874C199.443 87.874 198.935 88.5305 198.935 89.8648V96.0068ZM210.124 84.3158H206.947V81.8167H210.124V84.3158ZM210.124 96.0068H206.947V85.396H210.124V96.0068ZM214.964 96.0068H211.787V85.396H214.731V88.6576H214.922C215.197 86.8785 216.468 85.1842 219.242 85.1842C222.144 85.1842 223.52 87.048 223.52 89.3989V96.0068H220.343V90.4578C220.343 88.7635 219.645 88.0434 217.696 88.0434C215.684 88.0434 214.964 88.8482 214.964 90.6485V96.0068ZM229.787 94.9267C226.631 94.9267 224.81 93.0417 224.81 90.0554C224.81 87.0903 226.737 85.1842 229.914 85.1842C232.074 85.1842 233.62 86.1161 233.959 87.9587H234.129V85.396H237.094V94.4607C237.094 98.1671 234.849 99.8191 231.058 99.8191C227.627 99.8191 225.466 98.2942 225.466 95.6256H228.643C228.643 96.8117 229.109 97.1717 231.27 97.1717C233.303 97.1717 233.917 96.7481 233.917 94.6725V92.2793H233.747C233.409 93.8465 232.159 94.9267 229.787 94.9267ZM228.008 90.0554C228.008 91.6227 228.897 92.1946 230.888 92.1946C232.922 92.1946 233.917 91.6227 233.917 90.1613V89.9284C233.917 88.4882 232.9 87.9375 230.931 87.9375C228.897 87.9375 228.008 88.4882 228.008 90.0554ZM244.079 99.6073H242.343V96.7269H244.948C245.731 96.7269 246.07 96.5151 246.282 96.0492L241.093 85.396H244.694L246.939 90.2461L247.828 92.7452H248.04L248.887 90.2249L250.899 85.396H254.436L249.184 96.7693C248.167 98.9931 246.748 99.6073 244.079 99.6073ZM260.855 96.2186C257.234 96.2186 254.798 94.0583 254.798 90.712C254.798 87.3233 257.234 85.1842 260.855 85.1842C264.477 85.1842 266.913 87.3233 266.913 90.712C266.913 94.0583 264.477 96.2186 260.855 96.2186ZM260.855 93.4018C262.995 93.4018 263.757 92.5758 263.757 90.712C263.757 88.8482 262.995 87.9799 260.855 87.9799C258.695 87.9799 257.954 88.8482 257.954 90.712C257.954 92.5758 258.695 93.4018 260.855 93.4018ZM272.594 96.2186C269.608 96.2186 268.189 94.376 268.189 92.0039V85.396H271.366V90.945C271.366 92.6605 272.086 93.3806 274.098 93.3806C276.174 93.3806 276.915 92.5758 276.915 90.7755V85.396H280.092V96.0068H277.127V92.7664H276.957C276.682 94.5455 275.39 96.2186 272.594 96.2186ZM288.246 96.2186C285.958 96.2186 284.582 95.1597 284.582 93.3806C284.582 91.8133 285.746 90.8391 288.013 90.6061L292.566 90.1402V89.7377C292.566 88.3611 291.952 87.9799 290.258 87.9799C288.648 87.9799 287.991 88.4034 287.991 89.6107V89.6954H284.793V89.6319C284.793 87.0056 286.996 85.1842 290.491 85.1842C294.028 85.1842 295.701 87.0056 295.701 89.7801V96.0068H292.736V93.5712H292.566C292.079 95.2232 290.597 96.2186 288.246 96.2186ZM287.78 93.1688C287.78 93.7406 288.224 93.9736 289.156 93.9736C291.317 93.9736 292.481 93.4653 292.566 91.9616L288.881 92.3852C288.119 92.4487 287.78 92.6605 287.78 93.1688ZM300.488 96.0068H297.311V81.8167H300.488V96.0068ZM308.166 96.0068H304.205L301.304 85.396H304.586L305.836 90.2461L306.281 93.55H306.493L307.34 89.9284L308.949 85.396H313.037L314.625 89.9284L315.473 93.55H315.684L316.15 90.2461L317.379 85.396H320.619L317.612 96.0068H313.651L311.83 90.9026L311.046 87.9799H310.813L310.008 90.9026L308.166 96.0068ZM324.73 96.2186C322.443 96.2186 321.066 95.1597 321.066 93.3806C321.066 91.8133 322.231 90.8391 324.497 90.6061L329.051 90.1402V89.7377C329.051 88.3611 328.437 87.9799 326.742 87.9799C325.133 87.9799 324.476 88.4034 324.476 89.6107V89.6954H321.278V89.6319C321.278 87.0056 323.481 85.1842 326.975 85.1842C330.512 85.1842 332.185 87.0056 332.185 89.7801V96.0068H329.22V93.5712H329.051C328.564 95.2232 327.081 96.2186 324.73 96.2186ZM324.264 93.1688C324.264 93.7406 324.709 93.9736 325.641 93.9736C327.801 93.9736 328.966 93.4653 329.051 91.9616L325.366 92.3852C324.603 92.4487 324.264 92.6605 324.264 93.1688ZM335.829 99.6073H334.092V96.7269H336.697C337.481 96.7269 337.82 96.5151 338.032 96.0492L332.843 85.396H336.443L338.688 90.2461L339.578 92.7452H339.79L340.637 90.2249L342.649 85.396H346.186L340.933 96.7693C339.917 98.9931 338.498 99.6073 335.829 99.6073ZM352.309 96.2186C348.729 96.2186 346.76 94.8208 346.76 92.364V92.3004H349.936V92.4911C349.936 93.4441 350.529 93.6983 352.33 93.6983C354.024 93.6983 354.426 93.423 354.426 92.7876C354.426 92.1946 354.109 92.0251 352.859 91.8557L349.873 91.4956C347.755 91.2627 346.569 90.3096 346.569 88.5305C346.569 86.6667 348.157 85.1842 351.8 85.1842C355.274 85.1842 357.243 86.4973 357.243 89.0812V89.1447H354.066V89.0177C354.066 88.1493 353.643 87.7045 351.694 87.7045C350.106 87.7045 349.703 87.9799 349.703 88.6576C349.703 89.2083 350 89.4412 351.398 89.6107L353.664 89.886C356.502 90.2037 357.561 91.1568 357.561 92.9147C357.561 94.9055 355.591 96.2186 352.309 96.2186ZM365.288 96.0068H362.111V81.8167H365.288V88.6364H365.457C365.796 86.8362 367.046 85.1842 369.756 85.1842C372.616 85.1842 374.014 87.048 374.014 89.5048V96.0068H370.837V90.4578C370.837 88.6788 370.074 88.0434 368.083 88.0434C365.944 88.0434 365.288 88.9118 365.288 90.6908V96.0068ZM378.878 96.2186C376.591 96.2186 375.214 95.1597 375.214 93.3806C375.214 91.8133 376.379 90.8391 378.645 90.6061L383.199 90.1402V89.7377C383.199 88.3611 382.585 87.9799 380.89 87.9799C379.281 87.9799 378.624 88.4034 378.624 89.6107V89.6954H375.426V89.6319C375.426 87.0056 377.629 85.1842 381.123 85.1842C384.66 85.1842 386.333 87.0056 386.333 89.7801V96.0068H383.368V93.5712H383.199C382.712 95.2232 381.229 96.2186 378.878 96.2186ZM378.412 93.1688C378.412 93.7406 378.857 93.9736 379.789 93.9736C381.949 93.9736 383.114 93.4653 383.199 91.9616L379.514 92.3852C378.751 92.4487 378.412 92.6605 378.412 93.1688ZM395.844 96.0068H391.925L387.097 85.396H390.634L393.81 92.9147H394.022L397.22 85.396H400.694L395.844 96.0068ZM407.166 96.2186C403.629 96.2186 401.215 94.4819 401.215 90.712C401.215 87.3233 403.608 85.1842 407.103 85.1842C410.576 85.1842 412.885 87.0056 412.885 90.3308C412.885 90.712 412.842 90.9873 412.8 91.3474H404.159C404.243 92.9782 405.006 93.6771 407.06 93.6771C408.945 93.6771 409.602 93.19 409.602 92.2793V92.0675H412.779V92.3004C412.779 94.609 410.534 96.2186 407.166 96.2186ZM407.039 87.6622C405.154 87.6622 404.349 88.2976 404.201 89.6742H409.835C409.75 88.2764 408.903 87.6622 407.039 87.6622ZM421.524 96.0068H418.347V88.0222H416.843V85.396H418.41C418.749 83.2569 420.613 81.8167 423.875 81.8167H424.807V84.1252H423.366C421.969 84.1252 421.312 84.3582 421.397 85.396H424.807V88.0222H421.524V96.0068ZM430.24 96.2186C427.253 96.2186 425.834 94.376 425.834 92.0039V85.396H429.011V90.945C429.011 92.6605 429.731 93.3806 431.743 93.3806C433.819 93.3806 434.56 92.5758 434.56 90.7755V85.396H437.737V96.0068H434.772V92.7664H434.603C434.327 94.5455 433.035 96.2186 430.24 96.2186ZM442.538 96.0068H439.362V85.396H442.306V88.6576H442.496C442.771 86.8785 444.042 85.1842 446.817 85.1842C449.718 85.1842 451.095 87.048 451.095 89.3989V96.0068H447.918V90.4578C447.918 88.7635 447.219 88.0434 445.271 88.0434C443.259 88.0434 442.538 88.8482 442.538 90.6485V96.0068ZM457.446 96.2186C454.142 96.2186 452.321 94.0583 452.321 90.712C452.321 87.3233 454.121 85.1842 457.277 85.1842C459.797 85.1842 461.089 86.4338 461.449 88.2128H461.64V81.8167H464.817V96.0068H461.852V93.0629H461.682C461.28 95.1597 459.882 96.2186 457.446 96.2186ZM455.54 90.712C455.54 92.6393 456.493 93.3171 458.526 93.3171C460.538 93.3171 461.64 92.6181 461.64 90.7755V90.6061C461.64 88.7635 460.56 88.0858 458.526 88.0858C456.493 88.0858 455.54 88.7635 455.54 90.712ZM471.856 96.2186C468.277 96.2186 466.307 94.8208 466.307 92.364V92.3004H469.484V92.4911C469.484 93.4441 470.077 93.6983 471.877 93.6983C473.572 93.6983 473.974 93.423 473.974 92.7876C473.974 92.1946 473.656 92.0251 472.407 91.8557L469.42 91.4956C467.302 91.2627 466.116 90.3096 466.116 88.5305C466.116 86.6667 467.705 85.1842 471.348 85.1842C474.821 85.1842 476.791 86.4973 476.791 89.0812V89.1447H473.614V89.0177C473.614 88.1493 473.19 87.7045 471.242 87.7045C469.653 87.7045 469.251 87.9799 469.251 88.6576C469.251 89.2083 469.547 89.4412 470.945 89.6107L473.211 89.886C476.05 90.2037 477.108 91.1568 477.108 92.9147C477.108 94.9055 475.139 96.2186 471.856 96.2186ZM40.7765 122.007H36.816L33.9144 111.396H37.1972L38.4468 116.246L38.8915 119.55H39.1033L39.9505 115.928L41.5601 111.396H45.6478L47.2362 115.928L48.0834 119.55H48.2952L48.7611 116.246L49.9895 111.396H53.23L50.2225 122.007H46.262L44.4405 116.903L43.6569 113.98H43.4239L42.6191 116.903L40.7765 122.007ZM57.2564 122.007H54.0795V107.817H57.2564V114.636H57.4258C57.7647 112.836 59.0142 111.184 61.7252 111.184C64.5844 111.184 65.9822 113.048 65.9822 115.505V122.007H62.8053V116.458C62.8053 114.679 62.0429 114.043 60.052 114.043C57.9129 114.043 57.2564 114.912 57.2564 116.691V122.007ZM73.2191 122.219C69.6822 122.219 67.2677 120.482 67.2677 116.712C67.2677 113.323 69.661 111.184 73.1556 111.184C76.629 111.184 78.9376 113.006 78.9376 116.331C78.9376 116.712 78.8952 116.987 78.8528 117.347H70.2117C70.2964 118.978 71.0588 119.677 73.1132 119.677C74.9982 119.677 75.6548 119.19 75.6548 118.279V118.067H78.8317V118.3C78.8317 120.609 76.5866 122.219 73.2191 122.219ZM73.0921 113.662C71.2071 113.662 70.4023 114.298 70.254 115.674H75.8877C75.803 114.276 74.9558 113.662 73.0921 113.662ZM83.4617 122.007H80.2848V111.396H83.2287V114.658H83.4193C83.6946 112.879 84.9654 111.184 87.7399 111.184C90.6415 111.184 92.0181 113.048 92.0181 115.399V122.007H88.8412V116.458C88.8412 114.763 88.1423 114.043 86.1938 114.043C84.1818 114.043 83.4617 114.848 83.4617 116.648V122.007ZM100.07 122.007H96.8932V111.396H99.8371V114.658H100.028C100.303 112.879 101.574 111.184 104.348 111.184C107.25 111.184 108.627 113.048 108.627 115.399V122.007H105.45V116.458C105.45 114.763 104.751 114.043 102.802 114.043C100.79 114.043 100.07 114.848 100.07 116.648V122.007ZM115.867 122.219C112.33 122.219 109.916 120.482 109.916 116.712C109.916 113.323 112.309 111.184 115.804 111.184C119.277 111.184 121.586 113.006 121.586 116.331C121.586 116.712 121.543 116.987 121.501 117.347H112.86C112.945 118.978 113.707 119.677 115.761 119.677C117.646 119.677 118.303 119.19 118.303 118.279V118.067H121.48V118.3C121.48 120.609 119.235 122.219 115.867 122.219ZM115.74 113.662C113.855 113.662 113.051 114.298 112.902 115.674H118.536C118.451 114.276 117.604 113.662 115.74 113.662ZM128.567 122.219C125.03 122.219 122.615 120.482 122.615 116.712C122.615 113.323 125.009 111.184 128.503 111.184C131.977 111.184 134.285 113.006 134.285 116.331C134.285 116.712 134.243 116.987 134.2 117.347H125.559C125.644 118.978 126.406 119.677 128.461 119.677C130.346 119.677 131.002 119.19 131.002 118.279V118.067H134.179V118.3C134.179 120.609 131.934 122.219 128.567 122.219ZM128.44 113.662C126.555 113.662 125.75 114.298 125.602 115.674H131.235C131.151 114.276 130.303 113.662 128.44 113.662ZM140.377 122.219C137.073 122.219 135.251 120.058 135.251 116.712C135.251 113.323 137.051 111.184 140.207 111.184C142.727 111.184 144.019 112.434 144.379 114.213H144.57V107.817H147.747V122.007H144.782V119.063H144.612C144.21 121.16 142.812 122.219 140.377 122.219ZM138.47 116.712C138.47 118.639 139.423 119.317 141.457 119.317C143.469 119.317 144.57 118.618 144.57 116.776V116.606C144.57 114.763 143.49 114.086 141.457 114.086C139.423 114.086 138.47 114.763 138.47 116.712ZM155.062 122.219C151.525 122.219 149.11 120.482 149.11 116.712C149.11 113.323 151.503 111.184 154.998 111.184C158.471 111.184 160.78 113.006 160.78 116.331C160.78 116.712 160.738 116.987 160.695 117.347H152.054C152.139 118.978 152.901 119.677 154.956 119.677C156.841 119.677 157.497 119.19 157.497 118.279V118.067H160.674V118.3C160.674 120.609 158.429 122.219 155.062 122.219ZM154.935 113.662C153.05 113.662 152.245 114.298 152.096 115.674H157.73C157.645 114.276 156.798 113.662 154.935 113.662ZM166.871 122.219C163.567 122.219 161.746 120.058 161.746 116.712C161.746 113.323 163.546 111.184 166.702 111.184C169.222 111.184 170.514 112.434 170.874 114.213H171.065V107.817H174.242V122.007H171.277V119.063H171.107C170.705 121.16 169.307 122.219 166.871 122.219ZM164.965 116.712C164.965 118.639 165.918 119.317 167.952 119.317C169.964 119.317 171.065 118.618 171.065 116.776V116.606C171.065 114.763 169.985 114.086 167.952 114.086C165.918 114.086 164.965 114.763 164.965 116.712ZM179.799 122.007H175.711V118.3H179.799V122.007ZM187.724 122.007H184.548V107.817H187.724V122.007ZM196.864 122.007H194.237C191.759 122.007 190.256 120.842 190.256 118.173V114.022H188.583V111.396H190.256V109.342H193.433V111.396H196.864V114.022H193.433V117.813C193.433 118.872 193.835 119.148 194.958 119.148H196.864V122.007ZM204.498 122.007H201.321V107.817H204.498V114.636H204.668C205.007 112.836 206.256 111.184 208.967 111.184C211.826 111.184 213.224 113.048 213.224 115.505V122.007H210.047V116.458C210.047 114.679 209.285 114.043 207.294 114.043C205.155 114.043 204.498 114.912 204.498 116.691V122.007ZM220.461 122.219C216.924 122.219 214.51 120.482 214.51 116.712C214.51 113.323 216.903 111.184 220.398 111.184C223.871 111.184 226.18 113.006 226.18 116.331C226.18 116.712 226.137 116.987 226.095 117.347H217.454C217.538 118.978 218.301 119.677 220.355 119.677C222.24 119.677 222.897 119.19 222.897 118.279V118.067H226.074V118.3C226.074 120.609 223.829 122.219 220.461 122.219ZM220.334 113.662C218.449 113.662 217.644 114.298 217.496 115.674H223.13C223.045 114.276 222.198 113.662 220.334 113.662ZM230.704 122.007H227.527V107.817H230.704V122.007ZM235.543 125.607H232.367V111.396H235.31V114.298H235.522C235.904 112.264 237.259 111.184 239.758 111.184C243.02 111.184 244.841 113.344 244.841 116.712C244.841 120.08 243.062 122.219 239.864 122.219C237.407 122.219 236.052 121.011 235.692 119.148H235.543V125.607ZM235.543 116.86C235.543 118.682 236.645 119.317 238.636 119.317C240.669 119.317 241.622 118.639 241.622 116.712C241.622 114.763 240.669 114.107 238.657 114.107C236.602 114.107 235.543 114.806 235.543 116.691V116.86ZM251.52 122.219C247.941 122.219 245.971 120.821 245.971 118.364V118.3H249.148V118.491C249.148 119.444 249.741 119.698 251.542 119.698C253.236 119.698 253.638 119.423 253.638 118.788C253.638 118.195 253.321 118.025 252.071 117.856L249.085 117.496C246.967 117.263 245.781 116.31 245.781 114.531C245.781 112.667 247.369 111.184 251.012 111.184C254.486 111.184 256.455 112.497 256.455 115.081V115.145H253.278V115.018C253.278 114.149 252.855 113.705 250.906 113.705C249.318 113.705 248.915 113.98 248.915 114.658C248.915 115.208 249.212 115.441 250.61 115.611L252.876 115.886C255.714 116.204 256.773 117.157 256.773 118.915C256.773 120.906 254.803 122.219 251.52 122.219ZM267.338 122.007H263.377L260.476 111.396H263.758L265.008 116.246L265.453 119.55H265.664L266.512 115.928L268.121 111.396H272.209L273.797 115.928L274.644 119.55H274.856L275.322 116.246L276.551 111.396H279.791L276.784 122.007H272.823L271.002 116.903L270.218 113.98H269.985L269.18 116.903L267.338 122.007ZM283.817 110.316H280.641V107.817H283.817V110.316ZM283.817 122.007H280.641V111.396H283.817V122.007ZM292.957 122.007H290.33C287.852 122.007 286.349 120.842 286.349 118.173V114.022H284.676V111.396H286.349V109.342H289.526V111.396H292.957V114.022H289.526V117.813C289.526 118.872 289.928 119.148 291.051 119.148H292.957V122.007ZM297.323 122.007H294.147V107.817H297.323V114.636H297.493C297.832 112.836 299.081 111.184 301.792 111.184C304.652 111.184 306.049 113.048 306.049 115.505V122.007H302.872V116.458C302.872 114.679 302.11 114.043 300.119 114.043C297.98 114.043 297.323 114.912 297.323 116.691V122.007ZM313.864 122.007H310.92V107.817H314.097V114.213H314.267C314.627 112.434 315.919 111.184 318.439 111.184C321.616 111.184 323.395 113.323 323.395 116.712C323.395 120.058 321.595 122.219 318.291 122.219C315.834 122.219 314.436 121.16 314.055 119.063H313.864V122.007ZM314.097 116.776C314.097 118.618 315.177 119.317 317.189 119.317C319.244 119.317 320.176 118.639 320.176 116.712C320.176 114.763 319.244 114.086 317.211 114.086C315.156 114.086 314.097 114.763 314.097 116.606V116.776ZM329.1 122.219C326.114 122.219 324.695 120.376 324.695 118.004V111.396H327.872V116.945C327.872 118.66 328.592 119.381 330.604 119.381C332.679 119.381 333.421 118.576 333.421 116.776V111.396H336.598V122.007H333.632V118.766H333.463C333.188 120.545 331.896 122.219 329.1 122.219ZM342.966 122.219C339.662 122.219 337.841 120.058 337.841 116.712C337.841 113.323 339.641 111.184 342.797 111.184C345.317 111.184 346.609 112.434 346.969 114.213H347.16V107.817H350.337V122.007H347.371V119.063H347.202C346.8 121.16 345.402 122.219 342.966 122.219ZM341.06 116.712C341.06 118.639 342.013 119.317 344.046 119.317C346.058 119.317 347.16 118.618 347.16 116.776V116.606C347.16 114.763 346.079 114.086 344.046 114.086C342.013 114.086 341.06 114.763 341.06 116.712ZM356.677 120.927C353.521 120.927 351.7 119.042 351.7 116.055C351.7 113.09 353.627 111.184 356.804 111.184C358.964 111.184 360.51 112.116 360.849 113.959H361.019V111.396H363.984V120.461C363.984 124.167 361.739 125.819 357.948 125.819C354.517 125.819 352.356 124.294 352.356 121.626H355.533C355.533 122.812 355.999 123.172 358.159 123.172C360.193 123.172 360.807 122.748 360.807 120.673V118.279H360.637C360.299 119.847 359.049 120.927 356.677 120.927ZM354.898 116.055C354.898 117.623 355.787 118.195 357.778 118.195C359.811 118.195 360.807 117.623 360.807 116.161V115.928C360.807 114.488 359.79 113.938 357.821 113.938C355.787 113.938 354.898 114.488 354.898 116.055ZM371.302 122.219C367.765 122.219 365.351 120.482 365.351 116.712C365.351 113.323 367.744 111.184 371.238 111.184C374.712 111.184 377.02 113.006 377.02 116.331C377.02 116.712 376.978 116.987 376.936 117.347H368.294C368.379 118.978 369.142 119.677 371.196 119.677C373.081 119.677 373.738 119.19 373.738 118.279V118.067H376.914V118.3C376.914 120.609 374.669 122.219 371.302 122.219ZM371.175 113.662C369.29 113.662 368.485 114.298 368.337 115.674H373.971C373.886 114.276 373.039 113.662 371.175 113.662ZM385.844 122.007H383.218C380.74 122.007 379.236 120.842 379.236 118.173V114.022H377.563V111.396H379.236V109.342H382.413V111.396H385.844V114.022H382.413V117.813C382.413 118.872 382.815 119.148 383.938 119.148H385.844V122.007ZM390.211 110.316H387.034V107.817H390.211V110.316ZM390.211 122.007H387.034V111.396H390.211V122.007ZM395.05 122.007H391.874V111.396H394.817V114.658H395.008C395.283 112.879 396.554 111.184 399.329 111.184C402.23 111.184 403.607 113.048 403.607 115.399V122.007H400.43V116.458C400.43 114.763 399.731 114.043 397.783 114.043C395.771 114.043 395.05 114.848 395.05 116.648V122.007ZM409.873 120.927C406.718 120.927 404.896 119.042 404.896 116.055C404.896 113.09 406.824 111.184 410.001 111.184C412.161 111.184 413.707 112.116 414.046 113.959H414.215V111.396H417.18V120.461C417.18 124.167 414.935 125.819 411.144 125.819C407.713 125.819 405.553 124.294 405.553 121.626H408.73C408.73 122.812 409.196 123.172 411.356 123.172C413.389 123.172 414.003 122.748 414.003 120.673V118.279H413.834C413.495 119.847 412.246 120.927 409.873 120.927ZM408.094 116.055C408.094 117.623 408.984 118.195 410.975 118.195C413.008 118.195 414.003 117.623 414.003 116.161V115.928C414.003 114.488 412.987 113.938 411.017 113.938C408.984 113.938 408.094 114.488 408.094 116.055ZM419.903 124.993H418.78V123.023H419.818C420.241 123.023 420.453 122.918 420.453 122.367V122.007H418.653V118.3H422.741V122.346C422.741 124.125 421.703 124.993 419.903 124.993ZM430.433 122.007H427.49V107.817H430.666V114.213H430.836C431.196 112.434 432.488 111.184 435.008 111.184C438.185 111.184 439.964 113.323 439.964 116.712C439.964 120.058 438.164 122.219 434.86 122.219C432.403 122.219 431.005 121.16 430.624 119.063H430.433V122.007ZM430.666 116.776C430.666 118.618 431.747 119.317 433.759 119.317C435.813 119.317 436.745 118.639 436.745 116.712C436.745 114.763 435.813 114.086 433.78 114.086C431.725 114.086 430.666 114.763 430.666 116.606V116.776ZM444.462 110.316H441.285V107.817H444.462V110.316ZM444.462 122.007H441.285V111.396H444.462V122.007ZM449.302 122.007H446.125V107.817H449.302V122.007ZM454.142 122.007H450.965V107.817H454.142V122.007ZM461.163 122.219C457.584 122.219 455.614 120.821 455.614 118.364V118.3H458.791V118.491C458.791 119.444 459.384 119.698 461.184 119.698C462.878 119.698 463.281 119.423 463.281 118.788C463.281 118.195 462.963 118.025 461.714 117.856L458.727 117.496C456.609 117.263 455.423 116.31 455.423 114.531C455.423 112.667 457.012 111.184 460.655 111.184C464.128 111.184 466.098 112.497 466.098 115.081V115.145H462.921V115.018C462.921 114.149 462.497 113.705 460.549 113.705C458.96 113.705 458.558 113.98 458.558 114.658C458.558 115.208 458.854 115.441 460.252 115.611L462.518 115.886C465.356 116.204 466.415 117.157 466.415 118.915C466.415 120.906 464.446 122.219 461.163 122.219ZM468.735 124.993H467.613V123.023H468.65C469.074 123.023 469.286 122.918 469.286 122.367V122.007H467.485V118.3H471.573V122.346C471.573 124.125 470.535 124.993 468.735 124.993ZM38.0232 148.219C35.7358 148.219 34.3592 147.16 34.3592 145.381C34.3592 143.813 35.524 142.839 37.7902 142.606L42.3438 142.14V141.738C42.3438 140.361 41.7296 139.98 40.0352 139.98C38.4256 139.98 37.769 140.403 37.769 141.611V141.695H34.571V141.632C34.571 139.006 36.7736 137.184 40.2682 137.184C43.8052 137.184 45.4783 139.006 45.4783 141.78V148.007H42.5132V145.571H42.3438C41.8567 147.223 40.3741 148.219 38.0232 148.219ZM37.5572 145.169C37.5572 145.741 38.002 145.974 38.9339 145.974C41.0942 145.974 42.2591 145.465 42.3438 143.962L38.6586 144.385C37.8961 144.449 37.5572 144.66 37.5572 145.169ZM50.2655 148.007H47.0886V137.396H50.0325V140.658H50.2232C50.4985 138.879 51.7692 137.184 54.5437 137.184C57.4453 137.184 58.822 139.048 58.822 141.399V148.007H55.6451V142.458C55.6451 140.763 54.9461 140.043 52.9976 140.043C50.9856 140.043 50.2655 140.848 50.2655 142.648V148.007ZM65.1733 148.219C61.8693 148.219 60.0479 146.058 60.0479 142.712C60.0479 139.323 61.8481 137.184 65.0039 137.184C67.5242 137.184 68.8161 138.434 69.1762 140.213H69.3668V133.817H72.5437V148.007H69.5786V145.063H69.4092C69.0068 147.16 67.6089 148.219 65.1733 148.219ZM63.2672 142.712C63.2672 144.639 64.2202 145.317 66.2534 145.317C68.2655 145.317 69.3668 144.618 69.3668 142.776V142.606C69.3668 140.763 68.2867 140.086 66.2534 140.086C64.2202 140.086 63.2672 140.763 63.2672 142.712ZM82.8509 148.219C79.2716 148.219 77.3019 146.821 77.3019 144.364V144.3H80.4788V144.491C80.4788 145.444 81.0719 145.698 82.8721 145.698C84.5665 145.698 84.9689 145.423 84.9689 144.788C84.9689 144.195 84.6512 144.025 83.4016 143.856L80.4153 143.496C78.2974 143.263 77.1113 142.31 77.1113 140.531C77.1113 138.667 78.6998 137.184 82.3426 137.184C85.816 137.184 87.7857 138.497 87.7857 141.081V141.145H84.6088V141.018C84.6088 140.149 84.1852 139.705 82.2367 139.705C80.6483 139.705 80.2459 139.98 80.2459 140.658C80.2459 141.208 80.5424 141.441 81.9402 141.611L84.2064 141.886C87.0444 142.204 88.1034 143.157 88.1034 144.915C88.1034 146.906 86.1337 148.219 82.8509 148.219ZM92.5622 148.007H89.3853V137.396H92.3292V140.615H92.4986C92.7528 138.836 93.8117 137.184 96.4803 137.184C98.9371 137.184 100.187 138.688 100.42 140.658H100.61C100.864 138.857 101.945 137.184 104.677 137.184C107.409 137.184 108.743 138.984 108.743 141.399V148.007H105.566V142.458C105.566 140.7 104.952 140.043 103.131 140.043C101.203 140.043 100.653 140.806 100.653 142.648V148.007H97.4758V142.458C97.4758 140.7 96.8616 140.043 95.0401 140.043C93.1128 140.043 92.5622 140.806 92.5622 142.648V148.007ZM113.619 148.219C111.332 148.219 109.955 147.16 109.955 145.381C109.955 143.813 111.12 142.839 113.386 142.606L117.94 142.14V141.738C117.94 140.361 117.326 139.98 115.631 139.98C114.022 139.98 113.365 140.403 113.365 141.611V141.695H110.167V141.632C110.167 139.006 112.37 137.184 115.864 137.184C119.401 137.184 121.075 139.006 121.075 141.78V148.007H118.109V145.571H117.94C117.453 147.223 115.97 148.219 113.619 148.219ZM113.153 145.169C113.153 145.741 113.598 145.974 114.53 145.974C116.69 145.974 117.855 145.465 117.94 143.962L114.255 144.385C113.492 144.449 113.153 144.66 113.153 145.169ZM125.862 148.007H122.685V137.396H125.629V140.213H125.819C126.116 138.497 127.238 137.184 129.377 137.184C131.75 137.184 132.724 138.815 132.724 140.891V142.648H129.547V141.547C129.547 140.382 129.081 139.874 127.789 139.874C126.37 139.874 125.862 140.531 125.862 141.865V148.007ZM141.351 148.007H138.724C136.246 148.007 134.743 146.842 134.743 144.173V140.022H133.069V137.396H134.743V135.342H137.92V137.396H141.351V140.022H137.92V143.813C137.92 144.872 138.322 145.148 139.444 145.148H141.351V148.007ZM148.174 148.219C144.637 148.219 142.223 146.482 142.223 142.712C142.223 139.323 144.616 137.184 148.111 137.184C151.584 137.184 153.893 139.006 153.893 142.331C153.893 142.712 153.85 142.987 153.808 143.347H145.167C145.251 144.978 146.014 145.677 148.068 145.677C149.953 145.677 150.61 145.19 150.61 144.279V144.067H153.787V144.3C153.787 146.609 151.542 148.219 148.174 148.219ZM148.047 139.662C146.162 139.662 145.357 140.298 145.209 141.674H150.843C150.758 140.276 149.911 139.662 148.047 139.662ZM158.417 148.007H155.24V137.396H158.184V140.213H158.374C158.671 138.497 159.793 137.184 161.932 137.184C164.305 137.184 165.279 138.815 165.279 140.891V142.648H162.102V141.547C162.102 140.382 161.636 139.874 160.344 139.874C158.925 139.874 158.417 140.531 158.417 141.865V148.007ZM175.056 148.219C171.476 148.219 169.507 146.821 169.507 144.364V144.3H172.683V144.491C172.683 145.444 173.276 145.698 175.077 145.698C176.771 145.698 177.173 145.423 177.173 144.788C177.173 144.195 176.856 144.025 175.606 143.856L172.62 143.496C170.502 143.263 169.316 142.31 169.316 140.531C169.316 138.667 170.904 137.184 174.547 137.184C178.021 137.184 179.99 138.497 179.99 141.081V141.145H176.813V141.018C176.813 140.149 176.39 139.705 174.441 139.705C172.853 139.705 172.45 139.98 172.45 140.658C172.45 141.208 172.747 141.441 174.145 141.611L176.411 141.886C179.249 142.204 180.308 143.157 180.308 144.915C180.308 146.906 178.338 148.219 175.056 148.219ZM184.767 151.607H181.59V137.396H184.534V140.298H184.746C185.127 138.264 186.482 137.184 188.981 137.184C192.243 137.184 194.065 139.344 194.065 142.712C194.065 146.08 192.285 148.219 189.087 148.219C186.631 148.219 185.275 147.011 184.915 145.148H184.767V151.607ZM184.767 142.86C184.767 144.682 185.868 145.317 187.859 145.317C189.892 145.317 190.845 144.639 190.845 142.712C190.845 140.763 189.892 140.107 187.88 140.107C185.826 140.107 184.767 140.806 184.767 142.691V142.86ZM201.019 148.219C197.482 148.219 195.068 146.482 195.068 142.712C195.068 139.323 197.461 137.184 200.956 137.184C204.429 137.184 206.738 139.006 206.738 142.331C206.738 142.712 206.695 142.987 206.653 143.347H198.012C198.096 144.978 198.859 145.677 200.913 145.677C202.798 145.677 203.455 145.19 203.455 144.279V144.067H206.632V144.3C206.632 146.609 204.387 148.219 201.019 148.219ZM200.892 139.662C199.007 139.662 198.202 140.298 198.054 141.674H203.688C203.603 140.276 202.756 139.662 200.892 139.662ZM211.262 148.007H208.085V137.396H211.029V140.658H211.219C211.495 138.879 212.765 137.184 215.54 137.184C218.441 137.184 219.818 139.048 219.818 141.399V148.007H216.641V142.458C216.641 140.763 215.942 140.043 213.994 140.043C211.982 140.043 211.262 140.848 211.262 142.648V148.007ZM226.169 148.219C222.865 148.219 221.044 146.058 221.044 142.712C221.044 139.323 222.844 137.184 226 137.184C228.52 137.184 229.812 138.434 230.172 140.213H230.363V133.817H233.54V148.007H230.575V145.063H230.405C230.003 147.16 228.605 148.219 226.169 148.219ZM224.263 142.712C224.263 144.639 225.216 145.317 227.25 145.317C229.262 145.317 230.363 144.618 230.363 142.776V142.606C230.363 140.763 229.283 140.086 227.25 140.086C225.216 140.086 224.263 140.763 224.263 142.712ZM238.398 136.316H235.221V133.817H238.398V136.316ZM238.398 148.007H235.221V137.396H238.398V148.007ZM243.237 148.007H240.061V137.396H243.005V140.658H243.195C243.47 138.879 244.741 137.184 247.516 137.184C250.417 137.184 251.794 139.048 251.794 141.399V148.007H248.617V142.458C248.617 140.763 247.918 140.043 245.97 140.043C243.958 140.043 243.237 140.848 243.237 142.648V148.007ZM258.061 146.927C254.905 146.927 253.083 145.042 253.083 142.055C253.083 139.09 255.011 137.184 258.188 137.184C260.348 137.184 261.894 138.116 262.233 139.959H262.402V137.396H265.367V146.461C265.367 150.167 263.122 151.819 259.331 151.819C255.9 151.819 253.74 150.294 253.74 147.626H256.917C256.917 148.812 257.383 149.172 259.543 149.172C261.576 149.172 262.191 148.748 262.191 146.673V144.279H262.021C261.682 145.847 260.433 146.927 258.061 146.927ZM256.282 142.055C256.282 143.623 257.171 144.195 259.162 144.195C261.195 144.195 262.191 143.623 262.191 142.161V141.928C262.191 140.488 261.174 139.938 259.204 139.938C257.171 139.938 256.282 140.488 256.282 142.055ZM270.928 148.007H266.84V144.3H270.928V148.007Z" fill="black"/>
<path d="M48.674 541.539H40.2776L34.3286 516.312H40.6541L43.704 530.62L44.57 536.155H44.9841L46.1514 530.62L50.3684 516.312H58.7648L62.9442 530.62L64.1114 536.155H64.5256L65.3916 530.62L68.4414 516.312H74.6164L68.6297 541.539H60.2333L56.468 528.926L54.6984 521.659H54.2842L52.5146 528.926L48.674 541.539ZM82.2136 541.539H76.5658V516.312H82.2136V528.436H82.5148C83.1173 525.236 85.3387 522.299 90.1582 522.299C95.2413 522.299 97.7263 525.612 97.7263 529.98V541.539H92.0785V531.674C92.0785 528.511 90.723 527.382 87.1837 527.382C83.3808 527.382 82.2136 528.926 82.2136 532.088V541.539ZM106.375 541.916C102.308 541.916 99.861 540.033 99.861 536.87C99.861 534.084 101.932 532.352 105.961 531.938L114.056 531.109V530.394C114.056 527.947 112.964 527.269 109.952 527.269C107.09 527.269 105.923 528.022 105.923 530.168V530.319H100.238V530.206C100.238 525.537 104.153 522.299 110.366 522.299C116.654 522.299 119.628 525.537 119.628 530.469V541.539H114.357V537.209H114.056C113.19 540.146 110.554 541.916 106.375 541.916ZM105.546 536.494C105.546 537.51 106.337 537.924 107.994 537.924C111.834 537.924 113.905 537.021 114.056 534.347L107.504 535.101C106.149 535.213 105.546 535.59 105.546 536.494ZM135.782 541.539H131.113C126.708 541.539 124.035 539.468 124.035 534.724V527.344H121.06V522.675H124.035V519.023H129.683V522.675H135.782V527.344H129.683V534.084C129.683 535.967 130.398 536.456 132.394 536.456H135.782V541.539ZM149.506 541.916C145.439 541.916 142.992 540.033 142.992 536.87C142.992 534.084 145.063 532.352 149.092 531.938L157.187 531.109V530.394C157.187 527.947 156.095 527.269 153.083 527.269C150.221 527.269 149.054 528.022 149.054 530.168V530.319H143.368V530.206C143.368 525.537 147.284 522.299 153.497 522.299C159.785 522.299 162.759 525.537 162.759 530.469V541.539H157.488V537.209H157.187C156.321 540.146 153.685 541.916 149.506 541.916ZM148.677 536.494C148.677 537.51 149.468 537.924 151.125 537.924C154.965 537.924 157.036 537.021 157.187 534.347L150.635 535.101C149.28 535.213 148.677 535.59 148.677 536.494ZM171.27 541.539H165.622V522.675H170.856V527.683H171.195C171.722 524.633 173.717 522.299 177.52 522.299C181.737 522.299 183.469 525.198 183.469 528.888V532.013H177.821V530.055C177.821 527.984 176.993 527.081 174.696 527.081C172.173 527.081 171.27 528.248 171.27 530.62V541.539ZM195.53 541.916C189.242 541.916 184.95 538.828 184.95 532.126C184.95 526.102 189.204 522.299 195.417 522.299C201.592 522.299 205.696 525.537 205.696 531.448C205.696 532.126 205.621 532.615 205.545 533.256H190.183C190.334 536.155 191.689 537.397 195.342 537.397C198.693 537.397 199.86 536.531 199.86 534.912V534.536H205.508V534.95C205.508 539.054 201.517 541.916 195.53 541.916ZM195.304 526.704C191.953 526.704 190.522 527.834 190.259 530.281H200.274C200.123 527.796 198.617 526.704 195.304 526.704ZM225.358 547.94H219.71V522.675H224.944V527.834H225.32C225.998 524.219 228.408 522.299 232.851 522.299C238.649 522.299 241.887 526.139 241.887 532.126C241.887 538.113 238.725 541.916 233.039 541.916C228.671 541.916 226.262 539.769 225.622 536.456H225.358V547.94ZM225.358 532.39C225.358 535.628 227.316 536.757 230.855 536.757C234.47 536.757 236.164 535.552 236.164 532.126C236.164 528.662 234.47 527.495 230.893 527.495C227.241 527.495 225.358 528.737 225.358 532.088V532.39ZM250.034 541.916C245.968 541.916 243.52 540.033 243.52 536.87C243.52 534.084 245.591 532.352 249.62 531.938L257.715 531.109V530.394C257.715 527.947 256.623 527.269 253.611 527.269C250.749 527.269 249.582 528.022 249.582 530.168V530.319H243.897V530.206C243.897 525.537 247.813 522.299 254.025 522.299C260.313 522.299 263.288 525.537 263.288 530.469V541.539H258.016V537.209H257.715C256.849 540.146 254.213 541.916 250.034 541.916ZM249.206 536.494C249.206 537.51 249.996 537.924 251.653 537.924C255.494 537.924 257.564 537.021 257.715 534.347L251.164 535.101C249.808 535.213 249.206 535.59 249.206 536.494ZM269.765 547.94H266.677V542.819H271.309C272.702 542.819 273.304 542.443 273.681 541.614L264.456 522.675H270.857L274.848 531.298L276.429 535.741H276.806L278.312 531.26L281.889 522.675H288.177L278.839 542.895C277.032 546.848 274.509 547.94 269.765 547.94ZM299.589 541.916C293.15 541.916 288.82 538.075 288.82 532.126C288.82 526.102 293.15 522.299 299.589 522.299C306.028 522.299 310.358 526.102 310.358 532.126C310.358 538.075 306.028 541.916 299.589 541.916ZM299.589 536.908C303.392 536.908 304.747 535.439 304.747 532.126C304.747 528.813 303.392 527.269 299.589 527.269C295.748 527.269 294.431 528.813 294.431 532.126C294.431 535.439 295.748 536.908 299.589 536.908ZM320.458 541.916C315.149 541.916 312.626 538.64 312.626 534.423V522.675H318.274V532.54C318.274 535.59 319.554 536.87 323.131 536.87C326.821 536.87 328.139 535.439 328.139 532.239V522.675H333.787V541.539H328.516V535.778H328.214C327.725 538.941 325.428 541.916 320.458 541.916ZM349.966 541.539H345.297C340.892 541.539 338.218 539.468 338.218 534.724V527.344H335.244V522.675H338.218V519.023H343.866V522.675H349.966V527.344H343.866V534.084C343.866 535.967 344.582 536.456 346.577 536.456H349.966V541.539ZM44.9465 587.916C38.5833 587.916 35.0816 585.431 35.0816 581.063V580.95H40.7294V581.289C40.7294 582.983 41.7837 583.435 44.9841 583.435C47.9963 583.435 48.7117 582.945 48.7117 581.816C48.7117 580.762 48.1469 580.46 45.9254 580.159L40.6165 579.519C36.8513 579.105 34.7427 577.411 34.7427 574.248C34.7427 570.934 37.5667 568.299 44.0428 568.299C50.2178 568.299 53.7194 570.633 53.7194 575.227V575.34H48.0716V575.114C48.0716 573.57 47.3186 572.779 43.8546 572.779C41.0307 572.779 40.3153 573.269 40.3153 574.474C40.3153 575.453 40.8424 575.867 43.3274 576.168L47.3562 576.658C52.4016 577.222 54.2842 578.917 54.2842 582.042C54.2842 585.581 50.7826 587.916 44.9465 587.916ZM66.6162 587.916C60.14 587.916 55.9983 584.075 55.9983 578.126C55.9983 572.102 60.14 568.299 66.6162 568.299C72.6782 568.299 76.8199 571.537 76.8199 576.432V576.959H71.2098V576.658C71.2098 574.248 69.4401 573.382 66.5032 573.382C63.1522 573.382 61.6084 574.624 61.6084 578.126C61.6084 581.59 63.1522 582.833 66.5032 582.833C69.4401 582.833 71.2098 581.967 71.2098 579.557V579.256H76.8199V579.783C76.8199 584.64 72.6782 587.916 66.6162 587.916ZM84.8978 587.539H79.25V562.312H84.8978V574.436H85.199C85.8014 571.236 88.0229 568.299 92.8424 568.299C97.9254 568.299 100.41 571.612 100.41 575.98V587.539H94.7627V577.674C94.7627 574.511 93.4072 573.382 89.8679 573.382C86.065 573.382 84.8978 574.926 84.8978 578.088V587.539ZM113.276 587.916C106.988 587.916 102.696 584.828 102.696 578.126C102.696 572.102 106.95 568.299 113.163 568.299C119.338 568.299 123.442 571.537 123.442 577.448C123.442 578.126 123.367 578.615 123.292 579.256H107.929C108.08 582.155 109.436 583.397 113.088 583.397C116.439 583.397 117.606 582.531 117.606 580.912V580.536H123.254V580.95C123.254 585.054 119.263 587.916 113.276 587.916ZM113.05 572.704C109.699 572.704 108.268 573.834 108.005 576.281H118.02C117.87 573.796 116.364 572.704 113.05 572.704ZM134.271 587.916C128.398 587.916 125.159 584.075 125.159 578.126C125.159 572.102 128.36 568.299 133.97 568.299C138.451 568.299 140.747 570.52 141.388 573.683H141.726V562.312H147.374V587.539H142.103V582.305H141.802C141.086 586.033 138.601 587.916 134.271 587.916ZM130.883 578.126C130.883 581.552 132.577 582.757 136.192 582.757C139.768 582.757 141.726 581.515 141.726 578.239V577.938C141.726 574.662 139.806 573.457 136.192 573.457C132.577 573.457 130.883 574.662 130.883 578.126ZM158.157 587.916C152.848 587.916 150.325 584.64 150.325 580.423V568.675H155.973V578.54C155.973 581.59 157.253 582.87 160.83 582.87C164.52 582.87 165.838 581.439 165.838 578.239V568.675H171.485V587.539H166.214V581.778H165.913C165.423 584.941 163.127 587.916 158.157 587.916ZM180.021 587.539H174.373V562.312H180.021V587.539ZM192.993 587.916C186.705 587.916 182.413 584.828 182.413 578.126C182.413 572.102 186.667 568.299 192.88 568.299C199.055 568.299 203.159 571.537 203.159 577.448C203.159 578.126 203.084 578.615 203.008 579.256H187.646C187.797 582.155 189.152 583.397 192.805 583.397C196.156 583.397 197.323 582.531 197.323 580.912V580.536H202.971V580.95C202.971 585.054 198.979 587.916 192.993 587.916ZM192.767 572.704C189.416 572.704 187.985 573.834 187.721 576.281H197.737C197.586 573.796 196.08 572.704 192.767 572.704ZM215.08 587.916C208.717 587.916 205.215 585.431 205.215 581.063V580.95H210.863V581.289C210.863 582.983 211.917 583.435 215.118 583.435C218.13 583.435 218.845 582.945 218.845 581.816C218.845 580.762 218.28 580.46 216.059 580.159L210.75 579.519C206.985 579.105 204.876 577.411 204.876 574.248C204.876 570.934 207.7 568.299 214.176 568.299C220.351 568.299 223.853 570.633 223.853 575.227V575.34H218.205V575.114C218.205 573.57 217.452 572.779 213.988 572.779C211.164 572.779 210.449 573.269 210.449 574.474C210.449 575.453 210.976 575.867 213.461 576.168L217.49 576.658C222.535 577.222 224.418 578.917 224.418 582.042C224.418 585.581 220.916 587.916 215.08 587.916ZM244.141 579.218H238.493V577.9C238.493 575.151 240.413 573.871 242.747 572.968L245.383 571.913C247.19 571.198 248.056 570.633 248.056 569.353C248.056 568.073 247.303 567.094 242.936 567.094C238.342 567.094 236.949 568.299 236.949 570.709V572.177H231.377V571.16C231.377 566.266 234.728 561.936 243.35 561.936C250.767 561.936 253.704 565.174 253.704 569.165C253.704 573.081 251.031 574.662 248.546 575.641L245.76 576.733C244.367 577.298 244.141 577.825 244.141 578.766V579.218ZM244.592 587.539H238.116V581.402H244.592V587.539Z" fill="white"/>
<path d="M378.06 587.784H375.942V580.95H373.513V579.496H373.909C374.954 579.496 375.66 579.256 376.126 578.324H378.06V587.784ZM383.709 587.925C380.659 587.925 378.979 586.005 378.979 583.054C378.979 580.117 380.659 578.183 383.709 578.183C386.744 578.183 388.439 580.117 388.439 583.054C388.439 586.005 386.744 587.925 383.709 587.925ZM383.709 585.864C385.502 585.864 386.166 585.087 386.166 583.054C386.166 581.021 385.502 580.244 383.709 580.244C381.901 580.244 381.252 581.021 381.252 583.054C381.252 585.087 381.901 585.864 383.709 585.864ZM390.751 588.067H388.492L393.575 578.042H395.834L390.751 588.067ZM399.824 587.784H397.382C397.382 583.534 399.81 581.656 401.589 580.386V580.23H395.617V578.324H403.792V580.033C401.166 582.518 399.824 584.226 399.824 587.784ZM405.794 588.067H403.535L408.618 578.042H410.877L405.794 588.067ZM419.245 587.784H410.844V586.429C410.844 584.763 411.564 583.901 413.555 583.238L415.983 582.447C416.83 582.15 417.141 581.868 417.141 581.247C417.141 580.527 416.746 580.117 415.192 580.117C413.456 580.117 412.933 580.64 412.933 581.685V581.868H410.858V581.685C410.858 579.849 412.114 578.183 415.263 578.183C418.115 578.183 419.273 579.482 419.273 581.275C419.273 582.955 418.172 583.788 416.491 584.254L414.43 584.819C413.512 585.101 413.074 585.37 413.074 586.118L415.545 585.878H419.245V587.784ZM424.689 587.925C421.639 587.925 419.959 586.005 419.959 583.054C419.959 580.117 421.639 578.183 424.689 578.183C427.724 578.183 429.419 580.117 429.419 583.054C429.419 586.005 427.724 587.925 424.689 587.925ZM424.689 585.864C426.482 585.864 427.145 585.087 427.145 583.054C427.145 581.021 426.482 580.244 424.689 580.244C422.881 580.244 422.232 581.021 422.232 583.054C422.232 585.087 422.881 585.864 424.689 585.864ZM438.48 587.784H430.079V586.429C430.079 584.763 430.799 583.901 432.79 583.238L435.218 582.447C436.065 582.15 436.376 581.868 436.376 581.247C436.376 580.527 435.981 580.117 434.428 580.117C432.691 580.117 432.168 580.64 432.168 581.685V581.868H430.093V581.685C430.093 579.849 431.35 578.183 434.498 578.183C437.35 578.183 438.508 579.482 438.508 581.275C438.508 582.955 437.407 583.788 435.727 584.254L433.665 584.819C432.747 585.101 432.31 585.37 432.31 586.118L434.781 585.878H438.48V587.784ZM447.171 587.784H445.053V585.977H439.052V584.537L444.714 578.324H447.171V584.071H448.611V585.977H447.171V587.784ZM442.003 584.071H445.053V580.767H444.898L442.003 583.915V584.071Z" fill="white"/>
<path d="M464.04 481.8C499.709 492.665 537.433 472.558 548.299 436.888C559.164 401.218 539.056 363.494 503.386 352.629C467.717 341.764 429.993 361.872 419.127 397.542C408.262 433.211 428.37 470.935 464.04 481.8Z" stroke="black" stroke-width="14.4573" stroke-miterlimit="10"/>
<path d="M573.134 492.791C614.374 492.886 647.905 449.53 648.028 395.954C648.15 342.378 614.818 298.87 573.578 298.776C532.338 298.681 498.807 342.037 498.685 395.613C498.562 449.189 531.895 492.697 573.134 492.791Z" stroke="black" stroke-width="14.4573" stroke-miterlimit="10"/>
<path d="M617.958 357.603C659.198 357.698 692.729 314.342 692.852 260.766C692.974 207.19 659.642 163.682 618.402 163.588C577.162 163.493 543.631 206.849 543.509 260.425C543.386 314.001 576.718 357.509 617.958 357.603Z" stroke="black" stroke-width="14.4573" stroke-miterlimit="10"/>
<path d="M37.9385 402.994L34.7616 402.994L34.7616 388.803L39.061 388.803L42.3861 395.793L43.7204 399.118L43.9534 399.118L45.2453 395.793L48.4646 388.803L52.7852 388.803L52.7852 402.994L49.6083 402.994L49.6083 395.793L49.7142 393.569L49.4812 393.569L48.6552 395.793L45.6901 402.146L41.8355 402.146L38.8704 395.793L38.0444 393.569L37.8114 393.569L37.9385 395.793L37.9385 402.994ZM56.485 406.594L54.7483 406.594L54.7483 403.714L57.3533 403.714C58.137 403.714 58.4758 403.502 58.6876 403.036L53.4987 392.383L57.0992 392.383L59.3442 397.233L60.2337 399.732L60.4455 399.732L61.2927 397.212L63.3047 392.383L66.8417 392.383L61.5892 403.756C60.5726 405.98 59.1536 406.594 56.485 406.594ZM74.0509 406.594L70.874 406.594L70.874 392.383L73.8179 392.383L73.8179 395.284L74.0297 395.284C74.411 393.251 75.7664 392.171 78.2656 392.171C81.5272 392.171 83.3486 394.331 83.3486 397.699C83.3486 401.066 81.5696 403.205 78.3715 403.205C75.9147 403.205 74.5592 401.998 74.1992 400.134L74.0509 400.134L74.0509 406.594ZM74.0509 397.847C74.0509 399.668 75.1522 400.304 77.1431 400.304C79.1763 400.304 80.1294 399.626 80.1294 397.699C80.1294 395.75 79.1763 395.094 77.1643 395.094C75.1099 395.094 74.0509 395.793 74.0509 397.678L74.0509 397.847ZM89.0537 403.205C86.0674 403.205 84.6484 401.363 84.6484 398.991L84.6484 392.383L87.8253 392.383L87.8253 397.932C87.8253 399.647 88.5454 400.367 90.5574 400.367C92.633 400.367 93.3743 399.563 93.3743 397.762L93.3743 392.383L96.5512 392.383L96.5512 402.994L93.586 402.994L93.586 399.753L93.4166 399.753C93.1413 401.532 91.8493 403.205 89.0537 403.205ZM101.352 402.994L98.1755 402.994L98.1755 392.383L101.119 392.383L101.119 395.2L101.31 395.2C101.607 393.484 102.729 392.171 104.868 392.171C107.24 392.171 108.215 393.802 108.215 395.877L108.215 397.635L105.038 397.635L105.038 396.534C105.038 395.369 104.572 394.861 103.28 394.861C101.861 394.861 101.352 395.517 101.352 396.852L101.352 402.994ZM114.723 403.205C111.144 403.205 109.174 401.808 109.174 399.351L109.174 399.287L112.351 399.287L112.351 399.478C112.351 400.431 112.944 400.685 114.745 400.685C116.439 400.685 116.841 400.41 116.841 399.774C116.841 399.181 116.524 399.012 115.274 398.842L112.288 398.482C110.17 398.249 108.984 397.296 108.984 395.517C108.984 393.654 110.572 392.171 114.215 392.171C117.688 392.171 119.658 393.484 119.658 396.068L119.658 396.132L116.481 396.132L116.481 396.004C116.481 395.136 116.058 394.691 114.109 394.691C112.521 394.691 112.118 394.967 112.118 395.644C112.118 396.195 112.415 396.428 113.813 396.597L116.079 396.873C118.917 397.191 119.976 398.144 119.976 399.901C119.976 401.892 118.006 403.205 114.723 403.205ZM126.891 403.205C123.354 403.205 120.94 401.469 120.94 397.699C120.94 394.31 123.333 392.171 126.828 392.171C130.301 392.171 132.61 393.992 132.61 397.318C132.61 397.699 132.567 397.974 132.525 398.334L123.884 398.334C123.969 399.965 124.731 400.664 126.786 400.664C128.67 400.664 129.327 400.177 129.327 399.266L129.327 399.054L132.504 399.054L132.504 399.287C132.504 401.596 130.259 403.205 126.891 403.205ZM126.764 394.649C124.879 394.649 124.075 395.284 123.926 396.661L129.56 396.661C129.475 395.263 128.628 394.649 126.764 394.649ZM140.402 402.994L137.225 402.994L137.225 388.803L140.402 388.803L140.402 394.437L147.815 394.437L147.815 388.803L150.992 388.803L150.992 402.994L147.815 402.994L147.815 397.296L140.402 397.296L140.402 402.994ZM165.7 405.98L161.57 405.98L159.367 403.184C155.026 402.93 152.378 400.113 152.378 395.899C152.378 391.472 155.301 388.592 160.003 388.592C164.81 388.592 167.712 391.472 167.712 395.899C167.712 399.351 165.954 401.871 162.883 402.803L165.7 405.98ZM160.003 400.156C163.116 400.156 164.323 399.054 164.323 395.899C164.323 392.743 163.116 391.642 160.003 391.642C156.889 391.642 155.746 392.743 155.746 395.899C155.746 399.054 156.889 400.156 160.003 400.156Z" fill="black"/>
<path d="M480.187 587.784L478.069 587.784L478.069 580.71L480.031 580.71L480.031 582.856L480.144 582.856C480.314 581.67 481.02 580.569 482.799 580.569C484.437 580.569 485.27 581.572 485.425 582.885L485.552 582.885C485.722 581.685 486.442 580.569 488.263 580.569C490.085 580.569 490.974 581.769 490.974 583.379L490.974 587.784L488.856 587.784L488.856 584.085C488.856 582.913 488.447 582.475 487.232 582.475C485.948 582.475 485.58 582.984 485.58 584.212L485.58 587.784L483.463 587.784L483.463 584.085C483.463 582.913 483.053 582.475 481.839 582.475C480.554 582.475 480.187 582.984 480.187 584.212L480.187 587.784ZM493.406 590.185L492.248 590.185L492.248 588.264L493.985 588.264C494.507 588.264 494.733 588.123 494.874 587.812L491.415 580.71L493.815 580.71L495.312 583.944L495.905 585.61L496.046 585.61L496.611 583.93L497.952 580.71L500.31 580.71L496.809 588.292C496.131 589.775 495.185 590.185 493.406 590.185ZM502.938 590.185L500.82 590.185L500.82 580.71L502.783 580.71L502.783 582.645L502.924 582.645C503.178 581.289 504.082 580.569 505.748 580.569C507.922 580.569 509.137 582.009 509.137 584.254C509.137 586.499 507.95 587.925 505.818 587.925C504.181 587.925 503.277 587.121 503.037 585.878L502.938 585.878L502.938 590.185ZM502.938 584.353C502.938 585.567 503.672 585.991 504.999 585.991C506.355 585.991 506.99 585.539 506.99 584.254C506.99 582.955 506.355 582.518 505.014 582.518C503.644 582.518 502.938 582.984 502.938 584.24L502.938 584.353ZM512.94 587.925C510.949 587.925 510.003 586.697 510.003 585.116L510.003 580.71L512.121 580.71L512.121 584.41C512.121 585.553 512.601 586.033 513.942 586.033C515.326 586.033 515.82 585.497 515.82 584.297L515.82 580.71L517.938 580.71L517.938 587.784L515.961 587.784L515.961 585.624L515.848 585.624C515.665 586.81 514.804 587.925 512.94 587.925ZM521.139 587.784L519.021 587.784L519.021 580.71L520.984 580.71L520.984 582.588L521.111 582.588C521.308 581.444 522.057 580.569 523.483 580.569C525.064 580.569 525.714 581.656 525.714 583.04L525.714 584.212L523.596 584.212L523.596 583.478C523.596 582.701 523.285 582.362 522.424 582.362C521.478 582.362 521.139 582.8 521.139 583.69L521.139 587.784ZM530.053 587.925C527.667 587.925 526.354 586.993 526.354 585.356L526.354 585.313L528.472 585.313L528.472 585.44C528.472 586.076 528.867 586.245 530.067 586.245C531.197 586.245 531.465 586.062 531.465 585.638C531.465 585.243 531.253 585.13 530.42 585.017L528.429 584.777C527.017 584.621 526.227 583.986 526.227 582.8C526.227 581.557 527.286 580.569 529.714 580.569C532.03 580.569 533.343 581.444 533.343 583.167L533.343 583.209L531.225 583.209L531.225 583.125C531.225 582.546 530.943 582.249 529.644 582.249C528.585 582.249 528.316 582.433 528.316 582.885C528.316 583.252 528.514 583.407 529.446 583.52L530.957 583.704C532.849 583.915 533.555 584.551 533.555 585.723C533.555 587.05 532.242 587.925 530.053 587.925ZM538.165 587.925C535.807 587.925 534.197 586.768 534.197 584.254C534.197 581.995 535.793 580.569 538.123 580.569C540.438 580.569 541.977 581.783 541.977 584C541.977 584.254 541.949 584.438 541.921 584.678L536.16 584.678C536.217 585.765 536.725 586.231 538.094 586.231C539.351 586.231 539.789 585.906 539.789 585.299L539.789 585.158L541.907 585.158L541.907 585.313C541.907 586.852 540.41 587.925 538.165 587.925ZM538.08 582.221C536.824 582.221 536.287 582.645 536.188 583.562L539.944 583.562C539.888 582.631 539.323 582.221 538.08 582.221ZM544.993 590.185L542.875 590.185L542.875 580.71L544.838 580.71L544.838 582.645L544.979 582.645C545.233 581.289 546.137 580.569 547.803 580.569C549.978 580.569 551.192 582.009 551.192 584.254C551.192 586.499 550.006 587.925 547.874 587.925C546.236 587.925 545.332 587.121 545.092 585.878L544.993 585.878L544.993 590.185ZM544.993 584.353C544.993 585.567 545.728 585.991 547.055 585.991C548.41 585.991 549.046 585.539 549.046 584.254C549.046 582.955 548.41 582.518 547.069 582.518C545.699 582.518 544.993 582.984 544.993 584.24L544.993 584.353ZM554.247 587.925C552.722 587.925 551.804 587.219 551.804 586.033C551.804 584.989 552.581 584.339 554.092 584.184L557.127 583.873L557.127 583.605C557.127 582.687 556.718 582.433 555.588 582.433C554.515 582.433 554.077 582.715 554.077 583.52L554.077 583.577L551.945 583.577L551.945 583.534C551.945 581.783 553.414 580.569 555.744 580.569C558.102 580.569 559.217 581.783 559.217 583.633L559.217 587.784L557.24 587.784L557.24 586.16L557.127 586.16C556.803 587.262 555.814 587.925 554.247 587.925ZM553.936 585.892C553.936 586.273 554.233 586.429 554.854 586.429C556.294 586.429 557.071 586.09 557.127 585.087L554.67 585.37C554.162 585.412 553.936 585.553 553.936 585.892ZM561.646 590.185L560.488 590.185L560.488 588.264L562.225 588.264C562.747 588.264 562.973 588.123 563.114 587.812L559.655 580.71L562.055 580.71L563.552 583.944L564.145 585.61L564.286 585.61L564.851 583.93L566.192 580.71L568.55 580.71L565.049 588.292C564.371 589.775 563.425 590.185 561.646 590.185ZM571.644 587.784L568.919 587.784L568.919 585.313L571.644 585.313L571.644 587.784ZM576.401 587.925C573.973 587.925 572.42 586.485 572.42 584.254C572.42 581.995 573.973 580.569 576.401 580.569C578.674 580.569 580.228 581.783 580.228 583.619L580.228 583.817L578.124 583.817L578.124 583.704C578.124 582.8 577.46 582.475 576.359 582.475C575.102 582.475 574.523 582.941 574.523 584.254C574.523 585.553 575.102 586.019 576.359 586.019C577.46 586.019 578.124 585.694 578.124 584.791L578.124 584.678L580.228 584.678L580.228 584.876C580.228 586.697 578.674 587.925 576.401 587.925ZM584.909 587.925C582.494 587.925 580.871 586.485 580.871 584.254C580.871 581.995 582.494 580.569 584.909 580.569C587.323 580.569 588.947 581.995 588.947 584.254C588.947 586.485 587.323 587.925 584.909 587.925ZM584.909 586.047C586.335 586.047 586.843 585.497 586.843 584.254C586.843 583.012 586.335 582.433 584.909 582.433C583.469 582.433 582.974 583.012 582.974 584.254C582.974 585.497 583.469 586.047 584.909 586.047ZM591.93 587.784L589.812 587.784L589.812 580.71L591.775 580.71L591.775 582.856L591.888 582.856C592.057 581.67 592.763 580.569 594.542 580.569C596.18 580.569 597.013 581.572 597.168 582.885L597.295 582.885C597.465 581.685 598.185 580.569 600.006 580.569C601.828 580.569 602.717 581.769 602.717 583.379L602.717 587.784L600.599 587.784L600.599 584.085C600.599 582.913 600.19 582.475 598.976 582.475C597.691 582.475 597.324 582.984 597.324 584.212L597.324 587.784L595.206 587.784L595.206 584.085C595.206 582.913 594.796 582.475 593.582 582.475C592.297 582.475 591.93 582.984 591.93 584.212L591.93 587.784Z" fill="white"/>
</g>
<defs>
<clipPath id="clip0_1_3626">
<rect width="635.38" height="635.38" fill="white" transform="translate(0.380432)"/>
</clipPath>
</defs>
</svg>
