<svg width="636" height="636" viewBox="0 0 636 636" fill="none" xmlns="http://www.w3.org/2000/svg">
<g clip-path="url(#clip0_1_3604)">
<rect width="635.38" height="635.38" fill="#FF645C"/>
<rect y="423.586" width="635.38" height="211.793" fill="black"/>
<path d="M41.8362 70.0068H37.1132L33.7669 55.8167H37.325L39.0406 63.8648L39.5277 66.9782H39.7607L40.4172 63.8648L42.7893 55.8167H47.5123L49.8632 63.8648L50.5198 66.9782H50.7527L51.2399 63.8648L52.9554 55.8167H56.4288L53.0613 70.0068H48.3383L46.2204 62.9118L45.2249 58.8241H44.992L43.9965 62.9118L41.8362 70.0068ZM63.159 70.2186C59.6221 70.2186 57.2076 68.4819 57.2076 64.712C57.2076 61.3233 59.6009 59.1842 63.0955 59.1842C66.5689 59.1842 68.8775 61.0056 68.8775 64.3308C68.8775 64.712 68.8351 64.9873 68.7928 65.3474H60.1516C60.2363 66.9782 60.9988 67.6771 63.0531 67.6771C64.9381 67.6771 65.5947 67.19 65.5947 66.2793V66.0675H68.7716V66.3004C68.7716 68.609 66.5266 70.2186 63.159 70.2186ZM63.032 61.6622C61.147 61.6622 60.3422 62.2976 60.1939 63.6742H65.8276C65.7429 62.2764 64.8958 61.6622 63.032 61.6622ZM76.6695 70.0068H73.4926V55.8167H76.6695V70.0068ZM83.9873 70.2186C80.3656 70.2186 77.93 68.0583 77.93 64.712C77.93 61.3233 80.3656 59.1842 83.9873 59.1842C87.6089 59.1842 90.0446 61.3233 90.0446 64.712C90.0446 68.0583 87.6089 70.2186 83.9873 70.2186ZM83.9873 67.4018C86.1264 67.4018 86.8888 66.5758 86.8888 64.712C86.8888 62.8482 86.1264 61.9799 83.9873 61.9799C81.827 61.9799 81.0857 62.8482 81.0857 64.712C81.0857 66.5758 81.827 67.4018 83.9873 67.4018ZM99.2419 70.0068H95.3237L90.4948 59.396H94.0317L97.2087 66.9147H97.4204L100.619 59.396H104.092L99.2419 70.0068ZM110.564 70.2186C107.027 70.2186 104.613 68.4819 104.613 64.712C104.613 61.3233 107.006 59.1842 110.501 59.1842C113.974 59.1842 116.283 61.0056 116.283 64.3308C116.283 64.712 116.24 64.9873 116.198 65.3474H107.557C107.642 66.9782 108.404 67.6771 110.458 67.6771C112.343 67.6771 113 67.19 113 66.2793V66.0675H116.177V66.3004C116.177 68.609 113.932 70.2186 110.564 70.2186ZM110.437 61.6622C108.552 61.6622 107.748 62.2976 107.599 63.6742H113.233C113.148 62.2764 112.301 61.6622 110.437 61.6622ZM127.343 70.0068H124.166V55.8167H127.343V70.0068ZM134.639 70.2186C131.102 70.2186 128.688 68.4819 128.688 64.712C128.688 61.3233 131.081 59.1842 134.576 59.1842C138.049 59.1842 140.358 61.0056 140.358 64.3308C140.358 64.712 140.315 64.9873 140.273 65.3474H131.632C131.717 66.9782 132.479 67.6771 134.533 67.6771C136.418 67.6771 137.075 67.19 137.075 66.2793V66.0675H140.252V66.3004C140.252 68.609 138.007 70.2186 134.639 70.2186ZM134.512 61.6622C132.627 61.6622 131.822 62.2976 131.674 63.6742H137.308C137.223 62.2764 136.376 61.6622 134.512 61.6622ZM144.967 70.2186C142.679 70.2186 141.303 69.1597 141.303 67.3806C141.303 65.8133 142.467 64.8391 144.734 64.6061L149.287 64.1402V63.7377C149.287 62.3611 148.673 61.9799 146.979 61.9799C145.369 61.9799 144.712 62.4034 144.712 63.6107V63.6954H141.514V63.6319C141.514 61.0056 143.717 59.1842 147.212 59.1842C150.749 59.1842 152.422 61.0056 152.422 63.7801V70.0068H149.457V67.5712H149.287C148.8 69.2232 147.318 70.2186 144.967 70.2186ZM144.501 67.1688C144.501 67.7406 144.945 67.9736 145.877 67.9736C148.038 67.9736 149.202 67.4653 149.287 65.9616L145.602 66.3852C144.84 66.4487 144.501 66.6605 144.501 67.1688ZM157.209 70.0068H154.032V59.396H156.976V62.2128H157.167C157.463 60.4973 158.586 59.1842 160.725 59.1842C163.097 59.1842 164.071 60.815 164.071 62.8906V64.6485H160.894V63.5471C160.894 62.3823 160.428 61.874 159.136 61.874C157.717 61.874 157.209 62.5305 157.209 63.8648V70.0068ZM168.398 70.0068H165.222V59.396H168.165V62.6576H168.356C168.631 60.8785 169.902 59.1842 172.677 59.1842C175.578 59.1842 176.955 61.048 176.955 63.3989V70.0068H173.778V64.4578C173.778 62.7635 173.079 62.0434 171.131 62.0434C169.119 62.0434 168.398 62.8482 168.398 64.6485V70.0068ZM181.739 58.3158H178.562V55.8167H181.739V58.3158ZM181.739 70.0068H178.562V59.396H181.739V70.0068ZM186.579 70.0068H183.402V59.396H186.346V62.6576H186.536C186.812 60.8785 188.082 59.1842 190.857 59.1842C193.759 59.1842 195.135 61.048 195.135 63.3989V70.0068H191.958V64.4578C191.958 62.7635 191.259 62.0434 189.311 62.0434C187.299 62.0434 186.579 62.8482 186.579 64.6485V70.0068ZM201.402 68.9267C198.246 68.9267 196.425 67.0417 196.425 64.0554C196.425 61.0903 198.352 59.1842 201.529 59.1842C203.689 59.1842 205.235 60.1161 205.574 61.9587H205.744V59.396H208.709V68.4607C208.709 72.1671 206.464 73.8191 202.673 73.8191C199.241 73.8191 197.081 72.2942 197.081 69.6256H200.258C200.258 70.8117 200.724 71.1717 202.884 71.1717C204.918 71.1717 205.532 70.7481 205.532 68.6725V66.2793H205.362C205.023 67.8465 203.774 68.9267 201.402 68.9267ZM199.623 64.0554C199.623 65.6227 200.512 66.1946 202.503 66.1946C204.536 66.1946 205.532 65.6227 205.532 64.1613V63.9284C205.532 62.4882 204.515 61.9375 202.545 61.9375C200.512 61.9375 199.623 62.4882 199.623 64.0554ZM216.838 70.0068H213.661V55.8167H216.838V62.6364H217.007C217.346 60.8362 218.596 59.1842 221.307 59.1842C224.166 59.1842 225.564 61.048 225.564 63.5048V70.0068H222.387V64.4578C222.387 62.6788 221.624 62.0434 219.634 62.0434C217.494 62.0434 216.838 62.9118 216.838 64.6908V70.0068ZM232.822 70.2186C229.2 70.2186 226.765 68.0583 226.765 64.712C226.765 61.3233 229.2 59.1842 232.822 59.1842C236.444 59.1842 238.879 61.3233 238.879 64.712C238.879 68.0583 236.444 70.2186 232.822 70.2186ZM232.822 67.4018C234.961 67.4018 235.723 66.5758 235.723 64.712C235.723 62.8482 234.961 61.9799 232.822 61.9799C230.662 61.9799 229.92 62.8482 229.92 64.712C229.92 66.5758 230.662 67.4018 232.822 67.4018ZM246.191 70.0068H242.231L239.329 59.396H242.612L243.862 64.2461L244.307 67.55H244.518L245.365 63.9284L246.975 59.396H251.063L252.651 63.9284L253.498 67.55H253.71L254.176 64.2461L255.404 59.396H258.645L255.637 70.0068H251.677L249.855 64.9026L249.072 61.9799H248.839L248.034 64.9026L246.191 70.0068ZM268.777 70.0068H264.817L261.915 59.396H265.198L266.448 64.2461L266.892 67.55H267.104L267.951 63.9284L269.561 59.396H273.649L275.237 63.9284L276.084 67.55H276.296L276.762 64.2461L277.99 59.396H281.231L278.223 70.0068H274.263L272.441 64.9026L271.658 61.9799H271.425L270.62 64.9026L268.777 70.0068ZM287.714 70.2186C284.177 70.2186 281.763 68.4819 281.763 64.712C281.763 61.3233 284.156 59.1842 287.65 59.1842C291.124 59.1842 293.432 61.0056 293.432 64.3308C293.432 64.712 293.39 64.9873 293.348 65.3474H284.706C284.791 66.9782 285.554 67.6771 287.608 67.6771C289.493 67.6771 290.15 67.19 290.15 66.2793V66.0675H293.326V66.3004C293.326 68.609 291.081 70.2186 287.714 70.2186ZM287.587 61.6622C285.702 61.6622 284.897 62.2976 284.749 63.6742H290.383C290.298 62.2764 289.451 61.6622 287.587 61.6622ZM303.702 70.2186C300.059 70.2186 297.73 68.0583 297.73 64.712C297.73 61.3233 300.059 59.1842 303.702 59.1842C307.112 59.1842 309.442 61.0056 309.442 63.7589V64.0554H306.286V63.886C306.286 62.5305 305.291 62.0434 303.639 62.0434C301.754 62.0434 300.885 62.7423 300.885 64.712C300.885 66.6605 301.754 67.3594 303.639 67.3594C305.291 67.3594 306.286 66.8723 306.286 65.5168V65.3474H309.442V65.6439C309.442 68.376 307.112 70.2186 303.702 70.2186ZM314.07 70.2186C311.783 70.2186 310.406 69.1597 310.406 67.3806C310.406 65.8133 311.571 64.8391 313.837 64.6061L318.391 64.1402V63.7377C318.391 62.3611 317.777 61.9799 316.083 61.9799C314.473 61.9799 313.816 62.4034 313.816 63.6107V63.6954H310.618V63.6319C310.618 61.0056 312.821 59.1842 316.315 59.1842C319.852 59.1842 321.526 61.0056 321.526 63.7801V70.0068H318.56V67.5712H318.391C317.904 69.2232 316.421 70.2186 314.07 70.2186ZM313.605 67.1688C313.605 67.7406 314.049 67.9736 314.981 67.9736C317.141 67.9736 318.306 67.4653 318.391 65.9616L314.706 66.3852C313.943 66.4487 313.605 66.6605 313.605 67.1688ZM326.313 70.0068H323.136V59.396H326.08V62.6576H326.27C326.546 60.8785 327.817 59.1842 330.591 59.1842C333.493 59.1842 334.869 61.048 334.869 63.3989V70.0068H331.692V64.4578C331.692 62.7635 330.993 62.0434 329.045 62.0434C327.033 62.0434 326.313 62.8482 326.313 64.6485V70.0068ZM342.921 70.0068H339.744V55.8167H342.921V62.6364H343.091C343.43 60.8362 344.679 59.1842 347.39 59.1842C350.249 59.1842 351.647 61.048 351.647 63.5048V70.0068H348.47V64.4578C348.47 62.6788 347.708 62.0434 345.717 62.0434C343.578 62.0434 342.921 62.9118 342.921 64.6908V70.0068ZM358.884 70.2186C355.347 70.2186 352.933 68.4819 352.933 64.712C352.933 61.3233 355.326 59.1842 358.82 59.1842C362.294 59.1842 364.602 61.0056 364.602 64.3308C364.602 64.712 364.56 64.9873 364.518 65.3474H355.876C355.961 66.9782 356.724 67.6771 358.778 67.6771C360.663 67.6771 361.32 67.19 361.32 66.2793V66.0675H364.496V66.3004C364.496 68.609 362.251 70.2186 358.884 70.2186ZM358.757 61.6622C356.872 61.6622 356.067 62.2976 355.919 63.6742H361.553C361.468 62.2764 360.621 61.6622 358.757 61.6622ZM369.126 70.0068H365.95V55.8167H369.126V70.0068ZM373.966 73.6073H370.789V59.396H373.733V62.2976H373.945C374.326 60.2643 375.682 59.1842 378.181 59.1842C381.443 59.1842 383.264 61.3445 383.264 64.712C383.264 68.0795 381.485 70.2186 378.287 70.2186C375.83 70.2186 374.475 69.0114 374.115 67.1476H373.966V73.6073ZM373.966 64.8603C373.966 66.6817 375.068 67.3171 377.058 67.3171C379.092 67.3171 380.045 66.6393 380.045 64.712C380.045 62.7635 379.092 62.1069 377.08 62.1069C375.025 62.1069 373.966 62.8059 373.966 64.6908V64.8603ZM396.479 70.2186C392.9 70.2186 390.93 68.8208 390.93 66.364V66.3004H394.107V66.4911C394.107 67.4441 394.7 67.6983 396.5 67.6983C398.195 67.6983 398.597 67.423 398.597 66.7876C398.597 66.1946 398.279 66.0251 397.03 65.8557L394.044 65.4956C391.926 65.2627 390.74 64.3096 390.74 62.5305C390.74 60.6667 392.328 59.1842 395.971 59.1842C399.444 59.1842 401.414 60.4973 401.414 63.0812V63.1447H398.237V63.0177C398.237 62.1493 397.813 61.7045 395.865 61.7045C394.276 61.7045 393.874 61.9799 393.874 62.6576C393.874 63.2083 394.171 63.4412 395.568 63.6107L397.835 63.886C400.673 64.2037 401.732 65.1568 401.732 66.9147C401.732 68.9055 399.762 70.2186 396.479 70.2186ZM407.398 70.2186C404.411 70.2186 402.992 68.376 402.992 66.0039V59.396H406.169V64.945C406.169 66.6605 406.889 67.3806 408.901 67.3806C410.977 67.3806 411.718 66.5758 411.718 64.7755V59.396H414.895V70.0068H411.93V66.7664H411.761C411.485 68.5455 410.193 70.2186 407.398 70.2186ZM421.878 70.2186C418.298 70.2186 416.329 68.8208 416.329 66.364V66.3004H419.506V66.4911C419.506 67.4441 420.099 67.6983 421.899 67.6983C423.593 67.6983 423.996 67.423 423.996 66.7876C423.996 66.1946 423.678 66.0251 422.428 65.8557L419.442 65.4956C417.324 65.2627 416.138 64.3096 416.138 62.5305C416.138 60.6667 417.727 59.1842 421.369 59.1842C424.843 59.1842 426.813 60.4973 426.813 63.0812V63.1447H423.636V63.0177C423.636 62.1493 423.212 61.7045 421.264 61.7045C419.675 61.7045 419.273 61.9799 419.273 62.6576C419.273 63.2083 419.569 63.4412 420.967 63.6107L423.233 63.886C426.071 64.2037 427.13 65.1568 427.13 66.9147C427.13 68.9055 425.161 70.2186 421.878 70.2186ZM435.888 70.0068H433.262C430.784 70.0068 429.28 68.842 429.28 66.1734V62.0222H427.607V59.396H429.28V57.3416H432.457V59.396H435.888V62.0222H432.457V65.8133C432.457 66.8723 432.86 67.1476 433.982 67.1476H435.888V70.0068ZM440.34 70.2186C438.053 70.2186 436.676 69.1597 436.676 67.3806C436.676 65.8133 437.841 64.8391 440.107 64.6061L444.66 64.1402V63.7377C444.66 62.3611 444.046 61.9799 442.352 61.9799C440.742 61.9799 440.086 62.4034 440.086 63.6107V63.6954H436.888V63.6319C436.888 61.0056 439.09 59.1842 442.585 59.1842C446.122 59.1842 447.795 61.0056 447.795 63.7801V70.0068H444.83V67.5712H444.66C444.173 69.2232 442.691 70.2186 440.34 70.2186ZM439.874 67.1688C439.874 67.7406 440.319 67.9736 441.251 67.9736C443.411 67.9736 444.576 67.4653 444.66 65.9616L440.975 66.3852C440.213 66.4487 439.874 66.6605 439.874 67.1688ZM452.582 58.3158H449.405V55.8167H452.582V58.3158ZM452.582 70.0068H449.405V59.396H452.582V70.0068ZM457.422 70.0068H454.245V59.396H457.189V62.6576H457.38C457.655 60.8785 458.926 59.1842 461.7 59.1842C464.602 59.1842 465.979 61.048 465.979 63.3989V70.0068H462.802V64.4578C462.802 62.7635 462.103 62.0434 460.154 62.0434C458.142 62.0434 457.422 62.8482 457.422 64.6485V70.0068ZM37.558 96.0068H34.3811V85.396H37.325V88.2128H37.5157C37.8122 86.4973 38.9347 85.1842 41.0738 85.1842C43.4459 85.1842 44.4201 86.815 44.4201 88.8906V90.6485H41.2432V89.5471C41.2432 88.3823 40.7773 87.874 39.4853 87.874C38.0663 87.874 37.558 88.5305 37.558 89.8648V96.0068ZM51.2043 96.2186C47.6673 96.2186 45.2529 94.4819 45.2529 90.712C45.2529 87.3233 47.6462 85.1842 51.1408 85.1842C54.6142 85.1842 56.9227 87.0056 56.9227 90.3308C56.9227 90.712 56.8804 90.9873 56.838 91.3474H48.1968C48.2815 92.9782 49.044 93.6771 51.0984 93.6771C52.9834 93.6771 53.6399 93.19 53.6399 92.2793V92.0675H56.8168V92.3004C56.8168 94.609 54.5718 96.2186 51.2043 96.2186ZM51.0772 87.6622C49.1923 87.6622 48.3874 88.2976 48.2392 89.6742H53.8729C53.7882 88.2764 52.941 87.6622 51.0772 87.6622ZM66.1698 96.0068H62.2516L57.4228 85.396H60.9597L64.1366 92.9147H64.3484L67.5465 85.396H71.0199L66.1698 96.0068ZM77.5135 96.2186C73.8918 96.2186 71.4562 94.0583 71.4562 90.712C71.4562 87.3233 73.8918 85.1842 77.5135 85.1842C81.1352 85.1842 83.5708 87.3233 83.5708 90.712C83.5708 94.0583 81.1352 96.2186 77.5135 96.2186ZM77.5135 93.4018C79.6526 93.4018 80.4151 92.5758 80.4151 90.712C80.4151 88.8482 79.6526 87.9799 77.5135 87.9799C75.3532 87.9799 74.6119 88.8482 74.6119 90.712C74.6119 92.5758 75.3532 93.4018 77.5135 93.4018ZM88.0451 96.0068H84.8682V81.8167H88.0451V96.0068ZM94.0921 96.2186C91.1059 96.2186 89.6868 94.376 89.6868 92.0039V85.396H92.8637V90.945C92.8637 92.6605 93.5838 93.3806 95.5959 93.3806C97.6715 93.3806 98.4127 92.5758 98.4127 90.7755V85.396H101.59V96.0068H98.6245V92.7664H98.4551C98.1798 94.5455 96.8878 96.2186 94.0921 96.2186ZM110.69 96.0068H108.064C105.586 96.0068 104.082 94.842 104.082 92.1734V88.0222H102.409V85.396H104.082V83.3416H107.259V85.396H110.69V88.0222H107.259V91.8133C107.259 92.8723 107.662 93.1476 108.784 93.1476H110.69V96.0068ZM115.057 84.3158H111.88V81.8167H115.057V84.3158ZM115.057 96.0068H111.88V85.396H115.057V96.0068ZM122.375 96.2186C118.753 96.2186 116.318 94.0583 116.318 90.712C116.318 87.3233 118.753 85.1842 122.375 85.1842C125.997 85.1842 128.432 87.3233 128.432 90.712C128.432 94.0583 125.997 96.2186 122.375 96.2186ZM122.375 93.4018C124.514 93.4018 125.276 92.5758 125.276 90.712C125.276 88.8482 124.514 87.9799 122.375 87.9799C120.215 87.9799 119.473 88.8482 119.473 90.712C119.473 92.5758 120.215 93.4018 122.375 93.4018ZM132.906 96.0068H129.73V85.396H132.673V88.6576H132.864C133.139 86.8785 134.41 85.1842 137.185 85.1842C140.086 85.1842 141.463 87.048 141.463 89.3989V96.0068H138.286V90.4578C138.286 88.7635 137.587 88.0434 135.639 88.0434C133.627 88.0434 132.906 88.8482 132.906 90.6485V96.0068ZM146.332 96.2186C144.044 96.2186 142.668 95.1597 142.668 93.3806C142.668 91.8133 143.833 90.8391 146.099 90.6061L150.652 90.1402V89.7377C150.652 88.3611 150.038 87.9799 148.344 87.9799C146.734 87.9799 146.078 88.4034 146.078 89.6107V89.6954H142.879V89.6319C142.879 87.0056 145.082 85.1842 148.577 85.1842C152.114 85.1842 153.787 87.0056 153.787 89.7801V96.0068H150.822V93.5712H150.652C150.165 95.2232 148.683 96.2186 146.332 96.2186ZM145.866 93.1688C145.866 93.7406 146.31 93.9736 147.242 93.9736C149.403 93.9736 150.568 93.4653 150.652 91.9616L146.967 92.3852C146.205 92.4487 145.866 92.6605 145.866 93.1688ZM158.574 96.0068H155.397V85.396H158.341V88.2128H158.532C158.828 86.4973 159.951 85.1842 162.09 85.1842C164.462 85.1842 165.436 86.815 165.436 88.8906V90.6485H162.259V89.5471C162.259 88.3823 161.793 87.874 160.501 87.874C159.082 87.874 158.574 88.5305 158.574 89.8648V96.0068ZM168.62 99.6073H166.883V96.7269H169.488C170.272 96.7269 170.611 96.5151 170.822 96.0492L165.633 85.396H169.234L171.479 90.2461L172.369 92.7452H172.58L173.427 90.2249L175.44 85.396H178.976L173.724 96.7693C172.707 98.9931 171.288 99.6073 168.62 99.6073ZM187.033 96.0068H183.856V88.0222H182.352V85.396H183.92C184.258 83.2569 186.122 81.8167 189.384 81.8167H190.316V84.1252H188.876C187.478 84.1252 186.821 84.3582 186.906 85.396H190.316V88.0222H187.033V96.0068ZM194.552 84.3158H191.375V81.8167H194.552V84.3158ZM194.552 96.0068H191.375V85.396H194.552V96.0068ZM199.402 96.0068H196.225V85.396H199.169V88.6576H199.36C199.635 86.8785 200.906 85.1842 203.68 85.1842C206.582 85.1842 207.959 87.048 207.959 89.3989V96.0068H204.782V90.4578C204.782 88.7635 204.083 88.0434 202.134 88.0434C200.122 88.0434 199.402 88.8482 199.402 90.6485V96.0068ZM212.827 96.2186C210.54 96.2186 209.163 95.1597 209.163 93.3806C209.163 91.8133 210.328 90.8391 212.594 90.6061L217.148 90.1402V89.7377C217.148 88.3611 216.534 87.9799 214.839 87.9799C213.23 87.9799 212.573 88.4034 212.573 89.6107V89.6954H209.375V89.6319C209.375 87.0056 211.578 85.1842 215.072 85.1842C218.609 85.1842 220.283 87.0056 220.283 89.7801V96.0068H217.317V93.5712H217.148C216.661 95.2232 215.178 96.2186 212.827 96.2186ZM212.361 93.1688C212.361 93.7406 212.806 93.9736 213.738 93.9736C215.898 93.9736 217.063 93.4653 217.148 91.9616L213.463 92.3852C212.7 92.4487 212.361 92.6605 212.361 93.1688ZM225.07 96.0068H221.893V85.396H224.837V88.6576H225.027C225.303 86.8785 226.573 85.1842 229.348 85.1842C232.249 85.1842 233.626 87.048 233.626 89.3989V96.0068H230.449V90.4578C230.449 88.7635 229.75 88.0434 227.802 88.0434C225.79 88.0434 225.07 88.8482 225.07 90.6485V96.0068ZM240.888 96.2186C237.245 96.2186 234.916 94.0583 234.916 90.712C234.916 87.3233 237.245 85.1842 240.888 85.1842C244.298 85.1842 246.628 87.0056 246.628 89.7589V90.0554H243.472V89.886C243.472 88.5305 242.477 88.0434 240.825 88.0434C238.94 88.0434 238.071 88.7423 238.071 90.712C238.071 92.6605 238.94 93.3594 240.825 93.3594C242.477 93.3594 243.472 92.8723 243.472 91.5168V91.3474H246.628V91.6439C246.628 94.376 244.298 96.2186 240.888 96.2186ZM251.172 84.3158H247.995V81.8167H251.172V84.3158ZM251.172 96.0068H247.995V85.396H251.172V96.0068ZM256.096 96.2186C253.809 96.2186 252.432 95.1597 252.432 93.3806C252.432 91.8133 253.597 90.8391 255.863 90.6061L260.417 90.1402V89.7377C260.417 88.3611 259.803 87.9799 258.108 87.9799C256.499 87.9799 255.842 88.4034 255.842 89.6107V89.6954H252.644V89.6319C252.644 87.0056 254.847 85.1842 258.341 85.1842C261.878 85.1842 263.551 87.0056 263.551 89.7801V96.0068H260.586V93.5712H260.417C259.93 95.2232 258.447 96.2186 256.096 96.2186ZM255.63 93.1688C255.63 93.7406 256.075 93.9736 257.007 93.9736C259.167 93.9736 260.332 93.4653 260.417 91.9616L256.732 92.3852C255.969 92.4487 255.63 92.6605 255.63 93.1688ZM268.338 96.0068H265.162V81.8167H268.338V96.0068ZM276.446 99.6073H273.269V85.396H276.213V88.2976H276.425C276.806 86.2643 278.162 85.1842 280.661 85.1842C283.922 85.1842 285.744 87.3445 285.744 90.712C285.744 94.0795 283.965 96.2186 280.767 96.2186C278.31 96.2186 276.954 95.0114 276.594 93.1476H276.446V99.6073ZM276.446 90.8603C276.446 92.6817 277.547 93.3171 279.538 93.3171C281.572 93.3171 282.525 92.6393 282.525 90.712C282.525 88.7635 281.572 88.1069 279.56 88.1069C277.505 88.1069 276.446 88.8059 276.446 90.6908V90.8603ZM290.242 96.0068H287.065V85.396H290.009V88.2128H290.199C290.496 86.4973 291.618 85.1842 293.757 85.1842C296.13 85.1842 297.104 86.815 297.104 88.8906V90.6485H293.927V89.5471C293.927 88.3823 293.461 87.874 292.169 87.874C290.75 87.874 290.242 88.5305 290.242 89.8648V96.0068ZM303.909 96.2186C300.287 96.2186 297.852 94.0583 297.852 90.712C297.852 87.3233 300.287 85.1842 303.909 85.1842C307.531 85.1842 309.966 87.3233 309.966 90.712C309.966 94.0583 307.531 96.2186 303.909 96.2186ZM303.909 93.4018C306.048 93.4018 306.811 92.5758 306.811 90.712C306.811 88.8482 306.048 87.9799 303.909 87.9799C301.749 87.9799 301.008 88.8482 301.008 90.712C301.008 92.5758 301.749 93.4018 303.909 93.4018ZM316.008 96.2186C312.704 96.2186 310.883 94.0583 310.883 90.712C310.883 87.3233 312.683 85.1842 315.839 85.1842C318.359 85.1842 319.651 86.4338 320.011 88.2128H320.202V81.8167H323.378V96.0068H320.413V93.0629H320.244C319.841 95.1597 318.444 96.2186 316.008 96.2186ZM314.102 90.712C314.102 92.6393 315.055 93.3171 317.088 93.3171C319.1 93.3171 320.202 92.6181 320.202 90.7755V90.6061C320.202 88.7635 319.121 88.0858 317.088 88.0858C315.055 88.0858 314.102 88.7635 314.102 90.712ZM329.444 96.2186C326.457 96.2186 325.038 94.376 325.038 92.0039V85.396H328.215V90.945C328.215 92.6605 328.935 93.3806 330.947 93.3806C333.023 93.3806 333.764 92.5758 333.764 90.7755V85.396H336.941V96.0068H333.976V92.7664H333.806C333.531 94.5455 332.239 96.2186 329.444 96.2186ZM344.22 96.2186C340.577 96.2186 338.248 94.0583 338.248 90.712C338.248 87.3233 340.577 85.1842 344.22 85.1842C347.63 85.1842 349.96 87.0056 349.96 89.7589V90.0554H346.804V89.886C346.804 88.5305 345.809 88.0434 344.157 88.0434C342.272 88.0434 341.403 88.7423 341.403 90.712C341.403 92.6605 342.272 93.3594 344.157 93.3594C345.809 93.3594 346.804 92.8723 346.804 91.5168V91.3474H349.96V91.6439C349.96 94.376 347.63 96.2186 344.22 96.2186ZM358.803 96.0068H356.177C353.699 96.0068 352.195 94.842 352.195 92.1734V88.0222H350.522V85.396H352.195V83.3416H355.372V85.396H358.803V88.0222H355.372V91.8133C355.372 92.8723 355.774 93.1476 356.897 93.1476H358.803V96.0068ZM365.351 96.2186C361.772 96.2186 359.802 94.8208 359.802 92.364V92.3004H362.979V92.4911C362.979 93.4441 363.572 93.6983 365.372 93.6983C367.067 93.6983 367.469 93.423 367.469 92.7876C367.469 92.1946 367.152 92.0251 365.902 91.8557L362.916 91.4956C360.798 91.2627 359.612 90.3096 359.612 88.5305C359.612 86.6667 361.2 85.1842 364.843 85.1842C368.316 85.1842 370.286 86.4973 370.286 89.0812V89.1447H367.109V89.0177C367.109 88.1493 366.686 87.7045 364.737 87.7045C363.149 87.7045 362.746 87.9799 362.746 88.6576C362.746 89.2083 363.043 89.4412 364.441 89.6107L366.707 89.886C369.545 90.2037 370.604 91.1568 370.604 92.9147C370.604 94.9055 368.634 96.2186 365.351 96.2186ZM375.761 96.0068H371.674V92.3004H375.761V96.0068ZM383.115 96.0068H379.557L385.763 81.8167H390.295L396.543 96.0068H392.9L391.566 92.8723H384.471L383.115 96.0068ZM387.034 86.9209L385.699 90.0131H390.338L389.003 86.9209L388.135 84.7182H387.902L387.034 86.9209ZM400.461 96.0068H397.284V85.396H400.228V88.6576H400.419C400.694 86.8785 401.965 85.1842 404.739 85.1842C407.641 85.1842 409.018 87.048 409.018 89.3989V96.0068H405.841V90.4578C405.841 88.7635 405.142 88.0434 403.193 88.0434C401.181 88.0434 400.461 88.8482 400.461 90.6485V96.0068ZM40.0148 122.219C36.4779 122.219 34.0634 120.482 34.0634 116.712C34.0634 113.323 36.4567 111.184 39.9513 111.184C43.4247 111.184 45.7332 113.006 45.7332 116.331C45.7332 116.712 45.6909 116.987 45.6485 117.347H37.0073C37.0921 118.978 37.8545 119.677 39.9089 119.677C41.7939 119.677 42.4504 119.19 42.4504 118.279V118.067H45.6273V118.3C45.6273 120.609 43.3823 122.219 40.0148 122.219ZM39.8877 113.662C38.0028 113.662 37.198 114.298 37.0497 115.674H42.6834C42.5987 114.276 41.7515 113.662 39.8877 113.662ZM52.7353 122.219C49.0925 122.219 46.7628 120.058 46.7628 116.712C46.7628 113.323 49.0925 111.184 52.7353 111.184C56.1452 111.184 58.4749 113.006 58.4749 115.759V116.055H55.3192V115.886C55.3192 114.531 54.3238 114.043 52.6718 114.043C50.7868 114.043 49.9185 114.742 49.9185 116.712C49.9185 118.66 50.7868 119.359 52.6718 119.359C54.3238 119.359 55.3192 118.872 55.3192 117.517V117.347H58.4749V117.644C58.4749 120.376 56.1452 122.219 52.7353 122.219ZM65.4967 122.219C61.875 122.219 59.4394 120.058 59.4394 116.712C59.4394 113.323 61.875 111.184 65.4967 111.184C69.1184 111.184 71.554 113.323 71.554 116.712C71.554 120.058 69.1184 122.219 65.4967 122.219ZM65.4967 119.402C67.6358 119.402 68.3983 118.576 68.3983 116.712C68.3983 114.848 67.6358 113.98 65.4967 113.98C63.3364 113.98 62.5951 114.848 62.5951 116.712C62.5951 118.576 63.3364 119.402 65.4967 119.402ZM76.0283 122.007H72.8514V111.396H75.7953V114.658H75.986C76.2613 112.879 77.532 111.184 80.3065 111.184C83.2081 111.184 84.5848 113.048 84.5848 115.399V122.007H81.4079V116.458C81.4079 114.763 80.7089 114.043 78.7604 114.043C76.7484 114.043 76.0283 114.848 76.0283 116.648V122.007ZM91.8468 122.219C88.2251 122.219 85.7895 120.058 85.7895 116.712C85.7895 113.323 88.2251 111.184 91.8468 111.184C95.4685 111.184 97.9041 113.323 97.9041 116.712C97.9041 120.058 95.4685 122.219 91.8468 122.219ZM91.8468 119.402C93.9859 119.402 94.7484 118.576 94.7484 116.712C94.7484 114.848 93.9859 113.98 91.8468 113.98C89.6865 113.98 88.9452 114.848 88.9452 116.712C88.9452 118.576 89.6865 119.402 91.8468 119.402ZM102.378 122.007H99.2015V111.396H102.145V114.615H102.315C102.569 112.836 103.628 111.184 106.297 111.184C108.753 111.184 110.003 112.688 110.236 114.658H110.427C110.681 112.857 111.761 111.184 114.493 111.184C117.225 111.184 118.559 112.984 118.559 115.399V122.007H115.383V116.458C115.383 114.7 114.768 114.043 112.947 114.043C111.02 114.043 110.469 114.806 110.469 116.648V122.007H107.292V116.458C107.292 114.7 106.678 114.043 104.856 114.043C102.929 114.043 102.378 114.806 102.378 116.648V122.007ZM122.207 125.607H120.471V122.727H123.076C123.859 122.727 124.198 122.515 124.41 122.049L119.221 111.396H122.821L125.066 116.246L125.956 118.745H126.168L127.015 116.225L129.027 111.396H132.564L127.311 122.769C126.295 124.993 124.876 125.607 122.207 125.607ZM139.773 122.007H136.596V107.817H139.773V122.007ZM144.613 110.316H141.436V107.817H144.613V110.316ZM144.613 122.007H141.436V111.396H144.613V122.007ZM149.453 122.007H146.276V107.817H149.453V115.335H151.867L154.578 111.396H158.348L154.472 116.521L158.285 122.007H154.536L151.888 118.173H149.453V122.007ZM164.754 122.219C161.217 122.219 158.802 120.482 158.802 116.712C158.802 113.323 161.196 111.184 164.69 111.184C168.164 111.184 170.472 113.006 170.472 116.331C170.472 116.712 170.43 116.987 170.387 117.347H161.746C161.831 118.978 162.593 119.677 164.648 119.677C166.533 119.677 167.189 119.19 167.189 118.279V118.067H170.366V118.3C170.366 120.609 168.121 122.219 164.754 122.219ZM164.627 113.662C162.742 113.662 161.937 114.298 161.789 115.674H167.422C167.338 114.276 166.49 113.662 164.627 113.662ZM178.264 122.007H175.087V107.817H178.476L183.559 114.531L185.508 117.517H185.74L185.592 114.658V107.817H188.769V122.007H185.38L180.149 115.229L178.349 112.561H178.137L178.264 115.166V122.007ZM193.632 110.316H190.455V107.817H193.632V110.316ZM193.632 122.007H190.455V111.396H193.632V122.007ZM199.954 120.927C196.798 120.927 194.977 119.042 194.977 116.055C194.977 113.09 196.904 111.184 200.081 111.184C202.241 111.184 203.787 112.116 204.126 113.959H204.296V111.396H207.261V120.461C207.261 124.167 205.016 125.819 201.225 125.819C197.794 125.819 195.633 124.294 195.633 121.626H198.81C198.81 122.812 199.276 123.172 201.437 123.172C203.47 123.172 204.084 122.748 204.084 120.673V118.279H203.915C203.576 119.847 202.326 120.927 199.954 120.927ZM198.175 116.055C198.175 117.623 199.064 118.195 201.055 118.195C203.089 118.195 204.084 117.623 204.084 116.161V115.928C204.084 114.488 203.067 113.938 201.098 113.938C199.064 113.938 198.175 114.488 198.175 116.055ZM214.579 122.219C211.042 122.219 208.628 120.482 208.628 116.712C208.628 113.323 211.021 111.184 214.515 111.184C217.989 111.184 220.297 113.006 220.297 116.331C220.297 116.712 220.255 116.987 220.213 117.347H211.572C211.656 118.978 212.419 119.677 214.473 119.677C216.358 119.677 217.015 119.19 217.015 118.279V118.067H220.192V118.3C220.192 120.609 217.946 122.219 214.579 122.219ZM214.452 113.662C212.567 113.662 211.762 114.298 211.614 115.674H217.248C217.163 114.276 216.316 113.662 214.452 113.662ZM224.822 122.007H221.645V111.396H224.589V114.213H224.779C225.076 112.497 226.198 111.184 228.337 111.184C230.709 111.184 231.684 112.815 231.684 114.891V116.648H228.507V115.547C228.507 114.382 228.041 113.874 226.749 113.874C225.33 113.874 224.822 114.531 224.822 115.865V122.007ZM236.011 110.316H232.834V107.817H236.011V110.316ZM236.011 122.007H232.834V111.396H236.011V122.007ZM240.936 122.219C238.648 122.219 237.271 121.16 237.271 119.381C237.271 117.813 238.436 116.839 240.703 116.606L245.256 116.14V115.738C245.256 114.361 244.642 113.98 242.948 113.98C241.338 113.98 240.681 114.403 240.681 115.611V115.695H237.483V115.632C237.483 113.006 239.686 111.184 243.181 111.184C246.717 111.184 248.391 113.006 248.391 115.78V122.007H245.426V119.571H245.256C244.769 121.223 243.286 122.219 240.936 122.219ZM240.47 119.169C240.47 119.741 240.914 119.974 241.846 119.974C244.007 119.974 245.171 119.465 245.256 117.962L241.571 118.385C240.808 118.449 240.47 118.66 240.47 119.169ZM252.267 113.938H250.297L249.62 110.888V107.817H252.924V110.888L252.267 113.938ZM259.599 122.219C256.02 122.219 254.05 120.821 254.05 118.364V118.3H257.227V118.491C257.227 119.444 257.82 119.698 259.62 119.698C261.315 119.698 261.717 119.423 261.717 118.788C261.717 118.195 261.4 118.025 260.15 117.856L257.164 117.496C255.046 117.263 253.86 116.31 253.86 114.531C253.86 112.667 255.448 111.184 259.091 111.184C262.564 111.184 264.534 112.497 264.534 115.081V115.145H261.357V115.018C261.357 114.149 260.934 113.705 258.985 113.705C257.397 113.705 256.994 113.98 256.994 114.658C256.994 115.208 257.291 115.441 258.689 115.611L260.955 115.886C263.793 116.204 264.852 117.157 264.852 118.915C264.852 120.906 262.882 122.219 259.599 122.219ZM272.578 122.007H269.402V111.396H272.345V114.213H272.536C272.833 112.497 273.955 111.184 276.094 111.184C278.466 111.184 279.441 112.815 279.441 114.891V116.648H276.264V115.547C276.264 114.382 275.798 113.874 274.506 113.874C273.087 113.874 272.578 114.531 272.578 115.865V122.007ZM286.225 122.219C282.688 122.219 280.273 120.482 280.273 116.712C280.273 113.323 282.667 111.184 286.161 111.184C289.635 111.184 291.943 113.006 291.943 116.331C291.943 116.712 291.901 116.987 291.858 117.347H283.217C283.302 118.978 284.064 119.677 286.119 119.677C288.004 119.677 288.66 119.19 288.66 118.279V118.067H291.837V118.3C291.837 120.609 289.592 122.219 286.225 122.219ZM286.098 113.662C284.213 113.662 283.408 114.298 283.26 115.674H288.893C288.809 114.276 287.961 113.662 286.098 113.662ZM297.886 122.219C294.709 122.219 292.909 120.08 292.909 116.712C292.909 113.344 294.731 111.184 297.992 111.184C300.491 111.184 301.847 112.264 302.228 114.298H302.44V111.396H305.405V125.607H302.228V119.148H302.059C301.699 121.011 300.343 122.219 297.886 122.219ZM296.128 116.712C296.128 118.639 297.081 119.317 299.115 119.317C301.127 119.317 302.228 118.682 302.228 116.86V116.691C302.228 114.806 301.148 114.107 299.115 114.107C297.081 114.107 296.128 114.763 296.128 116.712ZM311.47 122.219C308.484 122.219 307.065 120.376 307.065 118.004V111.396H310.242V116.945C310.242 118.66 310.962 119.381 312.974 119.381C315.049 119.381 315.791 118.576 315.791 116.776V111.396H318.968V122.007H316.002V118.766H315.833C315.558 120.545 314.266 122.219 311.47 122.219ZM323.769 110.316H320.592V107.817H323.769V110.316ZM323.769 122.007H320.592V111.396H323.769V122.007ZM328.609 122.007H325.432V111.396H328.376V114.213H328.566C328.863 112.497 329.985 111.184 332.124 111.184C334.496 111.184 335.471 112.815 335.471 114.891V116.648H332.294V115.547C332.294 114.382 331.828 113.874 330.536 113.874C329.117 113.874 328.609 114.531 328.609 115.865V122.007ZM342.255 122.219C338.718 122.219 336.303 120.482 336.303 116.712C336.303 113.323 338.697 111.184 342.191 111.184C345.665 111.184 347.973 113.006 347.973 116.331C347.973 116.712 347.931 116.987 347.889 117.347H339.247C339.332 118.978 340.095 119.677 342.149 119.677C344.034 119.677 344.69 119.19 344.69 118.279V118.067H347.867V118.3C347.867 120.609 345.622 122.219 342.255 122.219ZM342.128 113.662C340.243 113.662 339.438 114.298 339.29 115.674H344.923C344.839 114.276 343.992 113.662 342.128 113.662ZM354.679 122.219C351.1 122.219 349.13 120.821 349.13 118.364V118.3H352.307V118.491C352.307 119.444 352.9 119.698 354.7 119.698C356.394 119.698 356.797 119.423 356.797 118.788C356.797 118.195 356.479 118.025 355.23 117.856L352.243 117.496C350.125 117.263 348.939 116.31 348.939 114.531C348.939 112.667 350.528 111.184 354.171 111.184C357.644 111.184 359.614 112.497 359.614 115.081V115.145H356.437V115.018C356.437 114.149 356.013 113.705 354.065 113.705C352.476 113.705 352.074 113.98 352.074 114.658C352.074 115.208 352.37 115.441 353.768 115.611L356.034 115.886C358.872 116.204 359.931 117.157 359.931 118.915C359.931 120.906 357.962 122.219 354.679 122.219ZM367.658 122.007H364.481V111.396H367.425V114.658H367.616C367.891 112.879 369.162 111.184 371.936 111.184C374.838 111.184 376.214 113.048 376.214 115.399V122.007H373.038V116.458C373.038 114.763 372.339 114.043 370.39 114.043C368.378 114.043 367.658 114.848 367.658 116.648V122.007ZM383.476 122.219C379.855 122.219 377.419 120.058 377.419 116.712C377.419 113.323 379.855 111.184 383.476 111.184C387.098 111.184 389.534 113.323 389.534 116.712C389.534 120.058 387.098 122.219 383.476 122.219ZM383.476 119.402C385.616 119.402 386.378 118.576 386.378 116.712C386.378 114.848 385.616 113.98 383.476 113.98C381.316 113.98 380.575 114.848 380.575 116.712C380.575 118.576 381.316 119.402 383.476 119.402ZM398.307 122.007H395.681C393.203 122.007 391.7 120.842 391.7 118.173V114.022H390.026V111.396H391.7V109.342H394.876V111.396H398.307V114.022H394.876V117.813C394.876 118.872 395.279 119.148 396.401 119.148H398.307V122.007ZM402.674 122.007H399.497V107.817H402.674V114.636H402.844C403.183 112.836 404.432 111.184 407.143 111.184C410.002 111.184 411.4 113.048 411.4 115.505V122.007H408.223V116.458C408.223 114.679 407.461 114.043 405.47 114.043C403.331 114.043 402.674 114.912 402.674 116.691V122.007ZM416.18 110.316H413.003V107.817H416.18V110.316ZM416.18 122.007H413.003V111.396H416.18V122.007ZM421.02 122.007H417.843V111.396H420.787V114.658H420.978C421.253 112.879 422.524 111.184 425.298 111.184C428.2 111.184 429.577 113.048 429.577 115.399V122.007H426.4V116.458C426.4 114.763 425.701 114.043 423.752 114.043C421.74 114.043 421.02 114.848 421.02 116.648V122.007ZM435.843 120.927C432.687 120.927 430.866 119.042 430.866 116.055C430.866 113.09 432.793 111.184 435.97 111.184C438.13 111.184 439.677 112.116 440.015 113.959H440.185V111.396H443.15V120.461C443.15 124.167 440.905 125.819 437.114 125.819C433.683 125.819 431.522 124.294 431.522 121.626H434.699C434.699 122.812 435.165 123.172 437.326 123.172C439.359 123.172 439.973 122.748 439.973 120.673V118.279H439.804C439.465 119.847 438.215 120.927 435.843 120.927ZM434.064 116.055C434.064 117.623 434.954 118.195 436.944 118.195C438.978 118.195 439.973 117.623 439.973 116.161V115.928C439.973 114.488 438.956 113.938 436.987 113.938C434.954 113.938 434.064 114.488 434.064 116.055ZM37.558 148.007H34.3811V133.817H37.558V148.007ZM44.8546 148.219C41.3177 148.219 38.9032 146.482 38.9032 142.712C38.9032 139.323 41.2965 137.184 44.7911 137.184C48.2645 137.184 50.5731 139.006 50.5731 142.331C50.5731 142.712 50.5307 142.987 50.4883 143.347H41.8472C41.9319 144.978 42.6943 145.677 44.7487 145.677C46.6337 145.677 47.2903 145.19 47.2903 144.279V144.067H50.4672V144.3C50.4672 146.609 48.2221 148.219 44.8546 148.219ZM44.7276 139.662C42.8426 139.662 42.0378 140.298 41.8895 141.674H47.5232C47.4385 140.276 46.5913 139.662 44.7276 139.662ZM57.2786 148.219C53.6993 148.219 51.7296 146.821 51.7296 144.364V144.3H54.9065V144.491C54.9065 145.444 55.4996 145.698 57.2998 145.698C58.9942 145.698 59.3966 145.423 59.3966 144.788C59.3966 144.195 59.0789 144.025 57.8293 143.856L54.843 143.496C52.7251 143.263 51.539 142.31 51.539 140.531C51.539 138.667 53.1275 137.184 56.7703 137.184C60.2437 137.184 62.2134 138.497 62.2134 141.081V141.145H59.0365V141.018C59.0365 140.149 58.6129 139.705 56.6644 139.705C55.076 139.705 54.6736 139.98 54.6736 140.658C54.6736 141.208 54.9701 141.441 56.3679 141.611L58.6341 141.886C61.4721 142.204 62.5311 143.157 62.5311 144.915C62.5311 146.906 60.5614 148.219 57.2786 148.219ZM69.1713 148.219C65.592 148.219 63.6223 146.821 63.6223 144.364V144.3H66.7992V144.491C66.7992 145.444 67.3923 145.698 69.1925 145.698C70.8869 145.698 71.2893 145.423 71.2893 144.788C71.2893 144.195 70.9716 144.025 69.722 143.856L66.7357 143.496C64.6178 143.263 63.4317 142.31 63.4317 140.531C63.4317 138.667 65.0202 137.184 68.663 137.184C72.1364 137.184 74.1061 138.497 74.1061 141.081V141.145H70.9292V141.018C70.9292 140.149 70.5056 139.705 68.5571 139.705C66.9687 139.705 66.5663 139.98 66.5663 140.658C66.5663 141.208 66.8628 141.441 68.2606 141.611L70.5268 141.886C73.3648 142.204 74.4238 143.157 74.4238 144.915C74.4238 146.906 72.4541 148.219 69.1713 148.219ZM79.5815 148.007H75.4939V144.3H79.5815V148.007ZM87.5074 148.007H84.3305V133.817H88.6299L91.955 140.806L93.2893 144.131H93.5223L94.8142 140.806L98.0335 133.817H102.354V148.007H99.1772V140.806L99.2831 138.582H99.0501L98.2241 140.806L95.259 147.16H91.4044L88.4392 140.806L87.6132 138.582H87.3803L87.5074 140.806V148.007ZM106.054 151.607H104.317V148.727H106.922C107.706 148.727 108.045 148.515 108.256 148.049L103.068 137.396H106.668L108.913 142.246L109.803 144.745H110.014L110.862 142.225L112.874 137.396H116.411L111.158 148.769C110.141 150.993 108.722 151.607 106.054 151.607ZM123.62 151.607H120.443V137.396H123.387V140.298H123.599C123.98 138.264 125.335 137.184 127.834 137.184C131.096 137.184 132.918 139.344 132.918 142.712C132.918 146.08 131.138 148.219 127.94 148.219C125.484 148.219 124.128 147.011 123.768 145.148H123.62V151.607ZM123.62 142.86C123.62 144.682 124.721 145.317 126.712 145.317C128.745 145.317 129.698 144.639 129.698 142.712C129.698 140.763 128.745 140.107 126.733 140.107C124.679 140.107 123.62 140.806 123.62 142.691V142.86ZM138.623 148.219C135.636 148.219 134.217 146.376 134.217 144.004V137.396H137.394V142.945C137.394 144.66 138.114 145.381 140.126 145.381C142.202 145.381 142.943 144.576 142.943 142.776V137.396H146.12V148.007H143.155V144.766H142.985C142.71 146.545 141.418 148.219 138.623 148.219ZM150.921 148.007H147.744V137.396H150.688V140.213H150.879C151.175 138.497 152.298 137.184 154.437 137.184C156.809 137.184 157.783 138.815 157.783 140.891V142.648H154.607V141.547C154.607 140.382 154.141 139.874 152.849 139.874C151.43 139.874 150.921 140.531 150.921 141.865V148.007ZM164.292 148.219C160.713 148.219 158.743 146.821 158.743 144.364V144.3H161.92V144.491C161.92 145.444 162.513 145.698 164.313 145.698C166.008 145.698 166.41 145.423 166.41 144.788C166.41 144.195 166.092 144.025 164.843 143.856L161.857 143.496C159.739 143.263 158.553 142.31 158.553 140.531C158.553 138.667 160.141 137.184 163.784 137.184C167.257 137.184 169.227 138.497 169.227 141.081V141.145H166.05V141.018C166.05 140.149 165.627 139.705 163.678 139.705C162.09 139.705 161.687 139.98 161.687 140.658C161.687 141.208 161.984 141.441 163.382 141.611L165.648 141.886C168.486 142.204 169.545 143.157 169.545 144.915C169.545 146.906 167.575 148.219 164.292 148.219ZM176.46 148.219C172.923 148.219 170.509 146.482 170.509 142.712C170.509 139.323 172.902 137.184 176.397 137.184C179.87 137.184 182.179 139.006 182.179 142.331C182.179 142.712 182.136 142.987 182.094 143.347H173.453C173.538 144.978 174.3 145.677 176.354 145.677C178.239 145.677 178.896 145.19 178.896 144.279V144.067H182.073V144.3C182.073 146.609 179.828 148.219 176.46 148.219ZM176.333 139.662C174.448 139.662 173.643 140.298 173.495 141.674H179.129C179.044 140.276 178.197 139.662 176.333 139.662ZM189.971 136.316H186.794V133.817H189.971V136.316ZM189.971 148.007H186.794V137.396H189.971V148.007ZM196.992 148.219C193.413 148.219 191.443 146.821 191.443 144.364V144.3H194.62V144.491C194.62 145.444 195.213 145.698 197.013 145.698C198.708 145.698 199.11 145.423 199.11 144.788C199.11 144.195 198.792 144.025 197.543 143.856L194.556 143.496C192.438 143.263 191.252 142.31 191.252 140.531C191.252 138.667 192.841 137.184 196.484 137.184C199.957 137.184 201.927 138.497 201.927 141.081V141.145H198.75V141.018C198.75 140.149 198.326 139.705 196.378 139.705C194.789 139.705 194.387 139.98 194.387 140.658C194.387 141.208 194.683 141.441 196.081 141.611L198.347 141.886C201.186 142.204 202.244 143.157 202.244 144.915C202.244 146.906 200.275 148.219 196.992 148.219ZM210.818 148.007H207.641V140.022H206.138V137.396H207.705C208.044 135.257 209.908 133.817 213.169 133.817H214.101V136.125H212.661C211.263 136.125 210.607 136.358 210.691 137.396H214.101V140.022H210.818V148.007ZM220.805 148.219C217.183 148.219 214.748 146.058 214.748 142.712C214.748 139.323 217.183 137.184 220.805 137.184C224.427 137.184 226.862 139.323 226.862 142.712C226.862 146.058 224.427 148.219 220.805 148.219ZM220.805 145.402C222.944 145.402 223.707 144.576 223.707 142.712C223.707 140.848 222.944 139.98 220.805 139.98C218.645 139.98 217.903 140.848 217.903 142.712C217.903 144.576 218.645 145.402 220.805 145.402ZM231.337 148.007H228.16V137.396H231.104V140.213H231.294C231.591 138.497 232.713 137.184 234.852 137.184C237.224 137.184 238.199 138.815 238.199 140.891V142.648H235.022V141.547C235.022 140.382 234.556 139.874 233.264 139.874C231.845 139.874 231.337 140.531 231.337 141.865V148.007ZM248.272 148.219C244.65 148.219 242.215 146.058 242.215 142.712C242.215 139.323 244.65 137.184 248.272 137.184C251.894 137.184 254.329 139.323 254.329 142.712C254.329 146.058 251.894 148.219 248.272 148.219ZM248.272 145.402C250.411 145.402 251.174 144.576 251.174 142.712C251.174 140.848 250.411 139.98 248.272 139.98C246.112 139.98 245.37 140.848 245.37 142.712C245.37 144.576 246.112 145.402 248.272 145.402ZM260.011 148.219C257.025 148.219 255.606 146.376 255.606 144.004V137.396H258.782V142.945C258.782 144.66 259.503 145.381 261.515 145.381C263.59 145.381 264.331 144.576 264.331 142.776V137.396H267.508V148.007H264.543V144.766H264.374C264.098 146.545 262.806 148.219 260.011 148.219ZM272.31 148.007H269.133V137.396H272.077V140.213H272.267C272.564 138.497 273.686 137.184 275.825 137.184C278.197 137.184 279.172 138.815 279.172 140.891V142.648H275.995V141.547C275.995 140.382 275.529 139.874 274.237 139.874C272.818 139.874 272.31 140.531 272.31 141.865V148.007ZM289.245 148.219C285.602 148.219 283.272 146.058 283.272 142.712C283.272 139.323 285.602 137.184 289.245 137.184C292.655 137.184 294.985 139.006 294.985 141.759V142.055H291.829V141.886C291.829 140.531 290.833 140.043 289.181 140.043C287.296 140.043 286.428 140.742 286.428 142.712C286.428 144.66 287.296 145.359 289.181 145.359C290.833 145.359 291.829 144.872 291.829 143.517V143.347H294.985V143.644C294.985 146.376 292.655 148.219 289.245 148.219ZM300.736 148.219C297.749 148.219 296.33 146.376 296.33 144.004V137.396H299.507V142.945C299.507 144.66 300.227 145.381 302.239 145.381C304.315 145.381 305.056 144.576 305.056 142.776V137.396H308.233V148.007H305.268V144.766H305.099C304.823 146.545 303.531 148.219 300.736 148.219ZM315.216 148.219C311.636 148.219 309.667 146.821 309.667 144.364V144.3H312.844V144.491C312.844 145.444 313.437 145.698 315.237 145.698C316.931 145.698 317.334 145.423 317.334 144.788C317.334 144.195 317.016 144.025 315.766 143.856L312.78 143.496C310.662 143.263 309.476 142.31 309.476 140.531C309.476 138.667 311.065 137.184 314.707 137.184C318.181 137.184 320.151 138.497 320.151 141.081V141.145H316.974V141.018C316.974 140.149 316.55 139.705 314.602 139.705C313.013 139.705 312.611 139.98 312.611 140.658C312.611 141.208 312.907 141.441 314.305 141.611L316.571 141.886C319.409 142.204 320.468 143.157 320.468 144.915C320.468 146.906 318.499 148.219 315.216 148.219ZM329.226 148.007H326.6C324.122 148.007 322.618 146.842 322.618 144.173V140.022H320.945V137.396H322.618V135.342H325.795V137.396H329.226V140.022H325.795V143.813C325.795 144.872 326.198 145.148 327.32 145.148H329.226V148.007ZM336.071 148.219C332.449 148.219 330.014 146.058 330.014 142.712C330.014 139.323 332.449 137.184 336.071 137.184C339.693 137.184 342.128 139.323 342.128 142.712C342.128 146.058 339.693 148.219 336.071 148.219ZM336.071 145.402C338.21 145.402 338.973 144.576 338.973 142.712C338.973 140.848 338.21 139.98 336.071 139.98C333.911 139.98 333.17 140.848 333.17 142.712C333.17 144.576 333.911 145.402 336.071 145.402ZM346.603 148.007H343.426V137.396H346.37V140.615H346.539C346.793 138.836 347.852 137.184 350.521 137.184C352.978 137.184 354.227 138.688 354.46 140.658H354.651C354.905 138.857 355.985 137.184 358.717 137.184C361.449 137.184 362.784 138.984 362.784 141.399V148.007H359.607V142.458C359.607 140.7 358.993 140.043 357.171 140.043C355.244 140.043 354.693 140.806 354.693 142.648V148.007H351.516V142.458C351.516 140.7 350.902 140.043 349.081 140.043C347.153 140.043 346.603 140.806 346.603 142.648V148.007ZM370.032 148.219C366.495 148.219 364.081 146.482 364.081 142.712C364.081 139.323 366.474 137.184 369.969 137.184C373.442 137.184 375.751 139.006 375.751 142.331C375.751 142.712 375.708 142.987 375.666 143.347H367.025C367.109 144.978 367.872 145.677 369.926 145.677C371.811 145.677 372.468 145.19 372.468 144.279V144.067H375.645V144.3C375.645 146.609 373.4 148.219 370.032 148.219ZM369.905 139.662C368.02 139.662 367.215 140.298 367.067 141.674H372.701C372.616 140.276 371.769 139.662 369.905 139.662ZM380.275 148.007H377.098V137.396H380.042V140.213H380.232C380.529 138.497 381.651 137.184 383.79 137.184C386.162 137.184 387.137 138.815 387.137 140.891V142.648H383.96V141.547C383.96 140.382 383.494 139.874 382.202 139.874C380.783 139.874 380.275 140.531 380.275 141.865V148.007ZM393.646 148.219C390.066 148.219 388.097 146.821 388.097 144.364V144.3H391.273V144.491C391.273 145.444 391.866 145.698 393.667 145.698C395.361 145.698 395.763 145.423 395.763 144.788C395.763 144.195 395.446 144.025 394.196 143.856L391.21 143.496C389.092 143.263 387.906 142.31 387.906 140.531C387.906 138.667 389.494 137.184 393.137 137.184C396.611 137.184 398.58 138.497 398.58 141.081V141.145H395.403V141.018C395.403 140.149 394.98 139.705 393.031 139.705C391.443 139.705 391.04 139.98 391.04 140.658C391.04 141.208 391.337 141.441 392.735 141.611L395.001 141.886C397.839 142.204 398.898 143.157 398.898 144.915C398.898 146.906 396.928 148.219 393.646 148.219ZM401.218 150.993H400.095V149.023H401.133C401.557 149.023 401.768 148.918 401.768 148.367V148.007H399.968V144.3H404.056V148.346C404.056 150.125 403.018 150.993 401.218 150.993ZM412.066 148.219C409.779 148.219 408.402 147.16 408.402 145.381C408.402 143.813 409.567 142.839 411.833 142.606L416.387 142.14V141.738C416.387 140.361 415.773 139.98 414.078 139.98C412.469 139.98 411.812 140.403 411.812 141.611V141.695H408.614V141.632C408.614 139.006 410.817 137.184 414.311 137.184C417.848 137.184 419.521 139.006 419.521 141.78V148.007H416.556V145.571H416.387C415.9 147.223 414.417 148.219 412.066 148.219ZM411.6 145.169C411.6 145.741 412.045 145.974 412.977 145.974C415.137 145.974 416.302 145.465 416.387 143.962L412.702 144.385C411.939 144.449 411.6 144.66 411.6 145.169ZM424.309 148.007H421.132V137.396H424.076V140.658H424.266C424.542 138.879 425.812 137.184 428.587 137.184C431.488 137.184 432.865 139.048 432.865 141.399V148.007H429.688V142.458C429.688 140.763 428.989 140.043 427.041 140.043C425.029 140.043 424.309 140.848 424.309 142.648V148.007ZM439.216 148.219C435.912 148.219 434.091 146.058 434.091 142.712C434.091 139.323 435.891 137.184 439.047 137.184C441.567 137.184 442.859 138.434 443.219 140.213H443.41V133.817H446.587V148.007H443.622V145.063H443.452C443.05 147.16 441.652 148.219 439.216 148.219ZM437.31 142.712C437.31 144.639 438.263 145.317 440.297 145.317C442.309 145.317 443.41 144.618 443.41 142.776V142.606C443.41 140.763 442.33 140.086 440.297 140.086C438.263 140.086 437.31 140.763 437.31 142.712ZM41.8574 174.007H39.2312C36.7532 174.007 35.2495 172.842 35.2495 170.173V166.022H33.5763V163.396H35.2495V161.342H38.4264V163.396H41.8574V166.022H38.4264V169.813C38.4264 170.872 38.8288 171.148 39.9513 171.148H41.8574V174.007ZM46.2242 174.007H43.0473V159.817H46.2242V166.636H46.3936C46.7325 164.836 47.9821 163.184 50.693 163.184C53.5522 163.184 54.9501 165.048 54.9501 167.505V174.007H51.7732V168.458C51.7732 166.679 51.0107 166.043 49.0198 166.043C46.8807 166.043 46.2242 166.912 46.2242 168.691V174.007ZM62.1869 174.219C58.65 174.219 56.2355 172.482 56.2355 168.712C56.2355 165.323 58.6288 163.184 62.1234 163.184C65.5968 163.184 67.9054 165.006 67.9054 168.331C67.9054 168.712 67.863 168.987 67.8207 169.347H59.1795C59.2642 170.978 60.0267 171.677 62.0811 171.677C63.966 171.677 64.6226 171.19 64.6226 170.279V170.067H67.7995V170.3C67.7995 172.609 65.5545 174.219 62.1869 174.219ZM62.0599 165.662C60.1749 165.662 59.3701 166.298 59.2218 167.674H64.8555C64.7708 166.276 63.9237 165.662 62.0599 165.662ZM72.4295 162.316H69.2526V159.817H72.4295V162.316ZM72.4295 174.007H69.2526V163.396H72.4295V174.007ZM77.2693 174.007H74.0924V163.396H77.0363V166.213H77.2269C77.5234 164.497 78.6459 163.184 80.7851 163.184C83.1571 163.184 84.1314 164.815 84.1314 166.891V168.648H80.9545V167.547C80.9545 166.382 80.4885 165.874 79.1966 165.874C77.7776 165.874 77.2693 166.531 77.2693 167.865V174.007ZM94.5647 174.007H90.6042L87.7026 163.396H90.9854L92.235 168.246L92.6797 171.55H92.8915L93.7387 167.928L95.3483 163.396H99.436L101.024 167.928L101.872 171.55H102.083L102.549 168.246L103.778 163.396H107.018L104.011 174.007H100.05L98.2287 168.903L97.4451 165.98H97.2121L96.4073 168.903L94.5647 174.007ZM113.501 174.219C109.964 174.219 107.55 172.482 107.55 168.712C107.55 165.323 109.943 163.184 113.438 163.184C116.911 163.184 119.22 165.006 119.22 168.331C119.22 168.712 119.177 168.987 119.135 169.347H110.494C110.579 170.978 111.341 171.677 113.395 171.677C115.28 171.677 115.937 171.19 115.937 170.279V170.067H119.114V170.3C119.114 172.609 116.869 174.219 113.501 174.219ZM113.374 165.662C111.489 165.662 110.685 166.298 110.536 167.674H116.17C116.085 166.276 115.238 165.662 113.374 165.662ZM123.829 174.219C121.541 174.219 120.165 173.16 120.165 171.381C120.165 169.813 121.329 168.839 123.596 168.606L128.149 168.14V167.738C128.149 166.361 127.535 165.98 125.841 165.98C124.231 165.98 123.574 166.403 123.574 167.611V167.695H120.376V167.632C120.376 165.006 122.579 163.184 126.074 163.184C129.611 163.184 131.284 165.006 131.284 167.78V174.007H128.319V171.571H128.149C127.662 173.223 126.18 174.219 123.829 174.219ZM123.363 171.169C123.363 171.741 123.807 171.974 124.739 171.974C126.9 171.974 128.064 171.465 128.149 169.962L124.464 170.385C123.702 170.449 123.363 170.66 123.363 171.169ZM136.071 174.007H132.894V159.817H136.071V174.007ZM145.21 174.007H142.584C140.106 174.007 138.602 172.842 138.602 170.173V166.022H136.929V163.396H138.602V161.342H141.779V163.396H145.21V166.022H141.779V169.813C141.779 170.872 142.182 171.148 143.304 171.148H145.21V174.007ZM149.577 174.007H146.4V159.817H149.577V166.636H149.746C150.085 164.836 151.335 163.184 154.046 163.184C156.905 163.184 158.303 165.048 158.303 167.505V174.007H155.126V168.458C155.126 166.679 154.363 166.043 152.373 166.043C150.233 166.043 149.577 166.912 149.577 168.691V174.007ZM166.351 174.007H163.174V163.396H166.118V166.615H166.287C166.541 164.836 167.6 163.184 170.269 163.184C172.726 163.184 173.975 164.688 174.208 166.658H174.399C174.653 164.857 175.733 163.184 178.465 163.184C181.198 163.184 182.532 164.984 182.532 167.399V174.007H179.355V168.458C179.355 166.7 178.741 166.043 176.919 166.043C174.992 166.043 174.441 166.806 174.441 168.648V174.007H171.264V168.458C171.264 166.7 170.65 166.043 168.829 166.043C166.901 166.043 166.351 166.806 166.351 168.648V174.007ZM187.408 174.219C185.121 174.219 183.744 173.16 183.744 171.381C183.744 169.813 184.909 168.839 187.175 168.606L191.729 168.14V167.738C191.729 166.361 191.114 165.98 189.42 165.98C187.81 165.98 187.154 166.403 187.154 167.611V167.695H183.956V167.632C183.956 165.006 186.158 163.184 189.653 163.184C193.19 163.184 194.863 165.006 194.863 167.78V174.007H191.898V171.571H191.729C191.241 173.223 189.759 174.219 187.408 174.219ZM186.942 171.169C186.942 171.741 187.387 171.974 188.319 171.974C190.479 171.974 191.644 171.465 191.729 169.962L188.043 170.385C187.281 170.449 186.942 170.66 186.942 171.169ZM199.65 174.007H196.473V163.396H199.417V166.658H199.608C199.883 164.879 201.154 163.184 203.929 163.184C206.83 163.184 208.207 165.048 208.207 167.399V174.007H205.03V168.458C205.03 166.763 204.331 166.043 202.382 166.043C200.37 166.043 199.65 166.848 199.65 168.648V174.007ZM213.076 174.219C210.788 174.219 209.412 173.16 209.412 171.381C209.412 169.813 210.576 168.839 212.843 168.606L217.396 168.14V167.738C217.396 166.361 216.782 165.98 215.088 165.98C213.478 165.98 212.821 166.403 212.821 167.611V167.695H209.623V167.632C209.623 165.006 211.826 163.184 215.321 163.184C218.858 163.184 220.531 165.006 220.531 167.78V174.007H217.566V171.571H217.396C216.909 173.223 215.426 174.219 213.076 174.219ZM212.61 171.169C212.61 171.741 213.054 171.974 213.986 171.974C216.147 171.974 217.311 171.465 217.396 169.962L213.711 170.385C212.948 170.449 212.61 170.66 212.61 171.169ZM226.8 172.927C223.645 172.927 221.823 171.042 221.823 168.055C221.823 165.09 223.751 163.184 226.928 163.184C229.088 163.184 230.634 164.116 230.973 165.959H231.142V163.396H234.107V172.461C234.107 176.167 231.862 177.819 228.071 177.819C224.64 177.819 222.48 176.294 222.48 173.626H225.657C225.657 174.812 226.123 175.172 228.283 175.172C230.316 175.172 230.93 174.748 230.93 172.673V170.279H230.761C230.422 171.847 229.173 172.927 226.8 172.927ZM225.021 168.055C225.021 169.623 225.911 170.195 227.902 170.195C229.935 170.195 230.93 169.623 230.93 168.161V167.928C230.93 166.488 229.914 165.938 227.944 165.938C225.911 165.938 225.021 166.488 225.021 168.055ZM241.425 174.219C237.889 174.219 235.474 172.482 235.474 168.712C235.474 165.323 237.867 163.184 241.362 163.184C244.835 163.184 247.144 165.006 247.144 168.331C247.144 168.712 247.102 168.987 247.059 169.347H238.418C238.503 170.978 239.265 171.677 241.32 171.677C243.205 171.677 243.861 171.19 243.861 170.279V170.067H247.038V170.3C247.038 172.609 244.793 174.219 241.425 174.219ZM241.298 165.662C239.413 165.662 238.609 166.298 238.46 167.674H244.094C244.009 166.276 243.162 165.662 241.298 165.662ZM251.668 174.007H248.491V163.396H251.435V166.615H251.604C251.859 164.836 252.918 163.184 255.586 163.184C258.043 163.184 259.293 164.688 259.526 166.658H259.716C259.97 164.857 261.05 163.184 263.783 163.184C266.515 163.184 267.849 164.984 267.849 167.399V174.007H264.672V168.458C264.672 166.7 264.058 166.043 262.236 166.043C260.309 166.043 259.758 166.806 259.758 168.648V174.007H256.582V168.458C256.582 166.7 255.967 166.043 254.146 166.043C252.219 166.043 251.668 166.806 251.668 168.648V174.007ZM275.097 174.219C271.56 174.219 269.146 172.482 269.146 168.712C269.146 165.323 271.539 163.184 275.034 163.184C278.507 163.184 280.816 165.006 280.816 168.331C280.816 168.712 280.773 168.987 280.731 169.347H272.09C272.175 170.978 272.937 171.677 274.991 171.677C276.876 171.677 277.533 171.19 277.533 170.279V170.067H280.71V170.3C280.71 172.609 278.465 174.219 275.097 174.219ZM274.97 165.662C273.085 165.662 272.28 166.298 272.132 167.674H277.766C277.681 166.276 276.834 165.662 274.97 165.662ZM285.34 174.007H282.163V163.396H285.107V166.658H285.297C285.573 164.879 286.844 163.184 289.618 163.184C292.52 163.184 293.896 165.048 293.896 167.399V174.007H290.719V168.458C290.719 166.763 290.02 166.043 288.072 166.043C286.06 166.043 285.34 166.848 285.34 168.648V174.007ZM302.98 174.007H300.354C297.876 174.007 296.372 172.842 296.372 170.173V166.022H294.699V163.396H296.372V161.342H299.549V163.396H302.98V166.022H299.549V169.813C299.549 170.872 299.951 171.148 301.074 171.148H302.98V174.007ZM308.045 174.007H303.958V170.3H308.045V174.007Z" fill="black"/>
<path d="M39.6712 545.07H33.3457L44.3778 519.843H52.4353L63.5427 545.07H57.0665L54.6945 539.497H42.081L39.6712 545.07ZM46.6369 528.917L44.2648 534.414H52.5106L50.1385 528.917L48.5948 525.001H48.1806L46.6369 528.917ZM76.3177 545.07H70.6699V526.206H75.9035V531.214H76.2424C76.7695 528.164 78.7651 525.83 82.5679 525.83C86.785 525.83 88.517 528.729 88.517 532.419V535.544H82.8692V533.586C82.8692 531.515 82.0408 530.611 79.744 530.611C77.2213 530.611 76.3177 531.779 76.3177 534.151V545.07ZM100.578 545.446C94.2898 545.446 89.9975 542.359 89.9975 535.657C89.9975 529.632 94.2522 525.83 100.465 525.83C106.64 525.83 110.744 529.068 110.744 534.979C110.744 535.657 110.669 536.146 110.593 536.786H95.2311C95.3817 539.686 96.7372 540.928 100.389 540.928C103.741 540.928 104.908 540.062 104.908 538.443V538.067H110.556V538.481C110.556 542.585 106.564 545.446 100.578 545.446ZM100.352 530.235C97.0008 530.235 95.57 531.364 95.3064 533.812H105.322C105.171 531.327 103.665 530.235 100.352 530.235ZM122.665 545.446C116.302 545.446 112.8 542.961 112.8 538.594V538.481H118.448V538.82C118.448 540.514 119.502 540.966 122.703 540.966C125.715 540.966 126.43 540.476 126.43 539.347C126.43 538.292 125.865 537.991 123.644 537.69L118.335 537.05C114.57 536.636 112.461 534.941 112.461 531.779C112.461 528.465 115.285 525.83 121.761 525.83C127.936 525.83 131.438 528.164 131.438 532.758V532.871H125.79V532.645C125.79 531.101 125.037 530.31 121.573 530.31C118.749 530.31 118.034 530.8 118.034 532.005C118.034 532.983 118.561 533.398 121.046 533.699L125.075 534.188C130.12 534.753 132.003 536.447 132.003 539.573C132.003 543.112 128.501 545.446 122.665 545.446ZM144.297 545.446C138.009 545.446 133.717 542.359 133.717 535.657C133.717 529.632 137.971 525.83 144.184 525.83C150.359 525.83 154.463 529.068 154.463 534.979C154.463 535.657 154.388 536.146 154.312 536.786H138.95C139.101 539.686 140.456 540.928 144.109 540.928C147.46 540.928 148.627 540.062 148.627 538.443V538.067H154.275V538.481C154.275 542.585 150.284 545.446 144.297 545.446ZM144.071 530.235C140.72 530.235 139.289 531.364 139.026 533.812H149.041C148.89 531.327 147.384 530.235 144.071 530.235ZM162.656 545.446C158.59 545.446 156.143 543.564 156.143 540.401C156.143 537.615 158.214 535.883 162.242 535.469L170.338 534.64V533.925C170.338 531.477 169.246 530.8 166.233 530.8C163.372 530.8 162.205 531.553 162.205 533.699V533.849H156.519V533.737C156.519 529.068 160.435 525.83 166.648 525.83C172.936 525.83 175.91 529.068 175.91 534V545.07H170.639V540.74H170.338C169.472 543.677 166.836 545.446 162.656 545.446ZM161.828 540.024C161.828 541.041 162.619 541.455 164.276 541.455C168.116 541.455 170.187 540.552 170.338 537.878L163.786 538.631C162.431 538.744 161.828 539.121 161.828 540.024ZM184.421 545.07H178.773V526.206H184.006V531.214H184.345C184.872 528.164 186.868 525.83 190.671 525.83C194.888 525.83 196.62 528.729 196.62 532.419V535.544H190.972V533.586C190.972 531.515 190.144 530.611 187.847 530.611C185.324 530.611 184.421 531.779 184.421 534.151V545.07ZM208.718 545.446C202.242 545.446 198.1 541.606 198.1 535.657C198.1 529.632 202.242 525.83 208.718 525.83C214.78 525.83 218.922 529.068 218.922 533.962V534.49H213.312V534.188C213.312 531.779 211.542 530.913 208.605 530.913C205.254 530.913 203.711 532.155 203.711 535.657C203.711 539.121 205.254 540.363 208.605 540.363C211.542 540.363 213.312 539.497 213.312 537.088V536.786H218.922V537.313C218.922 542.171 214.78 545.446 208.718 545.446ZM227 545.07H221.352V519.843H227V531.967H227.301C227.904 528.766 230.125 525.83 234.945 525.83C240.028 525.83 242.513 529.143 242.513 533.511V545.07H236.865V535.205C236.865 532.042 235.509 530.913 231.97 530.913C228.167 530.913 227 532.456 227 535.619V545.07ZM45.0932 591.446C38.617 591.446 34.4752 587.606 34.4752 581.657C34.4752 575.632 38.617 571.83 45.0932 571.83C51.1552 571.83 55.2969 575.068 55.2969 579.962V580.49H49.6867V580.188C49.6867 577.779 47.9171 576.913 44.9802 576.913C41.6292 576.913 40.0854 578.155 40.0854 581.657C40.0854 585.121 41.6292 586.363 44.9802 586.363C47.9171 586.363 49.6867 585.497 49.6867 583.088V582.786H55.2969V583.313C55.2969 588.171 51.1552 591.446 45.0932 591.446ZM67.7801 591.446C61.3415 591.446 57.0115 587.606 57.0115 581.657C57.0115 575.632 61.3415 571.83 67.7801 571.83C74.2186 571.83 78.5486 575.632 78.5486 581.657C78.5486 587.606 74.2186 591.446 67.7801 591.446ZM67.7801 586.439C71.5829 586.439 72.9384 584.97 72.9384 581.657C72.9384 578.343 71.5829 576.8 67.7801 576.8C63.9395 576.8 62.6217 578.343 62.6217 581.657C62.6217 584.97 63.9395 586.439 67.7801 586.439ZM86.5029 591.07H80.8551V572.206H86.0887V577.929H86.3899C86.8418 574.766 88.7244 571.83 93.4685 571.83C97.8362 571.83 100.058 574.503 100.472 578.005H100.811C101.263 574.804 103.183 571.83 108.04 571.83C112.897 571.83 115.269 575.03 115.269 579.322V591.07H109.621V581.205C109.621 578.08 108.529 576.913 105.291 576.913C101.865 576.913 100.886 578.268 100.886 581.544V591.07H95.2382V581.205C95.2382 578.08 94.1463 576.913 90.9082 576.913C87.4819 576.913 86.5029 578.268 86.5029 581.544V591.07ZM123.787 597.471H118.14V572.206H123.373V577.364H123.75C124.427 573.75 126.837 571.83 131.28 571.83C137.079 571.83 140.317 575.67 140.317 581.657C140.317 587.643 137.154 591.446 131.468 591.446C127.101 591.446 124.691 589.3 124.051 585.987H123.787V597.471ZM123.787 581.92C123.787 585.158 125.745 586.288 129.285 586.288C132.899 586.288 134.594 585.083 134.594 581.657C134.594 578.193 132.899 577.026 129.322 577.026C125.67 577.026 123.787 578.268 123.787 581.619V581.92ZM148.463 591.446C144.397 591.446 141.95 589.564 141.95 586.401C141.95 583.615 144.02 581.883 148.049 581.469L156.144 580.64V579.925C156.144 577.477 155.052 576.8 152.04 576.8C149.179 576.8 148.012 577.553 148.012 579.699V579.849H142.326V579.737C142.326 575.068 146.242 571.83 152.454 571.83C158.742 571.83 161.717 575.068 161.717 580V591.07H156.446V586.74H156.144C155.278 589.677 152.643 591.446 148.463 591.446ZM147.635 586.024C147.635 587.041 148.426 587.455 150.082 587.455C153.923 587.455 155.994 586.552 156.144 583.878L149.593 584.631C148.237 584.744 147.635 585.121 147.635 586.024ZM170.227 591.07H164.58V572.206H169.813V578.005H170.152C170.642 574.842 172.901 571.83 177.833 571.83C182.992 571.83 185.439 575.143 185.439 579.322V591.07H179.791V581.205C179.791 578.193 178.549 576.913 175.085 576.913C171.508 576.913 170.227 578.343 170.227 581.544V591.07ZM191.911 597.471H188.823V592.35H193.454C194.848 592.35 195.45 591.973 195.827 591.145L186.602 572.206H193.003L196.994 580.828L198.575 585.271H198.952L200.458 580.791L204.035 572.206H210.323L200.985 592.425C199.178 596.379 196.655 597.471 191.911 597.471ZM224.645 591.07H218.997V576.875H216.324V572.206H219.11C219.713 568.403 223.026 565.843 228.825 565.843H230.481V569.947H227.921C225.436 569.947 224.269 570.361 224.419 572.206H230.481V576.875H224.645V591.07ZM238.012 570.286H232.364V565.843H238.012V570.286ZM238.012 591.07H232.364V572.206H238.012V591.07ZM246.635 591.07H240.987V572.206H246.221V577.214H246.56C247.087 574.164 249.082 571.83 252.885 571.83C257.102 571.83 258.834 574.729 258.834 578.419V581.544H253.186V579.586C253.186 577.515 252.358 576.611 250.061 576.611C247.539 576.611 246.635 577.779 246.635 580.151V591.07ZM270.406 591.446C264.042 591.446 260.541 588.961 260.541 584.594V584.481H266.188V584.82C266.188 586.514 267.243 586.966 270.443 586.966C273.455 586.966 274.171 586.476 274.171 585.347C274.171 584.292 273.606 583.991 271.384 583.69L266.076 583.05C262.31 582.636 260.202 580.941 260.202 577.779C260.202 574.465 263.026 571.83 269.502 571.83C275.677 571.83 279.178 574.164 279.178 578.758V578.871H273.531V578.645C273.531 577.101 272.778 576.31 269.314 576.31C266.49 576.31 265.774 576.8 265.774 578.005C265.774 578.983 266.301 579.398 268.786 579.699L272.815 580.188C277.861 580.753 279.743 582.447 279.743 585.573C279.743 589.112 276.242 591.446 270.406 591.446ZM295.313 591.07H290.644C286.239 591.07 283.566 588.999 283.566 584.255V576.875H280.591V572.206H283.566V568.554H289.214V572.206H295.313V576.875H289.214V583.615C289.214 585.497 289.929 585.987 291.925 585.987H295.313V591.07Z" fill="white"/>
<path d="M377.68 587.784H375.562V580.95H373.133V579.496H373.528C374.573 579.496 375.279 579.256 375.745 578.324H377.68V587.784ZM383.328 587.925C380.279 587.925 378.598 586.005 378.598 583.054C378.598 580.117 380.279 578.183 383.328 578.183C386.364 578.183 388.058 580.117 388.058 583.054C388.058 586.005 386.364 587.925 383.328 587.925ZM383.328 585.864C385.122 585.864 385.785 585.087 385.785 583.054C385.785 581.021 385.122 580.244 383.328 580.244C381.521 580.244 380.872 581.021 380.872 583.054C380.872 585.087 381.521 585.864 383.328 585.864ZM390.37 588.067H388.111L393.194 578.042H395.454L390.37 588.067ZM399.444 587.784H397.001C397.001 583.534 399.43 581.656 401.209 580.386V580.23H395.236V578.324H403.411V580.033C400.785 582.518 399.444 584.226 399.444 587.784ZM405.414 588.067H403.155L408.238 578.042H410.497L405.414 588.067ZM418.864 587.784H410.463V586.429C410.463 584.763 411.183 583.901 413.174 583.238L415.603 582.447C416.45 582.15 416.761 581.868 416.761 581.247C416.761 580.527 416.365 580.117 414.812 580.117C413.075 580.117 412.553 580.64 412.553 581.685V581.868H410.477V581.685C410.477 579.849 411.734 578.183 414.883 578.183C417.735 578.183 418.893 579.482 418.893 581.275C418.893 582.955 417.791 583.788 416.111 584.254L414.05 584.819C413.132 585.101 412.694 585.37 412.694 586.118L415.165 585.878H418.864V587.784ZM424.308 587.925C421.258 587.925 419.578 586.005 419.578 583.054C419.578 580.117 421.258 578.183 424.308 578.183C427.344 578.183 429.038 580.117 429.038 583.054C429.038 586.005 427.344 587.925 424.308 587.925ZM424.308 585.864C426.101 585.864 426.765 585.087 426.765 583.054C426.765 581.021 426.101 580.244 424.308 580.244C422.501 580.244 421.851 581.021 421.851 583.054C421.851 585.087 422.501 585.864 424.308 585.864ZM438.099 587.784H429.698V586.429C429.698 584.763 430.418 583.901 432.409 583.238L434.838 582.447C435.685 582.15 435.996 581.868 435.996 581.247C435.996 580.527 435.6 580.117 434.047 580.117C432.31 580.117 431.788 580.64 431.788 581.685V581.868H429.712V581.685C429.712 579.849 430.969 578.183 434.118 578.183C436.97 578.183 438.128 579.482 438.128 581.275C438.128 582.955 437.026 583.788 435.346 584.254L433.285 584.819C432.367 585.101 431.929 585.37 431.929 586.118L434.4 585.878H438.099V587.784ZM446.791 587.784H444.673V585.977H438.672V584.537L444.334 578.324H446.791V584.071H448.231V585.977H446.791V587.784ZM441.623 584.071H444.673V580.767H444.518L441.623 583.915V584.071Z" fill="white"/>
<path d="M463.659 481.8C499.329 492.665 537.053 472.558 547.918 436.888C558.783 401.218 538.675 363.494 503.006 352.629C467.336 341.764 429.612 361.872 418.747 397.542C407.882 433.211 427.99 470.935 463.659 481.8Z" stroke="black" stroke-width="14.4573" stroke-miterlimit="10"/>
<path d="M572.754 492.791C613.994 492.886 647.525 449.53 647.648 395.954C647.77 342.378 614.438 298.87 573.198 298.776C531.958 298.681 498.427 342.037 498.305 395.613C498.182 449.189 531.514 492.697 572.754 492.791Z" stroke="black" stroke-width="14.4573" stroke-miterlimit="10"/>
<path d="M617.578 357.603C658.818 357.698 692.349 314.342 692.471 260.766C692.594 207.19 659.262 163.682 618.022 163.588C576.782 163.493 543.251 206.849 543.128 260.425C543.006 314.001 576.338 357.509 617.578 357.603Z" stroke="black" stroke-width="14.4573" stroke-miterlimit="10"/>
<path d="M37.558 402.994L34.3811 402.994L34.3811 388.803L38.6805 388.803L42.0057 395.793L43.34 399.118L43.5729 399.118L44.8649 395.793L48.0841 388.803L52.4047 388.803L52.4047 402.994L49.2278 402.994L49.2278 395.793L49.3337 393.569L49.1008 393.569L48.2748 395.793L45.3097 402.146L41.455 402.146L38.4899 395.793L37.6639 393.569L37.4309 393.569L37.558 395.793L37.558 402.994ZM56.1045 406.594L54.3678 406.594L54.3678 403.714L56.9729 403.714C57.7565 403.714 58.0954 403.502 58.3072 403.036L53.1182 392.383L56.7187 392.383L58.9637 397.233L59.8532 399.732L60.065 399.732L60.9122 397.212L62.9243 392.383L66.4612 392.383L61.2087 403.756C60.1921 405.98 58.7731 406.594 56.1045 406.594ZM73.6705 406.594L70.4936 406.594L70.4936 392.383L73.4375 392.383L73.4375 395.284L73.6493 395.284C74.0305 393.251 75.386 392.171 77.8851 392.171C81.1468 392.171 82.9682 394.331 82.9682 397.699C82.9682 401.066 81.1891 403.205 77.991 403.205C75.5342 403.205 74.1788 401.998 73.8187 400.134L73.6705 400.134L73.6705 406.594ZM73.6705 397.847C73.6705 399.668 74.7718 400.304 76.7626 400.304C78.7959 400.304 79.7489 399.626 79.7489 397.699C79.7489 395.75 78.7959 395.094 76.7838 395.094C74.7294 395.094 73.6705 395.793 73.6705 397.678L73.6705 397.847ZM88.6732 403.205C85.6869 403.205 84.2679 401.363 84.2679 398.991L84.2679 392.383L87.4448 392.383L87.4448 397.932C87.4448 399.647 88.1649 400.367 90.1769 400.367C92.2525 400.367 92.9938 399.563 92.9938 397.762L92.9938 392.383L96.1707 392.383L96.1707 402.994L93.2056 402.994L93.2056 399.753L93.0362 399.753C92.7608 401.532 91.4689 403.205 88.6732 403.205ZM100.972 402.994L97.7951 402.994L97.7951 392.383L100.739 392.383L100.739 395.2L100.93 395.2C101.226 393.484 102.349 392.171 104.488 392.171C106.86 392.171 107.834 393.802 107.834 395.877L107.834 397.635L104.657 397.635L104.657 396.534C104.657 395.369 104.191 394.861 102.899 394.861C101.48 394.861 100.972 395.517 100.972 396.852L100.972 402.994ZM114.343 403.205C110.764 403.205 108.794 401.808 108.794 399.351L108.794 399.287L111.971 399.287L111.971 399.478C111.971 400.431 112.564 400.685 114.364 400.685C116.058 400.685 116.461 400.41 116.461 399.774C116.461 399.181 116.143 399.012 114.894 398.842L111.907 398.482C109.789 398.249 108.603 397.296 108.603 395.517C108.603 393.654 110.192 392.171 113.835 392.171C117.308 392.171 119.278 393.484 119.278 396.068L119.278 396.132L116.101 396.132L116.101 396.004C116.101 395.136 115.677 394.691 113.729 394.691C112.14 394.691 111.738 394.967 111.738 395.644C111.738 396.195 112.034 396.428 113.432 396.597L115.698 396.873C118.536 397.191 119.595 398.144 119.595 399.901C119.595 401.892 117.626 403.205 114.343 403.205ZM126.511 403.205C122.974 403.205 120.56 401.469 120.56 397.699C120.56 394.31 122.953 392.171 126.447 392.171C129.921 392.171 132.229 393.992 132.229 397.318C132.229 397.699 132.187 397.974 132.145 398.334L123.503 398.334C123.588 399.965 124.351 400.664 126.405 400.664C128.29 400.664 128.947 400.177 128.947 399.266L128.947 399.054L132.123 399.054L132.123 399.287C132.123 401.596 129.878 403.205 126.511 403.205ZM126.384 394.649C124.499 394.649 123.694 395.284 123.546 396.661L129.18 396.661C129.095 395.263 128.248 394.649 126.384 394.649ZM140.021 402.994L136.844 402.994L136.844 388.803L140.021 388.803L140.021 394.437L147.434 394.437L147.434 388.803L150.611 388.803L150.611 402.994L147.434 402.994L147.434 397.296L140.021 397.296L140.021 402.994ZM165.319 405.98L161.189 405.98L158.987 403.184C154.645 402.93 151.998 400.113 151.998 395.899C151.998 391.472 154.92 388.592 159.622 388.592C164.43 388.592 167.331 391.472 167.331 395.899C167.331 399.351 165.574 401.871 162.503 402.803L165.319 405.98ZM159.622 400.156C162.736 400.156 163.943 399.054 163.943 395.899C163.943 392.743 162.736 391.642 159.622 391.642C156.509 391.642 155.365 392.743 155.365 395.899C155.365 399.054 156.509 400.156 159.622 400.156Z" fill="black"/>
<path d="M479.806 587.784L477.688 587.784L477.688 580.71L479.651 580.71L479.651 582.856L479.764 582.856C479.933 581.67 480.639 580.569 482.418 580.569C484.056 580.569 484.889 581.572 485.045 582.885L485.172 582.885C485.341 581.685 486.061 580.569 487.883 580.569C489.704 580.569 490.594 581.769 490.594 583.379L490.594 587.784L488.476 587.784L488.476 584.085C488.476 582.913 488.066 582.475 486.852 582.475C485.567 582.475 485.2 582.984 485.2 584.212L485.2 587.784L483.082 587.784L483.082 584.085C483.082 582.913 482.673 582.475 481.458 582.475C480.173 582.475 479.806 582.984 479.806 584.212L479.806 587.784ZM493.026 590.185L491.868 590.185L491.868 588.264L493.604 588.264C494.127 588.264 494.353 588.123 494.494 587.812L491.035 580.71L493.435 580.71L494.932 583.944L495.525 585.61L495.666 585.61L496.231 583.93L497.572 580.71L499.93 580.71L496.428 588.292C495.751 589.775 494.805 590.185 493.026 590.185ZM502.558 590.185L500.44 590.185L500.44 580.71L502.402 580.71L502.402 582.645L502.543 582.645C502.798 581.289 503.701 580.569 505.367 580.569C507.542 580.569 508.756 582.009 508.756 584.254C508.756 586.499 507.57 587.925 505.438 587.925C503.8 587.925 502.896 587.121 502.656 585.878L502.558 585.878L502.558 590.185ZM502.558 584.353C502.558 585.567 503.292 585.991 504.619 585.991C505.975 585.991 506.61 585.539 506.61 584.254C506.61 582.955 505.975 582.518 504.633 582.518C503.264 582.518 502.558 582.984 502.558 584.24L502.558 584.353ZM512.559 587.925C510.569 587.925 509.623 586.697 509.623 585.116L509.623 580.71L511.74 580.71L511.74 584.41C511.74 585.553 512.221 586.033 513.562 586.033C514.946 586.033 515.44 585.497 515.44 584.297L515.44 580.71L517.558 580.71L517.558 587.784L515.581 587.784L515.581 585.624L515.468 585.624C515.285 586.81 514.423 587.925 512.559 587.925ZM520.759 587.784L518.641 587.784L518.641 580.71L520.603 580.71L520.603 582.588L520.73 582.588C520.928 581.444 521.676 580.569 523.102 580.569C524.684 580.569 525.333 581.656 525.333 583.04L525.333 584.212L523.215 584.212L523.215 583.478C523.215 582.701 522.905 582.362 522.043 582.362C521.097 582.362 520.759 582.8 520.759 583.69L520.759 587.784ZM529.673 587.925C527.286 587.925 525.973 586.993 525.973 585.356L525.973 585.313L528.091 585.313L528.091 585.44C528.091 586.076 528.487 586.245 529.687 586.245C530.816 586.245 531.085 586.062 531.085 585.638C531.085 585.243 530.873 585.13 530.04 585.017L528.049 584.777C526.637 584.621 525.846 583.986 525.846 582.8C525.846 581.557 526.905 580.569 529.334 580.569C531.649 580.569 532.962 581.444 532.962 583.167L532.962 583.209L530.844 583.209L530.844 583.125C530.844 582.546 530.562 582.249 529.263 582.249C528.204 582.249 527.936 582.433 527.936 582.885C527.936 583.252 528.134 583.407 529.065 583.52L530.576 583.704C532.468 583.915 533.174 584.551 533.174 585.723C533.174 587.05 531.861 587.925 529.673 587.925ZM537.785 587.925C535.427 587.925 533.817 586.768 533.817 584.254C533.817 581.995 535.412 580.569 537.742 580.569C540.058 580.569 541.597 581.783 541.597 584C541.597 584.254 541.569 584.438 541.54 584.678L535.78 584.678C535.836 585.765 536.344 586.231 537.714 586.231C538.971 586.231 539.408 585.906 539.408 585.299L539.408 585.158L541.526 585.158L541.526 585.313C541.526 586.852 540.03 587.925 537.785 587.925ZM537.7 582.221C536.443 582.221 535.907 582.645 535.808 583.562L539.564 583.562C539.507 582.631 538.942 582.221 537.7 582.221ZM544.613 590.185L542.495 590.185L542.495 580.71L544.458 580.71L544.458 582.645L544.599 582.645C544.853 581.289 545.757 580.569 547.423 580.569C549.597 580.569 550.811 582.009 550.811 584.254C550.811 586.499 549.625 587.925 547.493 587.925C545.855 587.925 544.952 587.121 544.712 585.878L544.613 585.878L544.613 590.185ZM544.613 584.353C544.613 585.567 545.347 585.991 546.674 585.991C548.03 585.991 548.665 585.539 548.665 584.254C548.665 582.955 548.03 582.518 546.689 582.518C545.319 582.518 544.613 582.984 544.613 584.24L544.613 584.353ZM553.866 587.925C552.342 587.925 551.424 587.219 551.424 586.033C551.424 584.989 552.2 584.339 553.711 584.184L556.747 583.873L556.747 583.605C556.747 582.687 556.337 582.433 555.208 582.433C554.135 582.433 553.697 582.715 553.697 583.52L553.697 583.577L551.565 583.577L551.565 583.534C551.565 581.783 553.033 580.569 555.363 580.569C557.721 580.569 558.837 581.783 558.837 583.633L558.837 587.784L556.86 587.784L556.86 586.16L556.747 586.16C556.422 587.262 555.434 587.925 553.866 587.925ZM553.556 585.892C553.556 586.273 553.852 586.429 554.474 586.429C555.914 586.429 556.69 586.09 556.747 585.087L554.29 585.37C553.782 585.412 553.556 585.553 553.556 585.892ZM561.266 590.185L560.108 590.185L560.108 588.264L561.844 588.264C562.367 588.264 562.593 588.123 562.734 587.812L559.275 580.71L561.675 580.71L563.172 583.944L563.765 585.61L563.906 585.61L564.471 583.93L565.812 580.71L568.17 580.71L564.668 588.292C563.991 589.775 563.045 590.185 561.266 590.185ZM571.264 587.784L568.538 587.784L568.538 585.313L571.264 585.313L571.264 587.784ZM576.021 587.925C573.592 587.925 572.039 586.485 572.039 584.254C572.039 581.995 573.592 580.569 576.021 580.569C578.294 580.569 579.847 581.783 579.847 583.619L579.847 583.817L577.743 583.817L577.743 583.704C577.743 582.8 577.08 582.475 575.978 582.475C574.722 582.475 574.143 582.941 574.143 584.254C574.143 585.553 574.722 586.019 575.978 586.019C577.08 586.019 577.743 585.694 577.743 584.791L577.743 584.678L579.847 584.678L579.847 584.876C579.847 586.697 578.294 587.925 576.021 587.925ZM584.528 587.925C582.114 587.925 580.49 586.485 580.49 584.254C580.49 581.995 582.114 580.569 584.528 580.569C586.943 580.569 588.567 581.995 588.567 584.254C588.567 586.485 586.943 587.925 584.528 587.925ZM584.528 586.047C585.954 586.047 586.463 585.497 586.463 584.254C586.463 583.012 585.954 582.433 584.528 582.433C583.088 582.433 582.594 583.012 582.594 584.254C582.594 585.497 583.088 586.047 584.528 586.047ZM591.549 587.784L589.432 587.784L589.432 580.71L591.394 580.71L591.394 582.856L591.507 582.856C591.677 581.67 592.383 580.569 594.162 580.569C595.799 580.569 596.632 581.572 596.788 582.885L596.915 582.885C597.084 581.685 597.804 580.569 599.626 580.569C601.447 580.569 602.337 581.769 602.337 583.379L602.337 587.784L600.219 587.784L600.219 584.085C600.219 582.913 599.809 582.475 598.595 582.475C597.31 582.475 596.943 582.984 596.943 584.212L596.943 587.784L594.825 587.784L594.825 584.085C594.825 582.913 594.416 582.475 593.201 582.475C591.917 582.475 591.549 582.984 591.549 584.212L591.549 587.784Z" fill="white"/>
</g>
<defs>
<clipPath id="clip0_1_3604">
<rect width="635.38" height="635.38" fill="white"/>
</clipPath>
</defs>
</svg>
