<svg width="30" height="25" viewBox="0 0 30 25" fill="none" xmlns="http://www.w3.org/2000/svg">
<rect width="29.2683" height="24.2388" transform="translate(0.731705)" fill="#FF0ACB"/>
<path d="M6.80488 18.0708H4.60976V8.26592H7.58049L9.87805 13.0952L10.8 15.3928H10.961L11.8537 13.0952L14.0781 8.26592H17.0634V18.0708H14.8683V13.0952L14.9415 11.5586H14.7805L14.2098 13.0952L12.161 17.4854H9.49756L7.44878 13.0952L6.87805 11.5586H6.71707L6.80488 13.0952V18.0708ZM24.332 18.0708H18.171V8.26592H24.054C26.0588 8.26592 27.1418 9.1147 27.1418 10.6513C27.1418 11.8659 26.4979 12.744 24.8588 12.861V12.9928C26.6735 13.1245 27.5515 14.0318 27.5515 15.3488C27.5515 17.0171 26.5271 18.0708 24.332 18.0708ZM20.3662 10.2415V12.1586H23.8052C24.6101 12.1586 24.9466 11.8806 24.9466 11.2074C24.9466 10.5342 24.5954 10.2415 23.7759 10.2415H20.3662ZM20.3662 13.9732V16.0952H24.0686C24.9613 16.0952 25.3271 15.8171 25.3271 15.0269C25.3271 14.2513 24.9613 13.9732 24.0686 13.9732H20.3662Z" fill="black"/>
</svg>
