<svg width="30" height="25" viewBox="0 0 30 25" fill="none" xmlns="http://www.w3.org/2000/svg">
<rect width="29.2683" height="24.2388" fill="#FFE20A"/>
<path d="M6.07317 18.0708H3.87805V8.26592H6.84878L9.14635 13.0952L10.0683 15.3928H10.2293L11.122 13.0952L13.3463 8.26592H16.3317V18.0708H14.1366V13.0952L14.2098 11.5586H14.0488L13.4781 13.0952L11.4293 17.4854H8.76586L6.71708 13.0952L6.14635 11.5586H5.98537L6.07317 13.0952V18.0708ZM21.932 18.2171C18.9613 18.2171 17.293 17.0464 17.293 14.7635V14.6757H19.4881V14.9391C19.4881 15.8464 19.9418 16.2123 21.932 16.2123C23.6881 16.2123 24.0979 15.9488 24.0979 15.2903C24.0979 14.6903 23.7613 14.4708 22.7515 14.2952L20.0003 13.9001C18.2442 13.622 17.2052 12.744 17.2052 11.1488C17.2052 9.6708 18.4052 8.11958 21.6979 8.11958C24.7125 8.11958 26.1174 9.50982 26.1174 11.5732V11.661H23.9076V11.4562C23.9076 10.5196 23.4247 10.1245 21.4784 10.1245C19.8979 10.1245 19.4149 10.4318 19.4149 11.061C19.4149 11.6318 19.7369 11.8367 20.5564 11.983L23.3076 12.422C25.5027 12.7732 26.293 13.8415 26.293 15.1879C26.293 16.783 25.0491 18.2171 21.932 18.2171Z" fill="black"/>
</svg>
