<svg width="503" height="462" viewBox="0 0 503 462" fill="none" xmlns="http://www.w3.org/2000/svg">
<rect x="503.009" y="317.789" width="115" height="160.884" rx="57.5" transform="rotate(103.632 503.009 317.789)" fill="#98F500"/>
<g clip-path="url(#clip0_1653_3906)">
<rect x="-0.00439453" y="51.8268" width="405.101" height="413" rx="100" transform="rotate(-7.21029 -0.00439453 51.8268)" fill="#EDF200"/>
<g filter="url(#filter0_dddd_1653_3906)">
<g clip-path="url(#clip1_1653_3906)">
<rect x="86.0571" y="66.1382" width="365.803" height="137.657" rx="19.2528" transform="rotate(-1.25008 86.0571 66.1382)" fill="white"/>
<path d="M106.652 134.501L106.471 126.186L107.562 126.162L110.713 132.35L113.573 126.031L114.676 126.007L114.858 134.316L113.714 134.341L113.59 128.653L111.029 134.405L110.481 134.417L107.665 128.782L107.79 134.476L106.652 134.501ZM118.479 134.243L118.404 130.807L115.486 125.989L116.895 125.958L118.986 129.408L120.925 125.87L122.334 125.84L119.628 130.78L119.703 134.216L118.479 134.243ZM123.321 134.137L123.14 125.822L126.501 125.749C126.581 125.747 126.682 125.749 126.801 125.754C126.921 125.755 127.034 125.764 127.143 125.781C127.606 125.844 127.995 125.993 128.308 126.229C128.625 126.465 128.865 126.766 129.027 127.132C129.189 127.498 129.275 127.905 129.284 128.351C129.294 128.802 129.226 129.213 129.08 129.586C128.934 129.959 128.708 130.27 128.401 130.52C128.099 130.769 127.717 130.935 127.257 131.018C127.149 131.036 127.034 131.05 126.911 131.06C126.792 131.071 126.694 131.077 126.617 131.078L124.463 131.125L124.528 134.111L123.321 134.137ZM124.438 129.982L126.546 129.936C126.623 129.934 126.707 129.929 126.8 129.919C126.896 129.909 126.986 129.894 127.07 129.873C127.315 129.81 127.511 129.699 127.658 129.542C127.805 129.381 127.909 129.198 127.97 128.992C128.03 128.787 128.059 128.582 128.054 128.378C128.05 128.174 128.013 127.973 127.943 127.774C127.873 127.571 127.761 127.395 127.608 127.244C127.454 127.089 127.254 126.986 127.006 126.933C126.921 126.912 126.83 126.899 126.734 126.893C126.641 126.888 126.556 126.886 126.479 126.887L124.372 126.933L124.438 129.982ZM133.88 134.08C133.23 134.094 132.651 133.974 132.145 133.719C131.643 133.461 131.246 133.094 130.954 132.619C130.662 132.14 130.509 131.573 130.495 130.919L130.381 125.67L131.605 125.637L131.718 130.828C131.726 131.183 131.792 131.493 131.917 131.76C132.043 132.027 132.207 132.249 132.411 132.425C132.616 132.602 132.842 132.734 133.09 132.821C133.342 132.907 133.598 132.948 133.855 132.943C134.117 132.937 134.37 132.885 134.615 132.787C134.863 132.686 135.085 132.542 135.281 132.357C135.477 132.171 135.63 131.943 135.74 131.671C135.853 131.399 135.906 131.088 135.899 130.737L135.785 125.546L137.01 125.519L137.124 130.774C137.138 131.425 137.01 131.996 136.74 132.487C136.469 132.978 136.087 133.364 135.592 133.644C135.102 133.921 134.531 134.066 133.88 134.08ZM138.806 133.799L138.625 125.484L141.986 125.411C142.066 125.409 142.167 125.411 142.286 125.416C142.406 125.417 142.519 125.426 142.628 125.443C143.091 125.506 143.48 125.655 143.793 125.891C144.11 126.127 144.35 126.428 144.512 126.794C144.674 127.16 144.76 127.567 144.769 128.013C144.784 128.675 144.627 129.251 144.299 129.739C143.97 130.224 143.469 130.534 142.794 130.668L142.304 130.736L139.948 130.788L140.013 133.773L138.806 133.799ZM143.668 133.693L141.955 130.345L143.166 130.007L145.049 133.663L143.668 133.693ZM139.923 129.644L142.031 129.598C142.108 129.597 142.192 129.591 142.285 129.581C142.381 129.571 142.471 129.556 142.555 129.535C142.8 129.472 142.996 129.361 143.143 129.204C143.29 129.043 143.394 128.86 143.455 128.654C143.516 128.449 143.544 128.244 143.539 128.04C143.535 127.836 143.498 127.635 143.428 127.436C143.358 127.233 143.246 127.057 143.093 126.906C142.939 126.751 142.739 126.648 142.491 126.596C142.406 126.574 142.315 126.561 142.219 126.555C142.126 126.55 142.041 126.548 141.964 126.549L139.857 126.595L139.923 129.644ZM149.336 133.743C148.739 133.756 148.198 133.666 147.712 133.472C147.23 133.275 146.829 132.989 146.509 132.614C146.193 132.236 145.983 131.784 145.879 131.259L147.133 131.041C147.272 131.546 147.546 131.937 147.956 132.213C148.367 132.485 148.841 132.616 149.38 132.604C149.715 132.596 150.022 132.538 150.301 132.428C150.579 132.314 150.801 132.157 150.966 131.957C151.135 131.753 151.217 131.512 151.211 131.235C151.207 131.085 151.177 130.953 151.121 130.838C151.068 130.724 150.995 130.625 150.901 130.543C150.81 130.456 150.699 130.383 150.567 130.325C150.438 130.262 150.297 130.209 150.142 130.166L147.997 129.584C147.788 129.527 147.574 129.452 147.357 129.361C147.139 129.265 146.938 129.141 146.754 128.987C146.573 128.829 146.424 128.634 146.307 128.401C146.191 128.165 146.128 127.878 146.121 127.539C146.11 127.027 146.231 126.591 146.485 126.231C146.743 125.867 147.095 125.59 147.542 125.399C147.988 125.205 148.49 125.101 149.049 125.089C149.611 125.084 150.115 125.174 150.562 125.356C151.013 125.539 151.389 125.808 151.689 126.164C151.993 126.515 152.207 126.946 152.33 127.455L151.041 127.703C150.977 127.393 150.847 127.128 150.654 126.909C150.46 126.685 150.226 126.517 149.95 126.404C149.674 126.287 149.376 126.23 149.056 126.233C148.748 126.232 148.466 126.284 148.21 126.39C147.959 126.496 147.758 126.64 147.608 126.825C147.461 127.009 147.391 127.219 147.396 127.453C147.401 127.684 147.472 127.87 147.61 128.009C147.748 128.149 147.916 128.258 148.114 128.339C148.316 128.415 148.516 128.478 148.714 128.528L150.259 128.928C150.453 128.977 150.672 129.046 150.916 129.133C151.165 129.216 151.404 129.336 151.635 129.493C151.869 129.649 152.065 129.861 152.221 130.127C152.376 130.389 152.459 130.723 152.468 131.127C152.477 131.546 152.4 131.918 152.238 132.241C152.075 132.56 151.848 132.831 151.556 133.053C151.268 133.271 150.933 133.438 150.551 133.555C150.168 133.671 149.763 133.733 149.336 133.743ZM153.75 133.473L153.569 125.158L158.881 125.042L158.906 126.18L154.8 126.269L154.851 128.602L158.264 128.528L158.289 129.665L154.876 129.74L154.932 132.309L159.038 132.22L159.063 133.357L153.75 133.473ZM160.449 133.327L160.268 125.012L163.629 124.938C163.709 124.937 163.81 124.938 163.929 124.943C164.049 124.945 164.162 124.954 164.271 124.971C164.734 125.034 165.123 125.183 165.436 125.419C165.753 125.655 165.992 125.956 166.155 126.322C166.317 126.688 166.402 127.094 166.412 127.541C166.422 127.991 166.354 128.403 166.208 128.776C166.062 129.149 165.836 129.46 165.529 129.709C165.227 129.959 164.845 130.125 164.385 130.208C164.277 130.226 164.162 130.24 164.039 130.25C163.92 130.261 163.822 130.267 163.745 130.268L161.591 130.315L161.656 133.301L160.449 133.327ZM161.566 129.172L163.674 129.126C163.751 129.124 163.835 129.119 163.928 129.109C164.024 129.099 164.114 129.084 164.198 129.062C164.443 128.999 164.639 128.889 164.786 128.732C164.933 128.571 165.036 128.388 165.097 128.182C165.158 127.977 165.187 127.772 165.182 127.568C165.178 127.364 165.141 127.162 165.071 126.964C165.001 126.761 164.889 126.584 164.736 126.434C164.582 126.279 164.382 126.176 164.134 126.123C164.049 126.102 163.958 126.089 163.862 126.083C163.769 126.077 163.684 126.075 163.607 126.077L161.5 126.123L161.566 129.172ZM166.537 133.194L169.058 124.82L170.796 124.782L173.68 133.038L172.427 133.066L169.773 125.532L170.085 125.525L167.79 133.167L166.537 133.194ZM167.9 131.287L167.875 130.155L172.217 130.06L172.242 131.192L167.9 131.287ZM176.032 132.987L175.957 129.551L173.038 124.733L174.447 124.702L176.539 128.152L178.478 124.614L179.887 124.584L177.181 129.524L177.256 132.96L176.032 132.987ZM182.839 132.838L182.658 124.523L183.865 124.497L184.046 132.812L182.839 132.838ZM185.78 132.774L185.599 124.459L186.823 124.432L191.052 130.522L190.917 124.343L192.141 124.316L192.323 132.631L191.098 132.658L186.869 126.563L187.004 132.748L185.78 132.774ZM193.934 132.596L193.753 124.281L198.679 124.174L198.705 125.38L194.986 125.462L195.037 127.806L198.063 127.74L198.09 128.953L195.064 129.019L195.141 132.57L193.934 132.596ZM199.901 132.466L199.719 124.151L203.08 124.078C203.161 124.076 203.261 124.077 203.38 124.083C203.5 124.084 203.614 124.093 203.722 124.11C204.185 124.173 204.574 124.322 204.887 124.558C205.204 124.794 205.444 125.095 205.606 125.461C205.768 125.827 205.854 126.234 205.863 126.68C205.878 127.342 205.721 127.918 205.393 128.406C205.064 128.891 204.563 129.2 203.888 129.335L203.398 129.403L201.042 129.454L201.107 132.44L199.901 132.466ZM204.763 132.36L203.049 129.012L204.26 128.674L206.143 132.33L204.763 132.36ZM201.017 128.311L203.125 128.265C203.202 128.263 203.287 128.258 203.379 128.248C203.475 128.238 203.565 128.223 203.649 128.202C203.894 128.138 204.09 128.028 204.237 127.871C204.384 127.71 204.488 127.527 204.549 127.321C204.61 127.116 204.638 126.911 204.634 126.707C204.629 126.503 204.592 126.302 204.522 126.103C204.452 125.9 204.341 125.724 204.187 125.573C204.033 125.418 203.833 125.315 203.585 125.262C203.5 125.241 203.409 125.228 203.313 125.222C203.22 125.216 203.135 125.214 203.058 125.216L200.951 125.262L201.017 128.311ZM206.834 132.315L209.355 123.941L211.094 123.903L213.977 132.159L212.724 132.186L210.07 124.653L210.382 124.646L208.087 132.287L206.834 132.315ZM208.197 130.407L208.172 129.276L212.514 129.181L212.539 130.313L208.197 130.407Z" fill="black"/>
<path d="M380.925 -17.1198C382.215 -22.7256 389.539 -24.1473 392.833 -19.4312L406.161 -0.34549C408.185 2.5529 412.125 3.35577 415.122 1.48024L434.854 -10.87C439.73 -13.9218 445.915 -9.74789 444.909 -4.08426L440.838 18.8357C440.219 22.3163 442.438 25.6706 445.883 26.4633L468.569 31.6833C474.175 32.9732 475.597 40.2977 470.88 43.5911L451.795 56.9191C448.896 58.9431 448.094 62.8839 449.969 65.8805L462.319 85.613C465.371 90.489 461.197 96.6735 455.534 95.6674L432.614 91.5961C429.133 90.9779 425.779 93.1967 424.986 96.6418L419.766 119.328C418.476 124.934 411.152 126.355 407.858 121.639L394.53 102.553C392.506 99.655 388.565 98.8521 385.569 100.728L365.836 113.078C360.96 116.13 354.776 111.956 355.782 106.292L359.853 83.3722C360.471 79.8916 358.253 76.5373 354.807 75.7446L332.122 70.5246C326.516 69.2347 325.094 61.9102 329.81 58.6168L348.896 45.2888C351.794 43.2648 352.597 39.324 350.722 36.3274L338.371 16.5949C335.32 11.7189 339.494 5.53441 345.157 6.54046L368.077 10.6118C371.558 11.2301 374.912 9.01118 375.705 5.56606L380.925 -17.1198Z" fill="#FF4F04"/>
<path d="M126.412 164.21L120.058 164.349L119.956 159.689C119.905 157.359 118.764 156.059 116.911 156.1C115.004 156.141 113.921 157.49 113.972 159.82L114.021 162.044C114.077 164.639 114.894 165.627 119.118 167.39L121.041 168.142C125.21 169.8 126.696 172.363 126.819 177.977L126.838 178.877C126.971 184.967 123.554 188.591 117.517 188.723C111.533 188.853 108.068 185.485 107.933 179.289L107.842 175.106L114.197 174.967L114.298 179.627C114.349 181.957 115.543 183.256 117.502 183.213C119.462 183.17 120.545 181.822 120.495 179.545L120.442 177.109C120.386 174.514 119.569 173.526 115.559 171.865L113.369 171.012C109.306 169.352 107.764 166.684 107.642 161.07L107.627 160.382C107.493 154.239 110.807 150.723 116.685 150.595C122.616 150.465 126.188 153.937 126.32 159.974L126.412 164.21ZM128.269 166.13L128.156 160.941L130.698 160.885L130.572 155.113L136.599 154.558L136.735 160.753L141.659 160.646L141.773 165.836L136.848 165.943L137.148 179.712C137.201 182.148 138.649 182.911 140.184 182.877C140.82 182.863 141.453 182.743 142.137 182.517L142.409 187.703C140.933 188.053 139.56 188.242 138.342 188.268C134.211 188.359 131.255 186.41 131.118 180.161L130.811 166.075L128.269 166.13ZM154.056 168.376C154.012 166.363 152.977 165.061 151.494 165.094C149.958 165.127 148.981 166.473 149.025 168.485L149.092 171.557L143.055 171.688L142.996 168.988C142.877 163.533 146.085 160.02 151.328 159.905C156.57 159.791 159.983 163.213 160.101 168.614L160.507 187.255L154.47 187.387L154.407 184.474L154.248 184.478C152.869 186.839 150.987 187.992 148.763 188.041C145.479 188.113 143.201 185.672 143.122 182.071L143.058 179.106C142.976 175.346 145.677 172.903 150.126 172.806L154.15 172.718L154.056 168.376ZM154.329 180.926L154.217 175.789L152.576 175.825C150.14 175.878 149.047 176.803 149.087 178.603L149.131 180.616C149.168 182.31 150.037 183.298 151.52 183.266C152.843 183.237 153.884 182.366 154.329 180.926ZM162.588 187.21L161.756 149.081L167.792 148.95L168.106 163.301L168.529 163.291C169.588 160.831 171.466 159.466 173.743 159.416C177.026 159.344 179.308 161.944 179.407 166.498L179.694 179.631C179.794 184.238 177.586 187.412 174.249 187.485C172.025 187.533 170.09 186.251 168.978 183.838L168.554 183.848L168.624 187.078L162.588 187.21ZM168.19 167.166L168.47 179.982C168.923 181.349 170.109 182.277 171.327 182.251C172.704 182.22 173.681 180.875 173.642 179.074L173.396 167.795C173.357 165.994 172.323 164.745 170.946 164.775C169.728 164.802 168.584 165.78 168.19 167.166ZM182.035 186.785L181.203 148.657L187.24 148.525L188.072 186.653L182.035 186.785ZM196.027 174.453L196.115 178.478C196.159 180.49 197.247 181.791 198.782 181.757C200.371 181.723 201.401 180.376 201.357 178.363L201.31 176.192L207.294 176.062L207.333 177.862C207.451 183.264 204.138 186.833 198.843 186.948C193.6 187.063 190.189 183.693 190.07 178.239L189.846 167.965C189.727 162.511 192.935 158.997 198.23 158.882C203.526 158.766 206.991 162.187 207.109 167.589L207.254 174.208L196.027 174.453ZM195.874 167.463L195.954 171.117L201.197 171.003L201.117 167.349C201.073 165.336 199.985 164.035 198.397 164.07C196.861 164.104 195.831 165.451 195.874 167.463ZM215.164 167.042L215.404 178.057C215.448 180.069 216.536 181.37 218.072 181.336C219.661 181.302 220.638 179.956 220.594 177.944L220.506 173.919L226.543 173.787L226.624 177.494C226.741 182.843 223.375 186.413 218.132 186.527C212.837 186.643 209.478 183.272 209.361 177.871L209.135 167.544C209.016 162.09 212.224 158.576 217.52 158.461C222.762 158.346 226.281 161.766 226.399 167.168L226.478 170.822L220.442 170.953L220.354 166.929C220.31 164.916 219.275 163.615 217.686 163.649C216.15 163.683 215.12 165.03 215.164 167.042ZM228.425 167.124C228.31 161.881 231.302 158.16 236.809 158.04C242.317 157.92 245.575 161.557 245.688 166.747L245.914 177.073C246.026 182.21 242.929 185.986 237.422 186.106C231.914 186.227 228.763 182.64 228.65 177.45L228.425 167.124ZM234.454 166.621L234.694 177.636C234.738 179.648 235.826 180.949 237.362 180.916C238.95 180.881 239.928 179.535 239.884 177.523L239.643 166.508C239.598 164.443 238.564 163.194 236.976 163.228C235.44 163.262 234.409 164.556 234.454 166.621ZM247.235 152.037C247.189 149.919 248.49 148.831 250.661 148.784C252.885 148.735 254.233 149.818 254.278 151.884C254.326 154.055 253.025 155.143 250.801 155.191C248.63 155.239 247.283 154.209 247.235 152.037ZM247.902 158.328L253.939 158.196L254.529 185.203L248.492 185.335L247.902 158.328ZM256.967 185.15L256.377 158.143L262.414 158.011L262.488 161.4L262.912 161.391C264.022 158.823 265.845 157.406 268.069 157.358C271.14 157.291 273.686 159.831 273.794 164.756L274.23 184.773L268.193 184.905L267.775 165.735C267.735 163.882 266.754 162.631 265.377 162.662C264.159 162.688 263.069 163.719 262.571 165.213L263.004 185.018L256.967 185.15ZM292.981 166.986L286.944 167.118L286.907 165.424C286.862 163.358 285.935 162.16 284.346 162.195C282.811 162.228 281.883 163.414 281.922 165.214L281.923 165.267C281.962 167.068 282.668 167.847 284.854 168.488L288.114 169.742C291.585 170.99 293.214 172.809 293.292 176.41L293.307 177.099C293.399 181.282 290.141 184.956 284.74 185.074C279.285 185.193 276.134 181.606 276.026 176.681L275.992 175.092L282.029 174.961L282.063 176.549C282.107 178.562 283.141 179.811 284.677 179.777C286.266 179.742 287.298 178.501 287.262 176.86L287.258 176.648C287.217 174.794 286.566 174.067 284.166 173.378L280.802 172.179C277.44 171.034 276.02 169.105 275.944 165.61L275.931 165.027C275.837 160.738 278.831 157.123 284.18 157.006C289.634 156.887 292.839 160.473 292.945 165.345L292.981 166.986Z" fill="#282828"/>
</g>
<g clip-path="url(#clip2_1653_3906)">
<rect x="89.2703" y="213.387" width="193.49" height="205.042" rx="19.2528" transform="rotate(-1.25008 89.2703 213.387)" fill="white"/>
<path d="M117.255 398.32C116.767 398.331 116.352 398.248 116.011 398.072C115.669 397.892 115.407 397.649 115.225 397.344C115.047 397.039 114.954 396.701 114.946 396.33C114.939 396.005 114.987 395.712 115.09 395.451C115.192 395.186 115.354 394.957 115.575 394.764C115.796 394.567 116.085 394.405 116.441 394.276C116.71 394.182 117.025 394.096 117.387 394.017C117.752 393.939 118.147 393.865 118.571 393.798C118.999 393.726 119.446 393.649 119.912 393.568L119.38 393.886C119.374 393.419 119.262 393.077 119.045 392.861C118.827 392.645 118.466 392.542 117.962 392.553C117.657 392.56 117.365 392.637 117.084 392.785C116.804 392.933 116.611 393.181 116.506 393.53L115.12 393.128C115.275 392.553 115.582 392.087 116.041 391.731C116.505 391.375 117.135 391.188 117.932 391.17C118.532 391.157 119.062 391.244 119.521 391.43C119.984 391.616 120.331 391.93 120.561 392.371C120.687 392.606 120.766 392.848 120.796 393.098C120.827 393.344 120.845 393.612 120.851 393.904L120.942 398.052L119.622 398.081L119.59 396.617L119.814 396.85C119.52 397.344 119.172 397.711 118.768 397.949C118.368 398.183 117.864 398.307 117.255 398.32ZM117.529 397.112C117.871 397.105 118.162 397.038 118.401 396.912C118.64 396.786 118.829 396.633 118.967 396.455C119.109 396.277 119.203 396.11 119.25 395.955C119.325 395.761 119.364 395.541 119.367 395.295C119.374 395.044 119.376 394.842 119.373 394.688L119.839 394.815C119.386 394.896 118.997 394.967 118.673 395.028C118.349 395.09 118.07 395.148 117.838 395.203C117.605 395.254 117.4 395.311 117.222 395.373C117.048 395.439 116.902 395.516 116.783 395.602C116.664 395.688 116.572 395.786 116.508 395.895C116.447 396.005 116.419 396.133 116.422 396.279C116.426 396.446 116.471 396.593 116.557 396.721C116.643 396.844 116.766 396.941 116.926 397.013C117.091 397.084 117.292 397.118 117.529 397.112ZM125.821 398.133C125.162 398.147 124.606 398.003 124.153 397.7C123.7 397.397 123.355 396.979 123.118 396.446C122.881 395.909 122.755 395.304 122.741 394.633C122.726 393.953 122.825 393.342 123.039 392.799C123.252 392.256 123.572 391.825 123.999 391.507C124.43 391.185 124.967 391.017 125.609 391.003C126.247 390.989 126.803 391.133 127.277 391.436C127.755 391.734 128.13 392.15 128.4 392.682C128.67 393.21 128.813 393.816 128.828 394.5C128.842 395.176 128.728 395.785 128.486 396.329C128.243 396.872 127.894 397.306 127.438 397.628C126.981 397.951 126.443 398.12 125.821 398.133ZM122.624 401.019L122.411 391.26L123.743 391.231L123.847 395.973L124.034 395.969L124.144 400.986L122.624 401.019ZM125.56 396.787C125.952 396.778 126.273 396.673 126.524 396.472C126.774 396.27 126.956 396.001 127.069 395.665C127.187 395.324 127.241 394.948 127.232 394.535C127.223 394.126 127.153 393.756 127.02 393.425C126.888 393.09 126.688 392.828 126.421 392.637C126.154 392.443 125.818 392.35 125.414 392.359C125.03 392.367 124.719 392.468 124.481 392.661C124.244 392.85 124.07 393.112 123.96 393.448C123.855 393.78 123.807 394.167 123.817 394.609C123.826 395.047 123.891 395.432 124.011 395.763C124.135 396.094 124.322 396.351 124.572 396.533C124.826 396.711 125.156 396.796 125.56 396.787ZM133.531 397.965C132.872 397.979 132.316 397.835 131.863 397.532C131.41 397.229 131.065 396.811 130.828 396.278C130.591 395.74 130.465 395.136 130.45 394.465C130.436 393.785 130.535 393.174 130.748 392.631C130.962 392.088 131.282 391.657 131.709 391.339C132.14 391.017 132.677 390.849 133.319 390.835C133.957 390.821 134.513 390.965 134.987 391.268C135.465 391.566 135.839 391.981 136.109 392.514C136.38 393.042 136.522 393.648 136.537 394.332C136.552 395.007 136.438 395.617 136.195 396.161C135.953 396.704 135.603 397.137 135.147 397.46C134.691 397.783 134.152 397.951 133.531 397.965ZM130.333 400.851L130.12 391.092L131.453 391.063L131.556 395.805L131.744 395.801L131.853 400.818L130.333 400.851ZM133.27 396.619C133.662 396.61 133.983 396.505 134.233 396.304C134.483 396.102 134.665 395.833 134.779 395.497C134.897 395.156 134.951 394.78 134.942 394.367C134.933 393.958 134.862 393.588 134.73 393.257C134.598 392.922 134.398 392.659 134.131 392.469C133.864 392.275 133.528 392.182 133.123 392.191C132.74 392.199 132.429 392.3 132.191 392.493C131.953 392.682 131.78 392.944 131.67 393.28C131.565 393.612 131.517 393.999 131.526 394.441C131.536 394.879 131.601 395.264 131.721 395.595C131.845 395.926 132.032 396.183 132.282 396.365C132.536 396.543 132.865 396.628 133.27 396.619ZM137.996 397.68L137.962 396.135L139.507 396.101L139.541 397.646L137.996 397.68ZM149.659 397.425L149.569 393.321C149.559 392.859 149.437 392.5 149.202 392.247C148.966 391.989 148.653 391.864 148.261 391.873C148.019 391.878 147.803 391.939 147.614 392.056C147.425 392.169 147.276 392.335 147.168 392.554C147.06 392.769 147.009 393.025 147.016 393.321L146.338 392.941C146.323 392.474 146.419 392.061 146.624 391.702C146.833 391.339 147.119 391.053 147.481 390.845C147.844 390.637 148.25 390.528 148.701 390.518C149.447 390.501 150.023 390.714 150.43 391.156C150.84 391.593 151.053 392.177 151.069 392.907L151.166 397.392L149.659 397.425ZM141.533 397.603L141.385 390.846L142.718 390.817L142.763 392.913L142.951 392.909L143.053 397.569L141.533 397.603ZM145.605 397.514L145.516 393.429C145.506 392.957 145.383 392.593 145.148 392.335C144.913 392.077 144.597 391.953 144.201 391.962C143.817 391.97 143.512 392.108 143.284 392.376C143.06 392.644 142.953 392.988 142.962 393.409L142.277 392.974C142.267 392.536 142.367 392.139 142.576 391.784C142.785 391.429 143.071 391.148 143.434 390.939C143.801 390.727 144.213 390.616 144.672 390.606C145.177 390.595 145.6 390.694 145.943 390.903C146.289 391.109 146.55 391.395 146.725 391.763C146.904 392.126 146.999 392.539 147.009 393.002L147.106 397.481L145.605 397.514ZM153.508 400.345L154.731 396.745L154.779 397.795L151.674 390.622L153.245 390.588L155.451 395.897L155.05 395.906L156.967 390.506L158.474 390.473L154.921 400.314L153.508 400.345ZM162.805 397.326C162.147 397.34 161.591 397.196 161.137 396.893C160.684 396.59 160.339 396.172 160.102 395.639C159.865 395.102 159.74 394.497 159.725 393.826C159.71 393.146 159.809 392.535 160.023 391.992C160.236 391.449 160.557 391.018 160.984 390.7C161.415 390.378 161.951 390.21 162.594 390.196C163.232 390.182 163.788 390.326 164.262 390.629C164.74 390.927 165.114 391.343 165.384 391.875C165.654 392.403 165.797 393.009 165.812 393.693C165.826 394.369 165.712 394.978 165.47 395.522C165.227 396.065 164.878 396.499 164.422 396.821C163.966 397.144 163.427 397.313 162.805 397.326ZM159.608 400.212L159.395 390.453L160.727 390.424L160.831 395.166L161.018 395.162L161.128 400.179L159.608 400.212ZM162.545 395.98C162.937 395.971 163.258 395.866 163.508 395.665C163.758 395.463 163.94 395.194 164.053 394.858C164.171 394.517 164.225 394.141 164.216 393.728C164.208 393.319 164.137 392.949 164.005 392.618C163.872 392.283 163.672 392.021 163.405 391.83C163.138 391.636 162.802 391.543 162.398 391.552C162.014 391.56 161.703 391.661 161.466 391.854C161.228 392.043 161.054 392.305 160.945 392.641C160.839 392.973 160.791 393.36 160.801 393.802C160.81 394.24 160.875 394.625 160.995 394.956C161.119 395.287 161.306 395.544 161.556 395.726C161.811 395.904 162.14 395.989 162.545 395.98ZM169.802 397.18C169.302 397.191 168.887 397.116 168.558 396.956C168.229 396.797 167.966 396.59 167.768 396.335C167.571 396.081 167.423 395.809 167.325 395.519C167.227 395.229 167.16 394.955 167.126 394.697C167.095 394.435 167.078 394.222 167.074 394.06L166.992 390.288L168.518 390.254L168.589 393.507C168.594 393.716 168.613 393.951 168.648 394.213C168.683 394.471 168.755 394.72 168.865 394.96C168.978 395.195 169.141 395.387 169.353 395.537C169.569 395.687 169.857 395.758 170.215 395.75C170.407 395.746 170.596 395.71 170.782 395.644C170.969 395.577 171.135 395.467 171.282 395.314C171.433 395.156 171.552 394.943 171.637 394.674C171.723 394.405 171.762 394.066 171.753 393.657L172.656 394.019C172.668 394.595 172.567 395.119 172.352 395.591C172.141 396.063 171.822 396.443 171.394 396.732C170.967 397.017 170.436 397.166 169.802 397.18ZM172.006 396.938L171.96 394.842L171.779 394.846L171.677 390.185L173.191 390.152L173.339 396.908L172.006 396.938ZM175.096 396.87L174.949 390.114L176.281 390.085L176.317 391.73L176.15 391.521C176.228 391.294 176.334 391.087 176.468 390.901C176.606 390.71 176.771 390.552 176.964 390.427C177.129 390.311 177.31 390.219 177.509 390.152C177.712 390.081 177.92 390.037 178.132 390.019C178.345 389.998 178.551 390.002 178.752 390.031L178.783 391.439C178.581 391.385 178.349 391.371 178.087 391.397C177.829 391.424 177.597 391.502 177.391 391.632C177.185 391.749 177.017 391.896 176.888 392.074C176.762 392.252 176.671 392.455 176.613 392.681C176.555 392.904 176.529 393.144 176.535 393.403L176.61 396.837L175.096 396.87ZM182.462 396.897C181.628 396.915 180.946 396.742 180.416 396.378C179.887 396.015 179.558 395.494 179.431 394.817L180.965 394.545C181.051 394.877 181.232 395.136 181.507 395.322C181.782 395.508 182.127 395.596 182.539 395.587C182.902 395.579 183.18 395.502 183.373 395.356C183.57 395.206 183.666 395.006 183.66 394.756C183.657 394.601 183.617 394.479 183.54 394.389C183.467 394.295 183.306 394.206 183.058 394.124C182.81 394.042 182.43 393.94 181.919 393.817C181.348 393.679 180.894 393.529 180.557 393.365C180.22 393.197 179.975 392.996 179.824 392.761C179.673 392.527 179.594 392.241 179.586 391.903C179.577 391.482 179.68 391.112 179.894 390.795C180.108 390.477 180.411 390.231 180.804 390.055C181.196 389.875 181.662 389.78 182.2 389.768C182.725 389.757 183.192 389.828 183.6 389.982C184.012 390.135 184.347 390.36 184.604 390.654C184.86 390.949 185.022 391.298 185.09 391.701L183.557 392.01C183.513 391.723 183.376 391.499 183.148 391.337C182.923 391.175 182.625 391.088 182.253 391.075C181.898 391.062 181.614 391.122 181.4 391.256C181.186 391.386 181.081 391.566 181.086 391.795C181.089 391.924 181.135 392.034 181.225 392.124C181.314 392.214 181.491 392.302 181.756 392.388C182.025 392.473 182.424 392.577 182.952 392.699C183.493 392.825 183.926 392.974 184.251 393.147C184.58 393.315 184.818 393.52 184.966 393.763C185.117 394.006 185.196 394.303 185.204 394.653C185.219 395.333 184.982 395.872 184.495 396.271C184.011 396.669 183.333 396.878 182.462 396.897ZM189.693 396.739C189.009 396.754 188.406 396.619 187.882 396.334C187.358 396.05 186.945 395.648 186.642 395.129C186.342 394.609 186.185 394.008 186.17 393.324C186.154 392.586 186.282 391.942 186.554 391.394C186.825 390.842 187.21 390.41 187.708 390.098C188.206 389.787 188.787 389.624 189.45 389.61C190.151 389.594 190.749 389.746 191.244 390.065C191.743 390.38 192.118 390.833 192.369 391.424C192.619 392.015 192.724 392.716 192.684 393.526L191.189 393.559L191.177 393.008C191.156 392.274 191.015 391.741 190.754 391.409C190.492 391.077 190.088 390.916 189.542 390.928C188.924 390.942 188.47 391.144 188.178 391.534C187.886 391.92 187.748 392.48 187.764 393.214C187.779 393.898 187.94 394.424 188.249 394.793C188.557 395.162 188.999 395.34 189.575 395.327C189.946 395.319 190.263 395.231 190.527 395.063C190.794 394.89 190.997 394.646 191.137 394.33L192.635 394.747C192.39 395.362 192 395.844 191.465 396.194C190.935 396.543 190.344 396.725 189.693 396.739ZM187.298 393.644L187.273 392.505L191.921 392.404L191.946 393.542L187.298 393.644ZM197.212 396.575C196.553 396.59 195.997 396.445 195.544 396.142C195.091 395.839 194.746 395.421 194.509 394.888C194.272 394.351 194.146 393.747 194.131 393.075C194.116 392.395 194.216 391.784 194.429 391.241C194.642 390.698 194.963 390.268 195.39 389.95C195.821 389.627 196.357 389.459 197 389.445C197.638 389.431 198.194 389.575 198.668 389.878C199.146 390.176 199.52 390.592 199.79 391.124C200.06 391.652 200.203 392.258 200.218 392.942C200.233 393.618 200.119 394.227 199.876 394.771C199.633 395.315 199.284 395.748 198.828 396.071C198.372 396.393 197.833 396.562 197.212 396.575ZM194.014 399.461L193.801 389.703L195.133 389.674L195.237 394.415L195.424 394.411L195.534 399.428L194.014 399.461ZM196.951 395.229C197.343 395.221 197.664 395.115 197.914 394.914C198.164 394.712 198.346 394.443 198.46 394.107C198.577 393.767 198.632 393.39 198.623 392.977C198.614 392.568 198.543 392.199 198.411 391.868C198.278 391.533 198.078 391.27 197.811 391.08C197.544 390.885 197.208 390.792 196.804 390.801C196.42 390.81 196.11 390.91 195.872 391.103C195.634 391.292 195.46 391.554 195.351 391.891C195.245 392.223 195.197 392.61 195.207 393.052C195.217 393.489 195.281 393.874 195.401 394.205C195.525 394.536 195.712 394.793 195.962 394.975C196.217 395.153 196.546 395.238 196.951 395.229ZM203.564 396.437C203.076 396.447 202.661 396.365 202.319 396.188C201.977 396.008 201.715 395.766 201.533 395.461C201.356 395.156 201.263 394.818 201.255 394.447C201.248 394.121 201.295 393.828 201.398 393.567C201.501 393.302 201.663 393.073 201.884 392.881C202.105 392.684 202.393 392.521 202.749 392.393C203.019 392.299 203.334 392.213 203.695 392.134C204.061 392.055 204.455 391.982 204.879 391.914C205.308 391.842 205.755 391.766 206.22 391.685L205.689 392.003C205.683 391.536 205.571 391.194 205.353 390.978C205.136 390.761 204.775 390.659 204.27 390.67C203.966 390.676 203.673 390.754 203.393 390.901C203.112 391.049 202.92 391.298 202.815 391.646L201.429 391.245C201.583 390.67 201.89 390.204 202.35 389.848C202.813 389.491 203.444 389.304 204.24 389.287C204.841 389.274 205.37 389.36 205.829 389.547C206.292 389.733 206.639 390.046 206.87 390.488C206.996 390.723 207.074 390.965 207.105 391.215C207.135 391.46 207.154 391.729 207.16 392.021L207.25 396.168L205.931 396.197L205.899 394.733L206.123 394.966C205.829 395.461 205.48 395.827 205.076 396.066C204.677 396.3 204.173 396.423 203.564 396.437ZM203.838 395.229C204.18 395.222 204.47 395.155 204.71 395.028C204.949 394.902 205.137 394.75 205.275 394.572C205.418 394.393 205.512 394.227 205.559 394.071C205.634 393.878 205.673 393.658 205.676 393.411C205.683 393.161 205.685 392.959 205.681 392.804L206.147 392.932C205.694 393.013 205.306 393.084 204.981 393.145C204.657 393.206 204.379 393.265 204.147 393.32C203.914 393.371 203.709 393.427 203.531 393.49C203.357 393.556 203.21 393.632 203.091 393.718C202.972 393.804 202.88 393.902 202.816 394.012C202.756 394.122 202.727 394.25 202.731 394.396C202.734 394.563 202.779 394.71 202.865 394.837C202.952 394.96 203.075 395.058 203.235 395.13C203.399 395.201 203.6 395.234 203.838 395.229ZM209.454 399.125L210.677 395.524L210.725 396.575L207.621 389.401L209.191 389.367L211.397 394.676L210.997 394.685L212.913 389.286L214.421 389.253L210.868 399.094L209.454 399.125ZM214.75 396.005L214.716 394.46L216.261 394.426L216.295 395.971L214.75 396.005ZM221.237 396.051C220.541 396.066 219.943 395.925 219.444 395.627C218.945 395.325 218.559 394.908 218.284 394.376C218.014 393.843 217.869 393.237 217.85 392.557C217.839 391.865 217.961 391.249 218.217 390.709C218.476 390.166 218.85 389.736 219.34 389.421C219.83 389.101 220.416 388.934 221.1 388.919C221.868 388.902 222.52 389.082 223.059 389.458C223.601 389.83 223.96 390.348 224.138 391.012L222.645 391.451C222.52 391.091 222.32 390.814 222.045 390.62C221.769 390.421 221.459 390.326 221.112 390.333C220.72 390.342 220.399 390.443 220.149 390.636C219.899 390.825 219.716 391.084 219.603 391.411C219.489 391.739 219.436 392.11 219.445 392.523C219.459 393.165 219.615 393.681 219.911 394.071C220.207 394.461 220.639 394.65 221.206 394.637C221.607 394.628 221.92 394.53 222.145 394.341C222.375 394.153 222.544 393.884 222.653 393.535L224.199 393.846C224.006 394.539 223.653 395.076 223.139 395.459C222.626 395.837 221.992 396.035 221.237 396.051ZM228.3 395.897C227.625 395.912 227.031 395.772 226.52 395.479C226.009 395.185 225.608 394.775 225.317 394.247C225.03 393.715 224.879 393.101 224.863 392.404C224.848 391.695 224.976 391.071 225.248 390.531C225.52 389.991 225.905 389.565 226.403 389.254C226.901 388.943 227.482 388.78 228.145 388.765C228.825 388.751 229.42 388.89 229.931 389.183C230.443 389.477 230.844 389.889 231.135 390.421C231.426 390.949 231.579 391.561 231.594 392.258C231.61 392.958 231.481 393.581 231.21 394.125C230.942 394.665 230.559 395.092 230.061 395.408C229.563 395.719 228.976 395.882 228.3 395.897ZM228.27 394.483C228.87 394.47 229.312 394.26 229.595 393.853C229.878 393.447 230.013 392.926 229.999 392.292C229.985 391.638 229.826 391.12 229.521 390.738C229.216 390.353 228.768 390.166 228.176 390.179C227.771 390.188 227.44 390.287 227.181 390.476C226.926 390.661 226.74 390.918 226.622 391.246C226.504 391.57 226.449 391.944 226.459 392.37C226.473 393.024 226.632 393.545 226.937 393.93C227.246 394.311 227.69 394.496 228.27 394.483ZM241.16 395.428L241.07 391.325C241.06 390.862 240.938 390.504 240.703 390.25C240.468 389.992 240.154 389.868 239.762 389.876C239.52 389.882 239.305 389.943 239.115 390.059C238.926 390.172 238.777 390.338 238.669 390.557C238.561 390.772 238.51 391.028 238.517 391.324L237.839 390.945C237.825 390.478 237.92 390.065 238.125 389.705C238.334 389.342 238.62 389.056 238.982 388.848C239.345 388.64 239.752 388.531 240.202 388.521C240.948 388.505 241.525 388.718 241.931 389.159C242.341 389.597 242.554 390.18 242.57 390.91L242.668 395.396L241.16 395.428ZM233.034 395.606L232.887 388.85L234.219 388.821L234.265 390.916L234.452 390.912L234.554 395.573L233.034 395.606ZM237.106 395.517L237.017 391.432C237.007 390.961 236.884 390.596 236.649 390.339C236.414 390.081 236.098 389.956 235.702 389.965C235.319 389.973 235.013 390.111 234.785 390.379C234.561 390.647 234.454 390.991 234.463 391.413L233.778 390.977C233.768 390.539 233.868 390.143 234.077 389.788C234.287 389.432 234.572 389.151 234.935 388.943C235.302 388.73 235.715 388.619 236.173 388.609C236.678 388.598 237.101 388.697 237.444 388.907C237.791 389.112 238.051 389.398 238.226 389.766C238.405 390.129 238.5 390.542 238.51 391.005L238.608 395.484L237.106 395.517Z" fill="black"/>
<path d="M264.645 388.527C264.661 388.376 264.668 388.225 264.665 388.075C264.62 386.014 262.728 384.401 260.674 384.726C260.051 383.671 258.892 383.001 257.622 383.029C256.353 383.057 255.224 383.776 254.647 384.857C252.577 384.623 250.761 386.317 250.806 388.377C250.81 388.527 250.823 388.678 250.847 388.828C249.792 389.452 249.122 390.611 249.15 391.88C249.177 393.149 249.897 394.277 250.978 394.855C250.961 395.005 250.955 395.156 250.958 395.307C251.003 397.367 252.89 398.976 254.949 398.656C255.572 399.71 256.731 400.38 258 400.352C259.27 400.325 260.398 399.605 260.975 398.524C263.041 398.755 264.861 397.065 264.816 395.004C264.813 394.854 264.799 394.704 264.776 394.554C265.831 393.929 266.501 392.771 266.473 391.502C266.445 390.233 265.726 389.105 264.645 388.527ZM256.99 395.535L253.743 392.388L254.95 391.145L256.948 393.082L260.615 389.281L261.861 390.484L256.99 395.535Z" fill="#98F500"/>
<path d="M135.57 244.703C148.331 231.943 169.02 231.943 181.78 244.703L188.079 251.003L194.512 244.57C207.272 231.81 227.961 231.81 240.722 244.57C253.482 257.331 253.482 278.02 240.722 290.78L234.289 297.212L240.592 303.515C253.352 316.275 253.352 336.964 240.592 349.725C227.831 362.485 207.142 362.485 194.382 349.725L188.079 343.422L181.91 349.592C169.15 362.352 148.461 362.352 135.7 349.592C122.94 336.831 122.94 316.142 135.7 303.382L141.87 297.212L135.57 290.913C122.81 278.153 122.81 257.464 135.57 244.703Z" fill="#8424FF"/>
</g>
</g>
</g>
<defs>
<filter id="filter0_dddd_1653_3906" x="81.4814" y="53.5821" width="428.202" height="411.698" filterUnits="userSpaceOnUse" color-interpolation-filters="sRGB">
<feFlood flood-opacity="0" result="BackgroundImageFix"/>
<feColorMatrix in="SourceAlpha" type="matrix" values="0 0 0 0 0 0 0 0 0 0 0 0 0 0 0 0 0 0 127 0" result="hardAlpha"/>
<feOffset dx="2.28783" dy="2.28783"/>
<feGaussianBlur stdDeviation="3.43174"/>
<feColorMatrix type="matrix" values="0 0 0 0 0 0 0 0 0 0 0 0 0 0 0 0 0 0 0.1 0"/>
<feBlend mode="normal" in2="BackgroundImageFix" result="effect1_dropShadow_1653_3906"/>
<feColorMatrix in="SourceAlpha" type="matrix" values="0 0 0 0 0 0 0 0 0 0 0 0 0 0 0 0 0 0 127 0" result="hardAlpha"/>
<feOffset dx="9.15131" dy="6.86348"/>
<feGaussianBlur stdDeviation="5.71957"/>
<feColorMatrix type="matrix" values="0 0 0 0 0 0 0 0 0 0 0 0 0 0 0 0 0 0 0.09 0"/>
<feBlend mode="normal" in2="effect1_dropShadow_1653_3906" result="effect2_dropShadow_1653_3906"/>
<feColorMatrix in="SourceAlpha" type="matrix" values="0 0 0 0 0 0 0 0 0 0 0 0 0 0 0 0 0 0 127 0" result="hardAlpha"/>
<feOffset dx="20.5905" dy="16.0148"/>
<feGaussianBlur stdDeviation="8.0074"/>
<feColorMatrix type="matrix" values="0 0 0 0 0 0 0 0 0 0 0 0 0 0 0 0 0 0 0.05 0"/>
<feBlend mode="normal" in2="effect2_dropShadow_1653_3906" result="effect3_dropShadow_1653_3906"/>
<feColorMatrix in="SourceAlpha" type="matrix" values="0 0 0 0 0 0 0 0 0 0 0 0 0 0 0 0 0 0 127 0" result="hardAlpha"/>
<feOffset dx="36.6053" dy="28.5979"/>
<feGaussianBlur stdDeviation="9.15131"/>
<feColorMatrix type="matrix" values="0 0 0 0 0 0 0 0 0 0 0 0 0 0 0 0 0 0 0.01 0"/>
<feBlend mode="normal" in2="effect3_dropShadow_1653_3906" result="effect4_dropShadow_1653_3906"/>
<feBlend mode="normal" in="SourceGraphic" in2="effect4_dropShadow_1653_3906" result="shape"/>
</filter>
<clipPath id="clip0_1653_3906">
<rect x="-0.00439453" y="51.8268" width="405.101" height="413" rx="100" transform="rotate(-7.21029 -0.00439453 51.8268)" fill="white"/>
</clipPath>
<clipPath id="clip1_1653_3906">
<rect x="86.0571" y="66.1382" width="365.803" height="137.657" rx="19.2528" transform="rotate(-1.25008 86.0571 66.1382)" fill="white"/>
</clipPath>
<clipPath id="clip2_1653_3906">
<rect x="89.2703" y="213.387" width="193.49" height="205.042" rx="19.2528" transform="rotate(-1.25008 89.2703 213.387)" fill="white"/>
</clipPath>
</defs>
</svg>
