<svg width="504" height="461" viewBox="0 0 504 461" fill="none" xmlns="http://www.w3.org/2000/svg">
<rect x="503.456" y="316.918" width="115" height="160.884" rx="57.5" transform="rotate(103.632 503.456 316.918)" fill="#98F500"/>
<g clip-path="url(#clip0_1653_3905)">
<rect x="0.442017" y="50.9553" width="405.101" height="413" rx="100" transform="rotate(-7.21029 0.442017 50.9553)" fill="#EDF200"/>
<g filter="url(#filter0_dddd_1653_3905)">
<g clip-path="url(#clip1_1653_3905)">
<rect x="86.5035" y="65.2668" width="365.803" height="137.657" rx="19.2528" transform="rotate(-1.25008 86.5035 65.2668)" fill="white"/>
<path d="M107.099 133.63L106.917 125.314L108.008 125.29L111.159 131.478L114.02 125.159L115.123 125.135L115.304 133.445L114.161 133.47L114.036 127.782L111.476 133.534L110.927 133.546L108.112 127.911L108.236 133.605L107.099 133.63ZM118.926 133.371L118.851 129.936L115.932 125.118L117.341 125.087L119.432 128.536L121.372 124.999L122.781 124.968L120.075 129.909L120.15 133.345L118.926 133.371ZM123.768 133.266L123.586 124.951L126.947 124.877C127.028 124.875 127.128 124.877 127.248 124.882C127.367 124.883 127.481 124.893 127.589 124.909C128.053 124.972 128.441 125.122 128.754 125.358C129.071 125.593 129.311 125.894 129.473 126.261C129.635 126.627 129.721 127.033 129.731 127.48C129.741 127.93 129.672 128.342 129.527 128.715C129.381 129.088 129.154 129.399 128.848 129.648C128.545 129.897 128.164 130.064 127.703 130.147C127.596 130.165 127.481 130.179 127.358 130.189C127.238 130.199 127.14 130.205 127.063 130.207L124.909 130.254L124.975 133.239L123.768 133.266ZM124.885 129.111L126.992 129.065C127.069 129.063 127.154 129.057 127.246 129.048C127.342 129.038 127.432 129.022 127.517 129.001C127.762 128.938 127.958 128.828 128.104 128.671C128.251 128.51 128.355 128.326 128.416 128.121C128.477 127.915 128.505 127.711 128.501 127.507C128.496 127.303 128.459 127.101 128.389 126.902C128.319 126.7 128.208 126.523 128.054 126.372C127.901 126.218 127.7 126.114 127.452 126.062C127.367 126.041 127.276 126.027 127.18 126.022C127.087 126.016 127.003 126.014 126.926 126.016L124.818 126.062L124.885 129.111ZM134.327 133.209C133.676 133.223 133.098 133.103 132.591 132.848C132.089 132.589 131.692 132.222 131.4 131.747C131.109 131.268 130.956 130.702 130.942 130.047L130.827 124.798L132.051 124.766L132.164 129.957C132.172 130.311 132.239 130.622 132.364 130.889C132.489 131.156 132.654 131.377 132.858 131.554C133.062 131.73 133.288 131.862 133.537 131.949C133.789 132.036 134.044 132.077 134.302 132.071C134.564 132.065 134.817 132.014 135.061 131.916C135.309 131.814 135.531 131.671 135.728 131.485C135.924 131.3 136.077 131.071 136.186 130.799C136.3 130.527 136.353 130.216 136.345 129.866L136.232 124.675L137.456 124.648L137.571 129.903C137.585 130.553 137.457 131.124 137.186 131.615C136.916 132.107 136.533 132.492 136.039 132.773C135.548 133.049 134.977 133.194 134.327 133.209ZM139.253 132.928L139.071 124.613L142.432 124.539C142.513 124.538 142.613 124.539 142.733 124.544C142.852 124.546 142.966 124.555 143.074 124.572C143.538 124.635 143.926 124.784 144.239 125.02C144.556 125.256 144.796 125.557 144.958 125.923C145.12 126.289 145.206 126.695 145.216 127.142C145.23 127.804 145.073 128.379 144.745 128.868C144.417 129.353 143.915 129.662 143.24 129.796L142.75 129.865L140.394 129.916L140.46 132.902L139.253 132.928ZM144.115 132.822L142.401 129.474L143.613 129.135L145.495 132.792L144.115 132.822ZM140.37 128.773L142.477 128.727C142.554 128.725 142.639 128.719 142.731 128.71C142.827 128.7 142.917 128.684 143.002 128.663C143.247 128.6 143.443 128.49 143.589 128.333C143.736 128.172 143.84 127.988 143.901 127.783C143.962 127.577 143.99 127.373 143.986 127.169C143.981 126.965 143.944 126.763 143.874 126.565C143.804 126.362 143.693 126.185 143.539 126.035C143.386 125.88 143.185 125.777 142.937 125.724C142.852 125.703 142.761 125.69 142.665 125.684C142.572 125.678 142.488 125.676 142.411 125.678L140.303 125.724L140.37 128.773ZM149.782 132.871C149.185 132.884 148.644 132.794 148.159 132.601C147.677 132.403 147.276 132.117 146.956 131.743C146.639 131.365 146.429 130.913 146.325 130.388L147.58 130.17C147.718 130.675 147.992 131.066 148.403 131.342C148.813 131.614 149.288 131.744 149.827 131.732C150.162 131.725 150.468 131.666 150.747 131.556C151.026 131.442 151.248 131.285 151.413 131.085C151.582 130.881 151.663 130.641 151.657 130.364C151.654 130.214 151.624 130.081 151.567 129.967C151.515 129.853 151.441 129.754 151.347 129.671C151.257 129.585 151.145 129.512 151.013 129.453C150.885 129.391 150.743 129.338 150.588 129.295L148.443 128.712C148.234 128.655 148.021 128.581 147.803 128.489C147.585 128.394 147.384 128.269 147.2 128.115C147.019 127.958 146.871 127.762 146.754 127.53C146.637 127.294 146.575 127.006 146.567 126.668C146.556 126.156 146.678 125.72 146.932 125.36C147.19 124.996 147.542 124.719 147.988 124.528C148.435 124.333 148.937 124.23 149.495 124.218C150.057 124.213 150.562 124.302 151.009 124.485C151.46 124.668 151.835 124.937 152.136 125.292C152.44 125.644 152.653 126.074 152.776 126.584L151.487 126.832C151.423 126.521 151.294 126.256 151.1 126.037C150.907 125.814 150.672 125.646 150.396 125.533C150.12 125.415 149.822 125.358 149.503 125.361C149.195 125.36 148.913 125.413 148.657 125.518C148.405 125.624 148.204 125.769 148.054 125.953C147.908 126.138 147.837 126.347 147.842 126.582C147.847 126.813 147.919 126.998 148.057 127.138C148.195 127.277 148.363 127.387 148.561 127.468C148.763 127.544 148.962 127.607 149.16 127.657L150.705 128.056C150.899 128.106 151.118 128.174 151.363 128.261C151.611 128.345 151.85 128.464 152.081 128.621C152.316 128.778 152.511 128.989 152.667 129.255C152.823 129.518 152.905 129.851 152.914 130.255C152.923 130.675 152.847 131.046 152.684 131.37C152.522 131.689 152.295 131.96 152.003 132.182C151.715 132.4 151.38 132.567 150.997 132.683C150.614 132.799 150.209 132.862 149.782 132.871ZM154.196 132.602L154.015 124.287L159.327 124.171L159.352 125.308L155.247 125.398L155.298 127.731L158.71 127.656L158.735 128.794L155.322 128.868L155.378 131.438L159.484 131.348L159.509 132.486L154.196 132.602ZM160.896 132.456L160.714 124.14L164.075 124.067C164.156 124.065 164.256 124.067 164.376 124.072C164.495 124.073 164.609 124.082 164.717 124.099C165.181 124.162 165.569 124.312 165.882 124.548C166.199 124.783 166.439 125.084 166.601 125.45C166.763 125.817 166.849 126.223 166.859 126.67C166.868 127.12 166.8 127.532 166.654 127.905C166.509 128.278 166.282 128.589 165.976 128.838C165.673 129.087 165.292 129.253 164.831 129.337C164.724 129.354 164.609 129.368 164.486 129.379C164.366 129.389 164.268 129.395 164.191 129.397L162.037 129.444L162.103 132.429L160.896 132.456ZM162.012 128.301L164.12 128.255C164.197 128.253 164.282 128.247 164.374 128.237C164.47 128.228 164.56 128.212 164.644 128.191C164.89 128.128 165.086 128.018 165.232 127.861C165.379 127.699 165.483 127.516 165.544 127.311C165.605 127.105 165.633 126.9 165.629 126.696C165.624 126.492 165.587 126.291 165.517 126.092C165.447 125.89 165.336 125.713 165.182 125.562C165.029 125.408 164.828 125.304 164.58 125.252C164.495 125.231 164.404 125.217 164.308 125.212C164.215 125.206 164.131 125.204 164.054 125.206L161.946 125.252L162.012 128.301ZM166.984 132.323L169.505 123.949L171.243 123.911L174.127 132.167L172.874 132.194L170.219 124.661L170.531 124.654L168.237 132.295L166.984 132.323ZM168.346 130.415L168.321 129.284L172.664 129.189L172.688 130.321L168.346 130.415ZM176.478 132.116L176.403 128.68L173.485 123.862L174.894 123.831L176.985 127.281L178.924 123.743L180.333 123.712L177.628 128.653L177.703 132.089L176.478 132.116ZM183.286 131.967L183.104 123.652L184.311 123.625L184.493 131.941L183.286 131.967ZM186.227 131.903L186.045 123.588L187.269 123.561L191.498 129.65L191.363 123.472L192.588 123.445L192.769 131.76L191.545 131.787L187.316 125.692L187.451 131.876L186.227 131.903ZM194.381 131.725L194.199 123.41L199.125 123.302L199.151 124.509L195.433 124.59L195.484 126.935L198.509 126.869L198.536 128.081L195.51 128.147L195.588 131.699L194.381 131.725ZM200.347 131.595L200.166 123.279L203.526 123.206C203.607 123.204 203.707 123.206 203.827 123.211C203.946 123.212 204.06 123.221 204.168 123.238C204.632 123.301 205.02 123.451 205.333 123.687C205.651 123.922 205.89 124.223 206.052 124.59C206.214 124.956 206.3 125.362 206.31 125.809C206.324 126.471 206.167 127.046 205.839 127.535C205.511 128.02 205.009 128.329 204.334 128.463L203.845 128.532L201.489 128.583L201.554 131.568L200.347 131.595ZM205.209 131.489L203.495 128.141L204.707 127.802L206.589 131.458L205.209 131.489ZM201.464 127.44L203.571 127.394C203.648 127.392 203.733 127.386 203.825 127.377C203.921 127.367 204.011 127.351 204.096 127.33C204.341 127.267 204.537 127.157 204.684 127C204.83 126.839 204.934 126.655 204.995 126.45C205.056 126.244 205.084 126.04 205.08 125.836C205.075 125.632 205.038 125.43 204.969 125.231C204.899 125.029 204.787 124.852 204.633 124.701C204.48 124.547 204.279 124.443 204.032 124.391C203.946 124.37 203.856 124.356 203.759 124.351C203.667 124.345 203.582 124.343 203.505 124.345L201.397 124.391L201.464 127.44ZM207.281 131.443L209.802 123.069L211.54 123.031L214.424 131.288L213.171 131.315L210.516 123.782L210.828 123.775L208.534 131.416L207.281 131.443ZM208.643 129.536L208.618 128.404L212.961 128.31L212.985 129.441L208.643 129.536Z" fill="black"/>
<path d="M381.371 -17.9913C382.661 -23.5971 389.986 -25.0188 393.279 -20.3027L406.607 -1.21701C408.631 1.68137 412.572 2.48425 415.568 0.608721L435.301 -11.7415C440.177 -14.7933 446.361 -10.6194 445.355 -4.95578L441.284 17.9641C440.666 21.4448 442.885 24.7991 446.33 25.5918L469.016 30.8118C474.621 32.1017 476.043 39.4262 471.327 42.7196L452.241 56.0476C449.343 58.0716 448.54 62.0124 450.415 65.009L462.766 84.7415C465.818 89.6175 461.644 95.802 455.98 94.7959L433.06 90.7246C429.579 90.1063 426.225 92.3252 425.432 95.7703L420.212 118.456C418.923 124.062 411.598 125.484 408.305 120.768L394.977 101.682C392.953 98.7835 389.012 97.9806 386.015 99.8561L366.283 112.206C361.407 115.258 355.222 111.084 356.228 105.421L360.3 82.5007C360.918 79.0201 358.699 75.6658 355.254 74.8731L332.568 69.6531C326.962 68.3632 325.541 61.0386 330.257 57.7452L349.342 44.4173C352.241 42.3933 353.044 38.4524 351.168 35.4558L338.818 15.7234C335.766 10.8474 339.94 4.66289 345.604 5.66893L368.523 9.74025C372.004 10.3585 375.358 8.13966 376.151 4.69454L381.371 -17.9913Z" fill="#FF4F04"/>
<path d="M107.875 150.455L116.56 150.266C122.65 150.133 126.111 153.342 126.239 159.22L126.245 159.485C126.359 164.728 123.878 167.537 121.081 168.075L121.091 168.498C124.117 168.803 127.26 172.019 127.376 177.315L127.387 177.844C127.516 183.722 123.883 187.193 117.528 187.331L108.684 187.524L107.875 150.455ZM114.35 155.824L114.565 165.674L116.842 165.624C119.067 165.575 119.997 164.496 119.941 161.954L119.885 159.359C119.83 156.87 118.852 155.726 116.627 155.774L114.35 155.824ZM114.687 171.234L114.919 181.878L117.355 181.825C119.738 181.773 120.772 180.585 120.715 177.99L120.647 174.866C120.59 172.271 119.453 171.13 117.07 171.182L114.687 171.234ZM140.125 167.818C140.081 165.806 139.046 164.504 137.564 164.536C136.028 164.57 135.051 165.915 135.095 167.928L135.162 170.999L129.125 171.131L129.066 168.43C128.947 162.976 132.155 159.462 137.397 159.348C142.64 159.233 146.052 162.655 146.17 168.057L146.577 186.697L140.54 186.829L140.477 183.916L140.318 183.92C138.939 186.281 137.057 187.435 134.832 187.483C131.549 187.555 129.271 185.115 129.192 181.514L129.127 178.548C129.045 174.788 131.747 172.345 136.195 172.248L140.22 172.16L140.125 167.818ZM140.399 180.368L140.287 175.232L138.645 175.268C136.209 175.321 135.117 176.245 135.156 178.046L135.2 180.058C135.237 181.753 136.106 182.74 137.589 182.708C138.913 182.679 139.954 181.809 140.399 180.368ZM148.657 186.652L148.068 159.644L154.105 159.513L154.179 162.902L154.603 162.893C155.712 160.325 157.535 158.908 159.76 158.86C162.831 158.793 165.377 161.333 165.484 166.258L165.921 186.275L159.884 186.407L159.466 167.237C159.425 165.383 158.444 164.133 157.067 164.163C155.849 164.19 154.759 165.22 154.262 166.715L154.694 186.52L148.657 186.652ZM173.203 147.97L173.663 169.046L174.087 169.037L178.159 158.988L184.196 158.856L178.863 171.794L185.05 185.858L179.066 185.988L174.214 174.862L173.791 174.872L174.036 186.098L167.999 186.23L167.167 148.102L173.203 147.97ZM193.876 163.837L193.763 158.647L196.304 158.592L196.178 152.82L202.206 152.264L202.341 158.46L207.266 158.353L207.38 163.542L202.455 163.65L202.755 177.418C202.808 179.854 204.255 180.617 205.791 180.584C206.427 180.57 207.06 180.45 207.744 180.223L208.016 185.41C206.54 185.76 205.166 185.949 203.948 185.975C199.818 186.065 196.861 184.117 196.725 177.868L196.418 163.782L193.876 163.837ZM214.766 158.189L214.864 162.69L215.023 162.687C215.964 159.646 217.667 157.596 220.739 157.529C221.003 157.523 221.268 157.517 221.534 157.565L221.665 163.549C221.239 163.452 220.815 163.461 220.391 163.47C216.579 163.554 214.942 166.238 215.034 170.475L215.355 185.196L209.319 185.328L208.729 158.321L214.766 158.189ZM234.091 165.767C234.047 163.755 233.012 162.453 231.529 162.486C229.993 162.519 229.016 163.865 229.06 165.877L229.127 168.949L223.09 169.08L223.031 166.38C222.912 160.925 226.12 157.411 231.363 157.297C236.605 157.183 240.018 160.605 240.136 166.006L240.543 184.647L234.506 184.779L234.442 181.866L234.283 181.869C232.904 184.231 231.022 185.384 228.798 185.433C225.515 185.505 223.236 183.064 223.158 179.463L223.093 176.498C223.011 172.738 225.713 170.295 230.161 170.198L234.186 170.11L234.091 165.767ZM234.365 178.318L234.253 173.181L232.611 173.217C230.175 173.27 229.083 174.195 229.122 175.995L229.166 178.008C229.203 179.702 230.072 180.69 231.555 180.657C232.879 180.629 233.919 179.758 234.365 178.318ZM242.623 184.601L242.033 157.594L248.07 157.462L248.144 160.851L248.568 160.842C249.678 158.275 251.501 156.858 253.725 156.809C256.797 156.742 259.342 159.283 259.45 164.207L259.886 184.225L253.849 184.356L253.431 165.186C253.391 163.333 252.41 162.083 251.033 162.113C249.815 162.14 248.725 163.17 248.228 164.664L248.66 184.47L242.623 184.601ZM278.637 166.438L272.6 166.57L272.563 164.875C272.518 162.81 271.591 161.611 270.002 161.646C268.467 161.68 267.539 162.865 267.578 164.666L267.579 164.719C267.618 166.519 268.324 167.299 270.51 167.94L273.77 169.193C277.241 170.442 278.87 172.261 278.948 175.862L278.963 176.55C279.055 180.734 275.797 184.407 270.396 184.525C264.941 184.644 261.79 181.057 261.682 176.132L261.648 174.544L267.685 174.412L267.719 176.001C267.763 178.013 268.797 179.262 270.333 179.228C271.922 179.194 272.954 177.953 272.918 176.311L272.914 176.099C272.873 174.246 272.222 173.518 269.822 172.829L266.458 171.631C263.096 170.486 261.676 168.556 261.6 165.061L261.587 164.479C261.494 160.189 264.488 156.574 269.836 156.457C275.29 156.338 278.495 159.924 278.601 164.796L278.637 166.438ZM282.242 154.015C282.108 147.872 284.975 145.743 289.265 145.649C290.483 145.623 291.863 145.752 293.353 146.037L293.359 151.176C292.667 151.032 291.976 150.941 291.341 150.955C289.646 150.992 288.234 151.818 288.286 154.201L288.338 156.584L293.475 156.471L293.588 161.661L288.451 161.773L288.927 183.591L282.89 183.723L282.414 161.905L279.872 161.96L279.759 156.771L282.301 156.715L282.242 154.015ZM300.368 171.315L300.456 175.339C300.5 177.352 301.588 178.652 303.124 178.619C304.712 178.584 305.742 177.237 305.699 175.225L305.651 173.054L311.635 172.923L311.674 174.724C311.792 180.125 308.479 183.694 303.184 183.81C297.941 183.924 294.53 180.555 294.411 175.1L294.187 164.827C294.068 159.372 297.276 155.859 302.571 155.743C307.867 155.628 311.332 159.049 311.45 164.45L311.595 171.07L300.368 171.315ZM300.216 164.325L300.295 167.978L305.538 167.864L305.458 164.21C305.414 162.198 304.326 160.897 302.738 160.932C301.202 160.965 300.172 162.312 300.216 164.325ZM319.437 155.905L319.535 160.406L319.694 160.403C320.634 157.362 322.338 155.312 325.409 155.245C325.674 155.239 325.939 155.233 326.204 155.28L326.335 161.264C325.909 161.168 325.485 161.177 325.062 161.186C321.249 161.269 319.612 163.954 319.705 168.191L320.026 182.912L313.989 183.044L313.4 156.037L319.437 155.905ZM344.418 165.002L338.381 165.134L338.344 163.44C338.299 161.374 337.372 160.176 335.783 160.211C334.248 160.244 333.32 161.43 333.359 163.23L333.36 163.283C333.399 165.084 334.105 165.863 336.291 166.504L339.551 167.758C343.022 169.006 344.651 170.825 344.729 174.426L344.744 175.115C344.836 179.298 341.578 182.972 336.177 183.09C330.722 183.209 327.571 179.622 327.463 174.697L327.429 173.108L333.466 172.977L333.5 174.565C333.544 176.578 334.578 177.827 336.114 177.793C337.703 177.758 338.735 176.517 338.699 174.876L338.695 174.664C338.654 172.81 338.003 172.083 335.603 171.393L332.239 170.195C328.877 169.05 327.457 167.121 327.381 163.626L327.368 163.043C327.275 158.754 330.269 155.139 335.617 155.022C341.071 154.903 344.276 158.489 344.382 163.361L344.418 165.002Z" fill="#282828"/>
</g>
<g clip-path="url(#clip2_1653_3905)">
<rect x="89.7167" y="212.515" width="193.49" height="205.042" rx="19.2528" transform="rotate(-1.25008 89.7167 212.515)" fill="white"/>
<path d="M117.702 397.449C117.214 397.459 116.799 397.377 116.457 397.2C116.115 397.02 115.853 396.778 115.671 396.473C115.494 396.168 115.401 395.83 115.393 395.459C115.385 395.133 115.433 394.84 115.536 394.579C115.639 394.314 115.801 394.085 116.022 393.893C116.243 393.696 116.531 393.533 116.887 393.405C117.156 393.311 117.472 393.225 117.833 393.146C118.198 393.067 118.593 392.994 119.017 392.926C119.446 392.854 119.892 392.778 120.358 392.697L119.827 393.015C119.821 392.548 119.709 392.206 119.491 391.99C119.274 391.773 118.913 391.671 118.408 391.682C118.104 391.688 117.811 391.766 117.531 391.914C117.25 392.062 117.057 392.31 116.952 392.658L115.567 392.257C115.721 391.682 116.028 391.216 116.488 390.86C116.951 390.503 117.581 390.316 118.378 390.299C118.979 390.286 119.508 390.372 119.967 390.559C120.43 390.745 120.777 391.058 121.008 391.5C121.134 391.735 121.212 391.977 121.243 392.227C121.273 392.472 121.291 392.741 121.298 393.033L121.388 397.18L120.068 397.209L120.036 395.745L120.261 395.978C119.967 396.473 119.618 396.839 119.214 397.078C118.815 397.312 118.31 397.435 117.702 397.449ZM117.976 396.241C118.318 396.234 118.608 396.167 118.847 396.041C119.087 395.914 119.275 395.762 119.413 395.584C119.555 395.405 119.65 395.239 119.697 395.083C119.772 394.89 119.811 394.67 119.814 394.424C119.821 394.173 119.822 393.971 119.819 393.816L120.285 393.944C119.832 394.025 119.443 394.096 119.119 394.157C118.795 394.218 118.517 394.277 118.284 394.332C118.052 394.383 117.847 394.439 117.669 394.502C117.495 394.568 117.348 394.644 117.229 394.73C117.11 394.816 117.018 394.914 116.954 395.024C116.894 395.134 116.865 395.262 116.868 395.408C116.872 395.575 116.917 395.722 117.003 395.849C117.089 395.973 117.213 396.07 117.373 396.142C117.537 396.213 117.738 396.246 117.976 396.241ZM126.268 397.262C125.609 397.276 125.053 397.132 124.6 396.829C124.147 396.526 123.802 396.108 123.565 395.575C123.328 395.037 123.202 394.433 123.187 393.762C123.172 393.082 123.272 392.47 123.485 391.928C123.699 391.385 124.019 390.954 124.446 390.636C124.877 390.314 125.414 390.146 126.056 390.132C126.694 390.118 127.25 390.262 127.724 390.565C128.202 390.863 128.576 391.278 128.846 391.811C129.116 392.339 129.259 392.945 129.274 393.629C129.289 394.304 129.175 394.914 128.932 395.457C128.689 396.001 128.34 396.434 127.884 396.757C127.428 397.08 126.889 397.248 126.268 397.262ZM123.07 400.148L122.857 390.389L124.189 390.36L124.293 395.102L124.481 395.098L124.59 400.115L123.07 400.148ZM126.007 395.916C126.399 395.907 126.72 395.802 126.97 395.6C127.22 395.399 127.402 395.13 127.516 394.794C127.633 394.453 127.688 394.076 127.679 393.664C127.67 393.255 127.599 392.885 127.467 392.554C127.334 392.219 127.135 391.956 126.868 391.766C126.6 391.572 126.265 391.479 125.86 391.488C125.476 391.496 125.166 391.597 124.928 391.79C124.69 391.978 124.516 392.241 124.407 392.577C124.301 392.909 124.254 393.296 124.263 393.738C124.273 394.176 124.337 394.561 124.457 394.892C124.581 395.223 124.768 395.479 125.019 395.662C125.273 395.84 125.602 395.924 126.007 395.916ZM133.977 397.094C133.318 397.108 132.762 396.964 132.309 396.661C131.856 396.357 131.511 395.939 131.274 395.406C131.037 394.869 130.911 394.265 130.897 393.593C130.882 392.914 130.981 392.302 131.195 391.759C131.408 391.216 131.728 390.786 132.155 390.468C132.587 390.146 133.123 389.977 133.765 389.963C134.403 389.949 134.959 390.094 135.433 390.396C135.911 390.695 136.286 391.11 136.556 391.642C136.826 392.171 136.969 392.777 136.984 393.461C136.998 394.136 136.884 394.746 136.642 395.289C136.399 395.833 136.05 396.266 135.594 396.589C135.137 396.912 134.599 397.08 133.977 397.094ZM130.78 399.98L130.567 390.221L131.899 390.192L132.003 394.934L132.19 394.929L132.3 399.947L130.78 399.98ZM133.716 395.747C134.108 395.739 134.429 395.634 134.68 395.432C134.93 395.231 135.112 394.962 135.225 394.625C135.343 394.285 135.397 393.908 135.388 393.495C135.379 393.087 135.309 392.717 135.176 392.386C135.044 392.051 134.844 391.788 134.577 391.598C134.31 391.403 133.974 391.311 133.57 391.319C133.186 391.328 132.875 391.428 132.637 391.621C132.4 391.81 132.226 392.073 132.116 392.409C132.011 392.741 131.963 393.128 131.973 393.57C131.982 394.008 132.047 394.392 132.167 394.723C132.291 395.055 132.478 395.311 132.728 395.494C132.982 395.672 133.312 395.756 133.716 395.747ZM138.442 396.808L138.408 395.263L139.953 395.229L139.987 396.775L138.442 396.808ZM150.105 396.554L150.016 392.45C150.006 391.987 149.883 391.629 149.648 391.375C149.413 391.118 149.099 390.993 148.707 391.002C148.465 391.007 148.25 391.068 148.06 391.185C147.871 391.297 147.722 391.463 147.614 391.683C147.506 391.898 147.456 392.153 147.462 392.45L146.784 392.07C146.77 391.603 146.865 391.19 147.07 390.831C147.279 390.467 147.565 390.182 147.928 389.973C148.29 389.765 148.697 389.656 149.147 389.646C149.894 389.63 150.47 389.843 150.876 390.285C151.286 390.722 151.499 391.306 151.515 392.036L151.613 396.521L150.105 396.554ZM141.979 396.731L141.832 389.975L143.164 389.946L143.21 392.042L143.398 392.038L143.499 396.698L141.979 396.731ZM146.052 396.642L145.962 392.557C145.952 392.086 145.829 391.722 145.594 391.464C145.359 391.206 145.044 391.082 144.647 391.09C144.264 391.099 143.958 391.237 143.73 391.505C143.506 391.772 143.399 392.117 143.408 392.538L142.723 392.102C142.713 391.664 142.813 391.268 143.023 390.913C143.232 390.558 143.518 390.276 143.88 390.068C144.247 389.856 144.66 389.744 145.118 389.734C145.623 389.723 146.047 389.823 146.389 390.032C146.736 390.237 146.997 390.524 147.172 390.891C147.351 391.254 147.445 391.668 147.455 392.13L147.553 396.61L146.052 396.642ZM153.954 399.474L155.177 395.874L155.225 396.924L152.121 389.751L153.691 389.716L155.897 395.026L155.497 395.034L157.413 389.635L158.921 389.602L155.368 399.443L153.954 399.474ZM163.252 396.455C162.593 396.469 162.037 396.325 161.584 396.022C161.131 395.719 160.786 395.301 160.549 394.768C160.312 394.23 160.186 393.626 160.171 392.955C160.157 392.275 160.256 391.663 160.469 391.12C160.683 390.578 161.003 390.147 161.43 389.829C161.861 389.507 162.398 389.339 163.04 389.325C163.678 389.311 164.234 389.455 164.708 389.758C165.186 390.056 165.56 390.471 165.83 391.004C166.101 391.532 166.243 392.138 166.258 392.822C166.273 393.497 166.159 394.107 165.916 394.65C165.674 395.194 165.324 395.627 164.868 395.95C164.412 396.273 163.873 396.441 163.252 396.455ZM160.054 399.341L159.841 389.582L161.174 389.553L161.277 394.295L161.465 394.291L161.574 399.308L160.054 399.341ZM162.991 395.109C163.383 395.1 163.704 394.995 163.954 394.793C164.204 394.592 164.386 394.323 164.5 393.987C164.618 393.646 164.672 393.269 164.663 392.857C164.654 392.448 164.583 392.078 164.451 391.747C164.318 391.412 164.119 391.149 163.852 390.959C163.585 390.765 163.249 390.672 162.844 390.681C162.461 390.689 162.15 390.79 161.912 390.983C161.674 391.171 161.5 391.434 161.391 391.77C161.286 392.102 161.238 392.489 161.247 392.931C161.257 393.369 161.322 393.753 161.441 394.085C161.566 394.416 161.753 394.672 162.003 394.855C162.257 395.033 162.586 395.117 162.991 395.109ZM170.248 396.308C169.748 396.319 169.333 396.245 169.004 396.085C168.675 395.925 168.412 395.718 168.215 395.464C168.017 395.21 167.869 394.937 167.771 394.647C167.673 394.358 167.607 394.084 167.572 393.826C167.541 393.564 167.524 393.351 167.52 393.188L167.438 389.416L168.965 389.383L169.036 392.636C169.04 392.844 169.06 393.08 169.095 393.342C169.13 393.6 169.202 393.849 169.311 394.088C169.425 394.324 169.588 394.516 169.8 394.666C170.016 394.815 170.303 394.886 170.662 394.879C170.853 394.874 171.043 394.839 171.229 394.772C171.415 394.706 171.582 394.596 171.729 394.442C171.88 394.285 171.998 394.071 172.084 393.802C172.17 393.533 172.208 393.195 172.199 392.786L173.102 393.148C173.115 393.724 173.014 394.247 172.799 394.719C172.588 395.191 172.269 395.572 171.841 395.86C171.413 396.145 170.882 396.294 170.248 396.308ZM172.452 396.066L172.407 393.971L172.225 393.975L172.124 389.314L173.638 389.281L173.785 396.037L172.452 396.066ZM175.542 395.999L175.395 389.243L176.728 389.214L176.763 390.859L176.596 390.65C176.675 390.423 176.781 390.216 176.914 390.029C177.052 389.839 177.218 389.681 177.411 389.555C177.575 389.439 177.757 389.348 177.956 389.281C178.159 389.209 178.366 389.165 178.579 389.148C178.791 389.127 178.998 389.131 179.198 389.16L179.229 390.567C179.028 390.513 178.796 390.499 178.534 390.526C178.275 390.553 178.044 390.631 177.838 390.76C177.632 390.877 177.464 391.025 177.334 391.203C177.209 391.381 177.117 391.583 177.06 391.81C177.002 392.032 176.976 392.273 176.981 392.531L177.056 395.966L175.542 395.999ZM182.908 396.026C182.074 396.044 181.392 395.871 180.863 395.507C180.333 395.143 180.005 394.623 179.877 393.945L181.411 393.674C181.497 394.006 181.678 394.265 181.954 394.451C182.229 394.637 182.573 394.725 182.986 394.716C183.349 394.708 183.627 394.631 183.819 394.485C184.016 394.335 184.112 394.134 184.107 393.884C184.103 393.73 184.063 393.608 183.986 393.518C183.913 393.423 183.753 393.335 183.505 393.253C183.257 393.171 182.877 393.068 182.365 392.946C181.795 392.808 181.341 392.657 181.003 392.494C180.666 392.326 180.422 392.125 180.271 391.89C180.119 391.656 180.04 391.369 180.033 391.032C180.024 390.61 180.126 390.241 180.34 389.923C180.554 389.606 180.858 389.359 181.25 389.184C181.643 389.004 182.108 388.908 182.646 388.897C183.172 388.885 183.638 388.956 184.046 389.11C184.459 389.264 184.793 389.488 185.05 389.783C185.307 390.078 185.469 390.427 185.536 390.83L184.003 391.139C183.959 390.852 183.823 390.628 183.594 390.466C183.369 390.304 183.071 390.216 182.7 390.204C182.345 390.19 182.06 390.251 181.846 390.385C181.632 390.515 181.527 390.694 181.532 390.924C181.535 391.053 181.581 391.163 181.671 391.252C181.761 391.342 181.938 391.43 182.203 391.516C182.471 391.602 182.87 391.706 183.398 391.828C183.939 391.954 184.372 392.103 184.698 392.275C185.027 392.443 185.265 392.649 185.412 392.892C185.563 393.135 185.643 393.431 185.65 393.782C185.665 394.461 185.429 395.001 184.941 395.399C184.457 395.798 183.78 396.007 182.908 396.026ZM190.14 395.868C189.456 395.883 188.852 395.748 188.328 395.463C187.805 395.178 187.391 394.776 187.088 394.257C186.789 393.738 186.632 393.137 186.617 392.453C186.601 391.714 186.728 391.071 187 390.523C187.272 389.97 187.657 389.538 188.155 389.227C188.653 388.916 189.233 388.753 189.897 388.738C190.597 388.723 191.195 388.875 191.69 389.194C192.189 389.508 192.564 389.961 192.815 390.552C193.066 391.144 193.171 391.844 193.13 392.655L191.635 392.687L191.623 392.137C191.603 391.403 191.462 390.87 191.2 390.538C190.938 390.205 190.534 390.045 189.988 390.057C189.371 390.07 188.916 390.272 188.624 390.663C188.332 391.049 188.194 391.609 188.21 392.343C188.225 393.027 188.387 393.553 188.695 393.922C189.004 394.291 189.446 394.469 190.021 394.456C190.392 394.448 190.71 394.36 190.973 394.191C191.241 394.019 191.444 393.774 191.583 393.458L193.082 393.876C192.836 394.491 192.446 394.973 191.912 395.322C191.381 395.672 190.79 395.854 190.14 395.868ZM187.744 392.772L187.719 391.634L192.367 391.532L192.392 392.671L187.744 392.772ZM197.658 395.704C196.999 395.718 196.443 395.574 195.99 395.271C195.537 394.968 195.192 394.55 194.955 394.017C194.718 393.48 194.592 392.875 194.577 392.204C194.563 391.524 194.662 390.913 194.875 390.37C195.089 389.827 195.409 389.396 195.836 389.078C196.267 388.756 196.804 388.588 197.446 388.574C198.084 388.56 198.64 388.704 199.114 389.007C199.592 389.305 199.966 389.72 200.237 390.253C200.507 390.781 200.649 391.387 200.664 392.071C200.679 392.747 200.565 393.356 200.322 393.9C200.08 394.443 199.73 394.876 199.274 395.199C198.818 395.522 198.279 395.69 197.658 395.704ZM194.46 398.59L194.247 388.831L195.58 388.802L195.683 393.544L195.871 393.54L195.98 398.557L194.46 398.59ZM197.397 394.358C197.789 394.349 198.11 394.244 198.36 394.043C198.61 393.841 198.792 393.572 198.906 393.236C199.024 392.895 199.078 392.519 199.069 392.106C199.06 391.697 198.989 391.327 198.857 390.996C198.725 390.661 198.525 390.399 198.258 390.208C197.991 390.014 197.655 389.921 197.25 389.93C196.867 389.938 196.556 390.039 196.318 390.232C196.08 390.421 195.907 390.683 195.797 391.019C195.692 391.351 195.644 391.738 195.653 392.18C195.663 392.618 195.728 393.003 195.848 393.334C195.972 393.665 196.159 393.922 196.409 394.104C196.663 394.282 196.993 394.367 197.397 394.358ZM204.01 395.565C203.522 395.576 203.107 395.493 202.765 395.317C202.424 395.137 202.162 394.894 201.98 394.589C201.802 394.285 201.709 393.947 201.701 393.575C201.694 393.25 201.742 392.957 201.845 392.696C201.947 392.431 202.109 392.202 202.33 392.01C202.551 391.813 202.84 391.65 203.196 391.521C203.465 391.428 203.78 391.342 204.142 391.263C204.507 391.184 204.902 391.111 205.326 391.043C205.754 390.971 206.201 390.894 206.666 390.813L206.135 391.132C206.129 390.664 206.017 390.323 205.8 390.106C205.582 389.89 205.221 389.787 204.717 389.798C204.412 389.805 204.12 389.882 203.839 390.03C203.559 390.178 203.366 390.426 203.261 390.775L201.875 390.373C202.03 389.798 202.337 389.333 202.796 388.976C203.26 388.62 203.89 388.433 204.687 388.416C205.287 388.403 205.817 388.489 206.276 388.675C206.739 388.861 207.086 389.175 207.316 389.616C207.442 389.851 207.521 390.094 207.551 390.343C207.582 390.589 207.6 390.858 207.606 391.15L207.697 395.297L206.377 395.326L206.345 393.862L206.569 394.095C206.275 394.59 205.927 394.956 205.523 395.194C205.123 395.428 204.619 395.552 204.01 395.565ZM204.284 394.358C204.626 394.35 204.917 394.283 205.156 394.157C205.395 394.031 205.584 393.879 205.722 393.7C205.864 393.522 205.958 393.355 206.005 393.2C206.08 393.006 206.119 392.786 206.122 392.54C206.129 392.29 206.131 392.087 206.128 391.933L206.594 392.06C206.141 392.141 205.752 392.212 205.428 392.274C205.104 392.335 204.825 392.393 204.593 392.448C204.36 392.499 204.155 392.556 203.977 392.618C203.803 392.685 203.657 392.761 203.538 392.847C203.419 392.933 203.327 393.031 203.263 393.141C203.202 393.251 203.174 393.378 203.177 393.524C203.181 393.691 203.226 393.838 203.312 393.966C203.398 394.089 203.521 394.187 203.681 394.258C203.845 394.33 204.046 394.363 204.284 394.358ZM209.901 398.253L211.124 394.653L211.172 395.703L208.067 388.53L209.638 388.495L211.844 393.805L211.443 393.813L213.36 388.414L214.867 388.381L211.314 398.222L209.901 398.253ZM215.196 395.133L215.162 393.588L216.707 393.555L216.741 395.1L215.196 395.133ZM221.684 395.18C220.987 395.195 220.39 395.054 219.891 394.756C219.392 394.454 219.005 394.036 218.731 393.504C218.46 392.972 218.316 392.366 218.297 391.686C218.286 390.994 218.408 390.378 218.663 389.838C218.922 389.294 219.297 388.865 219.787 388.549C220.276 388.23 220.863 388.063 221.547 388.048C222.314 388.031 222.967 388.211 223.505 388.587C224.047 388.959 224.407 389.477 224.584 390.141L223.092 390.58C222.967 390.22 222.767 389.943 222.491 389.748C222.216 389.55 221.905 389.454 221.559 389.462C221.167 389.471 220.846 389.571 220.595 389.765C220.345 389.954 220.163 390.212 220.049 390.54C219.935 390.868 219.883 391.238 219.892 391.651C219.906 392.294 220.061 392.81 220.357 393.2C220.654 393.589 221.086 393.778 221.653 393.766C222.053 393.757 222.366 393.659 222.591 393.47C222.821 393.281 222.99 393.013 223.1 392.664L224.646 392.975C224.452 393.667 224.099 394.205 223.586 394.587C223.073 394.966 222.438 395.163 221.684 395.18ZM228.747 395.026C228.071 395.04 227.478 394.901 226.967 394.607C226.455 394.314 226.054 393.903 225.763 393.376C225.476 392.844 225.325 392.23 225.31 391.533C225.294 390.824 225.423 390.2 225.694 389.66C225.966 389.12 226.351 388.694 226.849 388.383C227.348 388.071 227.928 387.909 228.591 387.894C229.271 387.879 229.867 388.019 230.378 388.312C230.889 388.605 231.29 389.018 231.581 389.55C231.873 390.078 232.026 390.69 232.041 391.386C232.056 392.087 231.928 392.709 231.656 393.253C231.388 393.793 231.005 394.221 230.507 394.536C230.009 394.848 229.422 395.011 228.747 395.026ZM228.716 393.612C229.317 393.599 229.758 393.389 230.042 392.982C230.325 392.575 230.459 392.055 230.446 391.421C230.431 390.766 230.272 390.248 229.967 389.867C229.663 389.481 229.214 389.295 228.622 389.308C228.218 389.317 227.886 389.416 227.627 389.605C227.373 389.79 227.186 390.046 227.068 390.374C226.95 390.698 226.896 391.073 226.905 391.498C226.919 392.153 227.079 392.673 227.383 393.059C227.692 393.44 228.136 393.624 228.716 393.612ZM241.606 394.557L241.517 390.453C241.507 389.991 241.384 389.632 241.149 389.379C240.914 389.121 240.601 388.996 240.209 389.005C239.967 389.01 239.751 389.071 239.562 389.188C239.372 389.301 239.223 389.467 239.116 389.686C239.008 389.901 238.957 390.157 238.963 390.453L238.285 390.073C238.271 389.606 238.366 389.193 238.571 388.834C238.78 388.471 239.066 388.185 239.429 387.977C239.791 387.769 240.198 387.66 240.648 387.65C241.395 387.633 241.971 387.846 242.377 388.288C242.787 388.725 243 389.309 243.016 390.039L243.114 394.524L241.606 394.557ZM233.48 394.734L233.333 387.978L234.665 387.949L234.711 390.045L234.899 390.041L235 394.701L233.48 394.734ZM237.553 394.646L237.464 390.561C237.453 390.089 237.331 389.725 237.096 389.467C236.86 389.209 236.545 389.085 236.149 389.094C235.765 389.102 235.459 389.24 235.231 389.508C235.008 389.776 234.9 390.12 234.91 390.541L234.224 390.106C234.215 389.668 234.315 389.271 234.524 388.916C234.733 388.561 235.019 388.28 235.382 388.071C235.748 387.859 236.161 387.748 236.62 387.738C237.124 387.727 237.548 387.826 237.89 388.035C238.237 388.241 238.498 388.527 238.673 388.895C238.852 389.258 238.946 389.671 238.956 390.134L239.054 394.613L237.553 394.646Z" fill="black"/>
<path d="M265.091 387.655C265.108 387.504 265.115 387.353 265.112 387.203C265.067 385.143 263.174 383.53 261.121 383.855C260.497 382.8 259.339 382.13 258.069 382.158C256.799 382.185 255.671 382.905 255.094 383.986C253.024 383.751 251.208 385.445 251.253 387.506C251.256 387.656 251.27 387.806 251.293 387.956C250.238 388.581 249.568 389.739 249.596 391.008C249.624 392.277 250.343 393.405 251.425 393.983C251.408 394.133 251.401 394.284 251.404 394.435C251.449 396.496 253.337 398.105 255.395 397.784C256.019 398.839 257.177 399.509 258.447 399.481C259.717 399.453 260.845 398.734 261.422 397.653C263.488 397.883 265.308 396.193 265.263 394.133C265.259 393.983 265.246 393.832 265.223 393.682C266.277 393.058 266.947 391.899 266.919 390.63C266.892 389.361 266.172 388.233 265.091 387.655ZM257.436 394.664L254.19 391.516L255.397 390.273L257.395 392.211L261.061 388.41L262.308 389.613L257.436 394.664Z" fill="#98F500"/>
<circle cx="188.051" cy="266.854" r="26.2529" transform="rotate(-1.44096 188.051 266.854)" fill="#9FEB00"/>
<circle cx="155.939" cy="295.237" r="26.2529" transform="rotate(-1.44096 155.939 295.237)" fill="#9FEB00"/>
<circle cx="188.745" cy="294.411" r="26.2529" transform="rotate(-1.44096 188.745 294.411)" fill="#9FEB00"/>
<circle cx="221.55" cy="293.586" r="26.2529" transform="rotate(-1.44096 221.55 293.586)" fill="#9FEB00"/>
<circle cx="169.379" cy="333.634" r="26.2529" transform="rotate(-1.44096 169.379 333.634)" fill="#9FEB00"/>
<circle cx="210.058" cy="332.61" r="26.2529" transform="rotate(-1.44096 210.058 332.61)" fill="#9FEB00"/>
</g>
</g>
</g>
<defs>
<filter id="filter0_dddd_1653_3905" x="81.9278" y="52.7107" width="428.202" height="411.698" filterUnits="userSpaceOnUse" color-interpolation-filters="sRGB">
<feFlood flood-opacity="0" result="BackgroundImageFix"/>
<feColorMatrix in="SourceAlpha" type="matrix" values="0 0 0 0 0 0 0 0 0 0 0 0 0 0 0 0 0 0 127 0" result="hardAlpha"/>
<feOffset dx="2.28783" dy="2.28783"/>
<feGaussianBlur stdDeviation="3.43174"/>
<feColorMatrix type="matrix" values="0 0 0 0 0 0 0 0 0 0 0 0 0 0 0 0 0 0 0.1 0"/>
<feBlend mode="normal" in2="BackgroundImageFix" result="effect1_dropShadow_1653_3905"/>
<feColorMatrix in="SourceAlpha" type="matrix" values="0 0 0 0 0 0 0 0 0 0 0 0 0 0 0 0 0 0 127 0" result="hardAlpha"/>
<feOffset dx="9.15131" dy="6.86348"/>
<feGaussianBlur stdDeviation="5.71957"/>
<feColorMatrix type="matrix" values="0 0 0 0 0 0 0 0 0 0 0 0 0 0 0 0 0 0 0.09 0"/>
<feBlend mode="normal" in2="effect1_dropShadow_1653_3905" result="effect2_dropShadow_1653_3905"/>
<feColorMatrix in="SourceAlpha" type="matrix" values="0 0 0 0 0 0 0 0 0 0 0 0 0 0 0 0 0 0 127 0" result="hardAlpha"/>
<feOffset dx="20.5905" dy="16.0148"/>
<feGaussianBlur stdDeviation="8.0074"/>
<feColorMatrix type="matrix" values="0 0 0 0 0 0 0 0 0 0 0 0 0 0 0 0 0 0 0.05 0"/>
<feBlend mode="normal" in2="effect2_dropShadow_1653_3905" result="effect3_dropShadow_1653_3905"/>
<feColorMatrix in="SourceAlpha" type="matrix" values="0 0 0 0 0 0 0 0 0 0 0 0 0 0 0 0 0 0 127 0" result="hardAlpha"/>
<feOffset dx="36.6053" dy="28.5979"/>
<feGaussianBlur stdDeviation="9.15131"/>
<feColorMatrix type="matrix" values="0 0 0 0 0 0 0 0 0 0 0 0 0 0 0 0 0 0 0.01 0"/>
<feBlend mode="normal" in2="effect3_dropShadow_1653_3905" result="effect4_dropShadow_1653_3905"/>
<feBlend mode="normal" in="SourceGraphic" in2="effect4_dropShadow_1653_3905" result="shape"/>
</filter>
<clipPath id="clip0_1653_3905">
<rect x="0.442017" y="50.9553" width="405.101" height="413" rx="100" transform="rotate(-7.21029 0.442017 50.9553)" fill="white"/>
</clipPath>
<clipPath id="clip1_1653_3905">
<rect x="86.5035" y="65.2668" width="365.803" height="137.657" rx="19.2528" transform="rotate(-1.25008 86.5035 65.2668)" fill="white"/>
</clipPath>
<clipPath id="clip2_1653_3905">
<rect x="89.7167" y="212.515" width="193.49" height="205.042" rx="19.2528" transform="rotate(-1.25008 89.7167 212.515)" fill="white"/>
</clipPath>
</defs>
</svg>
