<svg width="501" height="501" viewBox="0 0 501 501" fill="none" xmlns="http://www.w3.org/2000/svg">
<rect width="483.498" height="483.498" rx="241.749" transform="matrix(-0.999397 0.0347331 0.0347331 0.999397 484.06 0.85376)" fill="white" fill-opacity="0.83"/>
<path d="M265.713 225.162L286.287 204.588L307.802 226.102L287.011 246.893H313.887V277.319H287.444L307.941 297.816L286.426 319.329L265.713 298.616V325.492H235.287V298.615L214.573 319.329L193.06 297.816L213.557 277.319H187.113V246.893H213.989L193.198 226.102L214.713 204.588L235.287 225.162V198.719H265.713V225.162ZM253.621 240.126C252.037 238.542 249.468 238.542 247.884 240.126L228.521 259.49C226.937 261.074 226.937 263.643 228.521 265.227L247.884 284.589C249.468 286.173 252.037 286.173 253.621 284.589L272.984 265.227C274.568 263.643 274.568 261.074 272.984 259.49L253.621 240.126Z" fill="#078AFF"/>
<path d="M229.465 390.863V374.917H236.054C236.209 374.917 236.408 374.925 236.652 374.939C236.896 374.947 237.121 374.969 237.327 375.006C238.25 375.146 239.011 375.452 239.608 375.925C240.214 376.397 240.66 376.995 240.948 377.719C241.244 378.435 241.391 379.232 241.391 380.111C241.391 380.982 241.244 381.779 240.948 382.502C240.653 383.219 240.203 383.813 239.597 384.285C238.999 384.758 238.243 385.064 237.327 385.204C237.121 385.234 236.892 385.256 236.641 385.271C236.397 385.286 236.202 385.293 236.054 385.293H232.134V390.863H229.465ZM232.134 382.801H235.943C236.091 382.801 236.257 382.794 236.442 382.779C236.626 382.765 236.796 382.735 236.951 382.691C237.394 382.58 237.741 382.384 237.992 382.104C238.25 381.823 238.431 381.506 238.534 381.151C238.645 380.797 238.7 380.45 238.7 380.111C238.7 379.771 238.645 379.424 238.534 379.07C238.431 378.708 238.25 378.387 237.992 378.106C237.741 377.826 237.394 377.63 236.951 377.519C236.796 377.475 236.626 377.449 236.442 377.442C236.257 377.427 236.091 377.42 235.943 377.42H232.134V382.801ZM243.167 390.841V388.515L249.988 382.436C250.52 381.964 250.889 381.517 251.095 381.096C251.302 380.675 251.405 380.269 251.405 379.878C251.405 379.347 251.291 378.874 251.062 378.461C250.833 378.04 250.516 377.708 250.11 377.464C249.711 377.22 249.25 377.099 248.726 377.099C248.172 377.099 247.681 377.228 247.253 377.486C246.832 377.737 246.504 378.073 246.267 378.494C246.031 378.915 245.92 379.369 245.935 379.856H243.189C243.189 378.793 243.425 377.866 243.898 377.077C244.378 376.287 245.035 375.674 245.869 375.238C246.71 374.803 247.681 374.585 248.781 374.585C249.8 374.585 250.715 374.814 251.527 375.272C252.339 375.722 252.978 376.349 253.443 377.154C253.908 377.951 254.141 378.87 254.141 379.911C254.141 380.672 254.037 381.31 253.83 381.827C253.624 382.344 253.314 382.82 252.9 383.255C252.494 383.691 251.989 384.175 251.383 384.706L246.544 388.991L246.301 388.327H254.141V390.841H243.167ZM256.803 390.863V374.917H263.391C263.546 374.917 263.746 374.925 263.989 374.939C264.233 374.947 264.458 374.969 264.665 375.006C265.587 375.146 266.348 375.452 266.946 375.925C267.551 376.397 267.998 376.995 268.286 377.719C268.581 378.435 268.729 379.232 268.729 380.111C268.729 380.982 268.581 381.779 268.286 382.502C267.99 383.219 267.54 383.813 266.935 384.285C266.337 384.758 265.58 385.064 264.665 385.204C264.458 385.234 264.229 385.256 263.978 385.271C263.735 385.286 263.539 385.293 263.391 385.293H259.471V390.863H256.803ZM259.471 382.801H263.28C263.428 382.801 263.594 382.794 263.779 382.779C263.963 382.765 264.133 382.735 264.288 382.691C264.731 382.58 265.078 382.384 265.329 382.104C265.587 381.823 265.768 381.506 265.872 381.151C265.982 380.797 266.038 380.45 266.038 380.111C266.038 379.771 265.982 379.424 265.872 379.07C265.768 378.708 265.587 378.387 265.329 378.106C265.078 377.826 264.731 377.63 264.288 377.519C264.133 377.475 263.963 377.449 263.779 377.442C263.594 377.427 263.428 377.42 263.28 377.42H259.471V382.801Z" fill="black"/>
<rect x="193.099" y="104" width="115.474" height="32.2254" rx="16.1127" fill="#9FEB00" fill-opacity="0.43"/>
<path d="M217.767 127V115.216C217.767 114.923 217.778 114.6 217.799 114.25C217.821 113.891 217.882 113.537 217.982 113.186C218.082 112.835 218.265 112.516 218.53 112.23C218.859 111.865 219.214 111.614 219.593 111.478C219.98 111.335 220.359 111.256 220.732 111.242C221.104 111.22 221.43 111.21 221.709 111.21H223.159V113.315H221.817C221.323 113.315 220.954 113.44 220.71 113.691C220.474 113.934 220.356 114.257 220.356 114.658V127H217.767ZM215.898 117.429V115.399H223.159V117.429H215.898ZM227.806 127.322C226.968 127.322 226.259 127.165 225.679 126.85C225.099 126.527 224.659 126.101 224.358 125.571C224.064 125.041 223.917 124.458 223.917 123.82C223.917 123.262 224.011 122.761 224.197 122.317C224.383 121.865 224.669 121.479 225.056 121.156C225.443 120.827 225.944 120.559 226.56 120.351C227.025 120.2 227.57 120.064 228.193 119.943C228.823 119.821 229.503 119.71 230.234 119.61C230.971 119.502 231.741 119.388 232.543 119.266L231.619 119.792C231.626 118.99 231.447 118.399 231.082 118.02C230.717 117.64 230.101 117.451 229.235 117.451C228.712 117.451 228.207 117.572 227.72 117.816C227.233 118.059 226.893 118.478 226.7 119.073L224.336 118.331C224.623 117.35 225.167 116.563 225.969 115.968C226.778 115.374 227.867 115.077 229.235 115.077C230.266 115.077 231.172 115.245 231.952 115.581C232.74 115.918 233.324 116.469 233.703 117.236C233.911 117.644 234.036 118.063 234.079 118.493C234.122 118.915 234.144 119.377 234.144 119.878V127H231.877V124.486L232.253 124.895C231.73 125.732 231.118 126.348 230.416 126.742C229.722 127.129 228.851 127.322 227.806 127.322ZM228.322 125.26C228.909 125.26 229.41 125.156 229.825 124.948C230.241 124.741 230.57 124.486 230.814 124.186C231.064 123.885 231.233 123.602 231.319 123.337C231.455 123.008 231.53 122.632 231.544 122.209C231.566 121.779 231.576 121.432 231.576 121.167L232.371 121.404C231.591 121.525 230.921 121.633 230.362 121.726C229.804 121.819 229.324 121.908 228.923 121.994C228.522 122.073 228.168 122.163 227.86 122.263C227.559 122.37 227.305 122.496 227.097 122.639C226.889 122.782 226.728 122.947 226.614 123.133C226.506 123.319 226.452 123.538 226.452 123.788C226.452 124.075 226.524 124.329 226.667 124.551C226.811 124.766 227.018 124.938 227.29 125.066C227.57 125.195 227.913 125.26 228.322 125.26ZM241.419 127.322C239.987 127.322 238.824 127 237.928 126.355C237.033 125.711 236.489 124.805 236.296 123.638L238.938 123.23C239.074 123.803 239.375 124.254 239.84 124.583C240.306 124.913 240.893 125.077 241.602 125.077C242.225 125.077 242.705 124.955 243.041 124.712C243.385 124.461 243.557 124.121 243.557 123.692C243.557 123.427 243.493 123.215 243.364 123.058C243.242 122.893 242.97 122.736 242.547 122.585C242.125 122.435 241.477 122.245 240.603 122.016C239.629 121.758 238.856 121.482 238.283 121.189C237.71 120.888 237.298 120.533 237.048 120.125C236.797 119.717 236.672 119.223 236.672 118.643C236.672 117.92 236.861 117.289 237.241 116.752C237.62 116.215 238.15 115.803 238.831 115.517C239.511 115.223 240.313 115.077 241.237 115.077C242.139 115.077 242.938 115.216 243.632 115.496C244.334 115.775 244.9 116.172 245.329 116.688C245.759 117.203 246.024 117.809 246.124 118.503L243.482 118.976C243.417 118.482 243.192 118.091 242.805 117.805C242.426 117.519 241.917 117.357 241.28 117.322C240.671 117.286 240.181 117.379 239.808 117.601C239.436 117.816 239.25 118.12 239.25 118.514C239.25 118.736 239.325 118.926 239.475 119.083C239.626 119.241 239.926 119.398 240.378 119.556C240.836 119.713 241.516 119.907 242.418 120.136C243.342 120.372 244.08 120.644 244.631 120.952C245.19 121.253 245.591 121.615 245.834 122.037C246.085 122.46 246.21 122.972 246.21 123.573C246.21 124.741 245.784 125.657 244.932 126.323C244.087 126.989 242.916 127.322 241.419 127.322ZM255.363 127C254.596 127.143 253.844 127.204 253.107 127.183C252.376 127.168 251.721 127.036 251.141 126.785C250.561 126.527 250.121 126.123 249.82 125.571C249.555 125.07 249.415 124.558 249.401 124.035C249.387 123.513 249.379 122.922 249.379 122.263V112.176H251.958V122.112C251.958 122.578 251.961 122.986 251.968 123.337C251.983 123.688 252.058 123.974 252.194 124.196C252.452 124.626 252.863 124.866 253.429 124.916C253.995 124.966 254.639 124.938 255.363 124.83V127ZM247.274 117.429V115.399H255.363V117.429H247.274ZM262.544 127.322C261.37 127.322 260.338 127.068 259.45 126.56C258.562 126.051 257.868 125.346 257.367 124.443C256.872 123.541 256.625 122.503 256.625 121.328C256.625 120.061 256.869 118.962 257.356 118.031C257.843 117.092 258.519 116.366 259.386 115.85C260.252 115.334 261.255 115.077 262.394 115.077C263.597 115.077 264.617 115.359 265.455 115.925C266.3 116.484 266.927 117.275 267.335 118.299C267.743 119.323 267.897 120.53 267.797 121.919H265.229V120.974C265.222 119.713 265 118.793 264.563 118.213C264.127 117.633 263.439 117.343 262.501 117.343C261.441 117.343 260.653 117.673 260.138 118.331C259.622 118.983 259.364 119.939 259.364 121.199C259.364 122.374 259.622 123.283 260.138 123.928C260.653 124.572 261.405 124.895 262.394 124.895C263.031 124.895 263.579 124.755 264.037 124.476C264.503 124.189 264.861 123.777 265.111 123.24L267.668 124.014C267.224 125.059 266.536 125.872 265.605 126.452C264.682 127.032 263.661 127.322 262.544 127.322ZM258.548 121.919V119.964H266.529V121.919H258.548ZM274.673 127.322C273.241 127.322 272.077 127 271.182 126.355C270.287 125.711 269.742 124.805 269.549 123.638L272.192 123.23C272.328 123.803 272.628 124.254 273.094 124.583C273.559 124.913 274.147 125.077 274.855 125.077C275.478 125.077 275.958 124.955 276.295 124.712C276.639 124.461 276.81 124.121 276.81 123.692C276.81 123.427 276.746 123.215 276.617 123.058C276.495 122.893 276.223 122.736 275.801 122.585C275.378 122.435 274.73 122.245 273.856 122.016C272.883 121.758 272.109 121.482 271.536 121.189C270.963 120.888 270.552 120.533 270.301 120.125C270.05 119.717 269.925 119.223 269.925 118.643C269.925 117.92 270.115 117.289 270.494 116.752C270.874 116.215 271.404 115.803 272.084 115.517C272.764 115.223 273.566 115.077 274.49 115.077C275.393 115.077 276.191 115.216 276.886 115.496C277.587 115.775 278.153 116.172 278.583 116.688C279.013 117.203 279.278 117.809 279.378 118.503L276.735 118.976C276.671 118.482 276.445 118.091 276.059 117.805C275.679 117.519 275.171 117.357 274.533 117.322C273.925 117.286 273.434 117.379 273.062 117.601C272.689 117.816 272.503 118.12 272.503 118.514C272.503 118.736 272.578 118.926 272.729 119.083C272.879 119.241 273.18 119.398 273.631 119.556C274.089 119.713 274.77 119.907 275.672 120.136C276.596 120.372 277.333 120.644 277.885 120.952C278.443 121.253 278.844 121.615 279.088 122.037C279.338 122.46 279.464 122.972 279.464 123.573C279.464 124.741 279.038 125.657 278.185 126.323C277.34 126.989 276.17 127.322 274.673 127.322ZM288.616 127C287.85 127.143 287.098 127.204 286.36 127.183C285.63 127.168 284.975 127.036 284.395 126.785C283.814 126.527 283.374 126.123 283.073 125.571C282.808 125.07 282.669 124.558 282.654 124.035C282.64 123.513 282.633 122.922 282.633 122.263V112.176H285.211V122.112C285.211 122.578 285.214 122.986 285.222 123.337C285.236 123.688 285.311 123.974 285.447 124.196C285.705 124.626 286.117 124.866 286.683 124.916C287.248 124.966 287.893 124.938 288.616 124.83V127ZM280.527 117.429V115.399H288.616V117.429H280.527Z" fill="black"/>
</svg>
