<svg width="500" height="500" viewBox="0 0 500 500" fill="none" xmlns="http://www.w3.org/2000/svg">
<path d="M210.205 348.444C208.473 348.444 206.989 348.067 205.754 347.313C204.519 346.551 203.569 345.493 202.903 344.138C202.246 342.782 201.917 341.21 201.917 339.422C201.917 337.634 202.246 336.062 202.903 334.707C203.569 333.351 204.519 332.297 205.754 331.543C206.989 330.781 208.473 330.4 210.205 330.4C212.202 330.4 213.866 330.901 215.197 331.904C216.528 332.898 217.463 334.242 218 335.934L215.077 336.74C214.74 335.609 214.167 334.727 213.357 334.093C212.547 333.452 211.496 333.131 210.205 333.131C209.042 333.131 208.072 333.391 207.294 333.913C206.524 334.434 205.943 335.168 205.55 336.114C205.165 337.052 204.968 338.155 204.96 339.422C204.96 340.689 205.153 341.796 205.538 342.742C205.931 343.68 206.516 344.41 207.294 344.931C208.072 345.453 209.042 345.713 210.205 345.713C211.496 345.713 212.547 345.393 213.357 344.751C214.167 344.109 214.74 343.227 215.077 342.105L218 342.911C217.463 344.603 216.528 345.95 215.197 346.952C213.866 347.947 212.202 348.444 210.205 348.444ZM220.641 348.083V330.761H227.799C227.967 330.761 228.184 330.769 228.448 330.785C228.713 330.793 228.957 330.817 229.182 330.857C230.184 331.01 231.01 331.342 231.66 331.856C232.318 332.369 232.803 333.019 233.115 333.804C233.436 334.582 233.597 335.448 233.597 336.403C233.597 337.814 233.24 339.029 232.526 340.048C231.812 341.058 230.718 341.684 229.242 341.924L228.003 342.032H223.54V348.083H220.641ZM230.589 348.083L227.173 341.034L230.12 340.384L233.873 348.083H230.589ZM223.54 339.326H227.678C227.839 339.326 228.019 339.318 228.22 339.302C228.42 339.286 228.605 339.254 228.773 339.206C229.254 339.085 229.631 338.873 229.904 338.568C230.184 338.263 230.381 337.918 230.493 337.534C230.613 337.149 230.674 336.772 230.674 336.403C230.674 336.034 230.613 335.657 230.493 335.272C230.381 334.879 230.184 334.53 229.904 334.225C229.631 333.921 229.254 333.708 228.773 333.588C228.605 333.54 228.42 333.512 228.22 333.504C228.019 333.488 227.839 333.48 227.678 333.48H223.54V339.326ZM240.405 348.083V340.986L234.51 330.761H237.891L241.872 337.666L245.842 330.761H249.222L243.34 340.986V348.083H240.405ZM250.902 348.083V330.761H258.06C258.228 330.761 258.444 330.769 258.709 330.785C258.974 330.793 259.218 330.817 259.443 330.857C260.445 331.01 261.271 331.342 261.921 331.856C262.578 332.369 263.064 333.019 263.376 333.804C263.697 334.582 263.858 335.448 263.858 336.403C263.858 337.349 263.697 338.215 263.376 339.001C263.056 339.779 262.566 340.425 261.909 340.938C261.259 341.451 260.437 341.784 259.443 341.936C259.218 341.968 258.97 341.992 258.697 342.008C258.432 342.024 258.22 342.032 258.06 342.032H253.801V348.083H250.902ZM253.801 339.326H257.939C258.1 339.326 258.28 339.318 258.481 339.302C258.681 339.286 258.865 339.254 259.034 339.206C259.515 339.085 259.892 338.873 260.165 338.568C260.445 338.263 260.642 337.918 260.754 337.534C260.874 337.149 260.934 336.772 260.934 336.403C260.934 336.034 260.874 335.657 260.754 335.272C260.642 334.879 260.445 334.53 260.165 334.225C259.892 333.921 259.515 333.708 259.034 333.588C258.865 333.54 258.681 333.512 258.481 333.504C258.28 333.488 258.1 333.48 257.939 333.48H253.801V339.326ZM270.43 348.083V333.48H264.824V330.761H278.934V333.48H273.329V348.083H270.43ZM288.183 348.444C286.451 348.444 284.968 348.067 283.733 347.313C282.498 346.551 281.547 345.493 280.882 344.138C280.224 342.782 279.895 341.21 279.895 339.422C279.895 337.634 280.224 336.062 280.882 334.707C281.547 333.351 282.498 332.297 283.733 331.543C284.968 330.781 286.451 330.4 288.183 330.4C289.916 330.4 291.399 330.781 292.634 331.543C293.877 332.297 294.828 333.351 295.485 334.707C296.151 336.062 296.484 337.634 296.484 339.422C296.484 341.21 296.151 342.782 295.485 344.138C294.828 345.493 293.877 346.551 292.634 347.313C291.399 348.067 289.916 348.444 288.183 348.444ZM288.183 345.713C289.346 345.721 290.313 345.465 291.082 344.943C291.86 344.422 292.442 343.688 292.827 342.742C293.22 341.796 293.416 340.689 293.416 339.422C293.416 338.155 293.22 337.056 292.827 336.126C292.442 335.188 291.86 334.458 291.082 333.937C290.313 333.416 289.346 333.147 288.183 333.131C287.021 333.123 286.054 333.379 285.284 333.901C284.515 334.422 283.933 335.156 283.54 336.102C283.155 337.048 282.963 338.155 282.963 339.422C282.963 340.689 283.155 341.792 283.54 342.73C283.925 343.66 284.502 344.386 285.272 344.907C286.05 345.429 287.021 345.697 288.183 345.713Z" fill="black"/>
<path d="M194.718 155.166C208.064 141.819 229.704 141.819 243.05 155.166L249.639 161.754L256.367 155.027C269.713 141.68 291.352 141.68 304.699 155.027C318.045 168.373 318.045 190.012 304.699 203.359L297.971 210.086L304.563 216.678C317.909 230.025 317.909 251.664 304.563 265.01C291.216 278.356 269.577 278.357 256.231 265.01L249.639 258.418L243.186 264.871C229.84 278.218 208.2 278.217 194.854 264.871C181.507 251.525 181.507 229.886 194.854 216.539L201.307 210.086L194.718 203.498C181.372 190.151 181.372 168.512 194.718 155.166Z" fill="#8424FF"/>
</svg>
