<svg width="451" height="474" viewBox="0 0 451 474" fill="none" xmlns="http://www.w3.org/2000/svg">
<rect x="0.754761" y="12.5337" width="115" height="198" rx="57.5" transform="rotate(-5.76933 0.754761 12.5337)" fill="#EDF200"/>
<g clip-path="url(#clip0_1650_3689)">
<rect x="5.78094" y="62.2805" width="405.101" height="413" rx="100" transform="rotate(-5.76933 5.78094 62.2805)" fill="#98F500"/>
<rect opacity="0.5" x="21.1634" y="75.2041" width="380" height="380" rx="95.3137" transform="rotate(-5.29088 21.1634 75.2041)" stroke="#7FCA06" stroke-width="6" stroke-linejoin="round" stroke-dasharray="12 12"/>
<g filter="url(#filter0_dddd_1650_3689)">
<g clip-path="url(#clip1_1650_3689)">
<rect x="91.4553" y="78.7517" width="365.803" height="137.657" rx="19.2528" transform="rotate(0.190875 91.4553 78.7517)" fill="white"/>
<path d="M110.325 147.611L110.352 139.294L111.444 139.297L114.438 145.563L117.457 139.317L118.56 139.321L118.532 147.632L117.389 147.629L117.408 141.939L114.703 147.625L114.154 147.624L111.482 141.92L111.463 147.615L110.325 147.611ZM122.155 147.65L122.166 144.214L119.369 139.324L120.779 139.328L122.783 142.829L124.81 139.342L126.22 139.346L123.391 144.218L123.379 147.654L122.155 147.65ZM126.998 147.666L127.026 139.349L130.387 139.36C130.468 139.361 130.568 139.365 130.687 139.373C130.807 139.377 130.92 139.389 131.028 139.409C131.49 139.483 131.874 139.643 132.182 139.886C132.493 140.13 132.725 140.437 132.877 140.807C133.03 141.177 133.106 141.585 133.104 142.032C133.103 142.483 133.025 142.892 132.869 143.262C132.714 143.631 132.48 143.936 132.167 144.178C131.858 144.419 131.473 144.576 131.011 144.647C130.903 144.662 130.787 144.674 130.664 144.681C130.545 144.688 130.446 144.692 130.369 144.691L128.215 144.684L128.205 147.67L126.998 147.666ZM128.219 143.541L130.327 143.548C130.404 143.548 130.489 143.544 130.581 143.537C130.677 143.53 130.768 143.516 130.853 143.497C131.099 143.441 131.298 143.335 131.449 143.182C131.599 143.024 131.708 142.844 131.774 142.64C131.84 142.436 131.873 142.232 131.874 142.028C131.875 141.824 131.843 141.622 131.778 141.421C131.713 141.217 131.606 141.038 131.456 140.883C131.307 140.725 131.109 140.616 130.862 140.558C130.778 140.534 130.687 140.518 130.591 140.51C130.499 140.502 130.414 140.498 130.337 140.498L128.229 140.491L128.219 143.541ZM137.555 147.875C136.904 147.873 136.329 147.738 135.829 147.47C135.333 147.199 134.946 146.823 134.666 146.34C134.387 145.854 134.248 145.284 134.25 144.629L134.268 139.379L135.492 139.377L135.475 144.57C135.474 144.924 135.533 145.236 135.651 145.506C135.769 145.776 135.928 146.002 136.128 146.183C136.328 146.365 136.551 146.503 136.797 146.596C137.047 146.689 137.301 146.736 137.559 146.737C137.821 146.738 138.075 146.692 138.322 146.601C138.572 146.505 138.798 146.368 138.999 146.187C139.2 146.007 139.358 145.782 139.475 145.513C139.595 145.244 139.656 144.934 139.657 144.584L139.674 139.391L140.898 139.395L140.881 144.651C140.879 145.302 140.736 145.87 140.454 146.354C140.171 146.838 139.779 147.214 139.277 147.482C138.78 147.746 138.206 147.877 137.555 147.875ZM142.486 147.718L142.514 139.401L145.876 139.412C145.957 139.412 146.057 139.416 146.176 139.425C146.295 139.429 146.409 139.441 146.517 139.46C146.978 139.535 147.363 139.694 147.67 139.938C147.981 140.181 148.213 140.488 148.366 140.858C148.519 141.229 148.594 141.637 148.593 142.084C148.591 142.746 148.419 143.317 148.079 143.797C147.739 144.274 147.229 144.57 146.551 144.688L146.06 144.744L143.704 144.736L143.694 147.722L142.486 147.718ZM147.35 147.734L145.721 144.344L146.94 144.036L148.73 147.739L147.35 147.734ZM143.707 143.592L145.816 143.599C145.893 143.6 145.977 143.596 146.07 143.589C146.166 143.581 146.257 143.568 146.341 143.549C146.588 143.492 146.787 143.387 146.937 143.233C147.088 143.076 147.196 142.895 147.263 142.692C147.329 142.488 147.362 142.284 147.363 142.08C147.363 141.876 147.331 141.673 147.267 141.473C147.202 141.269 147.095 141.089 146.945 140.935C146.795 140.776 146.597 140.668 146.351 140.609C146.266 140.586 146.176 140.57 146.08 140.562C145.987 140.554 145.903 140.55 145.826 140.55L143.718 140.543L143.707 143.592ZM153.014 147.926C152.417 147.924 151.878 147.82 151.398 147.615C150.921 147.405 150.527 147.109 150.217 146.727C149.91 146.341 149.711 145.884 149.62 145.356L150.88 145.17C151.006 145.679 151.27 146.076 151.673 146.362C152.077 146.645 152.548 146.787 153.087 146.789C153.422 146.79 153.73 146.739 154.012 146.636C154.293 146.529 154.519 146.378 154.689 146.182C154.863 145.982 154.95 145.744 154.951 145.466C154.952 145.316 154.925 145.183 154.872 145.068C154.822 144.952 154.751 144.852 154.659 144.767C154.571 144.678 154.461 144.602 154.331 144.54C154.204 144.474 154.063 144.418 153.909 144.371L151.78 143.735C151.573 143.672 151.361 143.593 151.146 143.496C150.93 143.395 150.733 143.265 150.552 143.107C150.376 142.944 150.232 142.746 150.121 142.51C150.01 142.271 149.955 141.982 149.956 141.644C149.958 141.131 150.09 140.699 150.353 140.345C150.62 139.988 150.979 139.72 151.43 139.54C151.882 139.357 152.386 139.266 152.945 139.268C153.507 139.278 154.009 139.379 154.451 139.573C154.897 139.767 155.266 140.046 155.557 140.409C155.853 140.768 156.055 141.204 156.165 141.716L154.871 141.931C154.814 141.619 154.692 141.351 154.504 141.127C154.316 140.899 154.085 140.725 153.812 140.605C153.539 140.481 153.243 140.416 152.923 140.412C152.615 140.403 152.332 140.448 152.074 140.547C151.819 140.647 151.615 140.786 151.46 140.967C151.31 141.147 151.234 141.355 151.233 141.59C151.232 141.821 151.299 142.008 151.433 142.151C151.568 142.294 151.733 142.408 151.929 142.493C152.129 142.575 152.327 142.643 152.523 142.697L154.058 143.136C154.25 143.19 154.468 143.264 154.71 143.357C154.956 143.447 155.192 143.573 155.419 143.735C155.65 143.898 155.839 144.114 155.989 144.384C156.138 144.65 156.212 144.985 156.211 145.39C156.209 145.809 156.123 146.179 155.953 146.498C155.782 146.813 155.548 147.078 155.251 147.293C154.958 147.503 154.619 147.662 154.233 147.769C153.848 147.875 153.441 147.928 153.014 147.926ZM157.434 147.768L157.461 139.451L162.775 139.468L162.771 140.606L158.665 140.592L158.657 142.926L162.07 142.937L162.067 144.075L158.653 144.064L158.645 146.634L162.751 146.648L162.747 147.785L157.434 147.768ZM164.134 147.79L164.162 139.473L167.524 139.484C167.605 139.484 167.705 139.489 167.824 139.497C167.943 139.501 168.057 139.513 168.165 139.532C168.626 139.607 169.011 139.766 169.318 140.01C169.629 140.254 169.861 140.56 170.014 140.931C170.167 141.301 170.242 141.709 170.241 142.156C170.239 142.606 170.161 143.016 170.006 143.385C169.851 143.754 169.617 144.06 169.304 144.301C168.995 144.543 168.609 144.699 168.147 144.771C168.039 144.786 167.924 144.797 167.8 144.805C167.681 144.812 167.583 144.815 167.506 144.815L165.352 144.808L165.342 147.794L164.134 147.79ZM165.355 143.664L167.463 143.671C167.541 143.672 167.625 143.668 167.718 143.661C167.814 143.653 167.904 143.64 167.989 143.621C168.236 143.564 168.435 143.459 168.585 143.305C168.736 143.148 168.844 142.967 168.91 142.764C168.977 142.56 169.01 142.356 169.011 142.152C169.011 141.948 168.979 141.745 168.915 141.545C168.85 141.341 168.743 141.161 168.593 141.007C168.443 140.848 168.245 140.74 167.999 140.681C167.914 140.658 167.824 140.642 167.728 140.634C167.635 140.626 167.551 140.622 167.474 140.622L165.365 140.615L165.355 143.664ZM170.224 147.81L172.955 139.502L174.693 139.508L177.368 147.834L176.115 147.83L173.651 140.232L173.963 140.233L171.477 147.815L170.224 147.81ZM171.634 145.938L171.637 144.806L175.981 144.82L175.977 145.952L171.634 145.938ZM179.721 147.842L179.732 144.405L176.936 139.515L178.345 139.52L180.349 143.021L182.376 139.534L183.786 139.538L180.957 144.409L180.945 147.846L179.721 147.842ZM186.53 147.865L186.557 139.548L187.764 139.552L187.737 147.869L186.53 147.865ZM189.471 147.874L189.499 139.557L190.723 139.561L194.798 145.755L194.818 139.575L196.043 139.579L196.015 147.896L194.791 147.892L190.716 141.693L190.696 147.879L189.471 147.874ZM197.627 147.902L197.655 139.584L202.582 139.601L202.578 140.808L198.858 140.796L198.85 143.141L201.877 143.151L201.873 144.364L198.846 144.354L198.834 147.906L197.627 147.902ZM203.595 147.922L203.623 139.604L206.984 139.616C207.065 139.616 207.165 139.62 207.284 139.628C207.404 139.632 207.517 139.644 207.625 139.664C208.087 139.739 208.471 139.898 208.779 140.141C209.09 140.385 209.322 140.692 209.474 141.062C209.627 141.432 209.703 141.841 209.701 142.287C209.699 142.95 209.528 143.521 209.187 144.001C208.847 144.477 208.338 144.774 207.66 144.891L207.168 144.947L204.812 144.939L204.802 147.926L203.595 147.922ZM208.458 147.938L206.829 144.548L208.049 144.24L209.838 147.942L208.458 147.938ZM204.816 143.796L206.924 143.803C207.001 143.803 207.086 143.8 207.178 143.792C207.274 143.785 207.365 143.772 207.45 143.753C207.696 143.696 207.895 143.59 208.046 143.437C208.196 143.28 208.305 143.099 208.371 142.895C208.437 142.691 208.47 142.487 208.471 142.283C208.472 142.079 208.44 141.877 208.375 141.676C208.31 141.472 208.203 141.293 208.053 141.138C207.904 140.98 207.706 140.871 207.459 140.813C207.375 140.789 207.284 140.774 207.188 140.766C207.096 140.758 207.011 140.753 206.934 140.753L204.826 140.746L204.816 143.796ZM210.53 147.945L213.261 139.636L215 139.642L217.675 147.968L216.422 147.964L213.958 140.367L214.269 140.368L211.784 147.949L210.53 147.945ZM211.94 146.072L211.944 144.94L216.287 144.955L216.284 146.087L211.94 146.072Z" fill="black"/>
<path d="M388.323 2.93496C389.754 -2.63663 397.112 -3.87372 400.286 0.923781L413.129 20.3386C415.08 23.2869 418.999 24.1887 422.042 22.3891L442.079 10.5389C447.03 7.61071 453.108 11.9388 451.959 17.5754L447.313 40.3857C446.607 43.8497 448.741 47.2587 452.165 48.1378L474.713 53.9266C480.284 55.3571 481.521 62.715 476.724 65.8888L457.309 78.7326C454.361 80.6831 453.459 84.6025 455.259 87.6453L467.109 107.682C470.037 112.633 465.709 118.711 460.072 117.563L437.262 112.916C433.798 112.211 430.389 114.345 429.51 117.769L423.721 140.316C422.291 145.888 414.933 147.125 411.759 142.327L398.915 122.912C396.965 119.964 393.045 119.062 390.002 120.862L369.966 132.712C365.015 135.64 358.937 131.312 360.085 125.676L364.731 102.865C365.437 99.4013 363.303 95.9923 359.879 95.1132L337.332 89.3244C331.76 87.8939 330.523 80.536 335.321 77.3622L354.735 64.5184C357.684 62.5679 358.585 58.6485 356.786 55.6057L344.936 35.5689C342.007 30.6177 346.336 24.5401 351.972 25.6883L374.782 30.3347C378.246 31.0403 381.655 28.9065 382.535 25.4824L388.323 2.93496Z" fill="#FF4F04"/>
<path d="M110.678 164.45L119.577 164.48C125.668 164.5 129.045 168.537 129.016 177.118L129.016 177.224C128.987 185.911 125.851 189.184 119.442 189.163L116.952 189.155L116.911 201.549L110.555 201.528L110.678 164.45ZM117.016 169.98L116.971 183.646L119.46 183.654C121.685 183.662 122.643 182.341 122.652 179.427L122.669 174.448C122.679 171.376 121.73 169.996 119.506 169.989L117.016 169.98ZM131.213 179.509L131.233 173.576C131.253 167.538 134.761 164.001 140.693 164.021C146.626 164.04 149.951 167.494 149.931 173.639L149.928 174.38C149.908 180.525 147.881 184.808 144.112 187.073L142.998 187.652C138.911 190.181 137.53 191.342 137.52 194.414L137.516 195.579L149.645 195.62L149.625 201.658L131.14 201.597L131.16 195.505C131.181 189.043 133.096 186.719 137.289 184.137L138.191 183.664C142.225 181.241 143.553 180.133 143.564 176.796L143.576 173.194C143.583 170.916 142.476 169.588 140.622 169.582C138.715 169.576 137.598 170.896 137.59 173.174L137.569 179.53L131.213 179.509ZM152.37 164.589L161.269 164.619C167.36 164.639 170.737 168.676 170.708 177.257L170.708 177.363C170.679 186.05 167.543 189.323 161.133 189.302L158.644 189.294L158.603 201.688L152.246 201.667L152.37 164.589ZM158.708 170.119L158.662 183.785L161.152 183.793C163.376 183.801 164.334 182.48 164.344 179.566L164.361 174.587C164.371 171.515 163.422 170.135 161.197 170.127L158.708 170.119ZM181.263 179.94L181.28 174.75L183.822 174.758L183.841 168.985L189.881 168.581L189.861 174.778L194.787 174.795L194.769 179.985L189.843 179.969L189.797 193.741C189.789 196.177 191.217 196.977 192.753 196.982C193.389 196.984 194.024 196.88 194.714 196.67L194.855 201.862C193.371 202.175 191.994 202.329 190.775 202.325C186.644 202.311 183.737 200.289 183.758 194.038L183.805 179.949L181.263 179.94ZM202.288 174.82L202.273 179.322L202.432 179.322C203.449 176.307 205.203 174.3 208.275 174.31C208.54 174.311 208.805 174.312 209.07 174.365L209.05 180.351C208.626 180.244 208.203 180.242 207.779 180.241C203.965 180.228 202.261 182.871 202.247 187.108L202.198 201.833L196.16 201.813L196.25 174.799L202.288 174.82ZM221.416 182.882C221.423 180.869 220.421 179.541 218.938 179.536C217.402 179.531 216.391 180.852 216.384 182.865L216.374 185.937L210.336 185.917L210.345 183.215C210.363 177.76 213.658 174.328 218.902 174.345C224.146 174.363 227.471 177.87 227.453 183.272L227.391 201.917L221.353 201.897L221.363 198.984L221.204 198.983C219.766 201.309 217.855 202.415 215.631 202.408C212.347 202.397 210.13 199.9 210.142 196.298L210.152 193.332C210.165 189.571 212.927 187.197 217.376 187.212L221.402 187.225L221.416 182.882ZM221.374 195.435L221.391 190.297L219.749 190.292C217.313 190.284 216.198 191.18 216.192 192.981L216.185 194.994C216.179 196.689 217.023 197.698 218.507 197.703C219.831 197.708 220.893 196.864 221.374 195.435ZM229.472 201.924L229.562 174.91L235.6 174.931L235.589 178.321L236.013 178.322C237.186 175.783 239.045 174.412 241.27 174.42C244.342 174.43 246.823 177.034 246.806 181.96L246.739 201.982L240.701 201.962L240.765 182.787C240.771 180.933 239.822 179.659 238.445 179.654C237.227 179.65 236.111 180.653 235.576 182.134L235.51 201.944L229.472 201.924ZM265.931 184.672L259.893 184.652L259.899 182.957C259.905 180.891 259.009 179.67 257.42 179.665C255.884 179.659 254.927 180.822 254.921 182.622L254.92 182.675C254.914 184.476 255.6 185.273 257.77 185.969L260.996 187.304C264.435 188.64 266.018 190.499 266.006 194.101L266.003 194.789C265.99 198.974 262.641 202.564 257.238 202.546C251.782 202.528 248.722 198.863 248.739 193.937L248.744 192.348L254.782 192.368L254.777 193.957C254.77 195.97 255.772 197.245 257.308 197.25C258.897 197.255 259.961 196.04 259.966 194.398L259.967 194.186C259.973 192.333 259.34 191.589 256.959 190.839L253.626 189.557C250.293 188.328 248.923 186.363 248.934 182.867L248.936 182.285C248.951 177.994 252.035 174.456 257.384 174.473C262.84 174.492 265.953 178.157 265.937 183.03L265.931 184.672ZM269.848 172.343C269.868 166.199 272.788 164.143 277.079 164.157C278.297 164.161 279.674 164.325 281.156 164.648L281.033 169.785C280.345 169.624 279.656 169.516 279.021 169.514C277.326 169.508 275.893 170.298 275.885 172.681L275.877 175.065L281.015 175.082L280.998 180.273L275.86 180.256L275.787 202.078L269.749 202.058L269.821 180.236L267.279 180.227L267.296 175.036L269.839 175.045L269.848 172.343ZM287.533 190.094L287.52 194.119C287.513 196.132 288.568 197.46 290.104 197.465C291.693 197.47 292.757 196.15 292.764 194.137L292.771 191.965L298.756 191.985L298.75 193.786C298.732 199.189 295.331 202.673 290.034 202.656C284.79 202.638 281.464 199.184 281.483 193.728L281.517 183.453C281.535 177.997 284.83 174.565 290.127 174.583C295.424 174.6 298.802 178.107 298.784 183.51L298.762 190.131L287.533 190.094ZM287.556 183.102L287.544 186.757L292.788 186.774L292.8 183.119C292.807 181.107 291.752 179.779 290.163 179.774C288.627 179.768 287.563 181.089 287.556 183.102ZM306.983 175.168L306.968 179.671L307.127 179.671C308.143 176.655 309.898 174.648 312.97 174.659C313.235 174.66 313.5 174.66 313.765 174.714L313.745 180.7C313.321 180.592 312.897 180.591 312.474 180.589C308.66 180.577 306.956 183.22 306.942 187.457L306.893 202.182L300.855 202.162L300.945 175.148L306.983 175.168ZM331.728 184.891L325.689 184.871L325.695 183.176C325.702 181.11 324.805 179.889 323.216 179.884C321.68 179.879 320.723 181.041 320.717 182.842L320.717 182.895C320.711 184.695 321.397 185.492 323.566 186.188L326.793 187.523C330.231 188.859 331.814 190.718 331.802 194.32L331.8 195.008C331.786 199.193 328.437 202.784 323.034 202.766C317.578 202.747 314.518 199.082 314.535 194.156L314.54 192.567L320.578 192.587L320.573 194.176C320.566 196.189 321.569 197.464 323.105 197.469C324.694 197.474 325.757 196.259 325.763 194.617L325.763 194.406C325.77 192.552 325.136 191.808 322.755 191.059L319.423 189.776C316.09 188.547 314.719 186.582 314.731 183.087L314.733 182.504C314.747 178.213 317.831 174.675 323.181 174.693C328.636 174.711 331.749 178.376 331.733 183.249L331.728 184.891Z" fill="#282828"/>
</g>
<g filter="url(#filter1_ddd_1650_3689)">
<g clip-path="url(#clip2_1650_3689)">
<rect x="90.9647" y="226.034" width="193.49" height="205.042" rx="19.2528" transform="rotate(0.190875 90.9647 226.034)" fill="white"/>
<path d="M114.29 411.613C113.802 411.611 113.39 411.518 113.052 411.333C112.715 411.145 112.459 410.896 112.285 410.586C112.115 410.277 112.031 409.937 112.032 409.566C112.033 409.24 112.088 408.948 112.198 408.69C112.307 408.428 112.474 408.203 112.7 408.016C112.926 407.825 113.219 407.669 113.578 407.55C113.849 407.463 114.167 407.385 114.53 407.315C114.897 407.245 115.294 407.182 115.719 407.125C116.149 407.064 116.598 406.999 117.065 406.929L116.526 407.234C116.532 406.767 116.429 406.422 116.217 406.201C116.005 405.979 115.646 405.867 115.142 405.865C114.837 405.864 114.543 405.934 114.259 406.075C113.974 406.216 113.776 406.459 113.662 406.805L112.287 406.369C112.455 405.798 112.774 405.34 113.242 404.996C113.715 404.651 114.349 404.48 115.146 404.483C115.747 404.485 116.274 404.584 116.728 404.782C117.186 404.979 117.525 405.302 117.745 405.749C117.865 405.987 117.937 406.231 117.962 406.482C117.986 406.728 117.997 406.997 117.996 407.289L117.983 411.437L116.662 411.433L116.667 409.969L116.885 410.207C116.579 410.694 116.221 411.052 115.812 411.28C115.406 411.504 114.899 411.615 114.29 411.613ZM114.595 410.413C114.937 410.414 115.229 410.354 115.471 410.234C115.714 410.114 115.906 409.966 116.048 409.792C116.195 409.617 116.293 409.452 116.344 409.298C116.424 409.107 116.468 408.888 116.478 408.642C116.491 408.391 116.498 408.189 116.498 408.035L116.961 408.174C116.506 408.243 116.116 408.305 115.79 408.358C115.465 408.411 115.185 408.462 114.951 408.512C114.718 408.557 114.511 408.608 114.331 408.666C114.156 408.728 114.008 408.8 113.886 408.883C113.765 408.966 113.671 409.062 113.604 409.17C113.541 409.279 113.509 409.406 113.509 409.552C113.508 409.719 113.549 409.867 113.632 409.996C113.715 410.122 113.836 410.222 113.994 410.298C114.157 410.374 114.357 410.412 114.595 410.413ZM122.858 411.641C122.199 411.639 121.647 411.481 121.202 411.167C120.756 410.852 120.422 410.426 120.199 409.887C119.975 409.344 119.865 408.736 119.867 408.065C119.869 407.385 119.984 406.776 120.211 406.239C120.438 405.702 120.769 405.279 121.204 404.972C121.643 404.661 122.183 404.506 122.826 404.508C123.464 404.51 124.016 404.669 124.482 404.983C124.953 405.293 125.316 405.718 125.573 406.257C125.83 406.792 125.957 407.401 125.955 408.085C125.953 408.761 125.824 409.367 125.567 409.905C125.311 410.442 124.951 410.866 124.487 411.178C124.023 411.489 123.48 411.643 122.858 411.641ZM119.589 414.446L119.622 404.685L120.954 404.69L120.939 409.432L121.126 409.433L121.11 414.451L119.589 414.446ZM122.631 410.289C123.023 410.29 123.347 410.193 123.602 409.998C123.857 409.803 124.046 409.539 124.168 409.205C124.294 408.868 124.358 408.493 124.359 408.08C124.361 407.671 124.299 407.3 124.175 406.965C124.051 406.627 123.858 406.36 123.596 406.163C123.334 405.961 123.001 405.86 122.596 405.859C122.212 405.858 121.899 405.95 121.657 406.137C121.414 406.32 121.234 406.578 121.116 406.911C121.002 407.241 120.945 407.626 120.943 408.068C120.942 408.506 120.997 408.892 121.108 409.227C121.224 409.561 121.404 409.822 121.65 410.011C121.9 410.195 122.227 410.288 122.631 410.289ZM130.57 411.667C129.911 411.665 129.358 411.507 128.913 411.192C128.468 410.878 128.134 410.451 127.91 409.912C127.687 409.369 127.576 408.762 127.578 408.091C127.58 407.411 127.695 406.802 127.922 406.265C128.149 405.727 128.48 405.305 128.915 404.998C129.354 404.686 129.895 404.532 130.537 404.534C131.175 404.536 131.728 404.694 132.194 405.009C132.664 405.319 133.028 405.743 133.285 406.282C133.541 406.817 133.669 407.427 133.666 408.111C133.664 408.787 133.535 409.393 133.279 409.93C133.022 410.468 132.662 410.892 132.198 411.203C131.734 411.515 131.191 411.669 130.57 411.667ZM127.3 414.472L127.333 404.711L128.666 404.715L128.65 409.458L128.838 409.459L128.821 414.477L127.3 414.472ZM130.343 410.315C130.735 410.316 131.058 410.219 131.314 410.024C131.569 409.829 131.757 409.564 131.879 409.231C132.006 408.894 132.069 408.518 132.071 408.106C132.072 407.697 132.011 407.325 131.887 406.991C131.763 406.653 131.57 406.385 131.308 406.188C131.045 405.987 130.712 405.886 130.307 405.885C129.924 405.883 129.611 405.976 129.368 406.163C129.125 406.346 128.945 406.604 128.827 406.937C128.714 407.266 128.656 407.652 128.654 408.094C128.653 408.532 128.708 408.918 128.82 409.252C128.935 409.586 129.116 409.848 129.361 410.036C129.611 410.221 129.938 410.313 130.343 410.315ZM135.04 411.494L135.045 409.949L136.591 409.954L136.586 411.499L135.04 411.494ZM146.706 411.533L146.72 407.428C146.721 406.965 146.608 406.604 146.379 406.345C146.151 406.081 145.84 405.949 145.448 405.948C145.206 405.947 144.989 406.002 144.797 406.114C144.605 406.222 144.452 406.384 144.339 406.601C144.225 406.813 144.168 407.067 144.167 407.364L143.499 406.967C143.496 406.5 143.602 406.089 143.816 405.736C144.034 405.378 144.327 405.099 144.695 404.9C145.062 404.701 145.472 404.602 145.922 404.604C146.669 404.606 147.239 404.833 147.634 405.285C148.033 405.733 148.231 406.322 148.229 407.052L148.214 411.538L146.706 411.533ZM138.578 411.506L138.601 404.748L139.933 404.753L139.926 406.849L140.114 406.85L140.099 411.511L138.578 411.506ZM142.652 411.52L142.665 407.434C142.667 406.962 142.553 406.595 142.325 406.331C142.096 406.068 141.784 405.935 141.387 405.934C141.004 405.933 140.695 406.063 140.46 406.325C140.23 406.587 140.114 406.929 140.112 407.35L139.438 406.897C139.44 406.459 139.549 406.066 139.768 405.716C139.986 405.366 140.279 405.092 140.646 404.893C141.018 404.69 141.434 404.589 141.892 404.59C142.397 404.592 142.818 404.702 143.155 404.92C143.497 405.134 143.75 405.427 143.916 405.799C144.086 406.166 144.17 406.582 144.168 407.045L144.153 411.525L142.652 411.52ZM150.48 414.549L151.794 410.981L151.815 412.032L148.892 404.783L150.463 404.788L152.535 410.151L152.134 410.15L154.186 404.8L155.694 404.805L151.894 414.554L150.48 414.549ZM159.851 411.765C159.192 411.762 158.64 411.604 158.195 411.29C157.749 410.976 157.415 410.549 157.191 410.01C156.968 409.467 156.857 408.86 156.86 408.188C156.862 407.508 156.976 406.9 157.204 406.362C157.431 405.825 157.762 405.402 158.196 405.095C158.635 404.784 159.176 404.629 159.819 404.631C160.457 404.633 161.009 404.792 161.475 405.106C161.945 405.416 162.309 405.841 162.566 406.38C162.823 406.915 162.95 407.524 162.948 408.208C162.945 408.884 162.816 409.491 162.56 410.028C162.304 410.565 161.944 410.989 161.48 411.301C161.015 411.612 160.473 411.767 159.851 411.765ZM156.582 414.569L156.614 404.808L157.947 404.813L157.931 409.556L158.119 409.556L158.102 414.575L156.582 414.569ZM159.624 410.412C160.016 410.414 160.34 410.317 160.595 410.121C160.85 409.926 161.039 409.662 161.161 409.329C161.287 408.991 161.351 408.616 161.352 408.203C161.354 407.794 161.292 407.423 161.168 407.089C161.044 406.75 160.851 406.483 160.589 406.286C160.327 406.085 159.993 405.983 159.589 405.982C159.205 405.981 158.892 406.074 158.649 406.261C158.407 406.443 158.227 406.701 158.109 407.035C157.995 407.364 157.937 407.75 157.936 408.192C157.934 408.63 157.989 409.016 158.101 409.35C158.217 409.684 158.397 409.945 158.643 410.134C158.892 410.318 159.219 410.411 159.624 410.412ZM166.849 411.794C166.349 411.793 165.936 411.708 165.611 411.54C165.286 411.372 165.028 411.158 164.837 410.899C164.646 410.64 164.505 410.364 164.415 410.072C164.324 409.779 164.264 409.504 164.236 409.245C164.212 408.982 164.2 408.769 164.2 408.607L164.213 404.834L165.74 404.839L165.729 408.092C165.728 408.301 165.742 408.537 165.77 408.8C165.799 409.058 165.865 409.309 165.968 409.551C166.076 409.789 166.234 409.986 166.442 410.141C166.654 410.296 166.939 410.374 167.298 410.375C167.49 410.376 167.68 410.345 167.868 410.283C168.056 410.221 168.225 410.116 168.376 409.966C168.531 409.812 168.654 409.602 168.747 409.335C168.84 409.069 168.887 408.731 168.888 408.322L169.782 408.707C169.78 409.282 169.665 409.803 169.438 410.27C169.216 410.736 168.887 411.109 168.452 411.387C168.018 411.66 167.483 411.796 166.849 411.794ZM169.059 411.608L169.066 409.511L168.884 409.511L168.9 404.849L170.414 404.854L170.391 411.612L169.059 411.608ZM172.149 411.618L172.172 404.86L173.505 404.865L173.499 406.51L173.337 406.297C173.421 406.072 173.533 405.868 173.671 405.685C173.813 405.498 173.983 405.344 174.179 405.224C174.346 405.111 174.53 405.025 174.731 404.963C174.935 404.897 175.144 404.858 175.357 404.846C175.57 404.83 175.776 404.839 175.976 404.873L175.971 406.281C175.771 406.222 175.54 406.202 175.277 406.222C175.018 406.242 174.785 406.314 174.576 406.439C174.367 406.551 174.195 406.694 174.061 406.869C173.931 407.044 173.835 407.243 173.771 407.469C173.708 407.689 173.676 407.929 173.675 408.188L173.664 411.623L172.149 411.618ZM179.512 411.83C178.678 411.827 178 411.637 177.48 411.26C176.96 410.883 176.645 410.354 176.534 409.674L178.074 409.441C178.153 409.775 178.327 410.039 178.597 410.232C178.868 410.424 179.21 410.521 179.623 410.523C179.985 410.524 180.265 410.454 180.462 410.313C180.662 410.167 180.763 409.97 180.764 409.719C180.765 409.565 180.727 409.442 180.653 409.35C180.582 409.254 180.424 409.161 180.178 409.073C179.932 408.985 179.555 408.873 179.047 408.738C178.48 408.585 178.03 408.423 177.697 408.251C177.364 408.075 177.124 407.868 176.979 407.629C176.834 407.391 176.762 407.103 176.763 406.765C176.764 406.344 176.876 405.977 177.098 405.665C177.32 405.353 177.63 405.114 178.027 404.949C178.424 404.779 178.891 404.695 179.429 404.697C179.955 404.698 180.42 404.781 180.824 404.945C181.232 405.109 181.561 405.342 181.81 405.643C182.059 405.944 182.213 406.297 182.27 406.702L180.729 406.972C180.693 406.684 180.562 406.457 180.337 406.289C180.117 406.121 179.821 406.027 179.45 406.005C179.095 405.982 178.809 406.036 178.592 406.164C178.375 406.289 178.266 406.466 178.265 406.695C178.265 406.824 178.308 406.935 178.395 407.027C178.483 407.119 178.657 407.212 178.92 407.304C179.187 407.397 179.583 407.511 180.108 407.646C180.645 407.786 181.074 407.945 181.395 408.126C181.72 408.302 181.953 408.514 182.094 408.76C182.239 409.007 182.311 409.305 182.31 409.656C182.308 410.336 182.058 410.869 181.56 411.255C181.066 411.641 180.384 411.833 179.512 411.83ZM186.745 411.854C186.061 411.852 185.461 411.702 184.945 411.404C184.428 411.106 184.025 410.694 183.735 410.167C183.449 409.641 183.307 409.035 183.309 408.351C183.312 407.613 183.456 406.973 183.741 406.432C184.027 405.886 184.422 405.464 184.928 405.166C185.434 404.867 186.018 404.719 186.681 404.721C187.382 404.723 187.976 404.89 188.463 405.221C188.954 405.548 189.318 406.01 189.553 406.608C189.789 407.205 189.877 407.908 189.815 408.717L188.32 408.712L188.322 408.162C188.32 407.427 188.193 406.891 187.939 406.552C187.686 406.213 187.286 406.043 186.74 406.041C186.122 406.039 185.663 406.23 185.361 406.612C185.059 406.991 184.907 407.547 184.905 408.282C184.903 408.966 185.051 409.496 185.35 409.872C185.649 410.249 186.087 410.438 186.662 410.44C187.034 410.441 187.353 410.361 187.621 410.199C187.892 410.033 188.102 409.794 188.249 409.482L189.736 409.937C189.476 410.545 189.074 411.017 188.53 411.353C187.991 411.689 187.396 411.856 186.745 411.854ZM184.428 408.699L184.432 407.56L189.081 407.576L189.077 408.715L184.428 408.699ZM194.265 411.879C193.606 411.877 193.054 411.719 192.609 411.404C192.163 411.09 191.829 410.664 191.606 410.125C191.382 409.582 191.271 408.974 191.274 408.303C191.276 407.623 191.391 407.014 191.618 406.477C191.845 405.939 192.176 405.517 192.611 405.21C193.05 404.898 193.59 404.744 194.233 404.746C194.871 404.748 195.423 404.906 195.889 405.221C196.36 405.531 196.723 405.956 196.98 406.495C197.237 407.029 197.364 407.639 197.362 408.323C197.36 408.999 197.23 409.605 196.974 410.143C196.718 410.68 196.358 411.104 195.894 411.415C195.43 411.727 194.887 411.881 194.265 411.879ZM190.996 414.684L191.028 404.923L192.361 404.927L192.345 409.67L192.533 409.671L192.516 414.689L190.996 414.684ZM194.038 410.527C194.43 410.528 194.754 410.431 195.009 410.236C195.264 410.041 195.453 409.777 195.575 409.443C195.701 409.106 195.765 408.731 195.766 408.318C195.768 407.909 195.706 407.537 195.582 407.203C195.458 406.865 195.265 406.597 195.003 406.4C194.741 406.199 194.408 406.098 194.003 406.097C193.619 406.096 193.306 406.188 193.063 406.375C192.821 406.558 192.641 406.816 192.523 407.149C192.409 407.478 192.351 407.864 192.35 408.306C192.348 408.744 192.403 409.13 192.515 409.464C192.631 409.799 192.811 410.06 193.057 410.248C193.306 410.433 193.634 410.526 194.038 410.527ZM200.619 411.9C200.131 411.899 199.718 411.806 199.381 411.621C199.044 411.432 198.788 411.183 198.614 410.874C198.444 410.565 198.359 410.224 198.361 409.853C198.362 409.528 198.417 409.236 198.526 408.978C198.635 408.715 198.803 408.491 199.029 408.304C199.255 408.112 199.547 407.957 199.907 407.837C200.178 407.75 200.495 407.672 200.858 407.603C201.226 407.533 201.622 407.47 202.048 407.413C202.478 407.351 202.926 407.286 203.394 407.217L202.855 407.522C202.86 407.054 202.757 406.71 202.545 406.488C202.333 406.266 201.975 406.155 201.47 406.153C201.166 406.152 200.871 406.222 200.587 406.363C200.303 406.504 200.104 406.747 199.99 407.093L198.615 406.657C198.784 406.086 199.103 405.628 199.571 405.283C200.043 404.938 200.678 404.767 201.475 404.77C202.075 404.772 202.603 404.872 203.057 405.069C203.515 405.267 203.854 405.589 204.074 406.036C204.194 406.275 204.266 406.519 204.29 406.769C204.314 407.015 204.326 407.285 204.325 407.577L204.311 411.725L202.991 411.721L202.996 410.256L203.214 410.495C202.908 410.982 202.55 411.34 202.14 411.568C201.735 411.792 201.228 411.902 200.619 411.9ZM200.923 410.7C201.265 410.701 201.557 410.642 201.8 410.522C202.042 410.401 202.235 410.254 202.377 410.079C202.523 409.905 202.622 409.74 202.673 409.586C202.753 409.394 202.797 409.175 202.806 408.929C202.82 408.679 202.827 408.477 202.827 408.322L203.29 408.462C202.835 408.531 202.444 408.592 202.119 408.645C201.793 408.699 201.514 408.75 201.28 408.799C201.046 408.844 200.84 408.896 200.66 408.953C200.485 409.015 200.336 409.088 200.215 409.171C200.094 409.254 200 409.35 199.932 409.458C199.869 409.566 199.838 409.693 199.837 409.839C199.837 410.006 199.878 410.154 199.961 410.284C200.044 410.409 200.165 410.51 200.323 410.585C200.485 410.661 200.685 410.699 200.923 410.7ZM206.44 414.736L207.753 411.167L207.775 412.218L204.852 404.969L206.422 404.974L208.494 410.337L208.094 410.336L210.145 404.987L211.653 404.992L207.854 414.74L206.44 414.736ZM211.812 411.75L211.817 410.205L213.363 410.21L213.358 411.755L211.812 411.75ZM218.296 411.959C217.6 411.957 217.006 411.801 216.515 411.49C216.024 411.176 215.647 410.749 215.386 410.21C215.13 409.671 215 409.062 214.998 408.382C215.005 407.689 215.142 407.077 215.411 406.544C215.684 406.006 216.069 405.586 216.567 405.283C217.064 404.976 217.655 404.824 218.339 404.826C219.107 404.829 219.755 405.025 220.283 405.415C220.816 405.8 221.162 406.327 221.323 406.995L219.82 407.397C219.704 407.033 219.511 406.751 219.241 406.55C218.97 406.345 218.662 406.242 218.316 406.24C217.923 406.239 217.6 406.332 217.345 406.519C217.09 406.701 216.901 406.955 216.779 407.28C216.657 407.605 216.595 407.974 216.594 408.387C216.592 409.029 216.734 409.549 217.02 409.947C217.307 410.344 217.734 410.543 218.301 410.545C218.702 410.547 219.017 410.456 219.247 410.273C219.481 410.09 219.657 409.826 219.775 409.48L221.313 409.829C221.102 410.517 220.736 411.046 220.213 411.415C219.69 411.78 219.051 411.962 218.296 411.959ZM225.361 411.983C224.686 411.981 224.096 411.826 223.592 411.52C223.088 411.214 222.698 410.793 222.42 410.259C222.146 409.72 222.011 409.102 222.013 408.405C222.015 407.696 222.159 407.075 222.445 406.542C222.73 406.009 223.126 405.593 223.632 405.294C224.137 404.996 224.722 404.848 225.385 404.85C226.065 404.852 226.657 405.006 227.161 405.312C227.664 405.619 228.055 406.041 228.333 406.58C228.61 407.115 228.748 407.731 228.746 408.428C228.743 409.128 228.6 409.747 228.314 410.285C228.033 410.818 227.639 411.235 227.134 411.538C226.628 411.837 226.037 411.985 225.361 411.983ZM225.366 410.569C225.967 410.571 226.414 410.372 226.707 409.973C227 409.573 227.148 409.056 227.15 408.422C227.152 407.767 227.006 407.245 226.711 406.856C226.416 406.463 225.973 406.266 225.38 406.264C224.976 406.263 224.642 406.353 224.378 406.536C224.119 406.714 223.926 406.966 223.8 407.291C223.674 407.612 223.61 407.985 223.609 408.41C223.607 409.065 223.753 409.589 224.048 409.982C224.347 410.371 224.786 410.567 225.366 410.569ZM238.229 411.838L238.242 407.733C238.244 407.27 238.13 406.909 237.902 406.65C237.673 406.386 237.363 406.254 236.971 406.252C236.729 406.252 236.512 406.307 236.319 406.419C236.127 406.527 235.974 406.689 235.861 406.906C235.748 407.118 235.691 407.372 235.69 407.669L235.021 407.272C235.019 406.805 235.124 406.394 235.338 406.041C235.556 405.683 235.849 405.404 236.217 405.205C236.585 405.006 236.994 404.907 237.445 404.909C238.191 404.911 238.762 405.138 239.157 405.59C239.556 406.038 239.754 406.627 239.752 407.357L239.737 411.843L238.229 411.838ZM230.101 411.811L230.123 405.053L231.456 405.058L231.449 407.154L231.637 407.154L231.621 411.816L230.101 411.811ZM234.174 411.825L234.188 407.739C234.189 407.267 234.076 406.9 233.847 406.636C233.619 406.373 233.306 406.24 232.91 406.239C232.526 406.238 232.217 406.368 231.983 406.63C231.752 406.892 231.636 407.234 231.635 407.655L230.961 407.202C230.962 406.764 231.072 406.37 231.29 406.021C231.508 405.671 231.801 405.397 232.169 405.198C232.541 404.995 232.956 404.894 233.415 404.895C233.92 404.897 234.341 405.007 234.678 405.225C235.019 405.439 235.273 405.732 235.438 406.103C235.608 406.471 235.692 406.886 235.691 407.349L235.676 411.83L234.174 411.825Z" fill="black"/>
<path d="M261.879 405.529C261.9 405.378 261.911 405.228 261.911 405.078C261.918 403.017 260.067 401.357 258.006 401.63C257.409 400.559 256.268 399.861 254.998 399.856C253.727 399.852 252.582 400.543 251.978 401.61C249.914 401.323 248.056 402.971 248.049 405.032C248.049 405.182 248.059 405.332 248.078 405.483C247.008 406.081 246.309 407.222 246.305 408.491C246.301 409.761 246.992 410.906 248.058 411.511C248.038 411.661 248.027 411.812 248.026 411.963C248.019 414.024 249.866 415.679 251.932 415.411C252.528 416.481 253.67 417.18 254.94 417.184C256.21 417.188 257.356 416.497 257.96 415.431C260.019 415.713 261.881 414.07 261.888 412.009C261.889 411.859 261.879 411.708 261.859 411.557C262.93 410.96 263.628 409.818 263.632 408.549C263.637 407.28 262.946 406.134 261.879 405.529ZM254.051 412.343L250.884 409.115L252.122 407.903L254.071 409.89L257.832 406.182L259.048 407.416L254.051 412.343Z" fill="#98F500"/>
<path d="M202.153 286.624L222.025 266.884L242.666 287.664L222.585 307.612L248.457 307.698L248.36 336.987L222.905 336.902L242.57 356.698L221.791 377.339L201.918 357.334L201.832 383.205L172.543 383.108L172.629 357.236L152.623 377.109L131.981 356.33L151.777 336.665L126.323 336.581L126.421 307.292L152.293 307.378L132.345 287.297L153.125 266.655L172.864 286.526L172.949 261.071L202.238 261.169L202.153 286.624ZM190.465 300.991C188.945 299.461 186.473 299.453 184.942 300.973L166.241 319.549C164.711 321.069 164.703 323.542 166.222 325.072L184.8 343.774C186.32 345.304 188.792 345.312 190.322 343.792L209.024 325.214C210.554 323.694 210.562 321.222 209.042 319.692L190.465 300.991Z" fill="#078AFF"/>
</g>
</g>
</g>
<path d="M331.078 303.237C330.998 304.056 330.84 304.768 330.604 305.373C330.379 305.969 330.104 306.476 329.781 306.895C329.469 307.304 329.128 307.637 328.758 307.895C328.389 308.141 328.015 308.33 327.636 308.461C327.267 308.592 326.914 308.673 326.576 308.703C326.248 308.745 325.964 308.754 325.726 308.731C325.601 308.719 325.431 308.692 325.215 308.65C324.999 308.618 324.753 308.563 324.478 308.484C324.203 308.405 323.9 308.297 323.568 308.16C323.245 308.035 322.905 307.866 322.549 307.654L323.1 303.751C323.662 304.329 324.172 304.729 324.632 304.951C325.102 305.175 325.503 305.303 325.835 305.335C326.478 305.397 326.983 305.211 327.349 304.775C327.726 304.341 327.951 303.75 328.023 303.004C328.072 302.506 328.001 301.94 327.812 301.304C327.633 300.658 327.268 299.948 326.715 299.172C326.338 298.633 325.948 298.072 325.544 297.489C325.14 296.906 324.781 296.29 324.467 295.642C324.153 294.994 323.911 294.306 323.741 293.578C323.571 292.85 323.526 292.076 323.605 291.257C323.706 290.22 323.933 289.337 324.286 288.607C324.65 287.879 325.094 287.288 325.619 286.837C326.145 286.386 326.725 286.07 327.359 285.891C328.006 285.703 328.666 285.641 329.34 285.706C329.931 285.764 330.524 285.905 331.12 286.13C331.727 286.346 332.325 286.65 332.915 287.042L332.239 290.933C332.003 290.564 331.744 290.267 331.463 290.041C331.192 289.805 330.922 289.622 330.652 289.491C330.393 289.362 330.145 289.27 329.91 289.215C329.685 289.162 329.495 289.128 329.339 289.113C329.038 289.084 328.751 289.134 328.477 289.265C328.214 289.386 327.976 289.567 327.765 289.808C327.564 290.04 327.395 290.327 327.257 290.669C327.12 291.001 327.033 291.359 326.996 291.743C326.939 292.334 327.011 292.88 327.214 293.381C327.427 293.883 327.703 294.386 328.041 294.89C328.379 295.393 328.742 295.915 329.129 296.455C329.528 296.986 329.889 297.581 330.212 298.24C330.537 298.889 330.784 299.624 330.956 300.447C331.139 301.26 331.179 302.19 331.078 303.237ZM338.494 309.639C338.512 308.919 338.53 308.193 338.549 307.462C338.577 306.733 338.597 305.997 338.606 305.254C338.153 305.179 337.715 305.105 337.293 305.033C336.871 304.961 336.442 304.903 336.007 304.861L335.804 304.842C335.68 305.583 335.562 306.315 335.45 307.036C335.338 307.758 335.232 308.475 335.132 309.188L331.25 308.748C332.251 305.109 333.19 301.475 334.065 297.844C334.941 294.214 335.741 290.545 336.467 286.837L341.141 287.369C341.176 291.108 341.291 294.835 341.485 298.548C341.691 302.252 341.988 305.991 342.376 309.764L338.494 309.639ZM338.466 290.987C338.074 292.875 337.693 294.758 337.322 296.637C336.951 298.516 336.595 300.413 336.252 302.326C336.468 302.368 336.69 302.4 336.918 302.422C337.146 302.444 337.379 302.467 337.618 302.49L338.629 302.588C338.64 300.642 338.628 298.71 338.594 296.792C338.56 294.874 338.518 292.939 338.466 290.987ZM349.57 310.368C349.157 310.307 348.744 310.251 348.33 310.2C347.916 310.15 347.502 310.104 347.087 310.064C346.403 309.998 345.717 309.947 345.03 309.912C344.344 309.866 343.656 309.836 342.967 309.822L343.322 306.481C343.557 306.535 343.793 306.584 344.03 306.628C344.267 306.662 344.504 306.7 344.741 306.744C344.959 305.143 345.17 303.552 345.376 301.971C345.593 300.38 345.779 298.786 345.934 297.19C346.037 296.122 346.124 295.068 346.193 294.028C346.264 292.978 346.335 291.923 346.406 290.862C346.137 290.836 345.861 290.814 345.58 290.798C345.299 290.781 345.013 290.769 344.72 290.761L345.067 287.514C345.86 287.643 346.654 287.762 347.45 287.871C348.246 287.969 349.049 288.057 349.857 288.135C350.148 288.164 350.438 288.192 350.728 288.22C351.018 288.248 351.315 288.266 351.618 288.275L351.224 291.361C350.986 291.337 350.748 291.309 350.51 291.276C350.283 291.243 350.051 291.215 349.812 291.192C349.486 293.044 349.202 294.89 348.961 296.73C348.721 298.559 348.51 300.407 348.329 302.273C348.172 303.901 348.045 305.526 347.951 307.15C348.283 307.182 348.62 307.209 348.963 307.232C349.317 307.256 349.671 307.275 350.025 307.288L349.57 310.368ZM364.569 289.405C364.232 291.476 363.928 293.534 363.656 295.58C363.386 297.616 363.15 299.665 362.95 301.728C362.794 303.335 362.661 304.924 362.551 306.493C362.451 308.064 362.381 309.648 362.341 311.245L359.209 310.847C358.925 309.459 358.645 308.082 358.369 306.716C358.105 305.34 357.84 303.975 357.574 302.62C357.307 301.265 357.03 299.914 356.742 298.567C356.464 297.222 356.171 295.88 355.861 294.542C355.629 297.251 355.414 299.956 355.215 302.658C355.027 305.35 354.892 308.042 354.809 310.734L351.219 310.355C351.664 307.06 352.049 303.743 352.372 300.404C352.571 298.351 352.748 296.317 352.901 294.302C353.055 292.286 353.189 290.259 353.303 288.218L357.648 288.734C357.956 291.066 358.296 293.438 358.669 295.85C359.043 298.262 359.455 300.646 359.907 303.003C360.061 300.653 360.18 298.299 360.262 295.942C360.355 293.575 360.429 291.254 360.482 288.977L364.569 289.405ZM373.949 293.69C373.62 293.637 373.237 293.584 372.803 293.531C372.379 293.48 371.923 293.43 371.436 293.383C371.27 294.34 371.111 295.335 370.958 296.367C370.817 297.389 370.679 298.433 370.545 299.498C370.411 300.552 370.287 301.618 370.172 302.695C370.058 303.762 369.95 304.819 369.849 305.866C369.733 307.059 369.626 308.215 369.528 309.336C369.441 310.447 369.373 311.524 369.325 312.566L366.012 312.245C366.276 310.491 366.531 308.622 366.776 306.636C367.021 304.65 367.241 302.647 367.437 300.625C367.565 299.308 367.674 298.021 367.764 296.763C367.855 295.506 367.942 294.279 368.027 293.084C367.529 293.036 367.057 292.995 366.61 292.962C366.163 292.93 365.763 292.906 365.408 292.893L365.754 289.646C366.125 289.713 366.542 289.779 367.007 289.845C367.472 289.901 367.959 289.959 368.466 290.018C368.983 290.079 369.511 290.141 370.049 290.203C370.588 290.256 371.117 290.307 371.635 290.357C372.154 290.407 372.641 290.455 373.097 290.499C373.564 290.544 373.979 290.574 374.344 290.588L373.949 293.69ZM328.279 332.102C328.199 332.921 328.041 333.633 327.805 334.238C327.58 334.834 327.306 335.341 326.982 335.759C326.671 336.169 326.329 336.502 325.959 336.759C325.59 337.006 325.216 337.195 324.837 337.325C324.468 337.457 324.115 337.538 323.777 337.568C323.449 337.609 323.165 337.619 322.927 337.595C322.802 337.583 322.632 337.556 322.417 337.515C322.2 337.483 321.954 337.428 321.679 337.349C321.404 337.27 321.101 337.162 320.769 337.025C320.446 336.9 320.107 336.731 319.75 336.518L320.301 332.616C320.863 333.193 321.374 333.593 321.833 333.816C322.304 334.039 322.705 334.167 323.036 334.199C323.679 334.262 324.184 334.075 324.551 333.64C324.928 333.205 325.152 332.615 325.225 331.869C325.273 331.371 325.202 330.804 325.013 330.168C324.835 329.523 324.469 328.813 323.916 328.037C323.54 327.498 323.149 326.937 322.745 326.354C322.341 325.77 321.983 325.155 321.669 324.507C321.355 323.859 321.113 323.171 320.943 322.443C320.772 321.714 320.727 320.941 320.806 320.122C320.907 319.085 321.134 318.202 321.487 317.472C321.851 316.743 322.295 316.153 322.821 315.702C323.346 315.25 323.926 314.935 324.561 314.756C325.207 314.567 325.867 314.506 326.541 314.571C327.132 314.628 327.725 314.77 328.321 314.995C328.928 315.211 329.526 315.515 330.116 315.907L329.441 319.797C329.204 319.429 328.945 319.132 328.664 318.906C328.393 318.67 328.123 318.487 327.854 318.356C327.594 318.226 327.347 318.134 327.111 318.08C326.886 318.027 326.696 317.993 326.54 317.978C326.24 317.948 325.952 317.999 325.678 318.129C325.415 318.25 325.178 318.431 324.966 318.673C324.765 318.904 324.596 319.191 324.458 319.534C324.322 319.866 324.235 320.224 324.197 320.607C324.14 321.198 324.213 321.744 324.415 322.246C324.628 322.748 324.904 323.25 325.242 323.754C325.581 324.258 325.943 324.78 326.331 325.32C326.729 325.85 327.09 326.445 327.413 327.104C327.738 327.753 327.986 328.489 328.157 329.311C328.34 330.125 328.38 331.055 328.279 332.102ZM335.743 315.84C335.44 317.883 335.154 319.912 334.886 321.926C334.618 323.931 334.37 325.948 334.142 327.977C334.399 328.022 334.657 328.058 334.916 328.083C335.186 328.109 335.45 328.135 335.71 328.16C336.041 328.192 336.379 328.22 336.722 328.243C337.076 328.266 337.43 328.285 337.784 328.298C337.849 327.844 337.903 327.399 337.945 326.964C337.988 326.518 338.032 326.062 338.078 325.595C338.23 324.019 338.367 322.447 338.488 320.879C338.609 319.31 338.71 317.729 338.791 316.136L342.617 316.507C342.188 318.987 341.802 321.456 341.459 323.914C341.127 326.362 340.84 328.835 340.598 331.334C340.479 332.558 340.377 333.777 340.29 334.993C340.204 336.209 340.127 337.437 340.059 338.676L336.513 338.332C336.684 337.103 336.85 335.879 337.01 334.66C337.17 333.44 337.33 332.221 337.491 331.001C336.903 330.913 336.314 330.83 335.725 330.752C335.148 330.664 334.569 330.593 333.988 330.536L333.863 330.524L333.553 333.728C333.482 334.454 333.413 335.169 333.345 335.874C333.276 336.579 333.218 337.29 333.169 338.008L329.608 337.662C329.804 336.174 329.978 334.705 330.129 333.255C330.292 331.795 330.445 330.329 330.587 328.856C331.02 324.398 331.359 319.926 331.606 315.439L335.743 315.84ZM349.423 331.311C349.103 331.259 348.778 331.212 348.447 331.169C348.117 331.127 347.785 331.089 347.454 331.057C347.267 331.039 347.069 331.025 346.861 331.015C346.663 331.007 346.466 330.993 346.269 330.973L345.668 336.52C346.52 336.581 347.349 336.62 348.153 336.635C348.968 336.651 349.833 336.636 350.748 336.588L350.432 339.839C349.854 339.762 349.29 339.691 348.742 339.628C348.204 339.565 347.665 339.507 347.126 339.455C346.317 339.377 345.518 339.31 344.728 339.254C343.937 339.209 343.119 339.171 342.274 339.142C342.554 337.222 342.812 335.322 343.047 333.44C343.293 331.548 343.51 329.638 343.697 327.71C343.876 325.865 344.027 324.032 344.151 322.213C344.287 320.384 344.387 318.541 344.452 316.685C345.666 316.896 346.828 317.056 347.937 317.164C348.642 317.232 349.344 317.284 350.041 317.321C350.75 317.348 351.507 317.369 352.312 317.384L351.965 320.961C351.333 320.784 350.704 320.635 350.077 320.511C349.461 320.388 348.842 320.297 348.22 320.237L347.614 320.178C347.384 321.464 347.187 322.748 347.02 324.029C346.865 325.312 346.714 326.6 346.567 327.894C346.835 327.941 347.103 327.978 347.373 328.004C347.653 328.031 347.938 328.058 348.228 328.087C348.467 328.11 348.71 328.133 348.959 328.158C349.208 328.182 349.463 328.196 349.724 328.2L349.423 331.311ZM362.484 325.152C362.417 325.847 362.282 326.54 362.079 327.232C361.887 327.914 361.614 328.568 361.26 329.193C360.908 329.808 360.476 330.378 359.964 330.904C359.454 331.42 358.846 331.863 358.14 332.234C358.577 333.773 359.076 335.261 359.638 336.697C360.211 338.123 360.867 339.511 361.605 340.859L357.696 340.7L355.78 332.932C355.699 334.201 355.629 335.46 355.571 336.711C355.512 337.961 355.471 339.197 355.447 340.419L351.652 340.051C352.046 337.714 352.394 335.372 352.694 333.025C353.006 330.68 353.277 328.315 353.508 325.93C353.642 324.551 353.765 323.176 353.876 321.806C353.989 320.425 354.083 319.031 354.156 317.626C354.722 317.513 355.287 317.458 355.852 317.46C356.427 317.464 356.912 317.485 357.306 317.523C357.586 317.55 357.92 317.614 358.308 317.714C358.707 317.805 359.116 317.96 359.534 318.178C359.953 318.397 360.359 318.687 360.753 319.05C361.157 319.414 361.499 319.876 361.78 320.437C362.072 320.989 362.285 321.653 362.419 322.43C362.564 323.197 362.586 324.105 362.484 325.152ZM355.993 330.409C356.366 330.341 356.697 330.221 356.986 330.05C357.286 329.87 357.552 329.661 357.785 329.421C358.017 329.182 358.215 328.924 358.378 328.647C358.551 328.371 358.699 328.092 358.82 327.811C359.093 327.157 359.283 326.432 359.392 325.637C359.394 325.616 359.401 325.491 359.412 325.262C359.436 325.024 359.438 324.726 359.421 324.368C359.403 324.011 359.362 323.62 359.299 323.195C359.246 322.771 359.145 322.358 358.995 321.957C358.847 321.544 358.642 321.174 358.381 320.845C358.12 320.516 357.788 320.27 357.385 320.105C357.103 321.721 356.847 323.334 356.618 324.944C356.4 326.545 356.211 328.165 356.052 329.803L355.993 330.409ZM368.824 341.371C368.411 341.31 367.998 341.254 367.584 341.203C367.17 341.153 366.756 341.107 366.341 341.067C365.657 341.001 364.971 340.95 364.284 340.915C363.598 340.869 362.91 340.839 362.22 340.825L362.576 337.484C362.811 337.538 363.047 337.587 363.284 337.631C363.521 337.665 363.758 337.703 363.995 337.747C364.213 336.146 364.424 334.555 364.63 332.974C364.847 331.383 365.033 329.789 365.188 328.193C365.291 327.125 365.378 326.071 365.447 325.031C365.518 323.981 365.589 322.926 365.66 321.865C365.391 321.839 365.115 321.817 364.834 321.801C364.553 321.784 364.267 321.772 363.974 321.764L364.321 318.517C365.114 318.646 365.908 318.765 366.704 318.874C367.5 318.972 368.303 319.06 369.111 319.138C369.402 319.167 369.692 319.195 369.982 319.223C370.272 319.251 370.569 319.269 370.872 319.278L370.478 322.364C370.24 322.34 370.002 322.312 369.764 322.279C369.537 322.246 369.304 322.218 369.066 322.195C368.74 324.047 368.456 325.893 368.215 327.733C367.975 329.562 367.764 331.409 367.583 333.276C367.426 334.904 367.299 336.529 367.205 338.153C367.537 338.185 367.874 338.212 368.217 338.235C368.571 338.259 368.925 338.277 369.279 338.291L368.824 341.371ZM377.51 334.034C377.19 333.982 376.865 333.935 376.534 333.892C376.204 333.85 375.872 333.813 375.541 333.78C375.364 333.763 375.182 333.751 374.995 333.743C374.807 333.735 374.625 333.723 374.449 333.706L373.829 342.201C373.594 342.147 373.337 342.101 373.058 342.064C372.788 342.038 372.524 342.012 372.265 341.987C372.005 341.962 371.762 341.938 371.534 341.916C371.315 341.905 371.117 341.897 370.94 341.89C370.742 341.881 370.549 341.873 370.361 341.865C370.641 339.946 370.899 338.045 371.134 336.163C371.38 334.272 371.597 332.362 371.784 330.433C371.963 328.588 372.114 326.755 372.238 324.936C372.374 323.107 372.474 321.265 372.539 319.408C373.753 319.62 374.915 319.78 376.024 319.887C376.729 319.956 377.431 320.008 378.128 320.044C378.837 320.071 379.594 320.092 380.399 320.107L380.052 323.684C379.42 323.508 378.791 323.358 378.164 323.234C377.548 323.112 376.929 323.02 376.307 322.96L375.701 322.901C375.505 324.055 375.335 325.221 375.189 326.4C375.053 327.579 374.926 328.786 374.806 330.02L374.748 330.627C375.005 330.673 375.263 330.708 375.522 330.733C375.781 330.758 376.046 330.784 376.315 330.81C376.554 330.833 376.797 330.857 377.046 330.881C377.295 330.905 377.55 330.919 377.811 330.924L377.51 334.034ZM386.623 334.918C386.304 334.866 385.979 334.819 385.648 334.776C385.317 334.734 384.986 334.696 384.654 334.664C384.478 334.647 384.296 334.635 384.108 334.627C383.921 334.619 383.739 334.607 383.562 334.59L382.943 343.085C382.707 343.031 382.45 342.985 382.171 342.948C381.902 342.921 381.637 342.896 381.378 342.871C381.119 342.845 380.875 342.822 380.647 342.8C380.428 342.789 380.23 342.78 380.053 342.774C379.855 342.765 379.662 342.757 379.475 342.749C379.755 340.829 380.013 338.929 380.247 337.047C380.494 335.155 380.71 333.246 380.897 331.317C381.076 329.472 381.228 327.639 381.352 325.82C381.487 323.991 381.587 322.148 381.652 320.292C382.867 320.504 384.029 320.663 385.138 320.771C385.843 320.839 386.544 320.892 387.242 320.928C387.951 320.955 388.708 320.976 389.512 320.991L389.165 324.568C388.533 324.392 387.904 324.242 387.278 324.118C386.662 323.996 386.043 323.904 385.421 323.844L384.814 323.785C384.619 324.938 384.448 326.104 384.302 327.283C384.167 328.463 384.04 329.67 383.92 330.904L383.861 331.51C384.118 331.556 384.376 331.592 384.636 331.617C384.895 331.642 385.159 331.668 385.429 331.694C385.667 331.717 385.911 331.741 386.16 331.765C386.409 331.789 386.664 331.803 386.925 331.807L386.623 334.918Z" fill="#76B808"/>
</g>
<defs>
<filter id="filter0_dddd_1650_3689" x="85.7059" y="74.1761" width="426.458" height="404.444" filterUnits="userSpaceOnUse" color-interpolation-filters="sRGB">
<feFlood flood-opacity="0" result="BackgroundImageFix"/>
<feColorMatrix in="SourceAlpha" type="matrix" values="0 0 0 0 0 0 0 0 0 0 0 0 0 0 0 0 0 0 127 0" result="hardAlpha"/>
<feOffset dx="2.28783" dy="2.28783"/>
<feGaussianBlur stdDeviation="3.43174"/>
<feColorMatrix type="matrix" values="0 0 0 0 0 0 0 0 0 0 0 0 0 0 0 0 0 0 0.1 0"/>
<feBlend mode="normal" in2="BackgroundImageFix" result="effect1_dropShadow_1650_3689"/>
<feColorMatrix in="SourceAlpha" type="matrix" values="0 0 0 0 0 0 0 0 0 0 0 0 0 0 0 0 0 0 127 0" result="hardAlpha"/>
<feOffset dx="9.15131" dy="6.86348"/>
<feGaussianBlur stdDeviation="5.71957"/>
<feColorMatrix type="matrix" values="0 0 0 0 0 0 0 0 0 0 0 0 0 0 0 0 0 0 0.09 0"/>
<feBlend mode="normal" in2="effect1_dropShadow_1650_3689" result="effect2_dropShadow_1650_3689"/>
<feColorMatrix in="SourceAlpha" type="matrix" values="0 0 0 0 0 0 0 0 0 0 0 0 0 0 0 0 0 0 127 0" result="hardAlpha"/>
<feOffset dx="20.5905" dy="16.0148"/>
<feGaussianBlur stdDeviation="8.0074"/>
<feColorMatrix type="matrix" values="0 0 0 0 0 0 0 0 0 0 0 0 0 0 0 0 0 0 0.05 0"/>
<feBlend mode="normal" in2="effect2_dropShadow_1650_3689" result="effect3_dropShadow_1650_3689"/>
<feColorMatrix in="SourceAlpha" type="matrix" values="0 0 0 0 0 0 0 0 0 0 0 0 0 0 0 0 0 0 127 0" result="hardAlpha"/>
<feOffset dx="36.6053" dy="28.5979"/>
<feGaussianBlur stdDeviation="9.15131"/>
<feColorMatrix type="matrix" values="0 0 0 0 0 0 0 0 0 0 0 0 0 0 0 0 0 0 0.01 0"/>
<feBlend mode="normal" in2="effect3_dropShadow_1650_3689" result="effect4_dropShadow_1650_3689"/>
<feBlend mode="normal" in="SourceGraphic" in2="effect4_dropShadow_1650_3689" result="shape"/>
</filter>
<filter id="filter1_ddd_1650_3689" x="89.2816" y="225.034" width="196.172" height="207.685" filterUnits="userSpaceOnUse" color-interpolation-filters="sRGB">
<feFlood flood-opacity="0" result="BackgroundImageFix"/>
<feColorMatrix in="SourceAlpha" type="matrix" values="0 0 0 0 0 0 0 0 0 0 0 0 0 0 0 0 0 0 127 0" result="hardAlpha"/>
<feOffset/>
<feGaussianBlur stdDeviation="0.5"/>
<feColorMatrix type="matrix" values="0 0 0 0 0 0 0 0 0 0 0 0 0 0 0 0 0 0 0.09 0"/>
<feBlend mode="normal" in2="BackgroundImageFix" result="effect1_dropShadow_1650_3689"/>
<feColorMatrix in="SourceAlpha" type="matrix" values="0 0 0 0 0 0 0 0 0 0 0 0 0 0 0 0 0 0 127 0" result="hardAlpha"/>
<feOffset/>
<feGaussianBlur stdDeviation="0.5"/>
<feColorMatrix type="matrix" values="0 0 0 0 0 0 0 0 0 0 0 0 0 0 0 0 0 0 0.05 0"/>
<feBlend mode="normal" in2="effect1_dropShadow_1650_3689" result="effect2_dropShadow_1650_3689"/>
<feColorMatrix in="SourceAlpha" type="matrix" values="0 0 0 0 0 0 0 0 0 0 0 0 0 0 0 0 0 0 127 0" result="hardAlpha"/>
<feOffset/>
<feGaussianBlur stdDeviation="0.5"/>
<feColorMatrix type="matrix" values="0 0 0 0 0 0 0 0 0 0 0 0 0 0 0 0 0 0 0.01 0"/>
<feBlend mode="normal" in2="effect2_dropShadow_1650_3689" result="effect3_dropShadow_1650_3689"/>
<feBlend mode="normal" in="SourceGraphic" in2="effect3_dropShadow_1650_3689" result="shape"/>
</filter>
<clipPath id="clip0_1650_3689">
<rect x="5.78094" y="62.2805" width="405.101" height="413" rx="100" transform="rotate(-5.76933 5.78094 62.2805)" fill="white"/>
</clipPath>
<clipPath id="clip1_1650_3689">
<rect x="91.4553" y="78.7517" width="365.803" height="137.657" rx="19.2528" transform="rotate(0.190875 91.4553 78.7517)" fill="white"/>
</clipPath>
<clipPath id="clip2_1650_3689">
<rect x="90.9647" y="226.034" width="193.49" height="205.042" rx="19.2528" transform="rotate(0.190875 90.9647 226.034)" fill="white"/>
</clipPath>
</defs>
</svg>
