<svg width="450" height="473" viewBox="0 0 450 473" fill="none" xmlns="http://www.w3.org/2000/svg">
<rect y="11.5603" width="115" height="198" rx="57.5" transform="rotate(-5.76933 0 11.5603)" fill="#EDF200"/>
<g clip-path="url(#clip0_1653_3812)">
<rect x="5.02618" y="61.3071" width="405.101" height="413" rx="100" transform="rotate(-5.76933 5.02618 61.3071)" fill="#98F500"/>
<g filter="url(#filter0_dddd_1653_3812)">
<g clip-path="url(#clip1_1653_3812)">
<rect x="90.7005" y="77.7782" width="365.803" height="137.657" rx="19.2528" transform="rotate(0.190875 90.7005 77.7782)" fill="white"/>
<path d="M109.57 146.637L109.598 138.32L110.689 138.324L113.683 144.589L116.702 138.344L117.805 138.347L117.777 146.659L116.634 146.655L116.653 140.966L113.948 146.652L113.399 146.65L110.727 140.946L110.708 146.641L109.57 146.637ZM121.4 146.677L121.411 143.24L118.615 138.35L120.024 138.355L122.028 141.856L124.056 138.368L125.465 138.373L122.636 143.244L122.624 146.681L121.4 146.677ZM126.243 146.693L126.271 138.376L129.632 138.387C129.713 138.387 129.813 138.391 129.933 138.399C130.052 138.404 130.166 138.415 130.273 138.435C130.735 138.51 131.12 138.669 131.427 138.913C131.738 139.156 131.97 139.463 132.123 139.833C132.275 140.203 132.351 140.612 132.35 141.058C132.348 141.509 132.27 141.919 132.114 142.288C131.959 142.657 131.725 142.962 131.413 143.204C131.104 143.446 130.718 143.602 130.256 143.674C130.148 143.689 130.032 143.7 129.909 143.707C129.79 143.715 129.692 143.718 129.615 143.718L127.46 143.711L127.45 146.697L126.243 146.693ZM127.464 142.567L129.572 142.574C129.649 142.574 129.734 142.571 129.826 142.563C129.923 142.556 130.013 142.543 130.098 142.524C130.345 142.467 130.543 142.362 130.694 142.208C130.845 142.051 130.953 141.87 131.019 141.666C131.085 141.462 131.119 141.258 131.119 141.054C131.12 140.85 131.088 140.648 131.023 140.448C130.958 140.243 130.851 140.064 130.702 139.909C130.552 139.751 130.354 139.643 130.108 139.584C130.023 139.561 129.933 139.545 129.836 139.537C129.744 139.529 129.659 139.525 129.582 139.524L127.474 139.517L127.464 142.567ZM136.8 146.901C136.149 146.899 135.574 146.764 135.075 146.497C134.579 146.226 134.191 145.849 133.912 145.367C133.632 144.881 133.493 144.31 133.496 143.656L133.513 138.405L134.738 138.404L134.72 143.596C134.719 143.95 134.778 144.263 134.896 144.532C135.015 144.802 135.174 145.028 135.373 145.21C135.573 145.391 135.796 145.529 136.042 145.622C136.292 145.715 136.546 145.762 136.804 145.763C137.066 145.764 137.32 145.719 137.567 145.627C137.817 145.532 138.043 145.394 138.244 145.214C138.445 145.033 138.603 144.809 138.72 144.539C138.84 144.27 138.901 143.961 138.902 143.61L138.919 138.418L140.144 138.422L140.126 143.678C140.124 144.328 139.982 144.896 139.699 145.38C139.416 145.864 139.024 146.24 138.523 146.508C138.025 146.772 137.451 146.903 136.8 146.901ZM141.732 146.744L141.759 138.427L145.121 138.438C145.202 138.439 145.302 138.443 145.421 138.451C145.541 138.455 145.654 138.467 145.762 138.487C146.224 138.561 146.608 138.721 146.915 138.964C147.227 139.208 147.458 139.515 147.611 139.885C147.764 140.255 147.84 140.663 147.838 141.11C147.836 141.772 147.665 142.344 147.324 142.824C146.984 143.3 146.475 143.597 145.796 143.714L145.305 143.77L142.949 143.762L142.939 146.748L141.732 146.744ZM146.595 146.76L144.966 143.37L146.186 143.063L147.975 146.765L146.595 146.76ZM142.953 142.619L145.061 142.626C145.138 142.626 145.223 142.622 145.315 142.615C145.411 142.608 145.502 142.594 145.587 142.575C145.833 142.518 146.032 142.413 146.183 142.26C146.333 142.102 146.442 141.922 146.508 141.718C146.574 141.514 146.607 141.31 146.608 141.106C146.609 140.902 146.577 140.7 146.512 140.499C146.447 140.295 146.34 140.115 146.19 139.961C146.041 139.803 145.843 139.694 145.596 139.636C145.512 139.612 145.421 139.596 145.325 139.588C145.233 139.58 145.148 139.576 145.071 139.576L142.963 139.569L142.953 142.619ZM152.259 146.953C151.662 146.951 151.124 146.847 150.643 146.641C150.166 146.432 149.772 146.136 149.462 145.753C149.155 145.367 148.956 144.91 148.866 144.383L150.125 144.196C150.251 144.705 150.515 145.102 150.919 145.389C151.322 145.671 151.793 145.813 152.332 145.815C152.667 145.816 152.975 145.765 153.257 145.662C153.538 145.555 153.764 145.404 153.934 145.208C154.108 145.008 154.196 144.77 154.196 144.493C154.197 144.343 154.17 144.21 154.117 144.094C154.067 143.978 153.996 143.878 153.904 143.793C153.816 143.704 153.706 143.629 153.576 143.567C153.449 143.501 153.309 143.444 153.155 143.398L151.026 142.761C150.818 142.699 150.606 142.619 150.391 142.522C150.176 142.421 149.978 142.292 149.797 142.133C149.621 141.971 149.477 141.772 149.366 141.537C149.255 141.298 149.2 141.009 149.202 140.67C149.203 140.158 149.336 139.725 149.599 139.372C149.866 139.014 150.225 138.746 150.676 138.567C151.127 138.383 151.631 138.293 152.19 138.294C152.752 138.304 153.254 138.406 153.696 138.6C154.142 138.794 154.511 139.072 154.802 139.435C155.098 139.794 155.3 140.23 155.41 140.743L154.116 140.958C154.059 140.646 153.937 140.378 153.749 140.154C153.561 139.926 153.33 139.752 153.058 139.632C152.785 139.507 152.488 139.443 152.169 139.438C151.861 139.429 151.577 139.474 151.319 139.574C151.065 139.673 150.86 139.813 150.706 139.993C150.555 140.174 150.479 140.381 150.478 140.616C150.477 140.847 150.544 141.034 150.678 141.177C150.813 141.32 150.978 141.434 151.174 141.52C151.374 141.601 151.572 141.669 151.768 141.724L153.303 142.162C153.496 142.217 153.713 142.291 153.955 142.384C154.201 142.473 154.438 142.599 154.664 142.762C154.895 142.924 155.085 143.14 155.234 143.41C155.383 143.677 155.457 144.012 155.456 144.416C155.454 144.836 155.369 145.205 155.198 145.524C155.028 145.839 154.794 146.104 154.497 146.319C154.203 146.53 153.864 146.688 153.478 146.795C153.093 146.902 152.687 146.954 152.259 146.953ZM156.679 146.794L156.707 138.477L162.02 138.495L162.016 139.632L157.91 139.619L157.902 141.952L161.316 141.964L161.312 143.101L157.898 143.09L157.89 145.66L161.996 145.674L161.993 146.812L156.679 146.794ZM163.38 146.816L163.407 138.499L166.769 138.51C166.85 138.511 166.95 138.515 167.069 138.523C167.189 138.527 167.302 138.539 167.41 138.559C167.872 138.634 168.256 138.793 168.563 139.036C168.875 139.28 169.106 139.587 169.259 139.957C169.412 140.327 169.488 140.736 169.486 141.182C169.485 141.633 169.406 142.043 169.251 142.412C169.096 142.781 168.862 143.086 168.549 143.328C168.24 143.569 167.855 143.726 167.392 143.797C167.285 143.812 167.169 143.824 167.046 143.831C166.926 143.838 166.828 143.842 166.751 143.842L164.597 143.834L164.587 146.82L163.38 146.816ZM164.601 142.691L166.709 142.698C166.786 142.698 166.87 142.694 166.963 142.687C167.059 142.68 167.15 142.666 167.235 142.648C167.481 142.591 167.68 142.485 167.83 142.332C167.981 142.174 168.09 141.994 168.156 141.79C168.222 141.586 168.255 141.382 168.256 141.178C168.257 140.974 168.225 140.772 168.16 140.571C168.095 140.367 167.988 140.188 167.838 140.033C167.688 139.875 167.491 139.766 167.244 139.708C167.16 139.684 167.069 139.669 166.973 139.661C166.881 139.653 166.796 139.648 166.719 139.648L164.611 139.641L164.601 142.691ZM169.469 146.837L172.2 138.529L173.938 138.534L176.614 146.86L175.36 146.856L172.896 139.259L173.208 139.26L170.722 146.841L169.469 146.837ZM170.879 144.964L170.883 143.832L175.226 143.847L175.222 144.979L170.879 144.964ZM178.966 146.868L178.977 143.432L176.181 138.542L177.59 138.547L179.594 142.048L181.622 138.56L183.031 138.565L180.202 143.436L180.19 146.872L178.966 146.868ZM185.775 146.891L185.803 138.574L187.01 138.578L186.982 146.895L185.775 146.891ZM188.716 146.901L188.744 138.584L189.969 138.588L194.043 144.781L194.064 138.601L195.288 138.605L195.26 146.923L194.036 146.919L189.962 140.719L189.941 146.905L188.716 146.901ZM196.873 146.928L196.9 138.611L201.827 138.627L201.823 139.834L198.103 139.822L198.096 142.167L201.122 142.177L201.118 143.39L198.092 143.38L198.08 146.932L196.873 146.928ZM202.84 146.948L202.868 138.631L206.229 138.642C206.31 138.642 206.41 138.646 206.53 138.654C206.649 138.659 206.763 138.671 206.87 138.69C207.332 138.765 207.717 138.924 208.024 139.168C208.335 139.411 208.567 139.718 208.72 140.088C208.872 140.459 208.948 140.867 208.947 141.314C208.944 141.976 208.773 142.547 208.433 143.027C208.092 143.504 207.583 143.8 206.905 143.918L206.414 143.974L204.057 143.966L204.047 146.952L202.84 146.948ZM207.703 146.964L206.074 143.574L207.294 143.266L209.084 146.969L207.703 146.964ZM204.061 142.822L206.169 142.829C206.246 142.829 206.331 142.826 206.423 142.819C206.52 142.811 206.61 142.798 206.695 142.779C206.942 142.722 207.14 142.617 207.291 142.463C207.442 142.306 207.55 142.125 207.616 141.921C207.682 141.718 207.716 141.514 207.716 141.31C207.717 141.105 207.685 140.903 207.62 140.703C207.555 140.498 207.448 140.319 207.299 140.165C207.149 140.006 206.951 139.898 206.705 139.839C206.62 139.816 206.53 139.8 206.433 139.792C206.341 139.784 206.256 139.78 206.179 139.78L204.071 139.773L204.061 142.822ZM209.776 146.971L212.506 138.663L214.245 138.669L216.92 146.995L215.667 146.991L213.203 139.393L213.515 139.394L211.029 146.975L209.776 146.971ZM211.185 145.099L211.189 143.966L215.533 143.981L215.529 145.113L211.185 145.099Z" fill="black"/>
<path d="M387.569 1.96145C388.999 -3.61014 396.357 -4.84723 399.531 -0.0497299L412.375 19.3651C414.325 22.3134 418.244 23.2151 421.287 21.4156L441.324 9.56542C446.275 6.63719 452.353 10.9653 451.205 16.6019L446.558 39.4121C445.853 42.8762 447.987 46.2852 451.411 47.1643L473.958 52.9531C479.53 54.3836 480.767 61.7415 475.969 64.9153L456.554 77.7591C453.606 79.7096 452.704 83.629 454.504 86.6718L466.354 106.709C469.282 111.66 464.954 117.737 459.318 116.589L436.507 111.943C433.043 111.237 429.634 113.371 428.755 116.795L422.966 139.343C421.536 144.914 414.178 146.151 411.004 141.354L398.16 121.939C396.21 118.991 392.291 118.089 389.248 119.888L369.211 131.739C364.26 134.667 358.182 130.339 359.33 124.702L363.977 101.892C364.682 98.4278 362.548 95.0188 359.124 94.1397L336.577 88.3509C331.005 86.9204 329.768 79.5625 334.566 76.3887L353.981 63.5449C356.929 61.5944 357.831 57.675 356.031 54.6322L344.181 34.5954C341.253 29.6442 345.581 23.5666 351.217 24.7148L374.028 29.3612C377.492 30.0668 380.901 27.933 381.78 24.5089L387.569 1.96145Z" fill="#FF4F04"/>
<path d="M128.577 176.834L122.221 176.813L122.236 172.152C122.244 169.821 121.136 168.493 119.282 168.487C117.375 168.481 116.259 169.801 116.251 172.132L116.244 174.357C116.235 176.952 117.026 177.961 121.204 179.829L123.109 180.63C127.234 182.391 128.656 184.992 128.637 190.606L128.634 191.507C128.614 197.598 125.106 201.135 119.068 201.115C113.082 201.095 109.704 197.641 109.724 191.444L109.738 187.259L116.095 187.28L116.079 191.942C116.071 194.272 117.232 195.6 119.192 195.607C121.152 195.613 122.269 194.293 122.276 192.015L122.284 189.579C122.293 186.983 121.502 185.974 117.535 184.213L115.366 183.305C111.346 181.544 109.872 178.838 109.891 173.223L109.893 172.535C109.914 166.39 113.315 162.959 119.195 162.978C125.127 162.998 128.611 166.558 128.591 172.597L128.577 176.834ZM130.799 200.625L130.926 162.488L136.964 162.508L136.915 177.074L137.392 177.075C138.513 174.484 140.372 173.113 142.649 173.12C145.721 173.131 148.149 175.734 148.133 180.66L148.066 200.682L142.028 200.662L142.092 181.541C142.098 179.687 141.148 178.412 139.771 178.408C138.553 178.404 137.49 179.406 136.903 180.888L136.837 200.645L130.799 200.625ZM161.331 181.711C161.338 179.698 160.336 178.37 158.853 178.365C157.317 178.36 156.306 179.681 156.299 181.694L156.289 184.766L150.25 184.746L150.259 182.044C150.278 176.589 153.573 173.157 158.817 173.174C164.061 173.192 167.386 176.699 167.368 182.101L167.306 200.746L161.268 200.726L161.277 197.813L161.118 197.812C159.681 200.138 157.77 201.244 155.545 201.237C152.261 201.226 150.045 198.729 150.057 195.127L150.067 192.161C150.079 188.4 152.842 186.026 157.291 186.041L161.317 186.054L161.331 181.711ZM161.289 194.264L161.306 189.126L159.664 189.121C157.228 189.112 156.112 190.009 156.106 191.81L156.1 193.823C156.094 195.518 156.938 196.527 158.421 196.532C159.745 196.536 160.808 195.693 161.289 194.264ZM175.515 173.76L175.5 178.262L175.659 178.262C176.675 175.247 178.43 173.24 181.502 173.25C181.767 173.251 182.032 173.252 182.297 173.305L182.277 179.291C181.853 179.183 181.429 179.182 181.006 179.181C177.192 179.168 175.488 181.811 175.474 186.048L175.425 200.773L169.387 200.753L169.477 173.739L175.515 173.76ZM189.118 188.795L189.105 192.821C189.098 194.833 190.153 196.161 191.689 196.166C193.278 196.171 194.342 194.851 194.349 192.838L194.356 190.666L200.341 190.686L200.335 192.487C200.317 197.89 196.916 201.375 191.619 201.357C186.375 201.339 183.05 197.885 183.068 192.43L183.102 182.154C183.12 176.698 186.416 173.266 191.713 173.284C197.009 173.301 200.388 176.809 200.37 182.211L200.348 188.832L189.118 188.795ZM189.142 181.803L189.13 185.458L194.373 185.475L194.386 181.821C194.392 179.808 193.337 178.48 191.748 178.475C190.212 178.47 189.148 179.79 189.142 181.803ZM219.602 200.92L213.563 200.9L213.574 197.775L213.15 197.721C212.03 200.101 210.119 201.419 208.053 201.412C204.981 201.401 202.342 198.373 202.36 193.13L202.402 180.364C202.418 175.756 205.021 173.328 208.04 173.338C210.265 173.346 212.273 174.677 213.219 176.904L213.643 176.906L213.69 162.763L219.729 162.783L219.602 200.92ZM213.587 193.803L213.63 180.825C213.211 179.5 212.154 178.649 210.936 178.645C209.506 178.64 208.442 179.908 208.436 181.709L208.399 192.938C208.393 194.739 209.395 196.066 210.878 196.071C212.043 196.075 213.159 195.178 213.587 193.803ZM228.924 179.128L228.941 173.938L231.484 173.946L231.503 168.172L237.543 167.769L237.522 173.966L242.448 173.983L242.431 179.173L237.505 179.157L237.459 192.929C237.451 195.365 238.878 196.164 240.414 196.17C241.05 196.172 241.686 196.068 242.375 195.858L242.517 201.05C241.033 201.363 239.655 201.517 238.437 201.513C234.305 201.499 231.399 199.477 231.419 193.226L231.466 179.137L228.924 179.128ZM249.95 174.007L249.935 178.51L250.094 178.51C251.11 175.494 252.865 173.488 255.937 173.498C256.202 173.499 256.466 173.5 256.731 173.553L256.711 179.539C256.288 179.431 255.864 179.43 255.44 179.429C251.627 179.416 249.923 182.059 249.909 186.296L249.86 201.021L243.821 201.001L243.911 173.987L249.95 174.007ZM269.078 182.069C269.084 180.057 268.082 178.729 266.599 178.724C265.063 178.719 264.052 180.04 264.046 182.053L264.035 185.125L257.997 185.105L258.006 182.403C258.024 176.948 261.32 173.516 266.564 173.533C271.807 173.551 275.133 177.058 275.115 182.46L275.053 201.105L269.014 201.085L269.024 198.172L268.865 198.171C267.427 200.497 265.517 201.603 263.292 201.596C260.008 201.585 257.792 199.088 257.804 195.486L257.813 192.52C257.826 188.759 260.588 186.385 265.038 186.399L269.063 186.413L269.078 182.069ZM269.036 194.623L269.053 189.485L267.411 189.48C264.974 189.471 263.859 190.368 263.853 192.169L263.846 194.182C263.841 195.877 264.685 196.886 266.168 196.891C267.492 196.895 268.554 196.051 269.036 194.623ZM277.133 201.112L277.223 174.098L283.262 174.118L283.25 177.508L283.674 177.51C284.848 174.971 286.706 173.6 288.931 173.608C292.003 173.618 294.484 176.222 294.468 181.148L294.401 201.17L288.362 201.149L288.426 181.975C288.433 180.121 287.483 178.847 286.106 178.842C284.888 178.838 283.772 179.841 283.238 181.322L283.172 201.132L277.133 201.112ZM313.593 183.86L307.554 183.84L307.56 182.145C307.567 180.079 306.67 178.858 305.081 178.852C303.545 178.847 302.588 180.009 302.582 181.81L302.582 181.863C302.576 183.664 303.262 184.461 305.431 185.157L308.658 186.492C312.096 187.827 313.679 189.687 313.667 193.288L313.665 193.977C313.651 198.162 310.302 201.752 304.899 201.734C299.443 201.716 296.384 198.051 296.4 193.125L296.405 191.536L302.444 191.556L302.438 193.145C302.432 195.158 303.434 196.433 304.97 196.438C306.559 196.443 307.622 195.228 307.628 193.586L307.628 193.374C307.635 191.52 307.001 190.777 304.62 190.027L301.288 188.745C297.955 187.516 296.584 185.551 296.596 182.055L296.598 181.473C296.612 177.182 299.696 173.644 305.046 173.661C310.501 173.68 313.614 177.345 313.598 182.218L313.593 183.86ZM317.509 171.531C317.53 165.387 320.45 163.331 324.74 163.345C325.958 163.349 327.335 163.513 328.817 163.835L328.694 168.973C328.006 168.812 327.318 168.704 326.682 168.701C324.987 168.696 323.554 169.486 323.546 171.869L323.538 174.253L328.676 174.27L328.659 179.461L323.521 179.444L323.448 201.266L317.41 201.246L317.483 179.423L314.94 179.415L314.958 174.224L317.5 174.233L317.509 171.531ZM335.194 189.282L335.181 193.307C335.174 195.32 336.229 196.648 337.765 196.653C339.354 196.658 340.418 195.337 340.425 193.325L340.432 191.153L346.418 191.173L346.412 192.974C346.394 198.377 342.992 201.861 337.695 201.844C332.451 201.826 329.126 198.372 329.144 192.916L329.178 182.64C329.196 177.185 332.492 173.753 337.789 173.77C343.085 173.788 346.464 177.295 346.446 182.698L346.424 189.319L335.194 189.282ZM335.218 182.29L335.206 185.945L340.449 185.962L340.462 182.307C340.468 180.295 339.413 178.967 337.824 178.961C336.288 178.956 335.224 180.277 335.218 182.29ZM354.644 174.356L354.629 178.859L354.788 178.859C355.805 175.843 357.559 173.836 360.632 173.847C360.896 173.847 361.161 173.848 361.426 173.902L361.406 179.888C360.983 179.78 360.559 179.779 360.135 179.777C356.321 179.765 354.618 182.407 354.603 186.645L354.554 201.37L348.516 201.35L348.606 174.336L354.644 174.356ZM379.389 184.079L373.351 184.059L373.356 182.364C373.363 180.298 372.467 179.077 370.878 179.072C369.342 179.066 368.384 180.229 368.378 182.03L368.378 182.082C368.372 183.883 369.058 184.68 371.227 185.376L374.454 186.711C377.893 188.047 379.475 189.906 379.463 193.508L379.461 194.196C379.447 198.381 376.098 201.971 370.695 201.953C365.24 201.935 362.18 198.27 362.196 193.344L362.201 191.755L368.24 191.775L368.235 193.364C368.228 195.377 369.23 196.652 370.766 196.657C372.355 196.662 373.419 195.447 373.424 193.805L373.425 193.594C373.431 191.74 372.798 190.996 370.417 190.246L367.084 188.964C363.751 187.735 362.38 185.77 362.392 182.274L362.394 181.692C362.408 177.401 365.492 173.863 370.842 173.881C376.298 173.899 379.411 177.564 379.394 182.437L379.389 184.079Z" fill="#282828"/>
</g>
<g clip-path="url(#clip2_1653_3812)">
<rect x="90.2099" y="225.061" width="193.49" height="205.042" rx="19.2528" transform="rotate(0.190875 90.2099 225.061)" fill="white"/>
<path d="M113.535 410.639C113.047 410.638 112.635 410.545 112.297 410.36C111.96 410.171 111.704 409.922 111.53 409.613C111.36 409.304 111.276 408.963 111.277 408.592C111.278 408.267 111.333 407.975 111.443 407.717C111.552 407.454 111.72 407.23 111.946 407.043C112.172 406.851 112.464 406.696 112.823 406.576C113.095 406.49 113.412 406.411 113.775 406.342C114.142 406.272 114.539 406.209 114.965 406.152C115.394 406.09 115.843 406.025 116.31 405.956L115.771 406.261C115.777 405.793 115.674 405.449 115.462 405.227C115.25 405.005 114.892 404.894 114.387 404.892C114.082 404.891 113.788 404.961 113.504 405.102C113.22 405.243 113.021 405.486 112.907 405.832L111.532 405.396C111.701 404.825 112.019 404.367 112.488 404.022C112.96 403.677 113.595 403.506 114.391 403.509C114.992 403.511 115.519 403.611 115.973 403.809C116.432 404.006 116.771 404.328 116.99 404.775C117.11 405.014 117.183 405.258 117.207 405.508C117.231 405.755 117.243 406.024 117.242 406.316L117.228 410.464L115.908 410.46L115.912 408.996L116.131 409.234C115.824 409.721 115.467 410.079 115.057 410.307C114.652 410.531 114.144 410.642 113.535 410.639ZM113.84 409.439C114.182 409.44 114.474 409.381 114.716 409.261C114.959 409.14 115.151 408.993 115.294 408.818C115.44 408.644 115.539 408.479 115.589 408.325C115.669 408.133 115.714 407.914 115.723 407.668C115.736 407.418 115.743 407.216 115.744 407.061L116.206 407.201C115.751 407.27 115.361 407.331 115.036 407.384C114.71 407.438 114.43 407.489 114.197 407.538C113.963 407.583 113.756 407.635 113.577 407.692C113.401 407.754 113.253 407.827 113.132 407.91C113.01 407.993 112.916 408.089 112.849 408.197C112.786 408.305 112.754 408.432 112.754 408.578C112.753 408.745 112.795 408.893 112.878 409.023C112.961 409.148 113.081 409.249 113.239 409.324C113.402 409.4 113.602 409.438 113.84 409.439ZM122.104 410.668C121.445 410.666 120.892 410.508 120.447 410.193C120.002 409.879 119.667 409.452 119.444 408.913C119.22 408.37 119.11 407.763 119.112 407.091C119.114 406.412 119.229 405.803 119.456 405.266C119.683 404.728 120.014 404.306 120.449 403.999C120.888 403.687 121.429 403.533 122.071 403.535C122.709 403.537 123.261 403.695 123.728 404.01C124.198 404.32 124.562 404.744 124.818 405.283C125.075 405.818 125.203 406.428 125.2 407.112C125.198 407.788 125.069 408.394 124.812 408.931C124.556 409.469 124.196 409.893 123.732 410.204C123.268 410.515 122.725 410.67 122.104 410.668ZM118.834 413.473L118.867 403.712L120.2 403.716L120.184 408.459L120.371 408.46L120.355 413.478L118.834 413.473ZM121.877 409.316C122.269 409.317 122.592 409.22 122.847 409.025C123.103 408.83 123.291 408.565 123.413 408.232C123.539 407.895 123.603 407.519 123.605 407.106C123.606 406.698 123.545 406.326 123.421 405.992C123.297 405.654 123.104 405.386 122.841 405.189C122.579 404.988 122.246 404.887 121.841 404.886C121.458 404.884 121.144 404.977 120.902 405.164C120.659 405.347 120.479 405.605 120.361 405.938C120.247 406.267 120.19 406.653 120.188 407.095C120.187 407.533 120.242 407.919 120.353 408.253C120.469 408.587 120.65 408.849 120.895 409.037C121.145 409.222 121.472 409.314 121.877 409.316ZM129.815 410.694C129.156 410.692 128.604 410.533 128.158 410.219C127.713 409.905 127.379 409.478 127.155 408.939C126.932 408.396 126.821 407.789 126.823 407.117C126.826 406.437 126.94 405.829 127.167 405.291C127.394 404.754 127.725 404.332 128.16 404.024C128.599 403.713 129.14 403.558 129.782 403.56C130.421 403.563 130.973 403.721 131.439 404.035C131.909 404.345 132.273 404.77 132.53 405.309C132.787 405.844 132.914 406.453 132.912 407.137C132.909 407.813 132.78 408.42 132.524 408.957C132.268 409.494 131.907 409.919 131.443 410.23C130.979 410.541 130.437 410.696 129.815 410.694ZM126.546 413.499L126.578 403.737L127.911 403.742L127.895 408.485L128.083 408.485L128.066 413.504L126.546 413.499ZM129.588 409.341C129.98 409.343 130.304 409.246 130.559 409.051C130.814 408.855 131.003 408.591 131.125 408.258C131.251 407.92 131.315 407.545 131.316 407.132C131.317 406.723 131.256 406.352 131.132 406.018C131.008 405.679 130.815 405.412 130.553 405.215C130.291 405.014 129.957 404.913 129.553 404.911C129.169 404.91 128.856 405.003 128.613 405.19C128.371 405.372 128.19 405.63 128.072 405.964C127.959 406.293 127.901 406.679 127.9 407.121C127.898 407.559 127.953 407.945 128.065 408.279C128.18 408.613 128.361 408.874 128.607 409.063C128.856 409.247 129.183 409.34 129.588 409.341ZM134.285 410.521L134.291 408.975L135.836 408.981L135.831 410.526L134.285 410.521ZM145.951 410.56L145.965 406.455C145.967 405.992 145.853 405.631 145.624 405.371C145.396 405.108 145.086 404.975 144.693 404.974C144.452 404.973 144.234 405.029 144.042 405.141C143.85 405.249 143.697 405.411 143.584 405.627C143.47 405.84 143.413 406.094 143.412 406.39L142.744 405.994C142.742 405.527 142.847 405.116 143.061 404.762C143.279 404.404 143.572 404.126 143.94 403.927C144.308 403.728 144.717 403.629 145.167 403.63C145.914 403.633 146.485 403.86 146.879 404.312C147.278 404.76 147.477 405.348 147.474 406.078L147.459 410.565L145.951 410.56ZM137.823 410.533L137.846 403.775L139.179 403.779L139.172 405.876L139.359 405.876L139.344 410.538L137.823 410.533ZM141.897 410.546L141.91 406.46C141.912 405.989 141.798 405.622 141.57 405.358C141.341 405.094 141.029 404.962 140.633 404.961C140.249 404.959 139.94 405.09 139.705 405.352C139.475 405.614 139.359 405.955 139.358 406.377L138.683 405.924C138.685 405.486 138.795 405.092 139.013 404.742C139.231 404.393 139.524 404.118 139.891 403.919C140.263 403.716 140.679 403.615 141.138 403.617C141.642 403.619 142.063 403.729 142.401 403.947C142.742 404.16 142.995 404.453 143.161 404.825C143.331 405.193 143.415 405.608 143.413 406.071L143.398 410.551L141.897 410.546ZM149.725 413.576L151.039 410.007L151.06 411.059L148.137 403.809L149.708 403.815L151.78 409.178L151.379 409.176L153.431 403.827L154.939 403.832L151.14 413.58L149.725 413.576ZM159.096 410.791C158.437 410.789 157.885 410.631 157.44 410.316C156.994 410.002 156.66 409.576 156.437 409.037C156.213 408.494 156.103 407.886 156.105 407.215C156.107 406.535 156.222 405.926 156.449 405.389C156.676 404.851 157.007 404.429 157.442 404.122C157.881 403.81 158.421 403.656 159.064 403.658C159.702 403.66 160.254 403.818 160.72 404.133C161.191 404.443 161.554 404.868 161.811 405.407C162.068 405.941 162.195 406.551 162.193 407.235C162.191 407.911 162.061 408.517 161.805 409.055C161.549 409.592 161.189 410.016 160.725 410.327C160.261 410.639 159.718 410.793 159.096 410.791ZM155.827 413.596L155.86 403.835L157.192 403.839L157.176 408.582L157.364 408.583L157.347 413.601L155.827 413.596ZM158.869 409.439C159.261 409.44 159.585 409.343 159.84 409.148C160.095 408.953 160.284 408.689 160.406 408.355C160.532 408.018 160.596 407.643 160.597 407.23C160.599 406.821 160.537 406.449 160.413 406.115C160.289 405.777 160.096 405.509 159.834 405.312C159.572 405.111 159.239 405.01 158.834 405.009C158.45 405.007 158.137 405.1 157.895 405.287C157.652 405.47 157.472 405.728 157.354 406.061C157.24 406.39 157.183 406.776 157.181 407.218C157.18 407.656 157.235 408.042 157.346 408.376C157.462 408.711 157.642 408.972 157.888 409.16C158.138 409.345 158.465 409.438 158.869 409.439ZM166.094 410.821C165.594 410.819 165.181 410.734 164.856 410.566C164.532 410.398 164.274 410.185 164.083 409.926C163.892 409.666 163.751 409.391 163.66 409.098C163.569 408.806 163.509 408.53 163.481 408.272C163.457 408.009 163.445 407.796 163.446 407.633L163.458 403.86L164.985 403.865L164.974 407.119C164.973 407.328 164.987 407.563 165.016 407.826C165.044 408.085 165.11 408.336 165.213 408.578C165.321 408.816 165.479 409.013 165.687 409.168C165.899 409.323 166.185 409.401 166.543 409.402C166.735 409.403 166.925 409.372 167.113 409.31C167.301 409.248 167.47 409.142 167.621 408.993C167.776 408.839 167.9 408.628 167.992 408.362C168.085 408.095 168.132 407.757 168.133 407.349L169.027 407.733C169.025 408.309 168.911 408.83 168.684 409.296C168.461 409.763 168.132 410.135 167.698 410.413C167.263 410.687 166.728 410.823 166.094 410.821ZM168.304 410.634L168.311 408.538L168.129 408.537L168.145 403.876L169.659 403.881L169.637 410.639L168.304 410.634ZM171.395 410.645L171.417 403.887L172.75 403.891L172.744 405.537L172.582 405.324C172.667 405.099 172.778 404.895 172.916 404.712C173.058 404.524 173.228 404.37 173.424 404.25C173.592 404.138 173.775 404.051 173.976 403.989C174.181 403.923 174.389 403.884 174.602 403.872C174.815 403.856 175.021 403.865 175.221 403.9L175.217 405.307C175.017 405.248 174.785 405.229 174.522 405.249C174.264 405.269 174.03 405.341 173.821 405.465C173.612 405.577 173.44 405.721 173.306 405.895C173.176 406.07 173.08 406.27 173.016 406.495C172.953 406.716 172.921 406.956 172.92 407.214L172.909 410.65L171.395 410.645ZM178.757 410.857C177.923 410.854 177.246 410.664 176.725 410.287C176.205 409.91 175.89 409.381 175.78 408.701L177.32 408.468C177.398 408.802 177.572 409.065 177.843 409.258C178.113 409.451 178.455 409.548 178.868 409.549C179.231 409.551 179.51 409.481 179.707 409.339C179.908 409.194 180.008 408.996 180.009 408.746C180.01 408.592 179.973 408.468 179.898 408.376C179.827 408.28 179.669 408.188 179.423 408.1C179.177 408.011 178.8 407.899 178.292 407.764C177.725 407.612 177.275 407.45 176.942 407.278C176.609 407.102 176.37 406.894 176.224 406.656C176.079 406.418 176.007 406.13 176.008 405.792C176.01 405.37 176.121 405.004 176.344 404.692C176.566 404.38 176.875 404.141 177.272 403.975C177.669 403.805 178.136 403.722 178.674 403.723C179.2 403.725 179.665 403.808 180.069 403.972C180.477 404.136 180.806 404.369 181.055 404.67C181.305 404.971 181.458 405.324 181.515 405.729L179.975 405.999C179.938 405.711 179.807 405.483 179.583 405.316C179.362 405.148 179.066 405.053 178.695 405.031C178.341 405.009 178.055 405.062 177.837 405.191C177.62 405.315 177.511 405.492 177.51 405.722C177.51 405.851 177.553 405.962 177.641 406.054C177.728 406.146 177.903 406.238 178.165 406.331C178.432 406.424 178.828 406.537 179.353 406.673C179.891 406.812 180.32 406.972 180.64 407.153C180.965 407.329 181.198 407.54 181.339 407.787C181.484 408.033 181.556 408.332 181.555 408.682C181.553 409.362 181.303 409.895 180.805 410.282C180.312 410.668 179.629 410.86 178.757 410.857ZM185.99 410.881C185.306 410.879 184.706 410.728 184.19 410.431C183.674 410.133 183.27 409.72 182.98 409.194C182.694 408.667 182.552 408.062 182.554 407.378C182.557 406.64 182.701 406 182.986 405.458C183.272 404.913 183.667 404.491 184.173 404.192C184.679 403.893 185.263 403.745 185.927 403.747C186.627 403.75 187.221 403.917 187.708 404.248C188.199 404.575 188.563 405.037 188.799 405.634C189.034 406.231 189.122 406.935 189.061 407.744L187.565 407.739L187.567 407.188C187.565 406.454 187.438 405.917 187.185 405.579C186.931 405.24 186.531 405.07 185.985 405.068C185.367 405.066 184.908 405.256 184.606 405.639C184.305 406.018 184.153 406.574 184.15 407.308C184.148 407.992 184.296 408.523 184.595 408.899C184.895 409.275 185.332 409.465 185.908 409.466C186.279 409.468 186.598 409.387 186.866 409.226C187.137 409.06 187.347 408.821 187.494 408.508L188.982 408.964C188.721 409.572 188.319 410.044 187.775 410.38C187.236 410.716 186.641 410.883 185.99 410.881ZM183.673 407.726L183.677 406.587L188.326 406.602L188.322 407.741L183.673 407.726ZM193.51 410.906C192.851 410.904 192.299 410.745 191.854 410.431C191.409 410.117 191.074 409.69 190.851 409.151C190.627 408.608 190.517 408.001 190.519 407.329C190.521 406.649 190.636 406.041 190.863 405.503C191.09 404.966 191.421 404.544 191.856 404.236C192.295 403.925 192.836 403.77 193.478 403.773C194.116 403.775 194.668 403.933 195.134 404.247C195.605 404.558 195.968 404.982 196.225 405.521C196.482 406.056 196.609 406.666 196.607 407.35C196.605 408.025 196.476 408.632 196.219 409.169C195.963 409.706 195.603 410.131 195.139 410.442C194.675 410.753 194.132 410.908 193.51 410.906ZM190.241 413.711L190.274 403.95L191.606 403.954L191.591 408.697L191.778 408.698L191.762 413.716L190.241 413.711ZM193.283 409.554C193.676 409.555 193.999 409.458 194.254 409.263C194.509 409.068 194.698 408.803 194.82 408.47C194.946 408.133 195.01 407.757 195.012 407.344C195.013 406.936 194.952 406.564 194.828 406.23C194.704 405.892 194.51 405.624 194.248 405.427C193.986 405.226 193.653 405.125 193.248 405.123C192.864 405.122 192.551 405.215 192.309 405.402C192.066 405.585 191.886 405.843 191.768 406.176C191.654 406.505 191.597 406.891 191.595 407.333C191.594 407.771 191.649 408.157 191.76 408.491C191.876 408.825 192.057 409.086 192.302 409.275C192.552 409.459 192.879 409.552 193.283 409.554ZM199.864 410.927C199.376 410.925 198.963 410.832 198.626 410.648C198.289 410.459 198.033 410.21 197.859 409.9C197.689 409.591 197.605 409.251 197.606 408.88C197.607 408.554 197.662 408.263 197.771 408.004C197.881 407.742 198.048 407.517 198.274 407.33C198.5 407.139 198.793 406.984 199.152 406.864C199.423 406.777 199.741 406.699 200.104 406.629C200.471 406.559 200.867 406.496 201.293 406.439C201.723 406.378 202.172 406.313 202.639 406.243L202.1 406.548C202.106 406.081 202.003 405.737 201.791 405.515C201.579 405.293 201.22 405.181 200.715 405.18C200.411 405.179 200.117 405.248 199.832 405.389C199.548 405.53 199.349 405.774 199.236 406.119L197.86 405.683C198.029 405.112 198.348 404.654 198.816 404.31C199.289 403.965 199.923 403.794 200.72 403.797C201.321 403.799 201.848 403.899 202.302 404.096C202.76 404.294 203.099 404.616 203.319 405.063C203.439 405.301 203.511 405.546 203.535 405.796C203.56 406.042 203.571 406.311 203.57 406.603L203.556 410.752L202.236 410.747L202.241 409.283L202.459 409.522C202.153 410.009 201.795 410.366 201.386 410.594C200.98 410.818 200.473 410.929 199.864 410.927ZM200.168 409.727C200.51 409.728 200.803 409.668 201.045 409.548C201.287 409.428 201.48 409.281 201.622 409.106C201.769 408.931 201.867 408.767 201.918 408.613C201.998 408.421 202.042 408.202 202.051 407.956C202.065 407.706 202.072 407.503 202.072 407.349L202.535 407.488C202.08 407.558 201.69 407.619 201.364 407.672C201.039 407.725 200.759 407.776 200.525 407.826C200.291 407.871 200.085 407.922 199.905 407.98C199.73 408.042 199.581 408.115 199.46 408.198C199.339 408.281 199.245 408.376 199.178 408.484C199.115 408.593 199.083 408.72 199.083 408.866C199.082 409.033 199.123 409.181 199.206 409.311C199.289 409.436 199.41 409.536 199.568 409.612C199.731 409.688 199.931 409.726 200.168 409.727ZM205.685 413.762L206.998 410.194L207.02 411.245L204.097 403.996L205.668 404.001L207.74 409.364L207.339 409.363L209.391 404.013L210.898 404.018L207.099 413.767L205.685 413.762ZM211.057 410.777L211.062 409.231L212.608 409.236L212.603 410.782L211.057 410.777ZM217.542 410.986C216.845 410.984 216.251 410.827 215.76 410.517C215.269 410.203 214.893 409.776 214.632 409.237C214.375 408.698 214.245 408.088 214.244 407.408C214.25 406.716 214.388 406.103 214.656 405.57C214.929 405.033 215.315 404.613 215.812 404.31C216.309 404.003 216.9 403.851 217.584 403.853C218.352 403.855 219 404.052 219.528 404.441C220.061 404.827 220.407 405.354 220.568 406.022L219.065 406.423C218.949 406.06 218.756 405.778 218.486 405.577C218.215 405.371 217.907 405.268 217.561 405.267C217.169 405.266 216.845 405.358 216.59 405.545C216.335 405.728 216.146 405.982 216.024 406.307C215.902 406.632 215.84 407.001 215.839 407.414C215.837 408.056 215.979 408.576 216.266 408.973C216.552 409.37 216.979 409.57 217.546 409.572C217.947 409.573 218.262 409.482 218.492 409.3C218.726 409.117 218.902 408.853 219.02 408.507L220.558 408.856C220.348 409.544 219.981 410.072 219.458 410.442C218.936 410.807 218.297 410.988 217.542 410.986ZM224.607 411.01C223.931 411.007 223.341 410.853 222.837 410.547C222.334 410.241 221.943 409.82 221.665 409.285C221.392 408.746 221.256 408.128 221.258 407.432C221.261 406.723 221.405 406.102 221.69 405.569C221.976 405.036 222.371 404.62 222.877 404.321C223.383 404.022 223.967 403.874 224.63 403.876C225.31 403.879 225.902 404.033 226.406 404.339C226.91 404.645 227.3 405.068 227.578 405.607C227.856 406.142 227.993 406.758 227.991 407.454C227.989 408.155 227.845 408.774 227.559 409.311C227.278 409.844 226.885 410.262 226.379 410.565C225.873 410.864 225.282 411.012 224.607 411.01ZM224.611 409.595C225.212 409.597 225.659 409.399 225.952 408.999C226.246 408.6 226.393 408.083 226.395 407.449C226.398 406.794 226.251 406.272 225.956 405.883C225.662 405.49 225.218 405.292 224.626 405.291C224.221 405.289 223.887 405.38 223.624 405.562C223.364 405.741 223.172 405.993 223.045 406.318C222.919 406.638 222.855 407.012 222.854 407.437C222.852 408.092 222.998 408.616 223.293 409.009C223.592 409.398 224.031 409.593 224.611 409.595ZM237.474 410.865L237.488 406.76C237.489 406.297 237.376 405.936 237.147 405.676C236.918 405.413 236.608 405.28 236.216 405.279C235.974 405.278 235.757 405.334 235.565 405.446C235.372 405.554 235.22 405.716 235.106 405.932C234.993 406.145 234.936 406.399 234.935 406.695L234.267 406.299C234.264 405.832 234.37 405.421 234.584 405.067C234.802 404.709 235.095 404.431 235.462 404.232C235.83 404.033 236.239 403.934 236.69 403.935C237.436 403.938 238.007 404.165 238.402 404.617C238.801 405.064 238.999 405.653 238.997 406.383L238.982 410.87L237.474 410.865ZM229.346 410.838L229.368 404.08L230.701 404.084L230.694 406.18L230.882 406.181L230.866 410.843L229.346 410.838ZM233.419 410.851L233.433 406.765C233.434 406.294 233.321 405.926 233.092 405.663C232.864 405.399 232.551 405.267 232.155 405.266C231.771 405.264 231.462 405.395 231.228 405.657C230.997 405.919 230.882 406.26 230.88 406.682L230.206 406.229C230.207 405.791 230.317 405.397 230.535 405.047C230.753 404.698 231.046 404.423 231.414 404.224C231.786 404.021 232.201 403.92 232.66 403.922C233.165 403.924 233.586 404.033 233.923 404.251C234.264 404.465 234.518 404.758 234.683 405.13C234.853 405.498 234.937 405.913 234.936 406.376L234.921 410.856L233.419 410.851Z" fill="black"/>
<path d="M261.125 404.556C261.145 404.405 261.156 404.254 261.156 404.104C261.163 402.043 259.312 400.383 257.251 400.656C256.654 399.586 255.513 398.887 254.243 398.883C252.973 398.879 251.827 399.57 251.223 400.636C249.159 400.349 247.301 401.997 247.295 404.058C247.294 404.208 247.304 404.359 247.323 404.51C246.253 405.107 245.554 406.249 245.55 407.518C245.546 408.787 246.237 409.933 247.303 410.538C247.283 410.687 247.272 410.838 247.271 410.989C247.265 413.05 249.111 414.706 251.177 414.437C251.774 415.508 252.915 416.206 254.185 416.21C255.455 416.215 256.601 415.524 257.205 414.457C259.264 414.74 261.127 413.096 261.133 411.035C261.134 410.885 261.124 410.735 261.105 410.584C262.175 409.986 262.873 408.845 262.878 407.576C262.882 406.306 262.191 405.161 261.125 404.556ZM253.296 411.37L250.13 408.141L251.367 406.929L253.316 408.916L257.077 405.208L258.293 406.443L253.296 411.37Z" fill="#98F500"/>
<circle cx="186.5" cy="315.5" r="63.3865" fill="#FFEB3B"/>
<path d="M194.314 280.561C201.806 273.056 213.955 273.056 221.448 280.561C228.941 288.065 228.941 300.231 221.448 307.735L213.634 315.562L221.325 323.265C228.818 330.769 228.818 342.935 221.325 350.44C213.832 357.943 201.684 357.944 194.191 350.44L186.5 342.736L178.809 350.44C171.316 357.943 159.168 357.944 151.675 350.44C144.182 342.935 144.182 330.769 151.675 323.265L159.366 315.561L151.553 307.735C144.06 300.231 144.06 288.065 151.553 280.561C159.046 273.057 171.194 273.057 178.687 280.561L186.5 288.386L194.314 280.561Z" fill="#FF4F04"/>
<rect x="164.986" y="315.5" width="30.4255" height="30.4255" rx="4.05674" transform="rotate(-45 164.986 315.5)" fill="#2C2A29"/>
</g>
</g>
</g>
<defs>
<filter id="filter0_dddd_1653_3812" x="84.9512" y="73.2025" width="426.458" height="404.444" filterUnits="userSpaceOnUse" color-interpolation-filters="sRGB">
<feFlood flood-opacity="0" result="BackgroundImageFix"/>
<feColorMatrix in="SourceAlpha" type="matrix" values="0 0 0 0 0 0 0 0 0 0 0 0 0 0 0 0 0 0 127 0" result="hardAlpha"/>
<feOffset dx="2.28783" dy="2.28783"/>
<feGaussianBlur stdDeviation="3.43174"/>
<feColorMatrix type="matrix" values="0 0 0 0 0 0 0 0 0 0 0 0 0 0 0 0 0 0 0.1 0"/>
<feBlend mode="normal" in2="BackgroundImageFix" result="effect1_dropShadow_1653_3812"/>
<feColorMatrix in="SourceAlpha" type="matrix" values="0 0 0 0 0 0 0 0 0 0 0 0 0 0 0 0 0 0 127 0" result="hardAlpha"/>
<feOffset dx="9.15131" dy="6.86348"/>
<feGaussianBlur stdDeviation="5.71957"/>
<feColorMatrix type="matrix" values="0 0 0 0 0 0 0 0 0 0 0 0 0 0 0 0 0 0 0.09 0"/>
<feBlend mode="normal" in2="effect1_dropShadow_1653_3812" result="effect2_dropShadow_1653_3812"/>
<feColorMatrix in="SourceAlpha" type="matrix" values="0 0 0 0 0 0 0 0 0 0 0 0 0 0 0 0 0 0 127 0" result="hardAlpha"/>
<feOffset dx="20.5905" dy="16.0148"/>
<feGaussianBlur stdDeviation="8.0074"/>
<feColorMatrix type="matrix" values="0 0 0 0 0 0 0 0 0 0 0 0 0 0 0 0 0 0 0.05 0"/>
<feBlend mode="normal" in2="effect2_dropShadow_1653_3812" result="effect3_dropShadow_1653_3812"/>
<feColorMatrix in="SourceAlpha" type="matrix" values="0 0 0 0 0 0 0 0 0 0 0 0 0 0 0 0 0 0 127 0" result="hardAlpha"/>
<feOffset dx="36.6053" dy="28.5979"/>
<feGaussianBlur stdDeviation="9.15131"/>
<feColorMatrix type="matrix" values="0 0 0 0 0 0 0 0 0 0 0 0 0 0 0 0 0 0 0.01 0"/>
<feBlend mode="normal" in2="effect3_dropShadow_1653_3812" result="effect4_dropShadow_1653_3812"/>
<feBlend mode="normal" in="SourceGraphic" in2="effect4_dropShadow_1653_3812" result="shape"/>
</filter>
<clipPath id="clip0_1653_3812">
<rect x="5.02618" y="61.3071" width="405.101" height="413" rx="100" transform="rotate(-5.76933 5.02618 61.3071)" fill="white"/>
</clipPath>
<clipPath id="clip1_1653_3812">
<rect x="90.7005" y="77.7782" width="365.803" height="137.657" rx="19.2528" transform="rotate(0.190875 90.7005 77.7782)" fill="white"/>
</clipPath>
<clipPath id="clip2_1653_3812">
<rect x="90.2099" y="225.061" width="193.49" height="205.042" rx="19.2528" transform="rotate(0.190875 90.2099 225.061)" fill="white"/>
</clipPath>
</defs>
</svg>
