<svg width="445" height="473" viewBox="0 0 445 473" fill="none" xmlns="http://www.w3.org/2000/svg">
<rect x="436.579" y="461.071" width="115" height="160.884" rx="57.5" transform="rotate(174.235 436.579 461.071)" fill="#EDF200"/>
<g clip-path="url(#clip0_1654_3913)">
<rect x="0.0240479" y="41.3096" width="405.101" height="413" rx="100" transform="rotate(-5.77 0.0240479 41.3096)" fill="#98F500"/>
<rect opacity="0.5" x="15" y="53.0405" width="380" height="380" rx="95.3137" transform="rotate(-5.29088 15 53.0405)" stroke="#7FCA06" stroke-width="6" stroke-linejoin="round" stroke-dasharray="12 12"/>
<g filter="url(#filter0_dddd_1654_3913)">
<g clip-path="url(#clip1_1654_3913)">
<rect x="85.6986" y="57.7798" width="365.803" height="137.657" rx="19.2528" transform="rotate(0.190203 85.6986 57.7798)" fill="white"/>
<path d="M104.569 126.639L104.596 118.321L105.688 118.325L108.682 124.59L111.701 118.345L112.804 118.349L112.776 126.66L111.633 126.656L111.652 120.967L108.947 126.653L108.398 126.651L105.726 120.947L105.707 126.642L104.569 126.639ZM116.399 126.678L116.41 123.241L113.613 118.351L115.023 118.356L117.027 121.857L119.054 118.369L120.464 118.374L117.635 123.245L117.623 126.682L116.399 126.678ZM121.242 126.694L121.27 118.377L124.631 118.388C124.712 118.388 124.812 118.392 124.931 118.401C125.051 118.405 125.164 118.417 125.272 118.436C125.734 118.511 126.118 118.67 126.426 118.914C126.737 119.157 126.969 119.464 127.121 119.834C127.274 120.205 127.35 120.613 127.348 121.06C127.347 121.51 127.269 121.92 127.113 122.289C126.958 122.658 126.724 122.964 126.411 123.205C126.103 123.447 125.717 123.603 125.255 123.675C125.147 123.69 125.031 123.701 124.908 123.708C124.789 123.716 124.69 123.719 124.613 123.719L122.459 123.712L122.449 126.698L121.242 126.694ZM122.463 122.568L124.571 122.575C124.648 122.576 124.733 122.572 124.825 122.565C124.921 122.557 125.012 122.544 125.097 122.525C125.343 122.468 125.542 122.363 125.693 122.209C125.843 122.052 125.952 121.871 126.018 121.667C126.084 121.464 126.117 121.26 126.118 121.056C126.119 120.851 126.087 120.649 126.022 120.449C125.957 120.244 125.85 120.065 125.7 119.911C125.551 119.752 125.353 119.644 125.107 119.585C125.022 119.562 124.931 119.546 124.835 119.538C124.743 119.53 124.658 119.526 124.581 119.526L122.473 119.519L122.463 122.568ZM131.799 126.902C131.148 126.9 130.573 126.765 130.073 126.498C129.578 126.227 129.19 125.85 128.91 125.368C128.631 124.882 128.492 124.311 128.494 123.657L128.512 118.407L129.736 118.405L129.719 123.597C129.718 123.952 129.777 124.264 129.895 124.534C130.014 124.804 130.173 125.029 130.372 125.211C130.572 125.393 130.795 125.53 131.041 125.623C131.291 125.717 131.545 125.764 131.803 125.764C132.065 125.765 132.319 125.72 132.566 125.628C132.816 125.533 133.042 125.395 133.243 125.215C133.444 125.034 133.602 124.81 133.719 124.541C133.839 124.271 133.9 123.962 133.901 123.611L133.918 118.419L135.142 118.423L135.125 123.679C135.123 124.33 134.98 124.897 134.698 125.381C134.415 125.866 134.023 126.242 133.522 126.509C133.024 126.773 132.45 126.904 131.799 126.902ZM136.731 126.745L136.758 118.428L140.12 118.439C140.201 118.44 140.301 118.444 140.42 118.452C140.539 118.456 140.653 118.468 140.761 118.488C141.222 118.562 141.607 118.722 141.914 118.965C142.225 119.209 142.457 119.516 142.61 119.886C142.763 120.256 142.839 120.664 142.837 121.111C142.835 121.773 142.664 122.345 142.323 122.825C141.983 123.301 141.473 123.598 140.795 123.715L140.304 123.771L137.948 123.763L137.938 126.749L136.731 126.745ZM141.594 126.762L139.965 123.371L141.184 123.064L142.974 126.766L141.594 126.762ZM137.951 122.62L140.06 122.627C140.137 122.627 140.221 122.623 140.314 122.616C140.41 122.609 140.501 122.595 140.585 122.576C140.832 122.52 141.031 122.414 141.181 122.261C141.332 122.103 141.44 121.923 141.507 121.719C141.573 121.515 141.606 121.311 141.607 121.107C141.607 120.903 141.575 120.701 141.511 120.5C141.446 120.296 141.339 120.117 141.189 119.962C141.039 119.804 140.841 119.695 140.595 119.637C140.51 119.613 140.42 119.597 140.324 119.589C140.231 119.581 140.147 119.577 140.07 119.577L137.962 119.57L137.951 122.62ZM147.258 126.954C146.661 126.952 146.122 126.848 145.642 126.642C145.165 126.433 144.771 126.137 144.461 125.754C144.154 125.368 143.955 124.911 143.865 124.384L145.124 124.197C145.25 124.706 145.514 125.103 145.917 125.39C146.321 125.672 146.792 125.814 147.331 125.816C147.666 125.817 147.974 125.766 148.256 125.663C148.537 125.556 148.763 125.405 148.933 125.209C149.107 125.009 149.194 124.771 149.195 124.494C149.196 124.344 149.169 124.211 149.116 124.095C149.066 123.979 148.995 123.879 148.903 123.794C148.815 123.705 148.705 123.63 148.575 123.568C148.448 123.502 148.307 123.445 148.154 123.399L146.024 122.762C145.817 122.7 145.605 122.62 145.39 122.523C145.174 122.422 144.977 122.293 144.796 122.134C144.62 121.972 144.476 121.773 144.365 121.538C144.254 121.299 144.199 121.01 144.2 120.671C144.202 120.159 144.334 119.726 144.597 119.373C144.864 119.015 145.223 118.747 145.674 118.568C146.126 118.384 146.63 118.293 147.189 118.295C147.751 118.305 148.253 118.407 148.695 118.601C149.141 118.795 149.51 119.073 149.801 119.436C150.097 119.795 150.299 120.231 150.409 120.743L149.115 120.959C149.058 120.647 148.936 120.379 148.748 120.155C148.56 119.927 148.329 119.753 148.056 119.632C147.783 119.508 147.487 119.444 147.167 119.439C146.859 119.43 146.576 119.475 146.318 119.575C146.063 119.674 145.859 119.814 145.704 119.994C145.554 120.175 145.478 120.382 145.477 120.617C145.476 120.848 145.543 121.035 145.677 121.178C145.812 121.321 145.977 121.435 146.173 121.521C146.373 121.602 146.571 121.67 146.767 121.725L148.302 122.163C148.494 122.218 148.712 122.292 148.954 122.385C149.2 122.474 149.436 122.6 149.663 122.763C149.894 122.925 150.084 123.141 150.233 123.411C150.382 123.678 150.456 124.013 150.455 124.417C150.453 124.837 150.367 125.206 150.197 125.525C150.026 125.84 149.793 126.105 149.495 126.32C149.202 126.531 148.863 126.689 148.477 126.796C148.092 126.902 147.685 126.955 147.258 126.954ZM151.678 126.795L151.705 118.478L157.019 118.495L157.015 119.633L152.909 119.62L152.901 121.953L156.314 121.964L156.311 123.102L152.897 123.091L152.889 125.661L156.995 125.675L156.991 126.813L151.678 126.795ZM158.379 126.817L158.406 118.5L161.768 118.511C161.849 118.512 161.949 118.516 162.068 118.524C162.187 118.528 162.301 118.54 162.409 118.56C162.87 118.634 163.255 118.793 163.562 119.037C163.873 119.281 164.105 119.588 164.258 119.958C164.411 120.328 164.486 120.736 164.485 121.183C164.484 121.633 164.405 122.043 164.25 122.412C164.095 122.782 163.861 123.087 163.548 123.328C163.239 123.57 162.854 123.727 162.391 123.798C162.283 123.813 162.168 123.824 162.045 123.832C161.925 123.839 161.827 123.843 161.75 123.842L159.596 123.835L159.586 126.821L158.379 126.817ZM159.599 122.692L161.708 122.699C161.785 122.699 161.869 122.695 161.962 122.688C162.058 122.68 162.149 122.667 162.233 122.648C162.48 122.591 162.679 122.486 162.829 122.333C162.98 122.175 163.088 121.995 163.155 121.791C163.221 121.587 163.254 121.383 163.255 121.179C163.255 120.975 163.223 120.773 163.159 120.572C163.094 120.368 162.987 120.188 162.837 120.034C162.687 119.875 162.489 119.767 162.243 119.708C162.158 119.685 162.068 119.669 161.972 119.661C161.879 119.653 161.795 119.649 161.718 119.649L159.61 119.642L159.599 122.692ZM164.468 126.837L167.199 118.529L168.937 118.535L171.613 126.861L170.359 126.857L167.895 119.259L168.207 119.26L165.721 126.842L164.468 126.837ZM165.878 124.965L165.881 123.833L170.225 123.847L170.221 124.979L165.878 124.965ZM173.965 126.869L173.976 123.432L171.18 118.542L172.589 118.547L174.593 122.048L176.62 118.561L178.03 118.565L175.201 123.436L175.189 126.873L173.965 126.869ZM180.774 126.892L180.801 118.574L182.008 118.578L181.981 126.896L180.774 126.892ZM183.715 126.901L183.743 118.584L184.967 118.588L189.042 124.782L189.062 118.602L190.287 118.606L190.259 126.923L189.035 126.919L184.96 120.72L184.94 126.905L183.715 126.901ZM191.871 126.928L191.899 118.611L196.826 118.628L196.822 119.835L193.102 119.822L193.094 122.167L196.121 122.177L196.117 123.39L193.09 123.38L193.079 126.932L191.871 126.928ZM197.839 126.948L197.867 118.631L201.228 118.642C201.309 118.643 201.409 118.647 201.528 118.655C201.648 118.659 201.761 118.671 201.869 118.691C202.331 118.765 202.715 118.924 203.023 119.168C203.334 119.412 203.566 119.719 203.718 120.089C203.871 120.459 203.947 120.867 203.945 121.314C203.943 121.976 203.772 122.547 203.431 123.028C203.091 123.504 202.582 123.801 201.904 123.918L201.413 123.974L199.056 123.966L199.046 126.952L197.839 126.948ZM202.702 126.964L201.073 123.574L202.293 123.266L204.083 126.969L202.702 126.964ZM199.06 122.823L201.168 122.83C201.245 122.83 201.33 122.826 201.422 122.819C201.518 122.811 201.609 122.798 201.694 122.779C201.94 122.722 202.139 122.617 202.29 122.464C202.44 122.306 202.549 122.126 202.615 121.922C202.681 121.718 202.715 121.514 202.715 121.31C202.716 121.106 202.684 120.904 202.619 120.703C202.554 120.499 202.447 120.319 202.297 120.165C202.148 120.006 201.95 119.898 201.704 119.839C201.619 119.816 201.528 119.8 201.432 119.792C201.34 119.784 201.255 119.78 201.178 119.78L199.07 119.773L199.06 122.823ZM204.774 126.971L207.505 118.663L209.244 118.669L211.919 126.995L210.666 126.991L208.202 119.393L208.513 119.394L206.028 126.975L204.774 126.971ZM206.184 125.099L206.188 123.967L210.531 123.981L210.528 125.113L206.184 125.099Z" fill="black"/>
<path d="M382.566 -18.0403C383.996 -23.6119 391.354 -24.8491 394.528 -20.0517L407.372 -0.63702C409.322 2.31132 413.242 3.213 416.285 1.41338L436.321 -10.437C441.273 -13.3653 447.35 -9.03722 446.202 -3.40067L441.556 19.4097C440.85 22.8737 442.984 26.2827 446.408 27.1618L468.956 32.9503C474.527 34.3807 475.765 41.7386 470.967 44.9125L451.553 57.7565C448.604 59.707 447.702 63.6264 449.502 66.6692L461.352 86.7059C464.281 91.657 459.953 97.7347 454.316 96.5866L431.506 91.9405C428.042 91.2349 424.633 93.3687 423.754 96.7928L417.965 119.34C416.535 124.912 409.177 126.149 406.003 121.352L393.159 101.937C391.208 98.9887 387.289 98.087 384.246 99.8866L364.21 111.737C359.258 114.665 353.181 110.337 354.329 104.701L358.975 81.8903C359.681 78.4263 357.547 75.0173 354.123 74.1382L331.575 68.3497C326.004 66.9193 324.766 59.5614 329.564 56.3875L348.978 43.5435C351.927 41.593 352.828 37.6736 351.029 34.6308L339.178 14.5941C336.25 9.64298 340.578 3.56534 346.215 4.71342L369.025 9.35955C372.489 10.0651 375.898 7.93126 376.777 4.50715L382.566 -18.0403Z" fill="#FF4F04"/>
<path d="M104.923 143.478L113.609 143.507C119.701 143.527 123.08 146.823 123.06 152.702L123.059 152.967C123.042 158.211 120.49 160.957 117.681 161.424L117.68 161.848C120.698 162.229 123.759 165.523 123.742 170.82L123.74 171.349C123.72 177.229 120.001 180.606 113.645 180.585L104.8 180.556L104.923 143.478ZM111.26 149.008L111.228 158.86L113.505 158.868C115.73 158.875 116.687 157.819 116.695 155.276L116.704 152.681C116.712 150.191 115.763 149.023 113.538 149.016L111.26 149.008ZM111.209 164.422L111.174 175.068L113.611 175.076C115.994 175.084 117.057 173.923 117.066 171.327L117.076 168.202C117.085 165.607 115.976 164.438 113.593 164.43L111.209 164.422ZM136.726 161.646C136.733 159.633 135.731 158.306 134.247 158.301C132.711 158.296 131.701 159.617 131.694 161.629L131.684 164.702L125.645 164.682L125.654 161.98C125.672 156.525 128.968 153.092 134.212 153.11C139.456 153.127 142.781 156.634 142.763 162.037L142.701 180.682L136.663 180.662L136.672 177.748L136.513 177.748C135.076 180.074 133.165 181.18 130.94 181.172C127.656 181.162 125.44 178.665 125.452 175.063L125.462 172.097C125.474 168.336 128.237 165.961 132.686 165.976L136.711 165.99L136.726 161.646ZM136.684 174.2L136.701 169.062L135.059 169.056C132.623 169.048 131.507 169.945 131.501 171.746L131.495 173.759C131.489 175.454 132.333 176.463 133.816 176.468C135.141 176.472 136.203 175.628 136.684 174.2ZM144.782 180.689L144.871 153.675L150.91 153.695L150.899 157.085L151.322 157.086C152.496 154.548 154.354 153.177 156.579 153.184C159.651 153.194 162.132 155.798 162.116 160.724L162.049 180.746L156.011 180.726L156.075 161.552C156.081 159.698 155.132 158.423 153.754 158.419C152.536 158.415 151.42 159.417 150.886 160.899L150.82 180.709L144.782 180.689ZM170.292 142.636L170.222 163.717L170.646 163.719L174.97 153.775L181.008 153.795L175.351 166.595L181.183 180.81L175.198 180.79L170.627 169.545L170.203 169.544L170.166 180.773L164.128 180.753L164.254 142.616L170.292 142.636ZM190.559 159.018L190.577 153.827L193.119 153.835L193.138 148.062L199.178 147.658L199.157 153.855L204.084 153.872L204.066 159.062L199.14 159.046L199.095 172.818C199.086 175.254 200.514 176.054 202.05 176.059C202.686 176.061 203.322 175.957 204.011 175.747L204.153 180.939C202.668 181.252 201.291 181.406 200.072 181.402C195.941 181.388 193.034 179.366 193.055 173.116L193.102 159.026L190.559 159.018ZM211.585 153.896L211.57 158.399L211.729 158.399C212.746 155.383 214.5 153.376 217.572 153.387C217.837 153.387 218.102 153.388 218.367 153.442L218.347 159.428C217.923 159.32 217.5 159.319 217.076 159.317C213.262 159.305 211.558 161.948 211.544 166.185L211.495 180.91L205.457 180.89L205.547 153.876L211.585 153.896ZM230.713 161.958C230.72 159.945 229.718 158.618 228.235 158.613C226.699 158.608 225.688 159.929 225.681 161.941L225.671 165.014L219.633 164.994L219.642 162.292C219.66 156.837 222.955 153.404 228.199 153.422C233.443 153.439 236.768 156.946 236.75 162.349L236.688 180.994L230.65 180.974L230.66 178.06L230.501 178.06C229.063 180.386 227.152 181.492 224.928 181.484C221.644 181.474 219.427 178.977 219.439 175.375L219.449 172.409C219.462 168.648 222.224 166.273 226.673 166.288L230.699 166.302L230.713 161.958ZM230.671 174.512L230.689 169.374L229.047 169.368C226.61 169.36 225.495 170.257 225.489 172.058L225.482 174.071C225.476 175.766 226.321 176.775 227.804 176.78C229.128 176.784 230.19 175.94 230.671 174.512ZM238.769 181.001L238.859 153.987L244.897 154.007L244.886 157.397L245.31 157.398C246.483 154.86 248.342 153.489 250.566 153.496C253.639 153.506 256.119 156.11 256.103 161.036L256.037 181.058L249.998 181.038L250.062 161.864C250.068 160.01 249.119 158.735 247.742 158.731C246.523 158.727 245.408 159.729 244.873 161.211L244.807 181.021L238.769 181.001ZM275.228 163.748L269.19 163.728L269.195 162.033C269.202 159.967 268.306 158.746 266.717 158.741C265.181 158.736 264.224 159.898 264.218 161.699L264.217 161.752C264.211 163.553 264.897 164.349 267.067 165.045L270.293 166.38C273.732 167.716 275.315 169.575 275.303 173.177L275.301 173.865C275.287 178.05 271.938 181.64 266.535 181.623C261.079 181.604 258.019 177.939 258.036 173.013L258.041 171.424L264.079 171.444L264.074 173.033C264.067 175.046 265.069 176.321 266.606 176.326C268.195 176.331 269.258 175.116 269.263 173.474L269.264 173.263C269.27 171.409 268.637 170.665 266.256 169.916L262.923 168.633C259.59 167.404 258.22 165.44 258.231 161.944L258.233 161.361C258.247 157.071 261.331 153.532 266.681 153.55C272.137 153.568 275.25 157.233 275.234 162.106L275.228 163.748ZM279.145 151.419C279.165 145.275 282.085 143.219 286.375 143.233C287.594 143.237 288.97 143.401 290.452 143.723L290.329 148.861C289.641 148.7 288.953 148.592 288.318 148.589C286.623 148.584 285.19 149.374 285.182 151.757L285.174 154.141L290.312 154.158L290.295 159.349L285.157 159.332L285.084 181.154L279.046 181.134L279.118 159.312L276.576 159.303L276.593 154.112L279.136 154.121L279.145 151.419ZM296.83 169.17L296.817 173.195C296.81 175.208 297.865 176.536 299.401 176.541C300.99 176.546 302.054 175.225 302.061 173.213L302.068 171.041L308.053 171.061L308.047 172.862C308.029 178.264 304.628 181.749 299.331 181.731C294.087 181.714 290.762 178.26 290.78 172.804L290.814 162.528C290.832 157.073 294.127 153.641 299.424 153.658C304.721 153.676 308.099 157.183 308.081 162.586L308.059 169.207L296.83 169.17ZM296.853 162.178L296.841 165.833L302.085 165.85L302.097 162.195C302.104 160.182 301.049 158.855 299.46 158.849C297.924 158.844 296.86 160.165 296.853 162.178ZM316.28 154.244L316.265 158.746L316.424 158.747C317.44 155.731 319.195 153.724 322.267 153.734C322.532 153.735 322.797 153.736 323.061 153.79L323.042 159.775C322.618 159.668 322.194 159.666 321.771 159.665C317.957 159.652 316.253 162.295 316.239 166.533L316.19 181.258L310.152 181.238L310.242 154.224L316.28 154.244ZM341.025 163.966L334.986 163.946L334.992 162.251C334.999 160.186 334.102 158.964 332.513 158.959C330.977 158.954 330.02 160.116 330.014 161.917L330.014 161.97C330.008 163.771 330.694 164.568 332.863 165.264L336.09 166.598C339.528 167.934 341.111 169.793 341.099 173.395L341.097 174.084C341.083 178.268 337.734 181.859 332.331 181.841C326.876 181.823 323.816 178.158 323.832 173.232L323.837 171.643L329.876 171.663L329.87 173.252C329.864 175.265 330.866 176.539 332.402 176.544C333.991 176.55 335.054 175.335 335.06 173.693L335.06 173.481C335.067 171.627 334.433 170.883 332.052 170.134L328.72 168.852C325.387 167.622 324.016 165.658 324.028 162.162L324.03 161.579C324.044 157.289 327.128 153.75 332.477 153.768C337.933 153.786 341.046 157.451 341.03 162.324L341.025 163.966Z" fill="#282828"/>
</g>
<g filter="url(#filter1_ddd_1654_3913)">
<g clip-path="url(#clip2_1654_3913)">
<rect x="85.2097" y="205.063" width="193.49" height="205.042" rx="19.2528" transform="rotate(0.190203 85.2097 205.063)" fill="white"/>
<path d="M108.537 390.641C108.049 390.639 107.637 390.546 107.299 390.361C106.962 390.173 106.706 389.924 106.532 389.614C106.362 389.305 106.278 388.965 106.279 388.594C106.28 388.268 106.335 387.976 106.445 387.718C106.554 387.456 106.722 387.231 106.947 387.044C107.173 386.853 107.466 386.697 107.825 386.578C108.096 386.491 108.414 386.413 108.777 386.343C109.144 386.273 109.541 386.21 109.966 386.153C110.396 386.092 110.845 386.027 111.312 385.957L110.773 386.262C110.779 385.795 110.676 385.45 110.464 385.229C110.252 385.007 109.893 384.895 109.389 384.893C109.084 384.892 108.79 384.962 108.506 385.103C108.222 385.244 108.023 385.487 107.909 385.833L106.534 385.397C106.702 384.826 107.021 384.368 107.489 384.024C107.962 383.679 108.597 383.508 109.393 383.511C109.994 383.513 110.521 383.612 110.975 383.81C111.434 384.007 111.772 384.33 111.992 384.777C112.112 385.015 112.184 385.259 112.209 385.51C112.233 385.756 112.244 386.025 112.243 386.317L112.23 390.465L110.909 390.461L110.914 388.997L111.133 389.235C110.826 389.722 110.469 390.08 110.059 390.308C109.654 390.532 109.146 390.643 108.537 390.641ZM108.842 389.441C109.184 389.442 109.476 389.382 109.718 389.262C109.961 389.142 110.153 388.994 110.295 388.82C110.442 388.645 110.541 388.48 110.591 388.326C110.671 388.135 110.716 387.916 110.725 387.67C110.738 387.42 110.745 387.217 110.746 387.063L111.208 387.202C110.753 387.271 110.363 387.333 110.037 387.386C109.712 387.439 109.432 387.49 109.198 387.54C108.965 387.585 108.758 387.636 108.578 387.694C108.403 387.756 108.255 387.828 108.133 387.911C108.012 387.994 107.918 388.09 107.851 388.198C107.788 388.307 107.756 388.434 107.756 388.58C107.755 388.747 107.796 388.895 107.879 389.024C107.963 389.15 108.083 389.25 108.241 389.326C108.404 389.402 108.604 389.44 108.842 389.441ZM117.106 390.669C116.446 390.667 115.894 390.509 115.449 390.195C115.004 389.88 114.669 389.454 114.446 388.915C114.222 388.372 114.112 387.764 114.114 387.093C114.116 386.413 114.231 385.804 114.458 385.267C114.685 384.73 115.016 384.307 115.451 384C115.89 383.689 116.43 383.534 117.073 383.536C117.711 383.538 118.263 383.696 118.729 384.011C119.2 384.321 119.563 384.746 119.82 385.285C120.077 385.819 120.204 386.429 120.202 387.113C120.2 387.789 120.071 388.395 119.814 388.933C119.558 389.47 119.198 389.894 118.734 390.205C118.27 390.517 117.727 390.671 117.106 390.669ZM113.836 393.474L113.869 383.713L115.201 383.718L115.186 388.46L115.373 388.461L115.357 393.479L113.836 393.474ZM116.879 389.317C117.271 389.318 117.594 389.221 117.849 389.026C118.104 388.831 118.293 388.567 118.415 388.233C118.541 387.896 118.605 387.521 118.607 387.108C118.608 386.699 118.547 386.327 118.423 385.993C118.299 385.655 118.105 385.387 117.843 385.191C117.581 384.989 117.248 384.888 116.843 384.887C116.459 384.886 116.146 384.978 115.904 385.165C115.661 385.348 115.481 385.606 115.363 385.939C115.249 386.269 115.192 386.654 115.19 387.096C115.189 387.534 115.244 387.92 115.355 388.255C115.471 388.589 115.652 388.85 115.897 389.038C116.147 389.223 116.474 389.316 116.879 389.317ZM124.817 390.695C124.158 390.693 123.606 390.535 123.16 390.22C122.715 389.906 122.381 389.479 122.157 388.94C121.934 388.397 121.823 387.79 121.825 387.118C121.828 386.438 121.942 385.83 122.169 385.292C122.396 384.755 122.727 384.333 123.162 384.026C123.601 383.714 124.142 383.56 124.784 383.562C125.423 383.564 125.975 383.722 126.441 384.036C126.911 384.347 127.275 384.771 127.532 385.31C127.789 385.845 127.916 386.455 127.914 387.139C127.911 387.814 127.782 388.421 127.526 388.958C127.27 389.495 126.909 389.92 126.445 390.231C125.981 390.542 125.438 390.697 124.817 390.695ZM121.548 393.5L121.58 383.739L122.913 383.743L122.897 388.486L123.085 388.487L123.068 393.505L121.548 393.5ZM124.59 389.343C124.982 389.344 125.306 389.247 125.561 389.052C125.816 388.857 126.004 388.592 126.127 388.259C126.253 387.922 126.317 387.546 126.318 387.133C126.319 386.725 126.258 386.353 126.134 386.019C126.01 385.681 125.817 385.413 125.555 385.216C125.293 385.015 124.959 384.914 124.555 384.912C124.171 384.911 123.858 385.004 123.615 385.191C123.373 385.374 123.192 385.632 123.074 385.965C122.961 386.294 122.903 386.68 122.902 387.122C122.9 387.56 122.955 387.946 123.067 388.28C123.182 388.614 123.363 388.876 123.608 389.064C123.858 389.248 124.185 389.341 124.59 389.343ZM129.287 390.522L129.293 388.977L130.838 388.982L130.833 390.527L129.287 390.522ZM140.953 390.561L140.967 386.456C140.968 385.993 140.855 385.632 140.626 385.373C140.398 385.109 140.087 384.977 139.695 384.975C139.453 384.974 139.236 385.03 139.044 385.142C138.852 385.25 138.699 385.412 138.586 385.629C138.472 385.841 138.415 386.095 138.414 386.391L137.746 385.995C137.743 385.528 137.849 385.117 138.063 384.763C138.281 384.405 138.574 384.127 138.942 383.928C139.309 383.729 139.719 383.63 140.169 383.632C140.916 383.634 141.487 383.861 141.881 384.313C142.28 384.761 142.479 385.349 142.476 386.079L142.461 390.566L140.953 390.561ZM132.825 390.534L132.848 383.776L134.18 383.781L134.174 385.877L134.361 385.877L134.346 390.539L132.825 390.534ZM136.899 390.547L136.912 386.461C136.914 385.99 136.8 385.623 136.572 385.359C136.343 385.095 136.031 384.963 135.634 384.962C135.251 384.96 134.942 385.091 134.707 385.353C134.477 385.615 134.361 385.957 134.36 386.378L133.685 385.925C133.687 385.487 133.797 385.093 134.015 384.744C134.233 384.394 134.526 384.12 134.893 383.921C135.265 383.717 135.681 383.617 136.14 383.618C136.644 383.62 137.065 383.73 137.402 383.948C137.744 384.162 137.997 384.454 138.163 384.826C138.333 385.194 138.417 385.609 138.415 386.072L138.4 390.552L136.899 390.547ZM144.727 393.577L146.041 390.008L146.062 391.06L143.139 383.81L144.71 383.816L146.782 389.179L146.381 389.177L148.433 383.828L149.941 383.833L146.142 393.581L144.727 393.577ZM154.098 390.792C153.439 390.79 152.887 390.632 152.442 390.317C151.996 390.003 151.662 389.576 151.439 389.038C151.215 388.495 151.104 387.887 151.107 387.216C151.109 386.536 151.224 385.927 151.451 385.39C151.678 384.852 152.009 384.43 152.443 384.123C152.883 383.811 153.423 383.657 154.066 383.659C154.704 383.661 155.256 383.819 155.722 384.134C156.193 384.444 156.556 384.869 156.813 385.407C157.07 385.942 157.197 386.552 157.195 387.236C157.193 387.912 157.063 388.518 156.807 389.055C156.551 389.593 156.191 390.017 155.727 390.328C155.263 390.64 154.72 390.794 154.098 390.792ZM150.829 393.597L150.861 383.836L152.194 383.84L152.178 388.583L152.366 388.584L152.349 393.602L150.829 393.597ZM153.871 389.44C154.263 389.441 154.587 389.344 154.842 389.149C155.097 388.954 155.286 388.69 155.408 388.356C155.534 388.019 155.598 387.644 155.599 387.231C155.601 386.822 155.539 386.45 155.415 386.116C155.291 385.778 155.098 385.51 154.836 385.313C154.574 385.112 154.241 385.011 153.836 385.01C153.452 385.008 153.139 385.101 152.896 385.288C152.654 385.471 152.474 385.729 152.356 386.062C152.242 386.391 152.184 386.777 152.183 387.219C152.181 387.657 152.236 388.043 152.348 388.377C152.464 388.711 152.644 388.973 152.89 389.161C153.139 389.346 153.467 389.439 153.871 389.44ZM161.096 390.822C160.596 390.82 160.183 390.735 159.858 390.567C159.533 390.399 159.276 390.186 159.084 389.926C158.893 389.667 158.753 389.391 158.662 389.099C158.571 388.807 158.511 388.531 158.483 388.273C158.459 388.01 158.447 387.797 158.448 387.634L158.46 383.861L159.987 383.866L159.976 387.12C159.975 387.329 159.989 387.564 160.018 387.827C160.046 388.086 160.112 388.336 160.215 388.579C160.323 388.817 160.481 389.013 160.689 389.168C160.901 389.323 161.187 389.402 161.545 389.403C161.737 389.403 161.927 389.373 162.115 389.311C162.303 389.249 162.472 389.143 162.623 388.993C162.778 388.84 162.902 388.629 162.994 388.363C163.087 388.096 163.134 387.758 163.135 387.349L164.029 387.734C164.027 388.31 163.912 388.831 163.686 389.297C163.463 389.764 163.134 390.136 162.7 390.414C162.265 390.688 161.73 390.824 161.096 390.822ZM163.306 390.635L163.313 388.539L163.131 388.538L163.147 383.877L164.661 383.882L164.639 390.639L163.306 390.635ZM166.396 390.645L166.419 383.888L167.752 383.892L167.746 385.538L167.584 385.324C167.668 385.099 167.78 384.895 167.918 384.712C168.06 384.525 168.23 384.371 168.426 384.251C168.593 384.139 168.777 384.052 168.978 383.99C169.182 383.924 169.391 383.885 169.604 383.873C169.817 383.857 170.023 383.866 170.223 383.9L170.219 385.308C170.019 385.249 169.787 385.229 169.524 385.249C169.266 385.269 169.032 385.342 168.823 385.466C168.614 385.578 168.442 385.721 168.308 385.896C168.178 386.071 168.082 386.271 168.018 386.496C167.955 386.717 167.923 386.957 167.922 387.215L167.911 390.65L166.396 390.645ZM173.759 390.857C172.925 390.855 172.247 390.665 171.727 390.288C171.207 389.91 170.892 389.382 170.781 388.701L172.322 388.469C172.4 388.803 172.574 389.066 172.844 389.259C173.115 389.452 173.457 389.549 173.87 389.55C174.233 389.551 174.512 389.481 174.709 389.34C174.91 389.195 175.01 388.997 175.011 388.747C175.012 388.592 174.975 388.469 174.9 388.377C174.829 388.281 174.671 388.189 174.425 388.1C174.179 388.012 173.802 387.9 173.294 387.765C172.727 387.613 172.277 387.451 171.944 387.279C171.611 387.102 171.371 386.895 171.226 386.657C171.081 386.418 171.009 386.13 171.01 385.792C171.012 385.371 171.123 385.004 171.345 384.692C171.568 384.38 171.877 384.141 172.274 383.976C172.671 383.806 173.138 383.722 173.676 383.724C174.202 383.726 174.667 383.809 175.071 383.973C175.479 384.137 175.808 384.369 176.057 384.67C176.306 384.972 176.46 385.325 176.517 385.729L174.977 386C174.94 385.712 174.809 385.484 174.585 385.316C174.364 385.149 174.068 385.054 173.697 385.032C173.342 385.01 173.057 385.063 172.839 385.192C172.622 385.316 172.513 385.493 172.512 385.722C172.512 385.852 172.555 385.962 172.642 386.054C172.73 386.147 172.905 386.239 173.167 386.332C173.434 386.424 173.83 386.538 174.355 386.673C174.892 386.813 175.322 386.973 175.642 387.153C175.967 387.329 176.2 387.541 176.341 387.787C176.486 388.034 176.558 388.333 176.557 388.683C176.555 389.363 176.305 389.896 175.807 390.282C175.313 390.669 174.631 390.86 173.759 390.857ZM180.992 390.881C180.308 390.879 179.708 390.729 179.192 390.431C178.676 390.133 178.272 389.721 177.982 389.195C177.696 388.668 177.554 388.063 177.556 387.379C177.559 386.64 177.703 386 177.988 385.459C178.274 384.913 178.669 384.491 179.175 384.193C179.681 383.894 180.265 383.746 180.928 383.748C181.629 383.75 182.223 383.917 182.71 384.248C183.201 384.575 183.565 385.037 183.801 385.635C184.036 386.232 184.124 386.935 184.063 387.744L182.567 387.739L182.569 387.189C182.567 386.454 182.44 385.918 182.186 385.579C181.933 385.241 181.533 385.07 180.987 385.068C180.369 385.066 179.91 385.257 179.608 385.64C179.307 386.018 179.155 386.575 179.152 387.309C179.15 387.993 179.298 388.523 179.597 388.9C179.896 389.276 180.334 389.465 180.91 389.467C181.281 389.468 181.6 389.388 181.868 389.226C182.139 389.06 182.349 388.821 182.496 388.509L183.983 388.964C183.723 389.572 183.321 390.044 182.777 390.381C182.238 390.717 181.643 390.884 180.992 390.881ZM178.675 387.726L178.679 386.588L183.328 386.603L183.324 387.742L178.675 387.726ZM188.512 390.906C187.853 390.904 187.301 390.746 186.856 390.432C186.411 390.117 186.076 389.691 185.853 389.152C185.629 388.609 185.519 388.001 185.521 387.33C185.523 386.65 185.638 386.041 185.865 385.504C186.092 384.967 186.423 384.544 186.858 384.237C187.297 383.926 187.837 383.771 188.48 383.773C189.118 383.775 189.67 383.933 190.136 384.248C190.607 384.558 190.97 384.983 191.227 385.522C191.484 386.057 191.611 386.666 191.609 387.35C191.607 388.026 191.478 388.632 191.221 389.17C190.965 389.707 190.605 390.131 190.141 390.443C189.677 390.754 189.134 390.908 188.512 390.906ZM185.243 393.711L185.275 383.95L186.608 383.955L186.593 388.698L186.78 388.698L186.764 393.716L185.243 393.711ZM188.285 389.554C188.677 389.555 189.001 389.458 189.256 389.263C189.511 389.068 189.7 388.804 189.822 388.47C189.948 388.133 190.012 387.758 190.013 387.345C190.015 386.936 189.953 386.565 189.829 386.23C189.705 385.892 189.512 385.624 189.25 385.428C188.988 385.226 188.655 385.125 188.25 385.124C187.866 385.123 187.553 385.215 187.311 385.402C187.068 385.585 186.888 385.843 186.77 386.176C186.656 386.506 186.599 386.891 186.597 387.333C186.596 387.771 186.651 388.157 186.762 388.492C186.878 388.826 187.058 389.087 187.304 389.276C187.554 389.46 187.881 389.553 188.285 389.554ZM194.866 390.927C194.378 390.926 193.965 390.833 193.628 390.648C193.291 390.459 193.035 390.21 192.861 389.901C192.691 389.592 192.606 389.251 192.608 388.88C192.609 388.555 192.664 388.263 192.773 388.005C192.883 387.742 193.05 387.518 193.276 387.331C193.502 387.139 193.795 386.984 194.154 386.864C194.425 386.778 194.742 386.699 195.106 386.63C195.473 386.56 195.869 386.497 196.295 386.44C196.725 386.378 197.174 386.313 197.641 386.244L197.102 386.549C197.108 386.081 197.004 385.737 196.792 385.515C196.58 385.293 196.222 385.182 195.717 385.18C195.413 385.179 195.118 385.249 194.834 385.39C194.55 385.531 194.351 385.774 194.237 386.12L192.862 385.684C193.031 385.113 193.35 384.655 193.818 384.31C194.291 383.966 194.925 383.795 195.722 383.797C196.323 383.799 196.85 383.899 197.304 384.096C197.762 384.294 198.101 384.616 198.321 385.063C198.441 385.302 198.513 385.546 198.537 385.796C198.561 386.042 198.573 386.312 198.572 386.604L198.558 390.752L197.238 390.748L197.243 389.283L197.461 389.522C197.155 390.009 196.797 390.367 196.388 390.595C195.982 390.819 195.475 390.93 194.866 390.927ZM195.17 389.727C195.512 389.728 195.805 389.669 196.047 389.549C196.289 389.428 196.482 389.281 196.624 389.106C196.771 388.932 196.869 388.767 196.92 388.613C197 388.421 197.044 388.202 197.053 387.956C197.067 387.706 197.074 387.504 197.074 387.349L197.537 387.489C197.082 387.558 196.692 387.619 196.366 387.672C196.04 387.726 195.761 387.777 195.527 387.826C195.293 387.871 195.087 387.923 194.907 387.981C194.732 388.042 194.583 388.115 194.462 388.198C194.341 388.281 194.247 388.377 194.18 388.485C194.117 388.593 194.085 388.72 194.084 388.866C194.084 389.033 194.125 389.181 194.208 389.311C194.291 389.436 194.412 389.537 194.57 389.613C194.732 389.688 194.933 389.726 195.17 389.727ZM200.687 393.763L202 390.194L202.022 391.245L199.099 383.996L200.669 384.001L202.741 389.364L202.341 389.363L204.392 384.014L205.9 384.019L202.101 393.767L200.687 393.763ZM206.059 390.777L206.064 389.231L207.61 389.237L207.605 390.782L206.059 390.777ZM212.544 390.986C211.847 390.984 211.253 390.828 210.762 390.517C210.271 390.203 209.895 389.776 209.634 389.237C209.377 388.698 209.247 388.089 209.245 387.409C209.252 386.716 209.39 386.103 209.658 385.57C209.931 385.033 210.316 384.613 210.814 384.31C211.311 384.003 211.902 383.851 212.586 383.853C213.354 383.856 214.002 384.052 214.53 384.442C215.063 384.827 215.409 385.354 215.57 386.022L214.067 386.423C213.951 386.06 213.758 385.778 213.488 385.577C213.217 385.372 212.909 385.268 212.563 385.267C212.17 385.266 211.847 385.359 211.592 385.546C211.337 385.728 211.148 385.982 211.026 386.307C210.904 386.632 210.842 387.001 210.841 387.414C210.839 388.056 210.981 388.576 211.268 388.973C211.554 389.371 211.981 389.57 212.548 389.572C212.949 389.573 213.264 389.483 213.494 389.3C213.728 389.117 213.904 388.853 214.022 388.507L215.56 388.856C215.35 389.544 214.983 390.072 214.46 390.442C213.937 390.807 213.299 390.989 212.544 390.986ZM219.608 391.01C218.933 391.007 218.343 390.853 217.839 390.547C217.336 390.241 216.945 389.82 216.667 389.285C216.394 388.746 216.258 388.129 216.26 387.432C216.263 386.723 216.407 386.102 216.692 385.569C216.977 385.036 217.373 384.62 217.879 384.321C218.384 384.023 218.969 383.874 219.632 383.877C220.312 383.879 220.904 384.033 221.408 384.339C221.911 384.645 222.302 385.068 222.58 385.607C222.858 386.142 222.995 386.758 222.993 387.454C222.991 388.155 222.847 388.774 222.561 389.311C222.28 389.844 221.887 390.262 221.381 390.565C220.875 390.864 220.284 391.012 219.608 391.01ZM219.613 389.596C220.214 389.598 220.661 389.399 220.954 388.999C221.248 388.6 221.395 388.083 221.397 387.449C221.4 386.794 221.253 386.272 220.958 385.883C220.663 385.49 220.22 385.293 219.627 385.291C219.223 385.289 218.889 385.38 218.625 385.563C218.366 385.741 218.173 385.993 218.047 386.318C217.921 386.639 217.857 387.012 217.856 387.437C217.854 388.092 218 388.616 218.295 389.009C218.594 389.398 219.033 389.594 219.613 389.596ZM232.476 390.865L232.489 386.76C232.491 386.297 232.377 385.936 232.149 385.676C231.92 385.413 231.61 385.28 231.218 385.279C230.976 385.278 230.759 385.334 230.567 385.446C230.374 385.554 230.222 385.716 230.108 385.932C229.995 386.145 229.938 386.399 229.937 386.695L229.269 386.299C229.266 385.832 229.372 385.421 229.585 385.067C229.804 384.709 230.096 384.431 230.464 384.232C230.832 384.033 231.241 383.934 231.692 383.935C232.438 383.938 233.009 384.165 233.404 384.617C233.803 385.064 234.001 385.653 233.999 386.383L233.984 390.87L232.476 390.865ZM224.348 390.838L224.37 384.08L225.703 384.084L225.696 386.181L225.884 386.181L225.868 390.843L224.348 390.838ZM228.421 390.851L228.435 386.765C228.436 386.294 228.323 385.926 228.094 385.663C227.866 385.399 227.553 385.267 227.157 385.266C226.773 385.264 226.464 385.395 226.23 385.657C225.999 385.919 225.883 386.26 225.882 386.682L225.208 386.229C225.209 385.791 225.319 385.397 225.537 385.047C225.755 384.698 226.048 384.423 226.416 384.224C226.788 384.021 227.203 383.92 227.662 383.922C228.167 383.924 228.588 384.033 228.925 384.252C229.266 384.465 229.52 384.758 229.685 385.13C229.855 385.498 229.939 385.913 229.938 386.376L229.923 390.856L228.421 390.851Z" fill="black"/>
<path d="M256.126 384.555C256.147 384.405 256.158 384.254 256.158 384.104C256.165 382.043 254.314 380.383 252.253 380.656C251.656 379.586 250.515 378.887 249.245 378.883C247.974 378.879 246.829 379.57 246.225 380.636C244.161 380.349 242.303 381.997 242.296 384.058C242.296 384.208 242.306 384.359 242.325 384.51C241.255 385.107 240.556 386.249 240.552 387.518C240.548 388.787 241.239 389.933 242.305 390.538C242.285 390.687 242.274 390.838 242.273 390.989C242.267 393.05 244.113 394.706 246.179 394.437C246.776 395.507 247.917 396.206 249.187 396.21C250.457 396.214 251.603 395.523 252.207 394.457C254.266 394.74 256.128 393.096 256.135 391.035C256.136 390.885 256.126 390.734 256.106 390.584C257.177 389.986 257.875 388.845 257.88 387.575C257.884 386.306 257.193 385.16 256.126 384.555ZM248.298 391.369L245.131 388.141L246.369 386.929L248.318 388.916L252.079 385.208L253.295 386.442L248.298 391.369Z" fill="#98F500"/>
<circle cx="182.147" cy="261.856" r="26.2529" fill="#9FEB00"/>
<circle cx="149.332" cy="289.422" r="26.2529" fill="#9FEB00"/>
<circle cx="182.148" cy="289.422" r="26.2529" fill="#9FEB00"/>
<circle cx="214.964" cy="289.421" r="26.2529" fill="#9FEB00"/>
<circle cx="161.802" cy="328.145" r="26.2529" fill="#9FEB00"/>
<circle cx="202.494" cy="328.144" r="26.2529" fill="#9FEB00"/>
</g>
</g>
</g>
<path d="M330.959 276.212C330.654 278.715 330.394 280.913 330.179 282.808C329.964 284.692 329.784 286.281 329.638 287.575C329.47 289.086 329.334 290.387 329.228 291.475C329.079 292.8 328.808 293.915 328.417 294.819C328.038 295.713 327.596 296.435 327.093 296.982C326.601 297.521 326.077 297.904 325.521 298.133C324.967 298.351 324.455 298.448 323.986 298.424C323.934 298.419 323.8 298.4 323.583 298.369C323.366 298.348 323.098 298.301 322.781 298.228C322.473 298.167 322.141 298.077 321.786 297.959C321.432 297.841 321.101 297.689 320.795 297.502L321.508 294.84C321.733 294.997 321.963 295.114 322.196 295.189C322.44 295.265 322.676 295.314 322.904 295.336C323.506 295.394 324.007 295.354 324.407 295.215C324.819 295.066 325.162 294.77 325.435 294.326C325.71 293.871 325.928 293.243 326.089 292.442C326.25 291.642 326.392 290.609 326.515 289.344C326.535 289.137 326.553 288.955 326.568 288.8C326.584 288.634 326.603 288.432 326.627 288.193C326.65 287.955 326.675 287.638 326.703 287.243C326.732 286.838 326.77 286.287 326.816 285.59C326.863 284.893 326.922 284.015 326.993 282.954C327.065 281.894 327.15 280.578 327.25 279.007L324.793 278.769L325.09 275.705L330.959 276.212ZM342.326 288.993C342.124 291.077 341.807 292.831 341.376 294.254C340.955 295.679 340.457 296.823 339.881 297.689C339.307 298.543 338.667 299.146 337.964 299.496C337.261 299.836 336.531 299.97 335.774 299.896C335.017 299.823 334.326 299.562 333.699 299.114C333.074 298.656 332.556 297.957 332.144 297.017C331.733 296.077 331.453 294.862 331.305 293.372C331.167 291.883 331.201 290.071 331.408 287.935C331.616 285.788 331.933 283.982 332.357 282.517C332.793 281.041 333.306 279.861 333.894 278.977C334.483 278.081 335.129 277.458 335.833 277.108C336.538 276.747 337.269 276.604 338.026 276.677C338.782 276.75 339.473 277.027 340.096 277.506C340.72 277.974 341.231 278.699 341.628 279.679C342.024 280.66 342.29 281.915 342.424 283.446C342.57 284.967 342.537 286.816 342.326 288.993ZM338.858 288.657C339.015 287.029 339.097 285.65 339.102 284.521C339.107 283.391 339.049 282.47 338.93 281.757C338.822 281.035 338.664 280.507 338.456 280.172C338.248 279.838 338.009 279.658 337.739 279.632C337.459 279.605 337.179 279.74 336.899 280.037C336.631 280.325 336.369 280.812 336.114 281.499C335.87 282.177 335.642 283.076 335.428 284.196C335.216 285.306 335.032 286.664 334.876 288.271C334.721 289.868 334.643 291.215 334.641 292.314C334.64 293.402 334.696 294.287 334.808 294.967C334.931 295.639 335.098 296.126 335.31 296.429C335.531 296.733 335.782 296.899 336.062 296.926C336.332 296.952 336.6 296.831 336.866 296.564C337.134 296.287 337.388 295.825 337.629 295.178C337.881 294.522 338.111 293.66 338.319 292.592C338.527 291.524 338.707 290.212 338.858 288.657ZM349.237 278.109C348.934 280.152 348.648 282.181 348.38 284.196C348.112 286.2 347.864 288.217 347.636 290.246C347.893 290.292 348.151 290.327 348.41 290.353C348.68 290.379 348.944 290.404 349.204 290.429C349.535 290.462 349.873 290.489 350.216 290.512C350.57 290.536 350.924 290.554 351.278 290.568C351.343 290.114 351.397 289.669 351.439 289.233C351.482 288.787 351.526 288.331 351.572 287.865C351.724 286.289 351.861 284.717 351.982 283.148C352.103 281.579 352.204 279.998 352.285 278.405L356.111 278.776C355.682 281.257 355.296 283.726 354.953 286.183C354.621 288.631 354.334 291.105 354.092 293.604C353.973 294.827 353.871 296.047 353.784 297.263C353.698 298.479 353.621 299.706 353.553 300.945L350.007 300.601C350.178 299.373 350.344 298.148 350.504 296.929C350.664 295.71 350.824 294.49 350.985 293.271C350.397 293.182 349.808 293.099 349.219 293.021C348.642 292.934 348.062 292.862 347.482 292.806L347.357 292.794L347.047 295.997C346.976 296.723 346.907 297.438 346.839 298.143C346.77 298.848 346.712 299.56 346.663 300.277L343.102 299.932C343.298 298.444 343.472 296.975 343.623 295.524C343.786 294.064 343.939 292.598 344.081 291.126C344.514 286.668 344.853 282.195 345.1 277.708L349.237 278.109ZM369.23 279.954C368.893 282.025 368.589 284.083 368.317 286.129C368.047 288.165 367.811 290.214 367.611 292.277C367.455 293.884 367.322 295.472 367.212 297.042C367.112 298.613 367.042 300.197 367.002 301.794L363.87 301.396C363.586 300.008 363.306 298.631 363.03 297.265C362.766 295.889 362.501 294.524 362.234 293.169C361.968 291.814 361.691 290.463 361.403 289.116C361.125 287.771 360.832 286.429 360.522 285.091C360.29 287.8 360.075 290.505 359.876 293.207C359.688 295.899 359.553 298.591 359.47 301.283L355.88 300.904C356.325 297.609 356.71 294.292 357.033 290.953C357.232 288.9 357.409 286.866 357.562 284.851C357.716 282.835 357.85 280.807 357.964 278.767L362.309 279.283C362.617 281.615 362.957 283.987 363.33 286.399C363.704 288.811 364.116 291.195 364.568 293.552C364.722 291.202 364.841 288.848 364.923 286.491C365.016 284.124 365.09 281.803 365.143 279.526L369.23 279.954ZM325.162 304.911C324.86 306.954 324.574 308.983 324.305 310.997C324.038 313.002 323.79 315.019 323.562 317.048C323.819 317.094 324.077 317.129 324.336 317.154C324.606 317.18 324.87 317.206 325.13 317.231C325.461 317.263 325.799 317.291 326.142 317.314C326.495 317.337 326.849 317.356 327.204 317.369C327.269 316.915 327.323 316.47 327.365 316.035C327.408 315.589 327.452 315.133 327.498 314.666C327.65 313.09 327.787 311.518 327.908 309.95C328.028 308.381 328.129 306.8 328.211 305.207L332.037 305.578C331.608 308.058 331.222 310.527 330.879 312.985C330.547 315.433 330.26 317.907 330.018 320.405C329.899 321.629 329.797 322.848 329.71 324.064C329.624 325.281 329.547 326.508 329.479 327.747L325.933 327.403C326.104 326.174 326.27 324.95 326.43 323.731C326.59 322.511 326.75 321.292 326.911 320.073C326.323 319.984 325.734 319.901 325.145 319.823C324.568 319.735 323.988 319.664 323.408 319.607L323.283 319.595L322.973 322.799C322.902 323.525 322.833 324.24 322.765 324.945C322.696 325.65 322.638 326.361 322.589 327.079L319.028 326.733C319.224 325.245 319.398 323.776 319.549 322.326C319.712 320.866 319.864 319.4 320.007 317.927C320.439 313.469 320.779 308.997 321.026 304.51L325.162 304.911ZM342.77 306.43C342.803 308.568 342.762 310.725 342.645 312.901C342.529 315.067 342.357 317.326 342.129 319.68C342.051 320.478 341.938 321.268 341.789 322.049C341.652 322.821 341.465 323.556 341.23 324.255C341.006 324.945 340.73 325.583 340.401 326.169C340.083 326.745 339.706 327.237 339.269 327.644C338.832 328.042 338.332 328.344 337.768 328.551C337.205 328.747 336.576 328.812 335.881 328.744C335.259 328.684 334.726 328.517 334.281 328.244C333.838 327.96 333.47 327.6 333.177 327.164C332.886 326.717 332.653 326.207 332.478 325.636C332.314 325.055 332.202 324.437 332.139 323.782C332.078 323.117 332.056 322.429 332.073 321.719C332.089 321.009 332.132 320.296 332.201 319.581C332.411 317.424 332.71 315.25 333.101 313.059C333.492 310.857 333.922 308.581 334.391 306.23L337.635 306.607C337.232 308.818 336.838 311.051 336.452 313.306C336.076 315.561 335.772 317.891 335.539 320.297C335.471 320.992 335.428 321.652 335.409 322.278C335.39 322.904 335.41 323.461 335.467 323.948C335.526 324.424 335.619 324.81 335.747 325.105C335.886 325.401 336.075 325.561 336.313 325.584C336.593 325.611 336.868 325.418 337.139 325.005C337.42 324.582 337.674 324.02 337.898 323.32C338.135 322.61 338.344 321.799 338.527 320.885C338.71 319.971 338.847 319.037 338.94 318.084C339.028 317.171 339.107 316.253 339.176 315.328C339.255 314.404 339.325 313.469 339.385 312.522C339.446 311.566 339.499 310.592 339.543 309.602C339.587 308.602 339.62 307.564 339.64 306.488L342.77 306.43ZM354.069 319.582C353.913 321.189 353.659 322.567 353.307 323.715C352.966 324.854 352.565 325.815 352.102 326.597C351.639 327.379 351.139 328 350.602 328.461C350.076 328.922 349.55 329.269 349.026 329.501C348.501 329.733 348.001 329.872 347.525 329.921C347.048 329.979 346.634 329.991 346.281 329.957L343.119 329.383C343.459 327.281 343.768 325.166 344.048 323.037C344.329 320.898 344.575 318.74 344.786 316.563C344.946 314.914 345.083 313.279 345.199 311.658C345.314 310.036 345.409 308.413 345.483 306.787C345.733 306.791 345.979 306.799 346.218 306.811C346.457 306.824 346.691 306.842 346.919 306.864C348.64 307.031 350.011 307.462 351.032 308.157C352.054 308.843 352.815 309.743 353.314 310.859C353.824 311.965 354.117 313.26 354.193 314.743C354.28 316.217 354.239 317.83 354.069 319.582ZM350.937 318.854C350.986 318.346 351.028 317.806 351.063 317.234C351.098 316.651 351.108 316.071 351.09 315.494C351.083 314.918 351.039 314.354 350.956 313.801C350.874 313.249 350.745 312.74 350.571 312.273C350.397 311.795 350.165 311.38 349.875 311.028C349.595 310.676 349.239 310.412 348.806 310.234C348.633 311.368 348.468 312.477 348.311 313.561C348.165 314.635 348.025 315.699 347.891 316.754C347.758 317.808 347.63 318.858 347.507 319.903C347.396 320.939 347.29 321.981 347.189 323.028C347.122 323.712 347.055 324.407 346.987 325.112C346.919 325.806 346.861 326.518 346.811 327.245C347.293 327.24 347.725 327.099 348.108 326.822C348.491 326.545 348.824 326.185 349.108 325.741C349.403 325.288 349.652 324.774 349.854 324.197C350.068 323.61 350.246 323.01 350.39 322.396C350.534 321.772 350.646 321.155 350.726 320.545C350.817 319.936 350.887 319.373 350.937 318.854ZM363.142 325.579C363.063 326.398 362.905 327.11 362.668 327.715C362.443 328.311 362.169 328.818 361.845 329.237C361.534 329.646 361.193 329.979 360.822 330.237C360.453 330.483 360.079 330.672 359.7 330.803C359.331 330.934 358.978 331.015 358.64 331.045C358.312 331.087 358.028 331.096 357.79 331.073C357.665 331.061 357.495 331.034 357.28 330.992C357.063 330.96 356.817 330.905 356.542 330.826C356.267 330.747 355.964 330.639 355.632 330.503C355.309 330.377 354.97 330.208 354.613 329.996L355.164 326.093C355.726 326.671 356.237 327.071 356.696 327.293C357.167 327.517 357.568 327.645 357.899 327.677C358.542 327.739 359.047 327.553 359.414 327.117C359.791 326.683 360.015 326.092 360.088 325.346C360.136 324.848 360.065 324.282 359.876 323.646C359.698 323.001 359.332 322.29 358.78 321.514C358.403 320.975 358.012 320.414 357.608 319.831C357.204 319.248 356.846 318.632 356.532 317.984C356.218 317.336 355.976 316.648 355.806 315.92C355.635 315.192 355.59 314.418 355.67 313.599C355.77 312.562 355.997 311.679 356.35 310.949C356.714 310.221 357.158 309.631 357.684 309.179C358.209 308.728 358.789 308.412 359.424 308.233C360.07 308.045 360.73 307.983 361.404 308.049C361.995 308.106 362.588 308.247 363.184 308.472C363.791 308.688 364.389 308.992 364.979 309.384L364.304 313.275C364.067 312.906 363.808 312.609 363.527 312.383C363.257 312.147 362.986 311.964 362.717 311.834C362.457 311.704 362.21 311.612 361.974 311.557C361.749 311.504 361.559 311.47 361.403 311.455C361.103 311.426 360.815 311.476 360.541 311.607C360.278 311.728 360.041 311.909 359.829 312.15C359.628 312.382 359.459 312.669 359.321 313.011C359.185 313.343 359.098 313.701 359.06 314.085C359.003 314.676 359.076 315.222 359.278 315.723C359.491 316.225 359.767 316.728 360.105 317.232C360.444 317.735 360.806 318.257 361.194 318.797C361.592 319.328 361.953 319.923 362.276 320.582C362.601 321.231 362.849 321.966 363.02 322.789C363.203 323.602 363.243 324.532 363.142 325.579ZM375.888 321.384C375.686 323.468 375.369 325.221 374.938 326.645C374.517 328.069 374.019 329.214 373.443 330.079C372.868 330.934 372.229 331.536 371.525 331.887C370.823 332.227 370.093 332.36 369.336 332.287C368.579 332.213 367.888 331.953 367.261 331.505C366.636 331.046 366.118 330.347 365.706 329.407C365.295 328.467 365.015 327.252 364.867 325.762C364.729 324.273 364.763 322.461 364.97 320.325C365.178 318.179 365.495 316.373 365.919 314.907C366.355 313.432 366.867 312.252 367.456 311.367C368.045 310.472 368.691 309.849 369.395 309.498C370.1 309.138 370.831 308.994 371.587 309.067C372.344 309.141 373.034 309.417 373.658 309.896C374.282 310.365 374.793 311.089 375.19 312.07C375.586 313.05 375.852 314.305 375.986 315.836C376.132 317.357 376.099 319.206 375.888 321.384ZM372.42 321.047C372.577 319.42 372.659 318.041 372.664 316.911C372.669 315.781 372.611 314.86 372.492 314.147C372.384 313.425 372.226 312.897 372.018 312.563C371.809 312.229 371.571 312.048 371.301 312.022C371.021 311.995 370.741 312.13 370.461 312.427C370.192 312.715 369.931 313.203 369.676 313.89C369.432 314.567 369.204 315.466 368.99 316.586C368.778 317.696 368.594 319.054 368.438 320.661C368.283 322.258 368.205 323.606 368.203 324.704C368.202 325.793 368.258 326.677 368.37 327.358C368.493 328.029 368.66 328.516 368.872 328.819C369.093 329.123 369.344 329.289 369.624 329.316C369.894 329.342 370.162 329.222 370.428 328.955C370.696 328.677 370.95 328.215 371.191 327.569C371.443 326.913 371.673 326.051 371.881 324.982C372.089 323.914 372.269 322.603 372.42 321.047ZM389.946 311.099C389.609 313.17 389.305 315.228 389.033 317.274C388.763 319.309 388.527 321.359 388.327 323.422C388.171 325.029 388.038 326.617 387.928 328.187C387.828 329.757 387.758 331.341 387.718 332.939L384.586 332.541C384.302 331.153 384.022 329.776 383.746 328.409C383.482 327.034 383.217 325.668 382.95 324.313C382.684 322.958 382.407 321.608 382.119 320.261C381.841 318.915 381.547 317.574 381.238 316.235C381.006 318.944 380.791 321.65 380.592 324.351C380.404 327.044 380.269 329.736 380.186 332.428L376.596 332.049C377.041 328.753 377.426 325.436 377.749 322.098C377.948 320.045 378.125 318.011 378.278 315.995C378.432 313.98 378.566 311.952 378.68 309.912L383.025 310.428C383.333 312.76 383.673 315.132 384.046 317.544C384.419 319.956 384.832 322.34 385.284 324.697C385.438 322.346 385.557 319.993 385.639 317.635C385.732 315.269 385.805 312.947 385.859 310.671L389.946 311.099Z" fill="#76B808"/>
</g>
<defs>
<filter id="filter0_dddd_1654_3913" x="79.9533" y="53.2041" width="426.454" height="404.442" filterUnits="userSpaceOnUse" color-interpolation-filters="sRGB">
<feFlood flood-opacity="0" result="BackgroundImageFix"/>
<feColorMatrix in="SourceAlpha" type="matrix" values="0 0 0 0 0 0 0 0 0 0 0 0 0 0 0 0 0 0 127 0" result="hardAlpha"/>
<feOffset dx="2.28783" dy="2.28783"/>
<feGaussianBlur stdDeviation="3.43174"/>
<feColorMatrix type="matrix" values="0 0 0 0 0 0 0 0 0 0 0 0 0 0 0 0 0 0 0.1 0"/>
<feBlend mode="normal" in2="BackgroundImageFix" result="effect1_dropShadow_1654_3913"/>
<feColorMatrix in="SourceAlpha" type="matrix" values="0 0 0 0 0 0 0 0 0 0 0 0 0 0 0 0 0 0 127 0" result="hardAlpha"/>
<feOffset dx="9.15131" dy="6.86348"/>
<feGaussianBlur stdDeviation="5.71957"/>
<feColorMatrix type="matrix" values="0 0 0 0 0 0 0 0 0 0 0 0 0 0 0 0 0 0 0.09 0"/>
<feBlend mode="normal" in2="effect1_dropShadow_1654_3913" result="effect2_dropShadow_1654_3913"/>
<feColorMatrix in="SourceAlpha" type="matrix" values="0 0 0 0 0 0 0 0 0 0 0 0 0 0 0 0 0 0 127 0" result="hardAlpha"/>
<feOffset dx="20.5905" dy="16.0148"/>
<feGaussianBlur stdDeviation="8.0074"/>
<feColorMatrix type="matrix" values="0 0 0 0 0 0 0 0 0 0 0 0 0 0 0 0 0 0 0.05 0"/>
<feBlend mode="normal" in2="effect2_dropShadow_1654_3913" result="effect3_dropShadow_1654_3913"/>
<feColorMatrix in="SourceAlpha" type="matrix" values="0 0 0 0 0 0 0 0 0 0 0 0 0 0 0 0 0 0 127 0" result="hardAlpha"/>
<feOffset dx="36.6053" dy="28.5979"/>
<feGaussianBlur stdDeviation="9.15131"/>
<feColorMatrix type="matrix" values="0 0 0 0 0 0 0 0 0 0 0 0 0 0 0 0 0 0 0.01 0"/>
<feBlend mode="normal" in2="effect3_dropShadow_1654_3913" result="effect4_dropShadow_1654_3913"/>
<feBlend mode="normal" in="SourceGraphic" in2="effect4_dropShadow_1654_3913" result="shape"/>
</filter>
<filter id="filter1_ddd_1654_3913" x="83.529" y="204.063" width="196.17" height="207.683" filterUnits="userSpaceOnUse" color-interpolation-filters="sRGB">
<feFlood flood-opacity="0" result="BackgroundImageFix"/>
<feColorMatrix in="SourceAlpha" type="matrix" values="0 0 0 0 0 0 0 0 0 0 0 0 0 0 0 0 0 0 127 0" result="hardAlpha"/>
<feOffset/>
<feGaussianBlur stdDeviation="0.5"/>
<feColorMatrix type="matrix" values="0 0 0 0 0 0 0 0 0 0 0 0 0 0 0 0 0 0 0.09 0"/>
<feBlend mode="normal" in2="BackgroundImageFix" result="effect1_dropShadow_1654_3913"/>
<feColorMatrix in="SourceAlpha" type="matrix" values="0 0 0 0 0 0 0 0 0 0 0 0 0 0 0 0 0 0 127 0" result="hardAlpha"/>
<feOffset/>
<feGaussianBlur stdDeviation="0.5"/>
<feColorMatrix type="matrix" values="0 0 0 0 0 0 0 0 0 0 0 0 0 0 0 0 0 0 0.05 0"/>
<feBlend mode="normal" in2="effect1_dropShadow_1654_3913" result="effect2_dropShadow_1654_3913"/>
<feColorMatrix in="SourceAlpha" type="matrix" values="0 0 0 0 0 0 0 0 0 0 0 0 0 0 0 0 0 0 127 0" result="hardAlpha"/>
<feOffset/>
<feGaussianBlur stdDeviation="0.5"/>
<feColorMatrix type="matrix" values="0 0 0 0 0 0 0 0 0 0 0 0 0 0 0 0 0 0 0.01 0"/>
<feBlend mode="normal" in2="effect2_dropShadow_1654_3913" result="effect3_dropShadow_1654_3913"/>
<feBlend mode="normal" in="SourceGraphic" in2="effect3_dropShadow_1654_3913" result="shape"/>
</filter>
<clipPath id="clip0_1654_3913">
<rect x="0.0240479" y="41.3096" width="405.101" height="413" rx="100" transform="rotate(-5.77 0.0240479 41.3096)" fill="white"/>
</clipPath>
<clipPath id="clip1_1654_3913">
<rect x="85.6986" y="57.7798" width="365.803" height="137.657" rx="19.2528" transform="rotate(0.190203 85.6986 57.7798)" fill="white"/>
</clipPath>
<clipPath id="clip2_1654_3913">
<rect x="85.2097" y="205.063" width="193.49" height="205.042" rx="19.2528" transform="rotate(0.190203 85.2097 205.063)" fill="white"/>
</clipPath>
</defs>
</svg>
