<svg width="445" height="473" viewBox="0 0 445 473" fill="none" xmlns="http://www.w3.org/2000/svg">
<rect x="436.555" y="460.488" width="115" height="160.884" rx="57.5" transform="rotate(174.235 436.555 460.488)" fill="#EDF200"/>
<g clip-path="url(#clip0_1654_3953)">
<rect y="40.7271" width="405.101" height="413" rx="100" transform="rotate(-5.77 0 40.7271)" fill="#98F500"/>
<rect opacity="0.5" x="15" y="52.0405" width="380" height="380" rx="95.3137" transform="rotate(-5.29088 15 52.0405)" stroke="#7FCA06" stroke-width="6" stroke-linejoin="round" stroke-dasharray="12 12"/>
<g filter="url(#filter0_dddd_1654_3953)">
<g clip-path="url(#clip1_1654_3953)">
<rect x="86.6892" y="54.3427" width="365.803" height="137.657" rx="19.2528" transform="rotate(0.19 86.6892 54.3427)" fill="white"/>
<path d="M105.56 123.201L105.587 114.884L106.679 114.888L109.673 121.153L112.691 114.908L113.795 114.911L113.767 123.223L112.624 123.219L112.642 117.53L109.938 123.216L109.389 123.214L106.716 117.51L106.698 123.205L105.56 123.201ZM117.39 123.241L117.401 119.804L114.604 114.914L116.014 114.919L118.018 118.42L120.045 114.932L121.454 114.937L118.625 119.808L118.614 123.245L117.39 123.241ZM122.233 123.257L122.26 114.939L125.622 114.951C125.703 114.951 125.803 114.955 125.922 114.963C126.042 114.967 126.155 114.979 126.263 114.999C126.725 115.074 127.109 115.233 127.416 115.476C127.728 115.72 127.959 116.027 128.112 116.397C128.265 116.767 128.341 117.176 128.339 117.622C128.338 118.073 128.259 118.483 128.104 118.852C127.949 119.221 127.715 119.526 127.402 119.768C127.093 120.009 126.708 120.166 126.245 120.238C126.138 120.253 126.022 120.264 125.899 120.271C125.779 120.278 125.681 120.282 125.604 120.282L123.45 120.275L123.44 123.261L122.233 123.257ZM123.454 119.131L125.562 119.138C125.639 119.138 125.724 119.135 125.816 119.127C125.912 119.12 126.003 119.107 126.088 119.088C126.334 119.031 126.533 118.926 126.684 118.772C126.834 118.615 126.943 118.434 127.009 118.23C127.075 118.026 127.108 117.822 127.109 117.618C127.11 117.414 127.078 117.212 127.013 117.011C126.948 116.807 126.841 116.628 126.691 116.473C126.541 116.315 126.344 116.206 126.097 116.148C126.013 116.124 125.922 116.109 125.826 116.101C125.734 116.093 125.649 116.089 125.572 116.088L123.464 116.081L123.454 119.131ZM132.79 123.465C132.139 123.463 131.564 123.328 131.064 123.061C130.568 122.789 130.181 122.413 129.901 121.931C129.622 121.444 129.483 120.874 129.485 120.219L129.503 114.969L130.727 114.968L130.71 120.16C130.709 120.514 130.767 120.826 130.886 121.096C131.004 121.366 131.163 121.592 131.363 121.774C131.563 121.955 131.786 122.093 132.032 122.186C132.282 122.279 132.536 122.326 132.794 122.327C133.055 122.328 133.31 122.283 133.556 122.191C133.807 122.096 134.033 121.958 134.234 121.777C134.434 121.597 134.593 121.372 134.709 121.103C134.83 120.834 134.89 120.524 134.892 120.174L134.909 114.981L136.133 114.985L136.116 120.241C136.114 120.892 135.971 121.46 135.689 121.944C135.406 122.428 135.014 122.804 134.512 123.072C134.015 123.336 133.441 123.467 132.79 123.465ZM137.721 123.308L137.749 114.991L141.11 115.002C141.191 115.002 141.291 115.006 141.411 115.015C141.53 115.019 141.644 115.031 141.751 115.05C142.213 115.125 142.598 115.284 142.905 115.528C143.216 115.771 143.448 116.078 143.601 116.448C143.754 116.819 143.829 117.227 143.828 117.674C143.826 118.336 143.654 118.907 143.314 119.387C142.973 119.864 142.464 120.16 141.786 120.278L141.295 120.334L138.938 120.326L138.929 123.312L137.721 123.308ZM142.585 123.324L140.956 119.934L142.175 119.626L143.965 123.329L142.585 123.324ZM138.942 119.182L141.05 119.189C141.127 119.19 141.212 119.186 141.305 119.179C141.401 119.171 141.491 119.158 141.576 119.139C141.823 119.082 142.021 118.977 142.172 118.823C142.323 118.666 142.431 118.485 142.497 118.282C142.564 118.078 142.597 117.874 142.598 117.67C142.598 117.466 142.566 117.263 142.501 117.063C142.437 116.859 142.329 116.679 142.18 116.525C142.03 116.366 141.832 116.258 141.586 116.199C141.501 116.176 141.411 116.16 141.315 116.152C141.222 116.144 141.138 116.14 141.061 116.14L138.952 116.133L138.942 119.182ZM148.249 123.516C147.652 123.514 147.113 123.41 146.633 123.205C146.156 122.995 145.762 122.699 145.452 122.317C145.145 121.931 144.946 121.474 144.855 120.946L146.115 120.76C146.241 121.268 146.505 121.666 146.908 121.952C147.312 122.235 147.783 122.377 148.322 122.379C148.657 122.38 148.965 122.329 149.247 122.226C149.528 122.119 149.754 121.967 149.924 121.772C150.098 121.572 150.185 121.334 150.186 121.056C150.187 120.906 150.16 120.773 150.107 120.658C150.057 120.542 149.986 120.441 149.894 120.356C149.806 120.268 149.696 120.192 149.565 120.13C149.439 120.064 149.298 120.008 149.144 119.961L147.015 119.325C146.807 119.262 146.596 119.183 146.381 119.086C146.165 118.985 145.967 118.855 145.787 118.697C145.61 118.534 145.467 118.336 145.356 118.1C145.245 117.861 145.19 117.572 145.191 117.233C145.193 116.721 145.325 116.289 145.588 115.935C145.855 115.578 146.214 115.31 146.665 115.13C147.116 114.947 147.621 114.856 148.179 114.858C148.742 114.868 149.244 114.969 149.686 115.163C150.132 115.357 150.501 115.636 150.792 115.999C151.087 116.358 151.29 116.794 151.4 117.306L150.105 117.521C150.049 117.209 149.926 116.941 149.738 116.717C149.551 116.489 149.32 116.315 149.047 116.195C148.774 116.071 148.478 116.006 148.158 116.001C147.85 115.993 147.567 116.038 147.309 116.137C147.054 116.237 146.85 116.376 146.695 116.557C146.544 116.737 146.469 116.945 146.468 117.18C146.467 117.411 146.534 117.598 146.668 117.741C146.802 117.884 146.968 117.998 147.164 118.083C147.364 118.165 147.562 118.233 147.758 118.287L149.293 118.726C149.485 118.78 149.702 118.854 149.945 118.947C150.191 119.037 150.427 119.163 150.654 119.325C150.884 119.488 151.074 119.704 151.224 119.974C151.373 120.24 151.447 120.575 151.446 120.98C151.444 121.399 151.358 121.769 151.188 122.088C151.017 122.403 150.783 122.668 150.486 122.882C150.193 123.093 149.853 123.252 149.468 123.359C149.083 123.465 148.676 123.518 148.249 123.516ZM152.669 123.358L152.696 115.04L158.01 115.058L158.006 116.196L153.899 116.182L153.892 118.516L157.305 118.527L157.301 119.665L153.888 119.654L153.879 122.224L157.986 122.237L157.982 123.375L152.669 123.358ZM159.369 123.38L159.397 115.063L162.758 115.074C162.839 115.074 162.939 115.078 163.059 115.086C163.178 115.091 163.292 115.103 163.399 115.122C163.861 115.197 164.246 115.356 164.553 115.6C164.864 115.843 165.096 116.15 165.249 116.52C165.402 116.89 165.477 117.299 165.476 117.745C165.474 118.196 165.396 118.606 165.241 118.975C165.085 119.344 164.851 119.649 164.539 119.891C164.23 120.133 163.844 120.289 163.382 120.361C163.274 120.376 163.159 120.387 163.035 120.394C162.916 120.402 162.818 120.405 162.741 120.405L160.586 120.398L160.577 123.384L159.369 123.38ZM160.59 119.254L162.698 119.261C162.775 119.261 162.86 119.258 162.953 119.25C163.049 119.243 163.139 119.23 163.224 119.211C163.471 119.154 163.669 119.049 163.82 118.895C163.971 118.738 164.079 118.557 164.145 118.353C164.211 118.149 164.245 117.945 164.246 117.741C164.246 117.537 164.214 117.335 164.149 117.135C164.085 116.93 163.977 116.751 163.828 116.596C163.678 116.438 163.48 116.33 163.234 116.271C163.149 116.248 163.059 116.232 162.963 116.224C162.87 116.216 162.785 116.212 162.708 116.211L160.6 116.204L160.59 119.254ZM165.459 123.4L168.189 115.092L169.928 115.098L172.603 123.424L171.35 123.42L168.886 115.822L169.198 115.823L166.712 123.404L165.459 123.4ZM166.869 121.527L166.872 120.395L171.216 120.41L171.212 121.542L166.869 121.527ZM174.956 123.431L174.967 119.995L172.17 115.105L173.58 115.11L175.584 118.611L177.611 115.123L179.021 115.128L176.192 119.999L176.18 123.436L174.956 123.431ZM181.765 123.454L181.792 115.137L182.999 115.141L182.972 123.458L181.765 123.454ZM184.706 123.464L184.734 115.147L185.958 115.151L190.033 121.344L190.053 115.164L191.278 115.168L191.25 123.486L190.026 123.481L185.951 117.282L185.931 123.468L184.706 123.464ZM192.862 123.491L192.89 115.174L197.817 115.19L197.813 116.397L194.093 116.385L194.085 118.73L197.112 118.74L197.108 119.953L194.081 119.943L194.069 123.495L192.862 123.491ZM198.83 123.511L198.857 115.193L202.219 115.205C202.3 115.205 202.4 115.209 202.519 115.217C202.639 115.221 202.752 115.233 202.86 115.253C203.322 115.328 203.706 115.487 204.013 115.73C204.325 115.974 204.556 116.281 204.709 116.651C204.862 117.021 204.938 117.43 204.936 117.876C204.934 118.539 204.763 119.11 204.422 119.59C204.082 120.066 203.573 120.363 202.894 120.48L202.403 120.536L200.047 120.529L200.037 123.515L198.83 123.511ZM203.693 123.527L202.064 120.137L203.284 119.829L205.073 123.531L203.693 123.527ZM200.051 119.385L202.159 119.392C202.236 119.392 202.321 119.389 202.413 119.381C202.509 119.374 202.6 119.361 202.685 119.342C202.931 119.285 203.13 119.18 203.281 119.026C203.431 118.869 203.54 118.688 203.606 118.484C203.672 118.28 203.705 118.076 203.706 117.872C203.707 117.668 203.675 117.466 203.61 117.265C203.545 117.061 203.438 116.882 203.288 116.727C203.139 116.569 202.941 116.46 202.694 116.402C202.61 116.378 202.519 116.363 202.423 116.355C202.331 116.347 202.246 116.343 202.169 116.342L200.061 116.335L200.051 119.385ZM205.765 123.534L208.496 115.225L210.234 115.231L212.91 123.557L211.657 123.553L209.192 115.956L209.504 115.957L207.019 123.538L205.765 123.534ZM207.175 121.661L207.179 120.529L211.522 120.544L211.518 121.676L207.175 121.661Z" fill="black"/>
<path d="M383.556 -21.4787C384.986 -27.0503 392.344 -28.2875 395.518 -23.49L408.362 -4.07544C410.313 -1.1271 414.232 -0.225442 417.275 -2.02507L437.312 -13.8755C442.263 -16.8038 448.341 -12.4758 447.192 -6.83922L442.546 15.9711C441.841 19.4352 443.975 22.8442 447.399 23.7232L469.946 29.5117C475.518 30.942 476.755 38.3 471.958 41.4738L452.543 54.3179C449.595 56.2685 448.693 60.1879 450.493 63.2307L462.343 83.2673C465.271 88.2184 460.943 94.2961 455.307 93.148L432.497 88.502C429.033 87.7964 425.624 89.9303 424.744 93.3544L418.956 115.902C417.526 121.473 410.168 122.711 406.994 117.913L394.15 98.4987C392.199 95.5503 388.28 94.6487 385.237 96.4483L365.2 108.299C360.249 111.227 354.172 106.899 355.32 101.262L359.966 78.4521C360.671 74.9881 358.537 71.5791 355.113 70.7L332.566 64.9115C326.994 63.4812 325.757 56.1232 330.554 52.9494L349.969 40.1053C352.917 38.1548 353.819 34.2354 352.019 31.1926L340.169 11.156C337.241 6.20481 341.569 0.127161 347.205 1.27522L370.016 5.92127C373.48 6.62682 376.889 4.49295 377.768 1.06884L383.556 -21.4787Z" fill="#FF4F04"/>
<path d="M124.567 153.398L118.211 153.377L118.226 148.716C118.234 146.385 117.126 145.057 115.272 145.051C113.366 145.045 112.249 146.365 112.241 148.696L112.234 150.921C112.225 153.516 113.016 154.525 117.195 156.393L119.099 157.194C123.225 158.955 124.646 161.556 124.627 167.17L124.624 168.071C124.604 174.162 121.097 177.699 115.058 177.679C109.073 177.659 105.694 174.205 105.715 168.008L105.729 163.823L112.085 163.844L112.069 168.506C112.062 170.836 113.223 172.164 115.182 172.171C117.142 172.177 118.259 170.857 118.267 168.579L118.275 166.143C118.283 163.547 117.492 162.538 113.525 160.777L111.356 159.869C107.337 158.108 105.863 155.402 105.881 149.787L105.883 149.099C105.904 142.954 109.305 139.523 115.185 139.542C121.117 139.562 124.601 143.122 124.581 149.161L124.567 153.398ZM126.375 155.364L126.392 150.173L128.934 150.181L128.954 144.408L134.993 144.004L134.973 150.202L139.899 150.218L139.882 155.409L134.956 155.392L134.91 169.164C134.902 171.601 136.329 172.4 137.865 172.405C138.501 172.407 139.137 172.303 139.826 172.094L139.968 177.285C138.484 177.598 137.106 177.752 135.888 177.748C131.756 177.735 128.85 175.712 128.871 169.462L128.917 155.372L126.375 155.364ZM152.097 158.257C152.104 156.244 151.102 154.916 149.618 154.911C148.082 154.906 147.072 156.227 147.065 158.24L147.055 161.312L141.016 161.292L141.025 158.591C141.043 153.135 144.339 149.703 149.583 149.72C154.826 149.738 158.152 153.245 158.134 158.647L158.072 177.292L152.034 177.272L152.043 174.359L151.885 174.358C150.447 176.684 148.536 177.79 146.311 177.783C143.027 177.772 140.811 175.275 140.823 171.673L140.833 168.707C140.845 164.946 143.608 162.572 148.057 162.587L152.082 162.6L152.097 158.257ZM152.055 170.81L152.072 165.672L150.43 165.667C147.994 165.659 146.878 166.555 146.872 168.356L146.866 170.369C146.86 172.064 147.704 173.073 149.187 173.078C150.512 173.083 151.574 172.239 152.055 170.81ZM160.153 177.299L160.279 139.162L166.318 139.182L166.27 153.536L166.694 153.538C167.814 151.105 169.725 149.787 172.003 149.795C175.287 149.806 177.503 152.461 177.488 157.017L177.444 170.153C177.429 174.761 175.141 177.878 171.804 177.867C169.579 177.86 167.677 176.529 166.626 174.089L166.202 174.088L166.191 177.319L160.153 177.299ZM166.257 157.403L166.215 170.221C166.634 171.6 167.796 172.557 169.014 172.561C170.391 172.566 171.402 171.245 171.408 169.444L171.446 158.162C171.452 156.361 170.449 155.086 169.072 155.082C167.854 155.078 166.686 156.027 166.257 157.403ZM179.604 177.364L179.731 139.227L185.769 139.247L185.643 177.384L179.604 177.364ZM193.902 165.387L193.889 169.413C193.882 171.425 194.937 172.753 196.473 172.758C198.062 172.764 199.126 171.443 199.133 169.43L199.14 167.258L205.125 167.278L205.119 169.079C205.101 174.482 201.7 177.966 196.403 177.949C191.159 177.932 187.834 174.478 187.852 169.022L187.886 158.746C187.904 153.29 191.199 149.858 196.496 149.876C201.793 149.893 205.171 153.401 205.153 158.803L205.132 165.424L193.902 165.387ZM193.925 158.395L193.913 162.05L199.157 162.067L199.169 158.413C199.176 156.4 198.121 155.072 196.532 155.067C194.996 155.062 193.932 156.382 193.925 158.395ZM213.22 158.459L213.183 169.477C213.176 171.489 214.231 172.817 215.767 172.822C217.356 172.827 218.367 171.507 218.374 169.494L218.387 165.468L224.426 165.488L224.413 169.196C224.396 174.546 220.941 178.03 215.697 178.013C210.4 177.995 207.128 174.542 207.146 169.139L207.18 158.81C207.198 153.354 210.493 149.922 215.79 149.94C221.034 149.957 224.465 153.465 224.448 158.867L224.435 162.522L218.397 162.502L218.41 158.476C218.417 156.464 217.415 155.136 215.826 155.131C214.29 155.126 213.226 156.446 213.22 158.459ZM226.474 158.874C226.491 153.63 229.576 149.986 235.084 150.004C240.593 150.022 243.759 153.74 243.742 158.931L243.707 169.26C243.69 174.398 240.5 178.095 234.991 178.077C229.483 178.059 226.422 174.394 226.44 169.203L226.474 158.874ZM232.514 158.523L232.477 169.541C232.47 171.553 233.525 172.881 235.061 172.886C236.65 172.891 237.661 171.571 237.668 169.558L237.704 158.54C237.711 156.475 236.709 155.2 235.12 155.195C233.584 155.19 232.52 156.457 232.514 158.523ZM245.658 144.265C245.665 142.147 246.993 141.092 249.164 141.099C251.389 141.106 252.709 142.223 252.703 144.289C252.695 146.46 251.368 147.515 249.143 147.508C246.971 147.501 245.651 146.437 245.658 144.265ZM246.167 150.57L252.205 150.59L252.115 177.604L246.077 177.584L246.167 150.57ZM254.554 177.612L254.644 150.598L260.682 150.618L260.671 154.008L261.094 154.01C262.268 151.471 264.127 150.1 266.351 150.107C269.423 150.118 271.904 152.721 271.888 157.647L271.822 177.669L265.783 177.649L265.847 158.475C265.853 156.621 264.904 155.347 263.527 155.342C262.308 155.338 261.193 156.341 260.658 157.822L260.592 177.632L254.554 177.612ZM291.013 160.359L284.975 160.339L284.98 158.644C284.987 156.579 284.091 155.357 282.502 155.352C280.966 155.347 280.008 156.509 280.002 158.31L280.002 158.363C279.996 160.164 280.682 160.961 282.852 161.656L286.078 162.991C289.517 164.327 291.1 166.186 291.088 169.788L291.085 170.477C291.072 174.661 287.723 178.252 282.32 178.234C276.864 178.216 273.804 174.551 273.82 169.625L273.826 168.036L279.864 168.056L279.859 169.645C279.852 171.658 280.854 172.932 282.39 172.937C283.979 172.942 285.043 171.728 285.048 170.086L285.049 169.874C285.055 168.02 284.422 167.276 282.041 166.527L278.708 165.245C275.375 164.015 274.004 162.051 274.016 158.555L274.018 157.972C274.032 153.682 277.116 150.143 282.466 150.161C287.922 150.179 291.035 153.844 291.018 158.717L291.013 160.359Z" fill="#282828"/>
</g>
<g filter="url(#filter1_ddd_1654_3953)">
<g clip-path="url(#clip2_1654_3953)">
<rect x="86.2008" y="201.625" width="193.49" height="205.042" rx="19.2528" transform="rotate(0.19 86.2008 201.625)" fill="white"/>
<path d="M109.529 387.204C109.041 387.202 108.628 387.109 108.291 386.924C107.954 386.735 107.698 386.486 107.524 386.177C107.354 385.868 107.27 385.528 107.271 385.156C107.272 384.831 107.327 384.539 107.436 384.281C107.546 384.018 107.713 383.794 107.939 383.607C108.165 383.416 108.458 383.26 108.817 383.14C109.088 383.054 109.406 382.975 109.769 382.906C110.136 382.836 110.532 382.773 110.958 382.716C111.388 382.655 111.837 382.589 112.304 382.52L111.765 382.825C111.771 382.358 111.668 382.013 111.456 381.791C111.244 381.569 110.885 381.458 110.38 381.456C110.076 381.455 109.782 381.525 109.497 381.666C109.213 381.807 109.014 382.05 108.901 382.396L107.525 381.96C107.694 381.389 108.013 380.931 108.481 380.586C108.954 380.242 109.588 380.071 110.385 380.073C110.986 380.075 111.513 380.175 111.967 380.373C112.425 380.57 112.764 380.892 112.984 381.34C113.104 381.578 113.176 381.822 113.2 382.072C113.225 382.319 113.236 382.588 113.235 382.88L113.221 387.028L111.901 387.024L111.906 385.56L112.124 385.798C111.818 386.285 111.46 386.643 111.051 386.871C110.645 387.095 110.138 387.206 109.529 387.204ZM109.833 386.003C110.176 386.004 110.468 385.945 110.71 385.825C110.952 385.704 111.145 385.557 111.287 385.382C111.434 385.208 111.532 385.043 111.583 384.889C111.663 384.697 111.707 384.479 111.717 384.232C111.73 383.982 111.737 383.78 111.737 383.626L112.2 383.765C111.745 383.834 111.355 383.895 111.029 383.949C110.704 384.002 110.424 384.053 110.19 384.102C109.956 384.147 109.75 384.199 109.57 384.257C109.395 384.319 109.246 384.391 109.125 384.474C109.004 384.557 108.91 384.653 108.843 384.761C108.78 384.869 108.748 384.996 108.748 385.142C108.747 385.309 108.788 385.457 108.871 385.587C108.954 385.712 109.075 385.813 109.233 385.889C109.396 385.964 109.596 386.002 109.833 386.003ZM118.097 387.232C117.438 387.23 116.886 387.072 116.441 386.757C115.995 386.443 115.661 386.016 115.438 385.477C115.214 384.934 115.103 384.327 115.106 383.655C115.108 382.976 115.223 382.367 115.45 381.83C115.677 381.292 116.008 380.87 116.442 380.563C116.882 380.251 117.422 380.097 118.065 380.099C118.703 380.101 119.255 380.259 119.721 380.573C120.192 380.884 120.555 381.308 120.812 381.847C121.069 382.382 121.196 382.992 121.194 383.676C121.192 384.351 121.062 384.958 120.806 385.495C120.55 386.032 120.19 386.457 119.726 386.768C119.262 387.079 118.719 387.234 118.097 387.232ZM114.828 390.037L114.86 380.276L116.193 380.28L116.177 385.023L116.365 385.024L116.348 390.042L114.828 390.037ZM117.87 385.88C118.262 385.881 118.586 385.784 118.841 385.589C119.096 385.394 119.285 385.129 119.407 384.796C119.533 384.459 119.597 384.083 119.598 383.67C119.6 383.262 119.538 382.89 119.414 382.556C119.29 382.218 119.097 381.95 118.835 381.753C118.573 381.552 118.24 381.451 117.835 381.449C117.451 381.448 117.138 381.541 116.895 381.728C116.653 381.911 116.473 382.169 116.355 382.502C116.241 382.831 116.183 383.217 116.182 383.659C116.18 384.097 116.236 384.483 116.347 384.817C116.463 385.151 116.643 385.413 116.889 385.601C117.138 385.785 117.466 385.878 117.87 385.88ZM125.809 387.258C125.15 387.255 124.597 387.097 124.152 386.783C123.707 386.468 123.372 386.042 123.149 385.503C122.926 384.96 122.815 384.353 122.817 383.681C122.819 383.001 122.934 382.392 123.161 381.855C123.388 381.318 123.719 380.895 124.154 380.588C124.593 380.277 125.134 380.122 125.776 380.124C126.414 380.126 126.966 380.285 127.433 380.599C127.903 380.909 128.267 381.334 128.523 381.873C128.78 382.408 128.908 383.017 128.905 383.701C128.903 384.377 128.774 384.984 128.518 385.521C128.261 386.058 127.901 386.482 127.437 386.794C126.973 387.105 126.43 387.26 125.809 387.258ZM122.539 390.062L122.572 380.301L123.905 380.306L123.889 385.049L124.077 385.049L124.06 390.068L122.539 390.062ZM125.582 385.905C125.974 385.907 126.297 385.81 126.553 385.614C126.808 385.419 126.996 385.155 127.118 384.822C127.245 384.484 127.308 384.109 127.31 383.696C127.311 383.287 127.25 382.916 127.126 382.582C127.002 382.243 126.809 381.976 126.546 381.779C126.284 381.578 125.951 381.476 125.546 381.475C125.163 381.474 124.849 381.567 124.607 381.754C124.364 381.936 124.184 382.194 124.066 382.528C123.952 382.857 123.895 383.242 123.893 383.685C123.892 384.123 123.947 384.509 124.058 384.843C124.174 385.177 124.355 385.438 124.6 385.627C124.85 385.811 125.177 385.904 125.582 385.905ZM130.279 387.085L130.284 385.539L131.83 385.544L131.825 387.09L130.279 387.085ZM141.945 387.123L141.959 383.019C141.96 382.556 141.847 382.194 141.618 381.935C141.39 381.672 141.079 381.539 140.687 381.538C140.445 381.537 140.228 381.593 140.036 381.705C139.844 381.812 139.691 381.975 139.577 382.191C139.464 382.403 139.407 382.658 139.406 382.954L138.738 382.558C138.735 382.09 138.841 381.68 139.055 381.326C139.273 380.968 139.566 380.689 139.933 380.49C140.301 380.291 140.71 380.193 141.161 380.194C141.908 380.197 142.478 380.424 142.873 380.876C143.272 381.323 143.47 381.912 143.468 382.642L143.453 387.128L141.945 387.123ZM133.817 387.096L133.839 380.339L135.172 380.343L135.165 382.439L135.353 382.44L135.338 387.101L133.817 387.096ZM137.89 387.11L137.904 383.024C137.906 382.553 137.792 382.185 137.564 381.922C137.335 381.658 137.023 381.526 136.626 381.524C136.242 381.523 135.933 381.653 135.699 381.915C135.469 382.177 135.353 382.519 135.351 382.94L134.677 382.488C134.679 382.05 134.788 381.656 135.006 381.306C135.224 380.957 135.517 380.682 135.885 380.483C136.257 380.28 136.672 380.179 137.131 380.181C137.636 380.182 138.057 380.292 138.394 380.51C138.735 380.724 138.989 381.017 139.155 381.389C139.324 381.756 139.409 382.172 139.407 382.635L139.392 387.115L137.89 387.11ZM145.719 390.139L147.033 386.571L147.054 387.622L144.131 380.373L145.701 380.378L147.774 385.741L147.373 385.74L149.424 380.39L150.932 380.395L147.133 390.144L145.719 390.139ZM155.09 387.355C154.431 387.352 153.879 387.194 153.433 386.88C152.988 386.566 152.654 386.139 152.43 385.6C152.207 385.057 152.096 384.45 152.098 383.778C152.101 383.098 152.215 382.49 152.442 381.952C152.669 381.415 153 380.993 153.435 380.685C153.874 380.374 154.415 380.219 155.057 380.221C155.696 380.223 156.248 380.382 156.714 380.696C157.184 381.006 157.548 381.431 157.805 381.97C158.062 382.505 158.189 383.114 158.187 383.798C158.184 384.474 158.055 385.081 157.799 385.618C157.543 386.155 157.183 386.579 156.718 386.891C156.254 387.202 155.712 387.357 155.09 387.355ZM151.821 390.16L151.853 380.398L153.186 380.403L153.17 385.146L153.358 385.146L153.341 390.165L151.821 390.16ZM154.863 386.002C155.255 386.004 155.579 385.907 155.834 385.712C156.089 385.516 156.278 385.252 156.4 384.919C156.526 384.581 156.59 384.206 156.591 383.793C156.592 383.384 156.531 383.013 156.407 382.679C156.283 382.34 156.09 382.073 155.828 381.876C155.566 381.675 155.232 381.574 154.828 381.572C154.444 381.571 154.131 381.664 153.888 381.851C153.646 382.033 153.465 382.291 153.347 382.625C153.234 382.954 153.176 383.34 153.175 383.782C153.173 384.22 153.228 384.606 153.34 384.94C153.455 385.274 153.636 385.535 153.882 385.724C154.131 385.908 154.458 386.001 154.863 386.002ZM162.088 387.384C161.588 387.382 161.175 387.298 160.85 387.13C160.525 386.962 160.267 386.748 160.076 386.489C159.885 386.23 159.744 385.954 159.654 385.662C159.563 385.369 159.503 385.094 159.475 384.835C159.451 384.572 159.439 384.359 159.439 384.197L159.452 380.424L160.979 380.429L160.968 383.682C160.967 383.891 160.981 384.127 161.009 384.39C161.038 384.648 161.104 384.899 161.207 385.141C161.315 385.379 161.473 385.576 161.681 385.731C161.893 385.886 162.178 385.964 162.537 385.965C162.729 385.966 162.919 385.935 163.107 385.873C163.295 385.811 163.464 385.706 163.615 385.556C163.77 385.402 163.893 385.192 163.986 384.925C164.079 384.658 164.126 384.321 164.127 383.912L165.02 384.297C165.019 384.872 164.904 385.393 164.677 385.86C164.455 386.326 164.126 386.698 163.691 386.976C163.257 387.25 162.722 387.386 162.088 387.384ZM164.298 387.197L164.304 385.101L164.123 385.101L164.138 380.439L165.653 380.444L165.63 387.202L164.298 387.197ZM167.388 387.208L167.411 380.45L168.743 380.454L168.738 382.1L168.576 381.887C168.66 381.662 168.771 381.458 168.91 381.275C169.052 381.087 169.222 380.934 169.418 380.813C169.585 380.701 169.769 380.614 169.969 380.552C170.174 380.486 170.383 380.447 170.596 380.436C170.808 380.42 171.015 380.429 171.215 380.463L171.21 381.871C171.01 381.811 170.779 381.792 170.516 381.812C170.257 381.832 170.023 381.904 169.814 382.029C169.605 382.141 169.434 382.284 169.3 382.459C169.17 382.633 169.073 382.833 169.01 383.058C168.947 383.279 168.915 383.519 168.914 383.778L168.902 387.213L167.388 387.208ZM174.751 387.42C173.916 387.417 173.239 387.227 172.719 386.85C172.199 386.473 171.884 385.944 171.773 385.264L173.313 385.031C173.391 385.365 173.566 385.628 173.836 385.821C174.107 386.014 174.449 386.111 174.861 386.112C175.224 386.114 175.504 386.044 175.701 385.903C175.901 385.757 176.002 385.559 176.003 385.309C176.003 385.155 175.966 385.032 175.892 384.94C175.821 384.843 175.663 384.751 175.417 384.663C175.171 384.574 174.794 384.462 174.285 384.327C173.719 384.175 173.269 384.013 172.936 383.841C172.602 383.665 172.363 383.457 172.218 383.219C172.073 382.981 172.001 382.693 172.002 382.355C172.003 381.934 172.115 381.567 172.337 381.255C172.559 380.943 172.869 380.704 173.266 380.538C173.662 380.369 174.13 380.285 174.668 380.286C175.194 380.288 175.658 380.371 176.063 380.535C176.471 380.699 176.8 380.932 177.049 381.233C177.298 381.534 177.451 381.887 177.508 382.292L175.968 382.562C175.932 382.274 175.801 382.046 175.576 381.879C175.356 381.711 175.06 381.616 174.689 381.594C174.334 381.572 174.048 381.625 173.831 381.754C173.614 381.878 173.505 382.055 173.504 382.285C173.503 382.414 173.547 382.525 173.634 382.617C173.721 382.709 173.896 382.801 174.159 382.894C174.426 382.987 174.821 383.101 175.347 383.236C175.884 383.375 176.313 383.535 176.634 383.716C176.959 383.892 177.192 384.103 177.333 384.35C177.478 384.596 177.55 384.895 177.549 385.245C177.546 385.925 177.296 386.458 176.799 386.845C176.305 387.231 175.623 387.423 174.751 387.42ZM181.984 387.444C181.3 387.442 180.7 387.292 180.184 386.994C179.667 386.696 179.264 386.284 178.974 385.757C178.688 385.23 178.546 384.625 178.548 383.941C178.551 383.203 178.695 382.563 178.98 382.021C179.265 381.476 179.661 381.054 180.167 380.755C180.672 380.456 181.257 380.308 181.92 380.31C182.621 380.313 183.215 380.48 183.702 380.811C184.193 381.138 184.557 381.6 184.792 382.197C185.028 382.794 185.115 383.498 185.054 384.307L183.559 384.302L183.561 383.751C183.559 383.017 183.431 382.48 183.178 382.142C182.925 381.803 182.525 381.633 181.978 381.631C181.361 381.629 180.902 381.819 180.6 382.202C180.298 382.581 180.146 383.137 180.144 383.871C180.142 384.555 180.29 385.086 180.589 385.462C180.888 385.838 181.326 386.028 181.901 386.029C182.273 386.031 182.592 385.95 182.859 385.789C183.131 385.623 183.34 385.383 183.488 385.071L184.975 385.527C184.715 386.135 184.313 386.607 183.769 386.943C183.23 387.279 182.635 387.446 181.984 387.444ZM179.667 384.289L179.671 383.15L184.32 383.165L184.316 384.304L179.667 384.289ZM189.504 387.469C188.845 387.467 188.293 387.308 187.848 386.994C187.402 386.68 187.068 386.253 186.844 385.714C186.621 385.171 186.51 384.564 186.513 383.892C186.515 383.212 186.629 382.604 186.857 382.066C187.084 381.529 187.415 381.107 187.849 380.799C188.288 380.488 188.829 380.333 189.472 380.335C190.11 380.338 190.662 380.496 191.128 380.81C191.598 381.121 191.962 381.545 192.219 382.084C192.476 382.619 192.603 383.228 192.601 383.912C192.599 384.588 192.469 385.195 192.213 385.732C191.957 386.269 191.597 386.694 191.133 387.005C190.669 387.316 190.126 387.471 189.504 387.469ZM186.235 390.274L186.267 380.513L187.6 380.517L187.584 385.26L187.772 385.261L187.755 390.279L186.235 390.274ZM189.277 386.116C189.669 386.118 189.993 386.021 190.248 385.826C190.503 385.63 190.692 385.366 190.814 385.033C190.94 384.695 191.004 384.32 191.005 383.907C191.007 383.498 190.945 383.127 190.821 382.793C190.697 382.454 190.504 382.187 190.242 381.99C189.98 381.789 189.646 381.688 189.242 381.686C188.858 381.685 188.545 381.778 188.302 381.965C188.06 382.147 187.879 382.406 187.762 382.739C187.648 383.068 187.59 383.454 187.589 383.896C187.587 384.334 187.642 384.72 187.754 385.054C187.87 385.388 188.05 385.649 188.296 385.838C188.545 386.022 188.873 386.115 189.277 386.116ZM195.858 387.49C195.37 387.488 194.957 387.395 194.62 387.21C194.283 387.022 194.027 386.773 193.853 386.463C193.683 386.154 193.598 385.814 193.599 385.443C193.601 385.117 193.656 384.825 193.765 384.567C193.874 384.305 194.042 384.08 194.268 383.893C194.494 383.702 194.786 383.546 195.145 383.427C195.417 383.34 195.734 383.262 196.097 383.192C196.465 383.122 196.861 383.059 197.287 383.002C197.717 382.941 198.165 382.876 198.633 382.806L198.094 383.111C198.099 382.644 197.996 382.299 197.784 382.078C197.572 381.856 197.214 381.744 196.709 381.742C196.405 381.741 196.11 381.811 195.826 381.952C195.542 382.093 195.343 382.336 195.229 382.682L193.854 382.246C194.023 381.675 194.341 381.217 194.81 380.873C195.282 380.528 195.917 380.357 196.714 380.36C197.314 380.362 197.842 380.461 198.296 380.659C198.754 380.856 199.093 381.179 199.312 381.626C199.433 381.864 199.505 382.108 199.529 382.359C199.553 382.605 199.565 382.874 199.564 383.166L199.55 387.314L198.23 387.31L198.235 385.846L198.453 386.084C198.147 386.571 197.789 386.929 197.379 387.157C196.974 387.381 196.467 387.492 195.858 387.49ZM196.162 386.289C196.504 386.291 196.796 386.231 197.039 386.111C197.281 385.991 197.473 385.843 197.616 385.669C197.762 385.494 197.861 385.329 197.912 385.175C197.991 384.984 198.036 384.765 198.045 384.519C198.058 384.268 198.065 384.066 198.066 383.912L198.528 384.051C198.074 384.12 197.683 384.182 197.358 384.235C197.032 384.288 196.753 384.339 196.519 384.388C196.285 384.434 196.078 384.485 195.899 384.543C195.723 384.605 195.575 384.677 195.454 384.76C195.333 384.843 195.238 384.939 195.171 385.047C195.108 385.156 195.077 385.283 195.076 385.429C195.076 385.596 195.117 385.744 195.2 385.873C195.283 385.999 195.404 386.099 195.562 386.175C195.724 386.251 195.924 386.289 196.162 386.289ZM201.679 390.325L202.992 386.756L203.014 387.808L200.091 380.558L201.661 380.564L203.733 385.927L203.333 385.925L205.384 380.576L206.892 380.581L203.093 390.33L201.679 390.325ZM207.051 387.339L207.056 385.794L208.602 385.799L208.597 387.344L207.051 387.339ZM213.535 387.548C212.839 387.546 212.245 387.39 211.754 387.08C211.262 386.765 210.886 386.338 210.625 385.799C210.369 385.26 210.239 384.651 210.237 383.971C210.244 383.279 210.381 382.666 210.65 382.133C210.923 381.596 211.308 381.175 211.806 380.873C212.303 380.566 212.894 380.413 213.578 380.415C214.345 380.418 214.993 380.614 215.522 381.004C216.055 381.389 216.401 381.916 216.562 382.584L215.059 382.986C214.943 382.622 214.75 382.34 214.479 382.139C214.209 381.934 213.901 381.831 213.554 381.829C213.162 381.828 212.839 381.921 212.584 382.108C212.329 382.291 212.14 382.544 212.018 382.869C211.896 383.194 211.834 383.563 211.833 383.976C211.831 384.619 211.973 385.138 212.259 385.536C212.546 385.933 212.973 386.132 213.54 386.134C213.941 386.136 214.256 386.045 214.486 385.862C214.72 385.679 214.896 385.415 215.014 385.069L216.552 385.419C216.341 386.106 215.975 386.635 215.452 387.004C214.929 387.37 214.29 387.551 213.535 387.548ZM220.6 387.572C219.925 387.57 219.335 387.415 218.831 387.109C218.327 386.803 217.937 386.383 217.659 385.848C217.385 385.309 217.25 384.691 217.252 383.994C217.254 383.285 217.398 382.664 217.684 382.131C217.969 381.598 218.365 381.182 218.87 380.884C219.376 380.585 219.961 380.437 220.624 380.439C221.304 380.441 221.896 380.595 222.399 380.901C222.903 381.208 223.294 381.63 223.572 382.169C223.849 382.704 223.987 383.32 223.985 384.017C223.982 384.717 223.838 385.336 223.553 385.873C223.272 386.407 222.878 386.824 222.373 387.127C221.867 387.426 221.276 387.574 220.6 387.572ZM220.605 386.158C221.206 386.16 221.653 385.961 221.946 385.562C222.239 385.162 222.387 384.645 222.389 384.011C222.391 383.356 222.245 382.834 221.95 382.446C221.655 382.052 221.212 381.855 220.619 381.853C220.215 381.852 219.881 381.942 219.617 382.125C219.358 382.303 219.165 382.555 219.039 382.88C218.913 383.201 218.849 383.574 218.848 384C218.845 384.654 218.992 385.178 219.287 385.572C219.586 385.96 220.025 386.156 220.605 386.158ZM233.468 387.427L233.481 383.322C233.483 382.859 233.369 382.498 233.141 382.239C232.912 381.975 232.602 381.843 232.21 381.841C231.968 381.84 231.751 381.896 231.558 382.008C231.366 382.116 231.213 382.278 231.1 382.495C230.987 382.707 230.929 382.961 230.928 383.257L230.26 382.861C230.258 382.394 230.363 381.983 230.577 381.629C230.795 381.271 231.088 380.993 231.456 380.794C231.824 380.595 232.233 380.496 232.683 380.498C233.43 380.5 234.001 380.727 234.396 381.179C234.795 381.627 234.993 382.216 234.99 382.946L234.976 387.432L233.468 387.427ZM225.34 387.4L225.362 380.642L226.695 380.647L226.688 382.743L226.876 382.743L226.86 387.405L225.34 387.4ZM229.413 387.413L229.427 383.328C229.428 382.856 229.315 382.489 229.086 382.225C228.857 381.962 228.545 381.829 228.149 381.828C227.765 381.827 227.456 381.957 227.221 382.219C226.991 382.481 226.875 382.823 226.874 383.244L226.2 382.791C226.201 382.353 226.311 381.959 226.529 381.61C226.747 381.26 227.04 380.986 227.408 380.787C227.78 380.584 228.195 380.483 228.654 380.484C229.159 380.486 229.579 380.596 229.917 380.814C230.258 381.028 230.511 381.32 230.677 381.692C230.847 382.06 230.931 382.475 230.93 382.938L230.915 387.418L229.413 387.413Z" fill="black"/>
<path d="M257.118 381.118C257.139 380.967 257.15 380.816 257.15 380.666C257.157 378.605 255.306 376.945 253.245 377.218C252.648 376.148 251.506 375.449 250.236 375.445C248.966 375.441 247.82 376.132 247.216 377.198C245.153 376.911 243.295 378.559 243.288 380.62C243.288 380.77 243.298 380.921 243.317 381.072C242.247 381.67 241.548 382.811 241.544 384.08C241.54 385.349 242.231 386.495 243.297 387.1C243.276 387.25 243.266 387.4 243.265 387.551C243.258 389.612 245.105 391.268 247.171 390.999C247.767 392.07 248.909 392.768 250.179 392.772C251.449 392.777 252.595 392.086 253.199 391.019C255.258 391.302 257.12 389.658 257.127 387.597C257.128 387.447 257.118 387.297 257.098 387.146C258.168 386.548 258.867 385.407 258.871 384.138C258.876 382.868 258.184 381.722 257.118 381.118ZM249.29 387.932L246.123 384.703L247.361 383.491L249.31 385.478L253.071 381.77L254.287 383.005L249.29 387.932Z" fill="#98F500"/>
<path d="M131.699 234.095C144.776 221.66 165.459 222.18 177.894 235.257L184.033 241.713L190.625 235.444C203.702 223.008 224.385 223.528 236.821 236.605C249.256 249.682 248.736 270.365 235.659 282.8L229.067 289.069L235.209 295.528C247.645 308.605 247.125 329.288 234.048 341.723C220.971 354.158 200.288 353.639 187.853 340.562L181.711 334.103L175.388 340.116C162.311 352.551 141.629 352.031 129.193 338.954C116.757 325.877 117.277 305.195 130.354 292.759L136.677 286.747L130.538 280.291C118.102 267.214 118.622 246.531 131.699 234.095Z" fill="#8424FF"/>
</g>
</g>
</g>
<path d="M327.854 297.359C327.442 297.298 327.028 297.242 326.615 297.192C326.201 297.141 325.787 297.096 325.372 297.056C324.688 296.989 324.002 296.938 323.315 296.903C322.628 296.858 321.94 296.828 321.251 296.813L321.606 293.472C321.842 293.527 322.078 293.576 322.314 293.619C322.552 293.653 322.789 293.692 323.025 293.735C323.243 292.134 323.455 290.543 323.661 288.962C323.878 287.371 324.064 285.778 324.219 284.181C324.322 283.113 324.409 282.059 324.478 281.019C324.548 279.969 324.619 278.914 324.691 277.853C324.421 277.827 324.146 277.806 323.865 277.789C323.584 277.772 323.297 277.76 323.005 277.753L323.351 274.505C324.145 274.635 324.939 274.753 325.734 274.862C326.531 274.96 327.333 275.048 328.142 275.127C328.432 275.155 328.723 275.183 329.013 275.211C329.303 275.239 329.6 275.258 329.902 275.266L329.509 278.352C329.27 278.329 329.032 278.301 328.795 278.267C328.568 278.235 328.335 278.207 328.097 278.184C327.771 280.036 327.487 281.882 327.246 283.721C327.006 285.55 326.795 287.398 326.614 289.264C326.456 290.892 326.33 292.518 326.235 294.141C326.567 294.173 326.905 294.201 327.248 294.223C327.601 294.247 327.955 294.266 328.31 294.279L327.854 297.359ZM340.412 298.828C340.597 297.245 340.789 295.636 340.99 294.002C341.067 293.308 341.149 292.573 341.235 291.796C341.331 291.021 341.423 290.234 341.511 289.437C341.599 288.64 341.681 287.842 341.759 287.043C341.846 286.246 341.926 285.479 341.997 284.743C342.045 284.256 342.089 283.795 342.131 283.359C342.175 282.913 342.205 282.492 342.223 282.096C342.024 282.852 341.767 283.826 341.452 285.02C341.149 286.205 340.823 287.518 340.474 288.96C340.126 290.391 339.769 291.911 339.404 293.518C339.049 295.127 338.716 296.727 338.405 298.319L335.457 297.955C335.365 296.313 335.276 294.698 335.189 293.11C335.113 291.522 335.034 290.013 334.953 288.581C334.883 287.151 334.818 285.826 334.758 284.606C334.698 283.387 334.649 282.325 334.612 281.421L334.087 286.833C333.978 287.953 333.874 289.084 333.774 290.225C333.674 291.356 333.581 292.425 333.494 293.432C333.417 294.44 333.355 295.349 333.308 296.161C333.262 296.962 333.243 297.589 333.251 298.039L328.997 297.878C329.238 297.012 329.458 296.034 329.658 294.944C329.869 293.855 330.058 292.712 330.226 291.514C330.405 290.317 330.565 289.098 330.707 287.856C330.848 286.613 330.976 285.407 331.089 284.235C331.206 283.032 331.304 281.906 331.385 280.857C331.476 279.809 331.55 278.89 331.606 278.1C331.664 277.174 331.72 276.327 331.774 275.557C332.1 275.641 332.443 275.722 332.802 275.798C333.162 275.865 333.517 275.925 333.868 275.98C334.218 276.035 334.559 276.084 334.889 276.126C335.22 276.169 335.52 276.203 335.79 276.229C335.966 276.247 336.127 276.262 336.272 276.276C336.428 276.291 336.563 276.299 336.678 276.3C336.802 276.312 336.912 276.317 337.006 276.316C337.17 279.806 337.308 282.75 337.421 285.147C337.534 287.544 337.629 289.369 337.707 290.622C337.897 289.845 338.084 289.047 338.269 288.228C338.464 287.399 338.648 286.58 338.821 285.77C338.994 284.96 339.154 284.169 339.302 283.399C339.461 282.619 339.606 281.885 339.735 281.196C340.039 279.572 340.323 277.998 340.586 276.475C340.812 276.518 341.058 276.562 341.326 276.609C341.562 276.653 341.841 276.696 342.161 276.737C342.492 276.78 342.854 276.82 343.248 276.858C343.642 276.897 344.068 276.933 344.525 276.967C344.983 276.99 345.464 277 345.967 276.996C345.466 280.862 345.079 284.21 344.804 287.041C344.602 289.125 344.449 290.92 344.345 292.428C344.251 293.936 344.182 295.185 344.138 296.175C344.088 297.342 344.072 298.314 344.091 299.09L340.412 298.828ZM352.362 300.081C352.38 299.36 352.398 298.635 352.416 297.904C352.445 297.174 352.464 296.438 352.473 295.696C352.02 295.621 351.583 295.547 351.161 295.475C350.739 295.402 350.31 295.345 349.874 295.303L349.672 295.283C349.548 296.025 349.43 296.756 349.318 297.478C349.206 298.2 349.1 298.917 349 299.629L345.118 299.19C346.119 295.551 347.058 291.916 347.933 288.286C348.808 284.655 349.609 280.986 350.335 277.279L355.008 277.81C355.043 281.55 355.158 285.276 355.353 288.99C355.559 292.693 355.856 296.432 356.243 300.206L352.362 300.081ZM352.334 281.429C351.942 283.316 351.56 285.2 351.19 287.079C350.819 288.958 350.463 290.854 350.12 292.768C350.336 292.81 350.558 292.842 350.786 292.864C351.014 292.886 351.247 292.909 351.486 292.932L352.497 293.03C352.507 291.084 352.496 289.152 352.462 287.234C352.428 285.315 352.386 283.38 352.334 281.429ZM370.692 279.096C370.355 281.167 370.051 283.225 369.779 285.271C369.509 287.306 369.273 289.356 369.073 291.419C368.917 293.026 368.784 294.614 368.674 296.184C368.574 297.754 368.504 299.338 368.464 300.936L365.332 300.538C365.048 299.15 364.768 297.773 364.492 296.406C364.228 295.031 363.963 293.665 363.696 292.31C363.43 290.955 363.153 289.605 362.865 288.258C362.587 286.912 362.293 285.571 361.984 284.232C361.752 286.941 361.537 289.647 361.338 292.349C361.15 295.041 361.015 297.733 360.932 300.425L357.342 300.046C357.787 296.75 358.172 293.433 358.495 290.095C358.694 288.042 358.871 286.008 359.024 283.992C359.178 281.977 359.312 279.949 359.426 277.909L363.771 278.425C364.079 280.757 364.419 283.129 364.792 285.541C365.165 287.953 365.578 290.337 366.03 292.694C366.184 290.343 366.303 287.99 366.385 285.632C366.478 283.266 366.551 280.944 366.605 278.668L370.692 279.096ZM328.791 315.55C328.702 315.918 328.604 316.338 328.496 316.809C328.398 317.281 328.301 317.789 328.207 318.335C328.113 318.87 328.021 319.437 327.932 320.035C327.854 320.624 327.786 321.219 327.727 321.82C327.714 321.955 327.7 322.153 327.686 322.413C327.682 322.664 327.676 322.946 327.666 323.259C327.658 323.561 327.648 323.88 327.637 324.213C327.636 324.538 327.633 324.846 327.625 325.139C327.629 325.422 327.632 325.668 327.632 325.877C327.633 326.086 327.64 326.228 327.654 326.303C327.231 326.45 326.818 326.552 326.415 326.607C326.011 326.672 325.651 326.716 325.335 326.738C324.967 326.754 324.612 326.751 324.269 326.728C323.895 326.692 323.498 326.585 323.075 326.408C322.663 326.232 322.255 325.963 321.851 325.599C321.447 325.225 321.071 324.738 320.721 324.139C320.372 323.53 320.083 322.785 319.854 321.905C319.627 321.014 319.477 319.963 319.406 318.753C319.335 317.543 319.377 316.144 319.531 314.558C319.684 312.972 319.927 311.598 320.26 310.437C320.602 309.277 320.991 308.295 321.425 307.489C321.87 306.674 322.342 306.019 322.84 305.523C323.349 305.017 323.852 304.632 324.349 304.366C324.847 304.09 325.319 303.916 325.766 303.844C326.223 303.763 326.613 303.738 326.934 303.769C327.234 303.809 327.527 303.868 327.812 303.948C328.056 304.024 328.307 304.127 328.567 304.257C328.837 304.388 329.066 304.557 329.256 304.763L328.641 307.859C328.365 307.686 328.101 307.555 327.847 307.468C327.606 307.371 327.371 307.312 327.143 307.29C326.707 307.248 326.307 307.329 325.941 307.534C325.588 307.73 325.268 308.008 324.982 308.368C324.706 308.728 324.456 309.143 324.233 309.614C324.02 310.085 323.837 310.569 323.684 311.067C323.309 312.235 323.032 313.579 322.853 315.1C322.757 316.42 322.759 317.639 322.859 318.758C322.908 319.234 322.976 319.711 323.066 320.191C323.166 320.672 323.295 321.124 323.452 321.547C323.622 321.961 323.827 322.327 324.068 322.643C324.32 322.96 324.622 323.194 324.974 323.343C325.084 321.993 325.146 320.649 325.161 319.311C325.186 317.974 325.16 316.621 325.083 315.253L328.791 315.55ZM336.417 319.147C336.097 319.095 335.772 319.047 335.441 319.005C335.11 318.962 334.779 318.925 334.447 318.893C334.261 318.875 334.063 318.861 333.855 318.851C333.657 318.842 333.459 318.828 333.262 318.809L332.662 324.355C333.514 324.417 334.342 324.456 335.147 324.471C335.961 324.487 336.826 324.471 337.741 324.424L337.426 327.674C336.848 327.597 336.284 327.527 335.736 327.463C335.198 327.401 334.659 327.343 334.12 327.291C333.311 327.213 332.512 327.146 331.722 327.09C330.931 327.045 330.113 327.007 329.268 326.978C329.548 325.058 329.806 323.157 330.041 321.276C330.287 319.384 330.503 317.474 330.69 315.546C330.869 313.7 331.021 311.868 331.145 310.048C331.28 308.22 331.381 306.377 331.446 304.52C332.66 304.732 333.822 304.892 334.931 305C335.636 305.068 336.338 305.12 337.035 305.157C337.744 305.183 338.501 305.205 339.305 305.22L338.959 308.797C338.327 308.62 337.698 308.47 337.071 308.347C336.455 308.224 335.836 308.133 335.214 308.073L334.608 308.014C334.378 309.3 334.18 310.583 334.014 311.865C333.859 313.148 333.707 314.436 333.561 315.73C333.829 315.777 334.097 315.813 334.367 315.84C334.647 315.867 334.932 315.894 335.222 315.922C335.461 315.946 335.704 315.969 335.953 315.993C336.202 316.017 336.457 316.032 336.718 316.036L336.417 319.147ZM350.258 317.898C350.056 319.982 349.739 321.736 349.308 323.159C348.887 324.584 348.389 325.729 347.813 326.594C347.239 327.449 346.599 328.051 345.896 328.401C345.193 328.741 344.463 328.875 343.706 328.801C342.949 328.728 342.258 328.467 341.631 328.019C341.006 327.561 340.488 326.862 340.077 325.922C339.665 324.982 339.385 323.767 339.237 322.277C339.099 320.788 339.133 318.976 339.34 316.84C339.548 314.694 339.865 312.888 340.289 311.422C340.726 309.947 341.238 308.767 341.826 307.882C342.415 306.986 343.061 306.364 343.765 306.013C344.47 305.652 345.201 305.509 345.958 305.582C346.715 305.656 347.405 305.932 348.028 306.411C348.652 306.88 349.163 307.604 349.56 308.584C349.957 309.565 350.222 310.82 350.356 312.351C350.502 313.872 350.469 315.721 350.258 317.898ZM346.79 317.562C346.948 315.934 347.029 314.556 347.034 313.426C347.039 312.296 346.982 311.375 346.862 310.662C346.754 309.94 346.596 309.412 346.388 309.078C346.18 308.743 345.941 308.563 345.671 308.537C345.391 308.51 345.111 308.645 344.831 308.942C344.563 309.23 344.301 309.718 344.046 310.405C343.802 311.082 343.574 311.981 343.361 313.101C343.148 314.211 342.964 315.569 342.808 317.176C342.654 318.773 342.575 320.12 342.573 321.219C342.572 322.308 342.628 323.192 342.74 323.873C342.863 324.544 343.03 325.031 343.242 325.334C343.464 325.638 343.714 325.804 343.994 325.831C344.264 325.857 344.532 325.737 344.799 325.469C345.066 325.192 345.32 324.73 345.561 324.083C345.813 323.428 346.043 322.566 346.251 321.497C346.459 320.429 346.639 319.117 346.79 317.562ZM361.515 314.155C361.448 314.85 361.313 315.543 361.11 316.235C360.918 316.917 360.645 317.571 360.292 318.196C359.939 318.811 359.507 319.381 358.995 319.907C358.485 320.423 357.877 320.866 357.171 321.237C357.608 322.776 358.107 324.264 358.669 325.7C359.243 327.126 359.898 328.514 360.636 329.862L356.727 329.703L354.811 321.935C354.73 323.204 354.66 324.463 354.602 325.714C354.544 326.964 354.502 328.2 354.478 329.422L350.683 329.054C351.077 326.717 351.425 324.375 351.725 322.028C352.037 319.683 352.308 317.318 352.539 314.933C352.673 313.554 352.796 312.179 352.908 310.809C353.021 309.428 353.114 308.034 353.187 306.629C353.753 306.516 354.318 306.461 354.883 306.463C355.458 306.467 355.943 306.488 356.337 306.526C356.617 306.553 356.951 306.617 357.339 306.717C357.738 306.808 358.147 306.963 358.565 307.181C358.984 307.4 359.39 307.69 359.784 308.053C360.188 308.417 360.53 308.879 360.811 309.44C361.103 309.992 361.316 310.656 361.45 311.433C361.595 312.2 361.617 313.108 361.515 314.155ZM355.025 319.412C355.398 319.344 355.728 319.224 356.017 319.053C356.317 318.873 356.583 318.664 356.816 318.424C357.048 318.185 357.246 317.927 357.409 317.65C357.582 317.374 357.73 317.095 357.851 316.814C358.124 316.16 358.314 315.435 358.423 314.64C358.425 314.619 358.432 314.494 358.444 314.265C358.467 314.027 358.469 313.729 358.452 313.371C358.434 313.014 358.394 312.623 358.33 312.198C358.277 311.774 358.176 311.361 358.026 310.96C357.878 310.547 357.673 310.177 357.412 309.848C357.151 309.519 356.819 309.273 356.416 309.108C356.134 310.724 355.878 312.337 355.649 313.947C355.431 315.548 355.242 317.168 355.083 318.806L355.025 319.412ZM371.528 319.694C371.44 320.062 371.341 320.482 371.233 320.953C371.135 321.425 371.038 321.933 370.944 322.479C370.85 323.014 370.758 323.581 370.669 324.179C370.591 324.768 370.523 325.363 370.464 325.964C370.451 326.099 370.437 326.297 370.423 326.557C370.419 326.808 370.413 327.09 370.403 327.403C370.395 327.705 370.385 328.024 370.374 328.357C370.374 328.682 370.37 328.99 370.362 329.283C370.366 329.565 370.369 329.812 370.369 330.021C370.37 330.23 370.377 330.372 370.391 330.447C369.968 330.594 369.556 330.696 369.153 330.751C368.748 330.816 368.388 330.86 368.072 330.881C367.704 330.898 367.349 330.895 367.006 330.872C366.633 330.836 366.235 330.729 365.812 330.552C365.4 330.376 364.992 330.107 364.588 329.743C364.185 329.369 363.808 328.882 363.458 328.283C363.109 327.674 362.82 326.929 362.591 326.049C362.364 325.158 362.214 324.107 362.143 322.897C362.072 321.687 362.114 320.288 362.268 318.702C362.421 317.116 362.664 315.742 362.997 314.581C363.34 313.421 363.728 312.439 364.162 311.633C364.607 310.818 365.079 310.163 365.577 309.667C366.086 309.161 366.59 308.776 367.086 308.51C367.584 308.234 368.056 308.06 368.503 307.988C368.96 307.907 369.35 307.882 369.672 307.913C369.971 307.953 370.264 308.012 370.549 308.092C370.793 308.168 371.044 308.271 371.304 308.401C371.574 308.532 371.803 308.701 371.993 308.907L371.379 312.003C371.102 311.83 370.838 311.699 370.584 311.612C370.343 311.515 370.108 311.456 369.88 311.434C369.444 311.392 369.044 311.473 368.678 311.678C368.325 311.874 368.005 312.152 367.719 312.512C367.443 312.872 367.193 313.287 366.97 313.758C366.757 314.229 366.574 314.713 366.421 315.211C366.046 316.379 365.769 317.723 365.59 319.244C365.494 320.564 365.496 321.783 365.597 322.902C365.645 323.378 365.713 323.855 365.803 324.335C365.903 324.816 366.032 325.268 366.189 325.691C366.359 326.105 366.564 326.471 366.805 326.787C367.057 327.104 367.359 327.338 367.711 327.487C367.821 326.137 367.883 324.793 367.898 323.455C367.923 322.118 367.897 320.765 367.82 319.397L371.528 319.694ZM379.154 323.291C378.834 323.239 378.509 323.191 378.178 323.149C377.848 323.106 377.516 323.069 377.184 323.037C376.998 323.019 376.8 323.005 376.592 322.995C376.394 322.986 376.197 322.972 376 322.953L375.399 328.499C376.251 328.561 377.079 328.599 377.884 328.615C378.699 328.631 379.563 328.615 380.479 328.568L380.163 331.818C379.585 331.741 379.021 331.671 378.473 331.607C377.935 331.545 377.396 331.487 376.857 331.435C376.048 331.357 375.249 331.29 374.459 331.234C373.668 331.189 372.85 331.151 372.005 331.122C372.285 329.202 372.543 327.301 372.778 325.419C373.024 323.528 373.24 321.618 373.427 319.69C373.606 317.844 373.758 316.012 373.882 314.192C374.018 312.364 374.118 310.521 374.183 308.664C375.397 308.876 376.559 309.036 377.668 309.144C378.373 309.212 379.075 309.264 379.772 309.301C380.481 309.327 381.238 309.348 382.042 309.364L381.696 312.941C381.064 312.764 380.435 312.614 379.808 312.491C379.192 312.368 378.573 312.277 377.951 312.217L377.345 312.158C377.115 313.444 376.917 314.727 376.751 316.009C376.596 317.292 376.445 318.58 376.298 319.874C376.566 319.921 376.834 319.957 377.104 319.984C377.384 320.011 377.669 320.038 377.959 320.066C378.198 320.09 378.441 320.113 378.69 320.137C378.939 320.161 379.194 320.176 379.455 320.18L379.154 323.291Z" fill="#76B808"/>
</g>
<defs>
<filter id="filter0_dddd_1654_3953" x="80.9452" y="49.767" width="426.452" height="404.441" filterUnits="userSpaceOnUse" color-interpolation-filters="sRGB">
<feFlood flood-opacity="0" result="BackgroundImageFix"/>
<feColorMatrix in="SourceAlpha" type="matrix" values="0 0 0 0 0 0 0 0 0 0 0 0 0 0 0 0 0 0 127 0" result="hardAlpha"/>
<feOffset dx="2.28783" dy="2.28783"/>
<feGaussianBlur stdDeviation="3.43174"/>
<feColorMatrix type="matrix" values="0 0 0 0 0 0 0 0 0 0 0 0 0 0 0 0 0 0 0.1 0"/>
<feBlend mode="normal" in2="BackgroundImageFix" result="effect1_dropShadow_1654_3953"/>
<feColorMatrix in="SourceAlpha" type="matrix" values="0 0 0 0 0 0 0 0 0 0 0 0 0 0 0 0 0 0 127 0" result="hardAlpha"/>
<feOffset dx="9.15131" dy="6.86348"/>
<feGaussianBlur stdDeviation="5.71957"/>
<feColorMatrix type="matrix" values="0 0 0 0 0 0 0 0 0 0 0 0 0 0 0 0 0 0 0.09 0"/>
<feBlend mode="normal" in2="effect1_dropShadow_1654_3953" result="effect2_dropShadow_1654_3953"/>
<feColorMatrix in="SourceAlpha" type="matrix" values="0 0 0 0 0 0 0 0 0 0 0 0 0 0 0 0 0 0 127 0" result="hardAlpha"/>
<feOffset dx="20.5905" dy="16.0148"/>
<feGaussianBlur stdDeviation="8.0074"/>
<feColorMatrix type="matrix" values="0 0 0 0 0 0 0 0 0 0 0 0 0 0 0 0 0 0 0.05 0"/>
<feBlend mode="normal" in2="effect2_dropShadow_1654_3953" result="effect3_dropShadow_1654_3953"/>
<feColorMatrix in="SourceAlpha" type="matrix" values="0 0 0 0 0 0 0 0 0 0 0 0 0 0 0 0 0 0 127 0" result="hardAlpha"/>
<feOffset dx="36.6053" dy="28.5979"/>
<feGaussianBlur stdDeviation="9.15131"/>
<feColorMatrix type="matrix" values="0 0 0 0 0 0 0 0 0 0 0 0 0 0 0 0 0 0 0.01 0"/>
<feBlend mode="normal" in2="effect3_dropShadow_1654_3953" result="effect4_dropShadow_1654_3953"/>
<feBlend mode="normal" in="SourceGraphic" in2="effect4_dropShadow_1654_3953" result="shape"/>
</filter>
<filter id="filter1_ddd_1654_3953" x="84.5208" y="200.625" width="196.169" height="207.682" filterUnits="userSpaceOnUse" color-interpolation-filters="sRGB">
<feFlood flood-opacity="0" result="BackgroundImageFix"/>
<feColorMatrix in="SourceAlpha" type="matrix" values="0 0 0 0 0 0 0 0 0 0 0 0 0 0 0 0 0 0 127 0" result="hardAlpha"/>
<feOffset/>
<feGaussianBlur stdDeviation="0.5"/>
<feColorMatrix type="matrix" values="0 0 0 0 0 0 0 0 0 0 0 0 0 0 0 0 0 0 0.09 0"/>
<feBlend mode="normal" in2="BackgroundImageFix" result="effect1_dropShadow_1654_3953"/>
<feColorMatrix in="SourceAlpha" type="matrix" values="0 0 0 0 0 0 0 0 0 0 0 0 0 0 0 0 0 0 127 0" result="hardAlpha"/>
<feOffset/>
<feGaussianBlur stdDeviation="0.5"/>
<feColorMatrix type="matrix" values="0 0 0 0 0 0 0 0 0 0 0 0 0 0 0 0 0 0 0.05 0"/>
<feBlend mode="normal" in2="effect1_dropShadow_1654_3953" result="effect2_dropShadow_1654_3953"/>
<feColorMatrix in="SourceAlpha" type="matrix" values="0 0 0 0 0 0 0 0 0 0 0 0 0 0 0 0 0 0 127 0" result="hardAlpha"/>
<feOffset/>
<feGaussianBlur stdDeviation="0.5"/>
<feColorMatrix type="matrix" values="0 0 0 0 0 0 0 0 0 0 0 0 0 0 0 0 0 0 0.01 0"/>
<feBlend mode="normal" in2="effect2_dropShadow_1654_3953" result="effect3_dropShadow_1654_3953"/>
<feBlend mode="normal" in="SourceGraphic" in2="effect3_dropShadow_1654_3953" result="shape"/>
</filter>
<clipPath id="clip0_1654_3953">
<rect y="40.7271" width="405.101" height="413" rx="100" transform="rotate(-5.77 0 40.7271)" fill="white"/>
</clipPath>
<clipPath id="clip1_1654_3953">
<rect x="86.6892" y="54.3427" width="365.803" height="137.657" rx="19.2528" transform="rotate(0.19 86.6892 54.3427)" fill="white"/>
</clipPath>
<clipPath id="clip2_1654_3953">
<rect x="86.2008" y="201.625" width="193.49" height="205.042" rx="19.2528" transform="rotate(0.19 86.2008 201.625)" fill="white"/>
</clipPath>
</defs>
</svg>
