<svg width="500" height="500" viewBox="0 0 500 500" fill="none" xmlns="http://www.w3.org/2000/svg">
<rect width="500" height="500" rx="250" fill="white"/>
<circle cx="250.657" cy="165.533" r="28.0161" fill="#9FEB00"/>
<circle cx="215.637" cy="194.951" r="28.0161" fill="#9FEB00"/>
<circle cx="250.657" cy="194.951" r="28.0161" fill="#9FEB00"/>
<circle cx="285.677" cy="194.951" r="28.0161" fill="#9FEB00"/>
<circle cx="228.944" cy="236.274" r="28.0161" fill="#9FEB00"/>
<circle cx="272.369" cy="236.274" r="28.0161" fill="#9FEB00"/>
<path d="M223.878 332.682V316.737H230.2C231.278 316.737 232.16 316.954 232.847 317.39C233.541 317.818 234.054 318.368 234.386 319.04C234.726 319.712 234.896 320.406 234.896 321.122C234.896 322 234.685 322.746 234.264 323.359C233.851 323.971 233.286 324.385 232.57 324.599V324.045C233.574 324.274 234.334 324.75 234.851 325.474C235.375 326.197 235.637 327.02 235.637 327.943C235.637 328.888 235.457 329.715 235.095 330.423C234.733 331.132 234.194 331.686 233.478 332.084C232.769 332.483 231.891 332.682 230.843 332.682H223.878ZM226.579 330.169H230.51C230.976 330.169 231.393 330.076 231.762 329.892C232.131 329.7 232.419 329.434 232.625 329.094C232.84 328.748 232.947 328.338 232.947 327.865C232.947 327.437 232.854 327.053 232.67 326.714C232.485 326.374 232.216 326.105 231.861 325.905C231.507 325.699 231.083 325.595 230.588 325.595H226.579V330.169ZM226.579 323.104H230.167C230.551 323.104 230.894 323.03 231.197 322.882C231.5 322.735 231.74 322.517 231.917 322.229C232.094 321.941 232.183 321.587 232.183 321.166C232.183 320.612 232.005 320.151 231.651 319.782C231.297 319.413 230.802 319.228 230.167 319.228H226.579V323.104ZM236.742 332.682L241.769 316.737H245.678L250.705 332.682H247.959L243.397 318.376H243.995L239.488 332.682H236.742ZM239.543 329.227V326.736H247.915V329.227H239.543ZM252.707 332.682V316.737H255.409L262.806 327.976V316.737H265.508V332.682H262.806L255.409 321.443V332.682H252.707ZM268.603 332.682V316.737H271.272V324.134L277.639 316.737H280.917L274.063 324.554L281.382 332.682H277.994L271.272 325.241V332.682H268.603ZM200.977 362.682V349.239H195.817V346.737H208.806V349.239H203.646V362.682H200.977ZM210.577 362.682V346.737H217.165C217.32 346.737 217.52 346.744 217.763 346.759C218.007 346.766 218.232 346.788 218.439 346.825C219.361 346.966 220.122 347.272 220.72 347.744C221.325 348.217 221.772 348.815 222.06 349.538C222.355 350.254 222.503 351.052 222.503 351.93C222.503 353.229 222.174 354.348 221.517 355.285C220.86 356.215 219.852 356.791 218.494 357.013L217.353 357.112H213.245V362.682H210.577ZM219.734 362.682L216.589 356.193L219.302 355.595L222.757 362.682H219.734ZM213.245 354.621H217.054C217.202 354.621 217.368 354.613 217.553 354.599C217.737 354.584 217.907 354.554 218.062 354.51C218.505 354.399 218.852 354.204 219.103 353.923C219.361 353.643 219.542 353.325 219.646 352.971C219.756 352.617 219.812 352.27 219.812 351.93C219.812 351.59 219.756 351.244 219.646 350.889C219.542 350.527 219.361 350.206 219.103 349.926C218.852 349.645 218.505 349.45 218.062 349.339C217.907 349.295 217.737 349.269 217.553 349.261C217.368 349.247 217.202 349.239 217.054 349.239H213.245V354.621ZM224.09 362.682L229.117 346.737H233.026L238.053 362.682H235.307L230.745 348.376H231.343L226.836 362.682H224.09ZM226.891 359.227V356.736H235.263V359.227H226.891ZM240.055 362.682V346.737H242.757L250.154 357.976V346.737H252.856V362.682H250.154L242.757 351.443V362.682H240.055ZM261.853 363.014C260.687 363.014 259.635 362.811 258.697 362.405C257.767 361.999 257 361.42 256.394 360.667C255.796 359.907 255.416 359.006 255.254 357.965L258.022 357.544C258.258 358.489 258.742 359.22 259.473 359.737C260.211 360.254 261.06 360.512 262.019 360.512C262.588 360.512 263.123 360.423 263.625 360.246C264.127 360.069 264.533 359.811 264.843 359.471C265.161 359.131 265.319 358.714 265.319 358.22C265.319 357.998 265.282 357.795 265.209 357.611C265.135 357.419 265.024 357.249 264.876 357.101C264.736 356.954 264.552 356.821 264.323 356.703C264.101 356.577 263.843 356.47 263.548 356.382L259.428 355.163C259.074 355.06 258.69 354.924 258.277 354.754C257.871 354.577 257.483 354.337 257.114 354.034C256.752 353.724 256.453 353.333 256.217 352.86C255.988 352.38 255.874 351.79 255.874 351.088C255.874 350.062 256.132 349.202 256.649 348.508C257.173 347.807 257.874 347.283 258.753 346.936C259.639 346.589 260.621 346.419 261.698 346.427C262.791 346.434 263.765 346.622 264.622 346.991C265.478 347.353 266.194 347.881 266.77 348.575C267.346 349.269 267.752 350.107 267.988 351.088L265.12 351.587C265.002 351.026 264.773 350.55 264.433 350.158C264.101 349.76 263.692 349.457 263.204 349.25C262.724 349.044 262.211 348.933 261.665 348.918C261.134 348.911 260.639 348.992 260.181 349.162C259.731 349.324 259.366 349.56 259.085 349.87C258.812 350.18 258.675 350.542 258.675 350.956C258.675 351.347 258.793 351.668 259.03 351.919C259.266 352.163 259.557 352.358 259.904 352.506C260.259 352.646 260.617 352.764 260.979 352.86L263.835 353.657C264.227 353.761 264.666 353.901 265.153 354.078C265.64 354.255 266.109 354.503 266.56 354.82C267.01 355.138 267.379 355.555 267.667 356.071C267.962 356.588 268.11 357.245 268.11 358.043C268.11 358.869 267.936 359.596 267.589 360.224C267.25 360.844 266.788 361.361 266.205 361.774C265.622 362.188 264.954 362.498 264.201 362.704C263.455 362.911 262.673 363.014 261.853 363.014ZM270.507 362.682V346.737H280.107V349.405H273.175V353.381H278.778V356.038H273.175V362.682H270.507ZM282.099 362.682V346.737H292.397V349.239H284.768V353.17H291.068V355.673H284.768V360.18H292.397V362.682H282.099ZM295.054 362.682V346.737H301.643C301.798 346.737 301.997 346.744 302.241 346.759C302.484 346.766 302.709 346.788 302.916 346.825C303.839 346.966 304.599 347.272 305.197 347.744C305.802 348.217 306.249 348.815 306.537 349.538C306.832 350.254 306.98 351.052 306.98 351.93C306.98 353.229 306.651 354.348 305.994 355.285C305.337 356.215 304.33 356.791 302.971 357.013L301.831 357.112H297.723V362.682H295.054ZM304.212 362.682L301.067 356.193L303.78 355.595L307.235 362.682H304.212ZM297.723 354.621H301.532C301.679 354.621 301.846 354.613 302.03 354.599C302.215 354.584 302.384 354.554 302.54 354.51C302.982 354.399 303.329 354.204 303.58 353.923C303.839 353.643 304.02 353.325 304.123 352.971C304.234 352.617 304.289 352.27 304.289 351.93C304.289 351.59 304.234 351.244 304.123 350.889C304.02 350.527 303.839 350.206 303.58 349.926C303.329 349.645 302.982 349.45 302.54 349.339C302.384 349.295 302.215 349.269 302.03 349.261C301.846 349.247 301.679 349.239 301.532 349.239H297.723V354.621Z" fill="black"/>
</svg>
