<svg width="501" height="501" viewBox="0 0 501 501" fill="none" xmlns="http://www.w3.org/2000/svg">
<circle cx="250.5" cy="236.411" r="63.3865" fill="#FFEB3B"/>
<path d="M258.314 201.472C265.807 193.968 277.955 193.968 285.448 201.472C292.941 208.976 292.941 221.143 285.448 228.647L277.633 236.472L285.325 244.175C292.818 251.679 292.818 263.846 285.325 271.35C277.832 278.854 265.684 278.854 258.191 271.35L250.5 263.647L242.808 271.35C235.315 278.854 223.167 278.854 215.674 271.35C208.182 263.846 208.182 251.679 215.674 244.175L223.366 236.472L215.552 228.647C208.06 221.143 208.06 208.976 215.552 201.472C223.045 193.968 235.193 193.968 242.686 201.472L250.5 209.297L258.314 201.472Z" fill="#FF4F04"/>
<rect x="228.986" y="236.411" width="30.4255" height="30.4255" rx="4.05674" transform="rotate(-45 228.986 236.411)" fill="#2C2A29"/>
<path d="M213.076 366.507C211.909 366.507 210.858 366.304 209.92 365.898C208.99 365.492 208.222 364.913 207.617 364.16C207.019 363.4 206.639 362.499 206.476 361.458L209.245 361.037C209.481 361.982 209.964 362.713 210.695 363.23C211.433 363.747 212.282 364.005 213.242 364.005C213.81 364.005 214.346 363.916 214.848 363.739C215.35 363.562 215.756 363.304 216.066 362.964C216.383 362.624 216.542 362.207 216.542 361.713C216.542 361.491 216.505 361.288 216.431 361.104C216.357 360.912 216.247 360.742 216.099 360.594C215.959 360.447 215.774 360.314 215.545 360.196C215.324 360.07 215.065 359.963 214.77 359.875L210.651 358.657C210.296 358.553 209.913 358.417 209.499 358.247C209.093 358.07 208.706 357.83 208.336 357.527C207.975 357.217 207.676 356.826 207.44 356.353C207.211 355.873 207.096 355.283 207.096 354.582C207.096 353.555 207.355 352.695 207.871 352.001C208.396 351.3 209.097 350.776 209.975 350.429C210.861 350.082 211.843 349.912 212.921 349.92C214.013 349.927 214.988 350.115 215.844 350.484C216.701 350.846 217.417 351.374 217.992 352.068C218.568 352.762 218.974 353.6 219.211 354.582L216.343 355.08C216.224 354.519 215.996 354.043 215.656 353.651C215.324 353.253 214.914 352.95 214.427 352.743C213.947 352.537 213.434 352.426 212.888 352.411C212.356 352.404 211.862 352.485 211.404 352.655C210.953 352.817 210.588 353.053 210.308 353.363C210.034 353.674 209.898 354.035 209.898 354.449C209.898 354.84 210.016 355.161 210.252 355.412C210.488 355.656 210.78 355.851 211.127 355.999C211.481 356.139 211.839 356.257 212.201 356.353L215.058 357.151C215.449 357.254 215.889 357.394 216.376 357.571C216.863 357.748 217.332 357.996 217.782 358.313C218.232 358.631 218.601 359.048 218.889 359.565C219.185 360.081 219.332 360.738 219.332 361.536C219.332 362.362 219.159 363.09 218.812 363.717C218.472 364.337 218.011 364.854 217.428 365.267C216.845 365.681 216.176 365.991 215.423 366.197C214.678 366.404 213.895 366.507 213.076 366.507ZM221.729 366.175V350.23H224.398V356.94H231.95V350.23H234.607V366.175H231.95V359.443H224.398V366.175H221.729ZM236.605 366.175L241.632 350.23H245.541L250.568 366.175H247.822L243.26 351.869H243.858L239.351 366.175H236.605ZM239.406 362.72V360.229H247.778V362.72H239.406ZM252.57 366.175V350.23H259.159C259.314 350.23 259.513 350.237 259.757 350.252C260 350.259 260.225 350.281 260.432 350.318C261.355 350.459 262.115 350.765 262.713 351.237C263.319 351.71 263.765 352.308 264.053 353.031C264.348 353.747 264.496 354.545 264.496 355.423C264.496 356.722 264.168 357.841 263.511 358.778C262.854 359.708 261.846 360.284 260.488 360.506L259.347 360.605H255.239V366.175H252.57ZM261.728 366.175L258.583 359.686L261.296 359.088L264.751 366.175H261.728ZM255.239 358.114H259.048C259.196 358.114 259.362 358.107 259.546 358.092C259.731 358.077 259.901 358.047 260.056 358.003C260.499 357.892 260.846 357.697 261.097 357.416C261.355 357.136 261.536 356.818 261.639 356.464C261.75 356.11 261.805 355.763 261.805 355.423C261.805 355.084 261.75 354.737 261.639 354.382C261.536 354.02 261.355 353.699 261.097 353.419C260.846 353.138 260.499 352.943 260.056 352.832C259.901 352.788 259.731 352.762 259.546 352.754C259.362 352.74 259.196 352.732 259.048 352.732H255.239V358.114ZM267.19 366.175V350.23H277.489V352.732H269.859V356.663H276.16V359.166H269.859V363.673H277.489V366.175H267.19ZM280.145 366.175V350.23H285.228C285.361 350.23 285.623 350.233 286.014 350.241C286.413 350.248 286.797 350.274 287.166 350.318C288.428 350.481 289.495 350.931 290.366 351.669C291.244 352.4 291.909 353.334 292.359 354.471C292.809 355.608 293.035 356.852 293.035 358.202C293.035 359.553 292.809 360.797 292.359 361.934C291.909 363.071 291.244 364.009 290.366 364.747C289.495 365.478 288.428 365.924 287.166 366.087C286.804 366.131 286.424 366.157 286.025 366.164C285.627 366.172 285.361 366.175 285.228 366.175H280.145ZM282.858 363.662H285.228C285.449 363.662 285.73 363.654 286.07 363.64C286.416 363.625 286.723 363.592 286.989 363.54C287.742 363.4 288.354 363.064 288.827 362.532C289.299 362.001 289.646 361.355 289.868 360.594C290.097 359.834 290.211 359.037 290.211 358.202C290.211 357.339 290.097 356.527 289.868 355.766C289.639 355.006 289.284 354.367 288.805 353.851C288.332 353.334 287.727 353.005 286.989 352.865C286.723 352.806 286.416 352.773 286.07 352.765C285.73 352.751 285.449 352.743 285.228 352.743H282.858V363.662ZM198.98 396.175V382.732H193.82V380.23H206.809V382.732H201.649V396.175H198.98ZM208.58 396.175V380.23H215.168C215.323 380.23 215.523 380.237 215.766 380.252C216.01 380.259 216.235 380.281 216.442 380.318C217.364 380.459 218.125 380.765 218.723 381.237C219.328 381.71 219.775 382.308 220.063 383.031C220.358 383.747 220.506 384.545 220.506 385.423C220.506 386.722 220.177 387.841 219.52 388.778C218.863 389.708 217.855 390.284 216.497 390.506L215.356 390.605H211.248V396.175H208.58ZM217.737 396.175L214.592 389.686L217.305 389.088L220.76 396.175H217.737ZM211.248 388.114H215.057C215.205 388.114 215.371 388.107 215.556 388.092C215.74 388.077 215.91 388.047 216.065 388.003C216.508 387.892 216.855 387.697 217.106 387.416C217.364 387.136 217.545 386.818 217.649 386.464C217.759 386.11 217.815 385.763 217.815 385.423C217.815 385.084 217.759 384.737 217.649 384.382C217.545 384.02 217.364 383.699 217.106 383.419C216.855 383.138 216.508 382.943 216.065 382.832C215.91 382.788 215.74 382.762 215.556 382.754C215.371 382.74 215.205 382.732 215.057 382.732H211.248V388.114ZM222.093 396.175L227.12 380.23H231.029L236.056 396.175H233.31L228.748 381.869H229.346L224.839 396.175H222.093ZM224.894 392.72V390.229H233.265V392.72H224.894ZM238.058 396.175V380.23H240.76L248.157 391.469V380.23H250.859V396.175H248.157L240.76 384.936V396.175H238.058ZM259.856 396.507C258.69 396.507 257.638 396.304 256.7 395.898C255.77 395.492 255.003 394.913 254.397 394.16C253.799 393.4 253.419 392.499 253.257 391.458L256.025 391.037C256.261 391.982 256.745 392.713 257.476 393.23C258.214 393.747 259.063 394.005 260.022 394.005C260.591 394.005 261.126 393.916 261.628 393.739C262.13 393.562 262.536 393.304 262.846 392.964C263.164 392.624 263.322 392.207 263.322 391.713C263.322 391.491 263.285 391.288 263.212 391.104C263.138 390.912 263.027 390.742 262.879 390.594C262.739 390.447 262.555 390.314 262.326 390.196C262.104 390.07 261.846 389.963 261.551 389.875L257.431 388.657C257.077 388.553 256.693 388.417 256.28 388.247C255.874 388.07 255.486 387.83 255.117 387.527C254.755 387.217 254.456 386.826 254.22 386.353C253.991 385.873 253.877 385.283 253.877 384.582C253.877 383.555 254.135 382.695 254.652 382.001C255.176 381.3 255.877 380.776 256.756 380.429C257.642 380.082 258.624 379.912 259.701 379.92C260.794 379.927 261.768 380.115 262.625 380.484C263.481 380.846 264.197 381.374 264.773 382.068C265.349 382.762 265.755 383.6 265.991 384.582L263.123 385.08C263.005 384.519 262.776 384.043 262.436 383.651C262.104 383.253 261.695 382.95 261.207 382.743C260.727 382.537 260.214 382.426 259.668 382.411C259.137 382.404 258.642 382.485 258.184 382.655C257.734 382.817 257.369 383.053 257.088 383.363C256.815 383.674 256.678 384.035 256.678 384.449C256.678 384.84 256.796 385.161 257.033 385.412C257.269 385.656 257.56 385.851 257.907 385.999C258.262 386.139 258.62 386.257 258.982 386.353L261.838 387.151C262.23 387.254 262.669 387.394 263.156 387.571C263.643 387.748 264.112 387.996 264.563 388.313C265.013 388.631 265.382 389.048 265.67 389.565C265.965 390.081 266.113 390.738 266.113 391.536C266.113 392.362 265.939 393.09 265.592 393.717C265.253 394.337 264.791 394.854 264.208 395.267C263.625 395.681 262.957 395.991 262.204 396.197C261.458 396.404 260.676 396.507 259.856 396.507ZM268.51 396.175V380.23H278.11V382.898H271.178V386.874H276.781V389.531H271.178V396.175H268.51ZM280.102 396.175V380.23H290.4V382.732H282.771V386.663H289.071V389.166H282.771V393.673H290.4V396.175H280.102ZM293.057 396.175V380.23H299.646C299.801 380.23 300 380.237 300.244 380.252C300.487 380.259 300.712 380.281 300.919 380.318C301.842 380.459 302.602 380.765 303.2 381.237C303.805 381.71 304.252 382.308 304.54 383.031C304.835 383.747 304.983 384.545 304.983 385.423C304.983 386.722 304.654 387.841 303.997 388.778C303.34 389.708 302.333 390.284 300.974 390.506L299.834 390.605H295.726V396.175H293.057ZM302.215 396.175L299.07 389.686L301.783 389.088L305.238 396.175H302.215ZM295.726 388.114H299.535C299.682 388.114 299.849 388.107 300.033 388.092C300.218 388.077 300.387 388.047 300.543 388.003C300.985 387.892 301.332 387.697 301.583 387.416C301.842 387.136 302.023 386.818 302.126 386.464C302.237 386.11 302.292 385.763 302.292 385.423C302.292 385.084 302.237 384.737 302.126 384.382C302.023 384.02 301.842 383.699 301.583 383.419C301.332 383.138 300.985 382.943 300.543 382.832C300.387 382.788 300.218 382.762 300.033 382.754C299.849 382.74 299.682 382.732 299.535 382.732H295.726V388.114Z" fill="black"/>
</svg>
