<svg width="143" height="294" viewBox="0 0 143 294" fill="none" xmlns="http://www.w3.org/2000/svg">
<path d="M86.7131 121.162L107.287 100.588L128.802 122.102L108.011 142.893H134.887V173.319H108.444L128.941 193.816L107.426 215.329L86.7131 194.616V221.492H56.2873V194.615L35.5735 215.329L14.0598 193.816L34.5569 173.319H8.11349V142.893H34.9895L14.1985 122.102L35.7131 100.588L56.2873 121.162V94.719H86.7131V121.162ZM74.6213 136.126C73.0372 134.542 70.4683 134.542 68.884 136.126L49.5207 155.49C47.9368 157.074 47.9366 159.643 49.5207 161.227L68.884 180.589C70.4683 182.173 73.0371 182.173 74.6213 180.589L93.9836 161.227C95.5678 159.643 95.5678 157.074 93.9836 155.49L74.6213 136.126Z" fill="#078AFF"/>
<path d="M50.4653 286.863V270.917H57.054C57.209 270.917 57.4083 270.925 57.6519 270.939C57.8955 270.947 58.1207 270.969 58.3274 271.006C59.2502 271.146 60.0105 271.452 60.6085 271.925C61.2138 272.397 61.6605 272.995 61.9484 273.719C62.2437 274.435 62.3913 275.232 62.3913 276.111C62.3913 276.982 62.2437 277.779 61.9484 278.502C61.6531 279.219 61.2028 279.813 60.5974 280.285C59.9995 280.758 59.2428 281.064 58.3274 281.204C58.1207 281.234 57.8918 281.256 57.6408 281.271C57.3972 281.286 57.2016 281.293 57.054 281.293H53.134V286.863H50.4653ZM53.134 278.801H56.9432C57.0909 278.801 57.257 278.794 57.4415 278.779C57.6261 278.765 57.7959 278.735 57.9509 278.691C58.3938 278.58 58.7408 278.384 58.9918 278.104C59.2502 277.823 59.431 277.506 59.5344 277.151C59.6451 276.797 59.7005 276.45 59.7005 276.111C59.7005 275.771 59.6451 275.424 59.5344 275.07C59.431 274.708 59.2502 274.387 58.9918 274.106C58.7408 273.826 58.3938 273.63 57.9509 273.519C57.7959 273.475 57.6261 273.449 57.4415 273.442C57.257 273.427 57.0909 273.42 56.9432 273.42H53.134V278.801ZM64.1668 286.841V284.515L70.988 278.436C71.5195 277.964 71.8886 277.517 72.0953 277.096C72.302 276.675 72.4054 276.269 72.4054 275.878C72.4054 275.347 72.291 274.874 72.0621 274.461C71.8333 274.04 71.5158 273.708 71.1098 273.464C70.7112 273.22 70.2498 273.099 69.7257 273.099C69.172 273.099 68.6811 273.228 68.2529 273.486C67.8321 273.737 67.5036 274.073 67.2674 274.494C67.0311 274.915 66.9204 275.369 66.9352 275.856H64.189C64.189 274.793 64.4252 273.866 64.8977 273.077C65.3775 272.287 66.0345 271.674 66.8687 271.238C67.7103 270.803 68.6811 270.585 69.781 270.585C70.7998 270.585 71.7152 270.814 72.5272 271.272C73.3392 271.722 73.9778 272.349 74.4429 273.154C74.908 273.951 75.1405 274.87 75.1405 275.911C75.1405 276.672 75.0372 277.31 74.8305 277.827C74.6238 278.344 74.3137 278.82 73.9003 279.255C73.4943 279.691 72.9886 280.175 72.3833 280.706L67.5442 284.991L67.3006 284.327H75.1405V286.841H64.1668ZM77.8026 286.863V270.917H84.3912C84.5463 270.917 84.7456 270.925 84.9892 270.939C85.2328 270.947 85.458 270.969 85.6647 271.006C86.5874 271.146 87.3478 271.452 87.9458 271.925C88.5511 272.397 88.9977 272.995 89.2856 273.719C89.5809 274.435 89.7286 275.232 89.7286 276.111C89.7286 276.982 89.5809 277.779 89.2856 278.502C88.9904 279.219 88.54 279.813 87.9347 280.285C87.3367 280.758 86.5801 281.064 85.6647 281.204C85.458 281.234 85.2291 281.256 84.9781 281.271C84.7345 281.286 84.5389 281.293 84.3912 281.293H80.4713V286.863H77.8026ZM80.4713 278.801H84.2805C84.4281 278.801 84.5942 278.794 84.7788 278.779C84.9634 278.765 85.1331 278.735 85.2882 278.691C85.7311 278.58 86.0781 278.384 86.3291 278.104C86.5874 277.823 86.7683 277.506 86.8717 277.151C86.9824 276.797 87.0378 276.45 87.0378 276.111C87.0378 275.771 86.9824 275.424 86.8717 275.07C86.7683 274.708 86.5874 274.387 86.3291 274.106C86.0781 273.826 85.7311 273.63 85.2882 273.519C85.1331 273.475 84.9634 273.449 84.7788 273.442C84.5942 273.427 84.4281 273.42 84.2805 273.42H80.4713V278.801Z" fill="black"/>
<rect x="14.0986" width="115.474" height="32.2254" rx="16.1127" fill="#9FEB00" fill-opacity="0.43"/>
<path d="M38.7671 23V11.2163C38.7671 10.9227 38.7778 10.6004 38.7993 10.2495C38.8208 9.89144 38.8817 9.53696 38.9819 9.18607C39.0822 8.83517 39.2648 8.5165 39.5298 8.23005C39.8592 7.86483 40.2136 7.61418 40.5932 7.47812C40.9799 7.3349 41.3594 7.25613 41.7318 7.2418C42.1042 7.22032 42.43 7.20958 42.7093 7.20958H44.1595V9.31497H42.8167C42.3226 9.31497 41.9538 9.44029 41.7103 9.69093C41.474 9.93441 41.3559 10.2567 41.3559 10.6577V23H38.7671ZM36.898 13.4291V11.3989H44.1595V13.4291H36.898ZM48.806 23.3223C47.9681 23.3223 47.2591 23.1647 46.6791 22.8496C46.099 22.5274 45.6586 22.1013 45.3578 21.5713C45.0642 21.0414 44.9174 20.4578 44.9174 19.8204C44.9174 19.2619 45.0105 18.7606 45.1967 18.3166C45.3829 17.8654 45.6694 17.4787 46.0561 17.1565C46.4428 16.8271 46.944 16.5585 47.5599 16.3508C48.0254 16.2005 48.5696 16.0644 49.1927 15.9426C49.8228 15.8209 50.5032 15.7099 51.2336 15.6097C51.9712 15.5022 52.741 15.3877 53.5431 15.2659L52.6193 15.7923C52.6264 14.9902 52.4474 14.3994 52.0822 14.0199C51.717 13.6403 51.1011 13.4506 50.2346 13.4506C49.7118 13.4506 49.207 13.5723 48.72 13.8158C48.2331 14.0593 47.8929 14.4782 47.6996 15.0726L45.3364 14.3314C45.6228 13.3503 46.1671 12.5626 46.9691 11.9682C47.7783 11.3738 48.8668 11.0766 50.2346 11.0766C51.2658 11.0766 52.1717 11.2449 52.9523 11.5815C53.74 11.9181 54.3237 12.4695 54.7032 13.2357C54.9109 13.6439 55.0362 14.0628 55.0792 14.4925C55.1221 14.915 55.1436 15.3769 55.1436 15.8782V23H52.8771V20.4864L53.2531 20.8946C52.7303 21.7325 52.118 22.3483 51.4162 22.7422C50.7216 23.1289 49.8515 23.3223 48.806 23.3223ZM49.3216 21.2598C49.9088 21.2598 50.4101 21.156 50.8254 20.9483C51.2408 20.7406 51.5702 20.4864 51.8137 20.1857C52.0643 19.8849 52.2326 19.602 52.3185 19.3371C52.4546 19.0076 52.5298 18.6317 52.5441 18.2092C52.5656 17.7795 52.5763 17.4322 52.5763 17.1672L53.3712 17.4035C52.5906 17.5253 51.9211 17.6327 51.3625 17.7258C50.8039 17.8189 50.3241 17.9084 49.9231 17.9943C49.5221 18.0731 49.1676 18.1626 48.8597 18.2629C48.5589 18.3703 48.3047 18.4956 48.097 18.6388C47.8893 18.7821 47.7282 18.9468 47.6136 19.133C47.5062 19.3191 47.4525 19.5376 47.4525 19.7882C47.4525 20.0747 47.5241 20.3289 47.6673 20.5509C47.8105 20.7657 48.0182 20.9376 48.2903 21.0665C48.5696 21.1954 48.9134 21.2598 49.3216 21.2598ZM62.4195 23.3223C60.9872 23.3223 59.8236 23 58.9284 22.3555C58.0333 21.711 57.489 20.8051 57.2957 19.6378L59.9381 19.2296C60.0742 19.8025 60.375 20.2537 60.8404 20.5831C61.3059 20.9125 61.8931 21.0772 62.6021 21.0772C63.2251 21.0772 63.7049 20.9555 64.0415 20.712C64.3852 20.4614 64.5571 20.1212 64.5571 19.6915C64.5571 19.4266 64.4927 19.2153 64.3637 19.0578C64.242 18.8931 63.9699 18.7355 63.5474 18.5851C63.1249 18.4347 62.4768 18.245 61.6031 18.0158C60.6292 17.758 59.8558 17.4823 59.2829 17.1887C58.71 16.8879 58.2982 16.5334 58.0476 16.1253C57.7969 15.7171 57.6716 15.2229 57.6716 14.6429C57.6716 13.9196 57.8614 13.2894 58.2409 12.7523C58.6205 12.2152 59.1504 11.8035 59.8307 11.517C60.511 11.2234 61.3131 11.0766 62.2369 11.0766C63.1392 11.0766 63.9377 11.2163 64.6323 11.4955C65.3341 11.7748 65.8998 12.1723 66.3295 12.6879C66.7592 13.2035 67.0241 13.8086 67.1244 14.5032L64.4819 14.9759C64.4175 14.4818 64.1919 14.0915 63.8052 13.805C63.4256 13.5186 62.9172 13.3575 62.2798 13.3217C61.6711 13.2858 61.1806 13.3789 60.8082 13.6009C60.4358 13.8158 60.2496 14.1201 60.2496 14.514C60.2496 14.736 60.3248 14.9258 60.4752 15.0833C60.6256 15.2409 60.9264 15.3984 61.3775 15.5559C61.8359 15.7135 62.5162 15.9068 63.4185 16.136C64.3423 16.3723 65.0799 16.6444 65.6313 16.9524C66.1899 17.2531 66.5909 17.6148 66.8344 18.0373C67.085 18.4598 67.2103 18.9718 67.2103 19.5734C67.2103 20.7406 66.7842 21.6573 65.9321 22.3233C65.087 22.9893 63.9162 23.3223 62.4195 23.3223ZM76.3627 23C75.5964 23.1432 74.8445 23.2041 74.1069 23.1826C73.3764 23.1683 72.7212 23.0358 72.1411 22.7852C71.5611 22.5274 71.1207 22.1228 70.8199 21.5713C70.5549 21.0701 70.4153 20.558 70.401 20.0353C70.3866 19.5125 70.3795 18.9217 70.3795 18.2629V8.17634H72.9575V18.1125C72.9575 18.578 72.9611 18.9862 72.9683 19.3371C72.9826 19.6879 73.0578 19.9744 73.1938 20.1964C73.4516 20.6261 73.8634 20.866 74.4291 20.9161C74.9949 20.9662 75.6394 20.9376 76.3627 20.8302V23ZM68.2741 13.4291V11.3989H76.3627V13.4291H68.2741ZM83.544 23.3223C82.3696 23.3223 81.3384 23.068 80.4504 22.5596C79.5624 22.0511 78.8678 21.3458 78.3665 20.4435C77.8724 19.5411 77.6253 18.5028 77.6253 17.3283C77.6253 16.0608 77.8688 14.9616 78.3558 14.0306C78.8427 13.0925 79.5195 12.3656 80.386 11.85C81.2525 11.3344 82.255 11.0766 83.3937 11.0766C84.5967 11.0766 85.6172 11.3595 86.4551 11.9252C87.3001 12.4838 87.9267 13.2751 88.3349 14.2992C88.7431 15.3232 88.897 16.5299 88.7968 17.9191H86.2295V16.9739C86.2223 15.7135 86.0003 14.7933 85.5635 14.2132C85.1267 13.6332 84.4392 13.3431 83.5011 13.3431C82.4412 13.3431 81.6535 13.6726 81.1379 14.3314C80.6223 14.983 80.3645 15.9391 80.3645 17.1994C80.3645 18.3739 80.6223 19.2833 81.1379 19.9278C81.6535 20.5724 82.4054 20.8946 83.3937 20.8946C84.031 20.8946 84.5788 20.755 85.0371 20.4757C85.5026 20.1892 85.8607 19.7775 86.1113 19.2404L88.6679 20.0138C88.2239 21.0593 87.5364 21.8721 86.6055 22.4522C85.6817 23.0322 84.6612 23.3223 83.544 23.3223ZM79.5481 17.9191V15.9641H87.5292V17.9191H79.5481ZM95.6729 23.3223C94.2406 23.3223 93.0769 23 92.1818 22.3555C91.2866 21.711 90.7424 20.8051 90.549 19.6378L93.1915 19.2296C93.3276 19.8025 93.6283 20.2537 94.0938 20.5831C94.5593 20.9125 95.1465 21.0772 95.8555 21.0772C96.4785 21.0772 96.9583 20.9555 97.2949 20.712C97.6386 20.4614 97.8105 20.1212 97.8105 19.6915C97.8105 19.4266 97.746 19.2153 97.6171 19.0578C97.4954 18.8931 97.2233 18.7355 96.8007 18.5851C96.3782 18.4347 95.7301 18.245 94.8565 18.0158C93.8826 17.758 93.1091 17.4823 92.5363 17.1887C91.9634 16.8879 91.5516 16.5334 91.3009 16.1253C91.0503 15.7171 90.925 15.2229 90.925 14.6429C90.925 13.9196 91.1148 13.2894 91.4943 12.7523C91.8738 12.2152 92.4038 11.8035 93.0841 11.517C93.7644 11.2234 94.5665 11.0766 95.4902 11.0766C96.3926 11.0766 97.191 11.2163 97.8857 11.4955C98.5875 11.7748 99.1532 12.1723 99.5829 12.6879C100.013 13.2035 100.278 13.8086 100.378 14.5032L97.7353 14.9759C97.6708 14.4818 97.4452 14.0915 97.0585 13.805C96.679 13.5186 96.1706 13.3575 95.5332 13.3217C94.9245 13.2858 94.434 13.3789 94.0616 13.6009C93.6892 13.8158 93.503 14.1201 93.503 14.514C93.503 14.736 93.5782 14.9258 93.7286 15.0833C93.879 15.2409 94.1797 15.3984 94.6309 15.5559C95.0892 15.7135 95.7695 15.9068 96.6718 16.136C97.5956 16.3723 98.3332 16.6444 98.8846 16.9524C99.4432 17.2531 99.8442 17.6148 100.088 18.0373C100.338 18.4598 100.464 18.9718 100.464 19.5734C100.464 20.7406 100.038 21.6573 99.1854 22.3233C98.3404 22.9893 97.1695 23.3223 95.6729 23.3223ZM109.616 23C108.85 23.1432 108.098 23.2041 107.36 23.1826C106.63 23.1683 105.975 23.0358 105.395 22.7852C104.814 22.5274 104.374 22.1228 104.073 21.5713C103.808 21.0701 103.669 20.558 103.654 20.0353C103.64 19.5125 103.633 18.9217 103.633 18.2629V8.17634H106.211V18.1125C106.211 18.578 106.214 18.9862 106.222 19.3371C106.236 19.6879 106.311 19.9744 106.447 20.1964C106.705 20.6261 107.117 20.866 107.683 20.9161C108.248 20.9662 108.893 20.9376 109.616 20.8302V23ZM101.527 13.4291V11.3989H109.616V13.4291H101.527Z" fill="black"/>
</svg>
