<svg width="359" height="366" viewBox="0 0 359 366" fill="none" xmlns="http://www.w3.org/2000/svg">
<rect width="359" height="366" rx="20" fill="#D9D9D9"/>
<g clip-path="url(#clip0_1650_3498)">
<rect x="20" y="29" width="319.781" height="120.339" rx="16.8306" fill="white"/>
<path d="M36.6959 89.6504V82.3796H37.6502L40.2859 87.8478L42.9064 82.3796H43.8708V89.6453H42.871V84.6719L40.5232 89.6504H40.0435L37.6906 84.6719V89.6504H36.6959ZM47.0375 89.6504V86.6461L44.5785 82.3796H45.8105L47.5727 85.4343L49.3349 82.3796H50.5669L48.1079 86.6461V89.6504H47.0375ZM51.2715 89.6504V82.3796H54.2101C54.2808 82.3796 54.3683 82.3829 54.4726 82.3897C54.577 82.393 54.6763 82.4031 54.7705 82.42C55.1745 82.4839 55.5111 82.6219 55.7804 82.834C56.053 83.0461 56.2567 83.3137 56.3913 83.6368C56.526 83.96 56.5933 84.3168 56.5933 84.7072C56.5933 85.1011 56.526 85.4596 56.3913 85.7827C56.2567 86.1059 56.053 86.3735 55.7804 86.5855C55.5111 86.7976 55.1745 86.9356 54.7705 86.9996C54.6763 87.013 54.5753 87.0231 54.4676 87.0299C54.3632 87.0366 54.2774 87.04 54.2101 87.04H52.3267V89.6504H51.2715ZM52.3267 86.0402H54.1697C54.237 86.0402 54.3111 86.0369 54.3919 86.0301C54.476 86.0234 54.5551 86.0116 54.6292 85.9948C54.8446 85.9443 55.018 85.8517 55.1492 85.7171C55.2805 85.5791 55.3748 85.4209 55.432 85.2425C55.4892 85.0641 55.5178 84.8856 55.5178 84.7072C55.5178 84.5288 55.4892 84.3521 55.432 84.1771C55.3748 83.9987 55.2805 83.8421 55.1492 83.7075C55.018 83.5695 54.8446 83.4752 54.6292 83.4248C54.5551 83.4046 54.476 83.3911 54.3919 83.3844C54.3111 83.3776 54.237 83.3743 54.1697 83.3743H52.3267V86.0402ZM60.5009 89.8019C59.932 89.8019 59.4288 89.6857 58.9912 89.4535C58.557 89.2178 58.217 88.8896 57.9713 88.4689C57.7255 88.0448 57.6027 87.5466 57.6027 86.9743V82.3846L58.6731 82.3796V86.9188C58.6731 87.2285 58.7253 87.5011 58.8296 87.7368C58.934 87.9724 59.0737 88.1693 59.2487 88.3275C59.4237 88.4857 59.619 88.6052 59.8344 88.686C60.0532 88.7668 60.2754 88.8072 60.5009 88.8072C60.7298 88.8072 60.952 88.7668 61.1674 88.686C61.3862 88.6018 61.5831 88.4807 61.7581 88.3225C61.9332 88.1642 62.0712 87.9673 62.1722 87.7317C62.2765 87.4961 62.3287 87.2251 62.3287 86.9188V82.3796H63.3991V86.9743C63.3991 87.5432 63.2763 88.0397 63.0305 88.4638C62.7848 88.888 62.4431 89.2178 62.0055 89.4535C61.5713 89.6857 61.0698 89.8019 60.5009 89.8019ZM64.8116 89.6504V82.3796H67.7502C67.8209 82.3796 67.9084 82.3829 68.0127 82.3897C68.1171 82.393 68.2164 82.4031 68.3106 82.42C68.7146 82.4839 69.0512 82.6219 69.3205 82.834C69.5931 83.0461 69.7968 83.3137 69.9314 83.6368C70.0661 83.96 70.1334 84.3168 70.1334 84.7072C70.1334 85.2862 69.9853 85.7861 69.6891 86.2068C69.3928 86.6242 68.9485 86.8851 68.3561 86.9895L67.9269 87.04H65.8668V89.6504H64.8116ZM69.063 89.6504L67.629 86.6916L68.6944 86.4189L70.2697 89.6504H69.063ZM65.8668 86.0402H67.7098C67.7771 86.0402 67.8512 86.0369 67.9319 86.0301C68.0161 86.0234 68.0952 86.0116 68.1693 85.9948C68.3847 85.9443 68.558 85.8517 68.6893 85.7171C68.8206 85.5791 68.9149 85.4209 68.9721 85.2425C69.0293 85.0641 69.0579 84.8856 69.0579 84.7072C69.0579 84.5288 69.0293 84.3521 68.9721 84.1771C68.9149 83.9987 68.8206 83.8421 68.6893 83.7075C68.558 83.5695 68.3847 83.4752 68.1693 83.4248C68.0952 83.4046 68.0161 83.3911 67.9319 83.3844C67.8512 83.3776 67.7771 83.3743 67.7098 83.3743H65.8668V86.0402ZM74.0151 89.8019C73.4934 89.8019 73.0221 89.7127 72.6013 89.5343C72.1839 89.3525 71.8389 89.095 71.5663 88.7617C71.297 88.4251 71.1219 88.0262 71.0411 87.5651L72.1419 87.3985C72.2529 87.8428 72.4852 88.1895 72.8386 88.4386C73.1921 88.6843 73.6044 88.8072 74.0757 88.8072C74.3685 88.8072 74.6378 88.7617 74.8836 88.6708C75.1293 88.5766 75.3262 88.4436 75.4743 88.272C75.6258 88.0969 75.7015 87.8882 75.7015 87.6459C75.7015 87.5146 75.678 87.3985 75.6308 87.2975C75.5871 87.1965 75.5248 87.109 75.444 87.0349C75.3666 86.9575 75.2707 86.8919 75.1562 86.838C75.0451 86.7808 74.9223 86.732 74.7876 86.6916L72.9245 86.1412C72.7427 86.0874 72.5576 86.0183 72.3691 85.9342C72.1806 85.8467 72.0072 85.7339 71.849 85.5959C71.6942 85.4545 71.5679 85.2812 71.4703 85.0758C71.3727 84.8671 71.3239 84.6147 71.3239 84.3185C71.3239 83.8708 71.4383 83.4921 71.6672 83.1824C71.8995 82.8693 72.2125 82.6337 72.6064 82.4755C73.0002 82.3139 73.4412 82.2331 73.9293 82.2331C74.4207 82.2399 74.86 82.3274 75.2471 82.4957C75.6376 82.664 75.9607 82.9064 76.2165 83.2228C76.4757 83.5358 76.6541 83.9162 76.7518 84.3639L75.6207 84.5558C75.5703 84.2831 75.4625 84.0492 75.2976 83.8539C75.1327 83.6553 74.9307 83.5039 74.6917 83.3995C74.4527 83.2918 74.1935 83.2362 73.9141 83.2329C73.6448 83.2261 73.3974 83.2665 73.1719 83.3541C72.9497 83.4416 72.7713 83.5644 72.6367 83.7227C72.5054 83.8809 72.4398 84.0626 72.4398 84.268C72.4398 84.4699 72.4987 84.6332 72.6165 84.7577C72.7343 84.8823 72.879 84.9816 73.0507 85.0556C73.2257 85.1263 73.3991 85.1852 73.5708 85.2324L74.9139 85.611C75.0822 85.6582 75.2724 85.7221 75.4844 85.8029C75.6998 85.8803 75.9069 85.9897 76.1055 86.1311C76.3074 86.2725 76.4741 86.461 76.6053 86.6966C76.7366 86.9289 76.8023 87.2217 76.8023 87.5752C76.8023 87.9421 76.7282 88.2652 76.5801 88.5446C76.432 88.8206 76.2283 89.0529 75.9691 89.2414C75.7133 89.4265 75.4171 89.5662 75.0805 89.6605C74.7439 89.7547 74.3887 89.8019 74.0151 89.8019ZM77.8783 89.6504V82.3796H82.5235V83.3743H78.9336V85.4141H81.9176V86.4088H78.9336V88.6557H82.5235V89.6504H77.8783ZM83.7361 89.6504V82.3796H86.6747C86.7454 82.3796 86.8329 82.3829 86.9373 82.3897C87.0416 82.393 87.1409 82.4031 87.2352 82.42C87.6391 82.4839 87.9757 82.6219 88.245 82.834C88.5177 83.0461 88.7213 83.3137 88.856 83.6368C88.9906 83.96 89.058 84.3168 89.058 84.7072C89.058 85.1011 88.9906 85.4596 88.856 85.7827C88.7213 86.1059 88.5177 86.3735 88.245 86.5855C87.9757 86.7976 87.6391 86.9356 87.2352 86.9996C87.1409 87.013 87.04 87.0231 86.9322 87.0299C86.8279 87.0366 86.7421 87.04 86.6747 87.04H84.7914V89.6504H83.7361ZM84.7914 86.0402H86.6343C86.7017 86.0402 86.7757 86.0369 86.8565 86.0301C86.9407 86.0234 87.0198 86.0116 87.0938 85.9948C87.3093 85.9443 87.4826 85.8517 87.6139 85.7171C87.7452 85.5791 87.8394 85.4209 87.8966 85.2425C87.9539 85.0641 87.9825 84.8856 87.9825 84.7072C87.9825 84.5288 87.9539 84.3521 87.8966 84.1771C87.8394 83.9987 87.7452 83.8421 87.6139 83.7075C87.4826 83.5695 87.3093 83.4752 87.0938 83.4248C87.0198 83.4046 86.9407 83.3911 86.8565 83.3844C86.7757 83.3776 86.7017 83.3743 86.6343 83.3743H84.7914V86.0402ZM89.0595 89.6504L91.4225 82.3796H92.9423L95.3053 89.6504H94.2096L92.0334 83.0158H92.3061L90.1551 89.6504H89.0595ZM90.2864 88.0094V87.0198H94.0834V88.0094H90.2864ZM97.3616 89.6504V86.6461L94.9027 82.3796H96.1347L97.8969 85.4343L99.659 82.3796H100.891L98.4321 86.6461V89.6504H97.3616ZM103.314 89.6504V82.3796H104.369V89.6504H103.314ZM105.885 89.6504V82.3796H106.956L110.536 87.7822V82.3796H111.606V89.6504H110.536L106.956 84.2427V89.6504H105.885ZM113.015 89.6504V82.3796H117.322V83.4348H114.071V85.4848H116.716V86.5451H114.071V89.6504H113.015ZM118.232 89.6504V82.3796H121.171C121.242 82.3796 121.329 82.3829 121.433 82.3897C121.538 82.393 121.637 82.4031 121.731 82.42C122.135 82.4839 122.472 82.6219 122.741 82.834C123.014 83.0461 123.218 83.3137 123.352 83.6368C123.487 83.96 123.554 84.3168 123.554 84.7072C123.554 85.2862 123.406 85.7861 123.11 86.2068C122.814 86.6242 122.369 86.8851 121.777 86.9895L121.348 87.04H119.288V89.6504H118.232ZM122.484 89.6504L121.05 86.6916L122.115 86.4189L123.69 89.6504H122.484ZM119.288 86.0402H121.131C121.198 86.0402 121.272 86.0369 121.353 86.0301C121.437 86.0234 121.516 86.0116 121.59 85.9948C121.805 85.9443 121.979 85.8517 122.11 85.7171C122.241 85.5791 122.336 85.4209 122.393 85.2425C122.45 85.0641 122.479 84.8856 122.479 84.7072C122.479 84.5288 122.45 84.3521 122.393 84.1771C122.336 83.9987 122.241 83.8421 122.11 83.7075C121.979 83.5695 121.805 83.4752 121.59 83.4248C121.516 83.4046 121.437 83.3911 121.353 83.3844C121.272 83.3776 121.198 83.3743 121.131 83.3743H119.288V86.0402ZM124.295 89.6504L126.658 82.3796H128.178L130.541 89.6504H129.445L127.269 83.0158H127.542L125.391 89.6504H124.295ZM125.522 88.0094V87.0198H129.319V88.0094H125.522Z" fill="black"/>
<path d="M279.297 -38.1424C280.532 -43.0172 286.96 -44.12 289.749 -39.9354L301.033 -23.0006C302.747 -20.4289 306.176 -19.652 308.83 -21.2341L326.312 -31.6516C330.631 -34.2259 335.957 -30.46 334.97 -25.5293L330.974 -5.5753C330.368 -2.54505 332.243 0.428866 335.239 1.18739L354.966 6.18224C359.841 7.4165 360.944 13.8451 356.759 16.6336L339.824 27.918C337.253 29.6317 336.476 33.0606 338.058 35.7153L348.475 53.1967C351.05 57.5164 347.284 62.842 342.353 61.8547L322.399 57.8593C319.369 57.2526 316.395 59.1278 315.636 62.1237L310.642 81.8512C309.407 86.726 302.979 87.8289 300.19 83.6442L288.906 66.7094C287.192 64.1377 283.763 63.3608 281.109 64.9429L263.627 75.3604C259.307 77.9347 253.982 74.1688 254.969 69.2381L258.965 49.2841C259.571 46.2539 257.696 43.2799 254.7 42.5214L234.973 37.5266C230.098 36.2923 228.995 29.8637 233.18 27.0753L250.114 15.7908C252.686 14.0772 253.463 10.6483 251.881 7.99351L241.463 -9.48785C238.889 -13.8076 242.655 -19.1331 247.586 -18.1459L267.54 -14.1505C270.57 -13.5437 273.544 -15.419 274.302 -18.4149L279.297 -38.1424Z" fill="#FF4F04"/>
<path d="M37.054 104.642H44.8332C50.1582 104.642 53.1217 108.161 53.1217 115.662V115.755C53.1217 123.349 50.3897 126.219 44.7869 126.219H42.6106V137.055H37.054V104.642ZM42.6106 109.457V121.404H44.7869C46.7317 121.404 47.5651 120.246 47.5651 117.699V113.347C47.5651 110.661 46.7317 109.457 44.7869 109.457H42.6106ZM55.0491 117.746V112.56C55.0491 107.281 58.1052 104.178 63.2913 104.178C68.4774 104.178 71.3946 107.188 71.3946 112.56V113.208C71.3946 118.579 69.635 122.33 66.3474 124.321L65.375 124.83C61.8096 127.053 60.6056 128.072 60.6056 130.757V131.776H71.2094V137.055H55.0491V131.73C55.0491 126.081 56.7161 124.043 60.3741 121.774L61.1613 121.357C64.6804 119.227 65.8381 118.255 65.8381 115.338V112.189C65.8381 110.198 64.8657 109.04 63.245 109.04C61.578 109.04 60.6056 110.198 60.6056 112.189V117.746H55.0491ZM73.5007 104.642H81.2799C86.6049 104.642 89.5684 108.161 89.5684 115.662V115.755C89.5684 123.349 86.8364 126.219 81.2336 126.219H79.0573V137.055H73.5007V104.642ZM79.0573 109.457V121.404H81.2336C83.1784 121.404 84.0119 120.246 84.0119 117.699V113.347C84.0119 110.661 83.1784 109.457 81.2336 109.457H79.0573ZM98.8029 117.977V113.439H101.026V108.392L106.304 108.022V113.439H110.611V117.977H106.304V130.016C106.304 132.146 107.554 132.841 108.897 132.841C109.453 132.841 110.009 132.748 110.611 132.563L110.749 137.101C109.453 137.379 108.249 137.518 107.184 137.518C103.572 137.518 101.026 135.758 101.026 130.294V117.977H98.8029ZM117.168 113.439V117.375H117.307C118.187 114.736 119.715 112.976 122.401 112.976C122.632 112.976 122.864 112.976 123.095 113.023V118.255C122.725 118.162 122.355 118.162 121.984 118.162C118.65 118.162 117.168 120.478 117.168 124.182V137.055H111.89V113.439H117.168ZM133.913 120.431C133.913 118.672 133.033 117.514 131.737 117.514C130.394 117.514 129.514 118.672 129.514 120.431V123.117H124.236V120.755C124.236 115.986 127.107 112.976 131.691 112.976C136.275 112.976 139.192 116.032 139.192 120.755V137.055H133.913V134.508H133.774C132.524 136.545 130.857 137.518 128.912 137.518C126.042 137.518 124.097 135.341 124.097 132.193V129.6C124.097 126.312 126.505 124.228 130.394 124.228H133.913V120.431ZM133.913 131.406V126.914H132.478C130.348 126.914 129.375 127.701 129.375 129.276V131.035C129.375 132.517 130.116 133.397 131.413 133.397C132.57 133.397 133.497 132.656 133.913 131.406ZM141.011 137.055V113.439H146.29V116.403H146.66C147.679 114.18 149.299 112.976 151.244 112.976C153.93 112.976 156.106 115.245 156.106 119.552V137.055H150.827V120.292C150.827 118.672 149.994 117.56 148.79 117.56C147.725 117.56 146.753 118.44 146.29 119.737V137.055H141.011ZM172.833 121.867H167.554V120.385C167.554 118.579 166.767 117.514 165.378 117.514C164.035 117.514 163.202 118.533 163.202 120.107V120.154C163.202 121.728 163.804 122.422 165.702 123.024L168.527 124.182C171.536 125.34 172.926 126.96 172.926 130.109V130.711C172.926 134.369 170.008 137.518 165.285 137.518C160.516 137.518 157.83 134.323 157.83 130.016V128.627H163.109V130.016C163.109 131.776 163.989 132.887 165.332 132.887C166.721 132.887 167.647 131.822 167.647 130.387V130.202C167.647 128.581 167.091 127.933 165.007 127.284L162.09 126.173C159.173 125.108 157.969 123.395 157.969 120.339V119.829C157.969 116.079 160.655 112.976 165.332 112.976C170.101 112.976 172.833 116.171 172.833 120.431V121.867ZM176.221 111.078C176.221 105.707 178.768 103.901 182.518 103.901C183.583 103.901 184.787 104.04 186.084 104.317L185.991 108.809C185.389 108.67 184.787 108.577 184.231 108.577C182.75 108.577 181.499 109.272 181.499 111.356V113.439H185.991V117.977H181.499V137.055H176.221V117.977H173.998V113.439H176.221V111.078ZM191.733 126.544V130.063C191.733 131.822 192.659 132.98 194.002 132.98C195.391 132.98 196.317 131.822 196.317 130.063V128.164H201.549V129.739C201.549 134.462 198.586 137.518 193.955 137.518C189.371 137.518 186.454 134.508 186.454 129.739V120.755C186.454 115.986 189.325 112.976 193.955 112.976C198.586 112.976 201.549 116.032 201.549 120.755V126.544H191.733ZM191.733 120.431V123.626H196.317V120.431C196.317 118.672 195.391 117.514 194.002 117.514C192.659 117.514 191.733 118.672 191.733 120.431ZM208.692 113.439V117.375H208.831C209.711 114.736 211.239 112.976 213.925 112.976C214.156 112.976 214.388 112.976 214.619 113.023V118.255C214.249 118.162 213.878 118.162 213.508 118.162C210.174 118.162 208.692 120.478 208.692 124.182V137.055H203.413V113.439H208.692ZM230.352 121.867H225.073V120.385C225.073 118.579 224.286 117.514 222.897 117.514C221.554 117.514 220.72 118.533 220.72 120.107V120.154C220.72 121.728 221.322 122.422 223.221 123.024L226.046 124.182C229.055 125.34 230.444 126.96 230.444 130.109V130.711C230.444 134.369 227.527 137.518 222.804 137.518C218.035 137.518 215.349 134.323 215.349 130.016V128.627H220.628V130.016C220.628 131.776 221.508 132.887 222.85 132.887C224.24 132.887 225.166 131.822 225.166 130.387V130.202C225.166 128.581 224.61 127.933 222.526 127.284L219.609 126.173C216.692 125.108 215.488 123.395 215.488 120.339V119.829C215.488 116.079 218.174 112.976 222.85 112.976C227.62 112.976 230.352 116.171 230.352 120.431V121.867Z" fill="#282828"/>
</g>
<g clip-path="url(#clip1_1650_3498)">
<rect x="20" y="157.754" width="169.148" height="179.246" rx="16.8306" fill="white"/>
<path d="M40.9314 320.552C40.5047 320.552 40.1437 320.472 39.8483 320.311C39.553 320.147 39.3287 319.93 39.1755 319.66C39.026 319.391 38.9513 319.093 38.9513 318.769C38.9513 318.484 38.9987 318.229 39.0935 318.003C39.1883 317.773 39.3342 317.576 39.5311 317.412C39.728 317.245 39.9833 317.108 40.2969 317.002C40.5339 316.925 40.811 316.856 41.1283 316.794C41.4492 316.732 41.7956 316.676 42.1676 316.625C42.5432 316.57 42.9352 316.512 43.3436 316.45L42.8732 316.718C42.8769 316.309 42.7857 316.008 42.5997 315.815C42.4137 315.622 42.1001 315.525 41.6589 315.525C41.3927 315.525 41.1356 315.587 40.8876 315.711C40.6397 315.835 40.4664 316.048 40.368 316.351L39.1646 315.974C39.3105 315.474 39.5876 315.073 39.996 314.77C40.4081 314.468 40.9624 314.316 41.6589 314.316C42.184 314.316 42.6453 314.402 43.0428 314.573C43.4439 314.745 43.7411 315.026 43.9344 315.416C44.0401 315.624 44.104 315.837 44.1258 316.056C44.1477 316.271 44.1587 316.506 44.1587 316.761V320.388H43.0045V319.108L43.1959 319.316C42.9297 319.742 42.618 320.056 42.2606 320.257C41.9069 320.454 41.4638 320.552 40.9314 320.552ZM41.1939 319.502C41.493 319.502 41.7482 319.449 41.9597 319.343C42.1712 319.237 42.339 319.108 42.463 318.955C42.5906 318.802 42.6763 318.658 42.7201 318.523C42.7893 318.355 42.8276 318.163 42.8349 317.948C42.8459 317.73 42.8513 317.553 42.8513 317.418L43.2561 317.538C42.8586 317.6 42.5177 317.655 42.2332 317.702C41.9488 317.75 41.7045 317.795 41.5003 317.839C41.2961 317.879 41.1155 317.925 40.9587 317.976C40.8056 318.03 40.6761 318.094 40.5704 318.167C40.4646 318.24 40.3826 318.324 40.3242 318.419C40.2695 318.514 40.2422 318.625 40.2422 318.752C40.2422 318.898 40.2786 319.028 40.3516 319.141C40.4245 319.25 40.5303 319.338 40.6688 319.403C40.811 319.469 40.9861 319.502 41.1939 319.502ZM48.4216 320.552C47.8455 320.552 47.3623 320.415 46.9721 320.142C46.5819 319.868 46.2883 319.496 46.0914 319.026C45.8945 318.552 45.796 318.021 45.796 317.434C45.796 316.84 45.8945 316.307 46.0914 315.837C46.2883 315.367 46.5764 314.996 46.9557 314.727C47.3386 314.453 47.8108 314.316 48.3724 314.316C48.9303 314.316 49.4135 314.453 49.8219 314.727C50.234 314.996 50.5531 315.367 50.7792 315.837C51.0053 316.304 51.1183 316.836 51.1183 317.434C51.1183 318.025 51.0071 318.556 50.7846 319.026C50.5622 319.496 50.2486 319.868 49.8438 320.142C49.439 320.415 48.965 320.552 48.4216 320.552ZM45.5718 323.014V314.48H46.7369V318.627H46.901V323.014H45.5718ZM48.2192 319.371C48.562 319.371 48.8446 319.285 49.0671 319.113C49.2895 318.942 49.4536 318.71 49.5594 318.419C49.6688 318.123 49.7235 317.795 49.7235 317.434C49.7235 317.077 49.6688 316.752 49.5594 316.461C49.45 316.165 49.2804 315.932 49.0507 315.76C48.8209 315.585 48.5292 315.498 48.1755 315.498C47.84 315.498 47.5665 315.58 47.355 315.744C47.1435 315.904 46.9867 316.13 46.8846 316.422C46.7861 316.71 46.7369 317.048 46.7369 317.434C46.7369 317.817 46.7861 318.154 46.8846 318.446C46.9867 318.738 47.1453 318.966 47.3605 319.13C47.5793 319.29 47.8655 319.371 48.2192 319.371ZM55.1629 320.552C54.5867 320.552 54.1036 320.415 53.7134 320.142C53.3232 319.868 53.0296 319.496 52.8327 319.026C52.6358 318.552 52.5373 318.021 52.5373 317.434C52.5373 316.84 52.6358 316.307 52.8327 315.837C53.0296 315.367 53.3177 314.996 53.697 314.727C54.0799 314.453 54.5521 314.316 55.1137 314.316C55.6716 314.316 56.1548 314.453 56.5632 314.727C56.9753 314.996 57.2944 315.367 57.5205 315.837C57.7465 316.304 57.8596 316.836 57.8596 317.434C57.8596 318.025 57.7484 318.556 57.5259 319.026C57.3035 319.496 56.9899 319.868 56.5851 320.142C56.1803 320.415 55.7063 320.552 55.1629 320.552ZM52.3131 323.014V314.48H53.4782V318.627H53.6423V323.014H52.3131ZM54.9605 319.371C55.3033 319.371 55.5859 319.285 55.8084 319.113C56.0308 318.942 56.1949 318.71 56.3007 318.419C56.4101 318.123 56.4648 317.795 56.4648 317.434C56.4648 317.077 56.4101 316.752 56.3007 316.461C56.1913 316.165 56.0217 315.932 55.7919 315.76C55.5622 315.585 55.2705 315.498 54.9168 315.498C54.5813 315.498 54.3078 315.58 54.0963 315.744C53.8848 315.904 53.728 316.13 53.6258 316.422C53.5274 316.71 53.4782 317.048 53.4782 317.434C53.4782 317.817 53.5274 318.154 53.6258 318.446C53.728 318.738 53.8866 318.966 54.1017 319.13C54.3205 319.29 54.6068 319.371 54.9605 319.371ZM59.0704 320.388V319.037H60.4215V320.388H59.0704ZM69.2687 320.388V316.8C69.2687 316.395 69.1684 316.079 68.9679 315.853C68.7673 315.624 68.4956 315.509 68.1528 315.509C67.9413 315.509 67.7517 315.558 67.584 315.656C67.4162 315.751 67.2831 315.893 67.1846 316.083C67.0862 316.269 67.037 316.492 67.037 316.75L66.4517 316.406C66.448 315.997 66.5392 315.638 66.7252 315.328C66.9148 315.015 67.1701 314.77 67.491 314.595C67.8119 314.42 68.1692 314.333 68.5631 314.333C69.2158 314.333 69.7154 314.53 70.0618 314.923C70.4119 315.314 70.587 315.828 70.587 316.466V320.388H69.2687ZM62.1632 320.388V314.48H63.3283V316.313H63.4924V320.388H62.1632ZM65.7242 320.388V316.816C65.7242 316.404 65.6239 316.083 65.4233 315.853C65.2228 315.624 64.9493 315.509 64.6028 315.509C64.2673 315.509 63.9975 315.624 63.7933 315.853C63.5927 316.083 63.4924 316.382 63.4924 316.75L62.9017 316.357C62.9017 315.974 62.9965 315.629 63.1861 315.323C63.3757 315.016 63.631 314.776 63.9519 314.601C64.2765 314.422 64.6393 314.333 65.0404 314.333C65.4817 314.333 65.85 314.428 66.1454 314.617C66.4444 314.803 66.6668 315.058 66.8127 315.383C66.9622 315.704 67.037 316.067 67.037 316.471V320.388H65.7242ZM72.5767 323.014L73.7145 319.89L73.7364 320.809L71.16 314.48H72.533L74.3599 319.163H74.0099L75.7876 314.48H77.1058L73.8129 323.014H72.5767ZM80.7605 320.552C80.1844 320.552 79.7012 320.415 79.311 320.142C78.9208 319.868 78.6273 319.496 78.4303 319.026C78.2334 318.552 78.135 318.021 78.135 317.434C78.135 316.84 78.2334 316.307 78.4303 315.837C78.6273 315.367 78.9153 314.996 79.2946 314.727C79.6775 314.453 80.1497 314.316 80.7113 314.316C81.2692 314.316 81.7524 314.453 82.1608 314.727C82.5729 314.996 82.892 315.367 83.1181 315.837C83.3442 316.304 83.4572 316.836 83.4572 317.434C83.4572 318.025 83.346 318.556 83.1236 319.026C82.9011 319.496 82.5875 319.868 82.1827 320.142C81.7779 320.415 81.3039 320.552 80.7605 320.552ZM77.9107 323.014V314.48H79.0758V318.627H79.2399V323.014H77.9107ZM80.5582 319.371C80.9009 319.371 81.1835 319.285 81.406 319.113C81.6284 318.942 81.7925 318.71 81.8983 318.419C82.0077 318.123 82.0624 317.795 82.0624 317.434C82.0624 317.077 82.0077 316.752 81.8983 316.461C81.7889 316.165 81.6193 315.932 81.3896 315.76C81.1598 315.585 80.8681 315.498 80.5144 315.498C80.1789 315.498 79.9054 315.58 79.6939 315.744C79.4824 315.904 79.3256 316.13 79.2235 316.422C79.125 316.71 79.0758 317.048 79.0758 317.434C79.0758 317.817 79.125 318.154 79.2235 318.446C79.3256 318.738 79.4842 318.966 79.6994 319.13C79.9182 319.29 80.2044 319.371 80.5582 319.371ZM86.8782 320.558C86.4406 320.558 86.0796 320.485 85.7952 320.339C85.5108 320.193 85.2847 320.007 85.1169 319.781C84.9492 319.555 84.8252 319.314 84.745 319.059C84.6647 318.803 84.6119 318.563 84.5863 318.337C84.5645 318.107 84.5535 317.921 84.5535 317.779V314.48H85.8882V317.325C85.8882 317.507 85.9009 317.713 85.9265 317.943C85.952 318.169 86.0103 318.388 86.1015 318.599C86.1963 318.807 86.3349 318.979 86.5172 319.113C86.7032 319.248 86.953 319.316 87.2666 319.316C87.4344 319.316 87.6003 319.288 87.7644 319.234C87.9285 319.179 88.0762 319.086 88.2074 318.955C88.3424 318.82 88.4499 318.636 88.5302 318.402C88.6104 318.169 88.6505 317.874 88.6505 317.516L89.4327 317.85C89.4327 318.353 89.3343 318.809 89.1373 319.217C88.9441 319.626 88.6578 319.952 88.2786 320.196C87.8993 320.437 87.4325 320.558 86.8782 320.558ZM88.8091 320.388V318.556H88.6505V314.48H89.9742V320.388H88.8091ZM91.511 320.388V314.48H92.6761V315.919L92.5339 315.733C92.6068 315.536 92.7035 315.357 92.8238 315.197C92.9478 315.033 93.0955 314.898 93.2669 314.792C93.4128 314.694 93.5732 314.617 93.7482 314.562C93.9269 314.504 94.1093 314.469 94.2952 314.459C94.4812 314.444 94.6617 314.451 94.8368 314.48V315.711C94.6617 315.66 94.4593 315.644 94.2296 315.662C94.0035 315.68 93.7993 315.744 93.617 315.853C93.4346 315.952 93.2851 316.078 93.1684 316.231C93.0554 316.384 92.9715 316.559 92.9168 316.756C92.8621 316.949 92.8348 317.159 92.8348 317.385V320.388H91.511ZM97.9479 320.552C97.2186 320.552 96.626 320.388 96.1701 320.06C95.7143 319.732 95.4372 319.27 95.3387 318.676L96.6843 318.468C96.7536 318.76 96.9068 318.989 97.1438 319.157C97.3808 319.325 97.6799 319.409 98.0409 319.409C98.3581 319.409 98.6024 319.347 98.7738 319.223C98.9489 319.095 99.0364 318.922 99.0364 318.703C99.0364 318.568 99.0036 318.461 98.9379 318.38C98.8759 318.297 98.7374 318.216 98.5222 318.14C98.3071 318.063 97.9771 317.967 97.5322 317.85C97.0362 317.719 96.6424 317.578 96.3507 317.429C96.0589 317.276 95.8492 317.095 95.7216 316.887C95.594 316.679 95.5302 316.428 95.5302 316.132C95.5302 315.764 95.6268 315.443 95.8201 315.17C96.0133 314.896 96.2832 314.686 96.6296 314.541C96.9761 314.391 97.3845 314.316 97.8549 314.316C98.3144 314.316 98.721 314.387 99.0747 314.53C99.4321 314.672 99.7201 314.874 99.9389 315.137C100.158 315.399 100.293 315.707 100.344 316.061L98.9981 316.302C98.9653 316.05 98.8504 315.852 98.6535 315.706C98.4602 315.56 98.2013 315.478 97.8768 315.46C97.5668 315.441 97.317 315.489 97.1274 315.602C96.9378 315.711 96.8429 315.866 96.8429 316.067C96.8429 316.18 96.8812 316.276 96.9578 316.357C97.0344 316.437 97.1876 316.517 97.4173 316.597C97.6507 316.677 97.9971 316.776 98.4566 316.893C98.927 317.013 99.3026 317.152 99.5834 317.308C99.8678 317.462 100.072 317.646 100.196 317.861C100.324 318.076 100.387 318.337 100.387 318.643C100.387 319.237 100.171 319.704 99.7366 320.043C99.3062 320.382 98.71 320.552 97.9479 320.552ZM104.271 320.552C103.673 320.552 103.148 320.423 102.696 320.164C102.244 319.905 101.89 319.546 101.635 319.086C101.383 318.627 101.257 318.098 101.257 317.5C101.257 316.854 101.381 316.295 101.629 315.821C101.877 315.343 102.222 314.973 102.663 314.71C103.104 314.448 103.615 314.316 104.195 314.316C104.807 314.316 105.327 314.46 105.754 314.748C106.184 315.033 106.503 315.436 106.711 315.957C106.919 316.479 106.997 317.093 106.946 317.801H105.639V317.319C105.635 316.677 105.522 316.209 105.3 315.914C105.077 315.618 104.727 315.47 104.249 315.47C103.71 315.47 103.309 315.638 103.046 315.974C102.783 316.306 102.652 316.792 102.652 317.434C102.652 318.032 102.783 318.495 103.046 318.824C103.309 319.152 103.691 319.316 104.195 319.316C104.519 319.316 104.798 319.245 105.032 319.103C105.269 318.957 105.451 318.747 105.579 318.473L106.88 318.867C106.654 319.4 106.304 319.814 105.83 320.109C105.36 320.404 104.84 320.552 104.271 320.552ZM102.236 317.801V316.805H106.301V317.801H102.236ZM110.845 320.552C110.269 320.552 109.786 320.415 109.396 320.142C109.006 319.868 108.712 319.496 108.515 319.026C108.318 318.552 108.22 318.021 108.22 317.434C108.22 316.84 108.318 316.307 108.515 315.837C108.712 315.367 109 314.996 109.379 314.727C109.762 314.453 110.234 314.316 110.796 314.316C111.354 314.316 111.837 314.453 112.246 314.727C112.658 314.996 112.977 315.367 113.203 315.837C113.429 316.304 113.542 316.836 113.542 317.434C113.542 318.025 113.431 318.556 113.208 319.026C112.986 319.496 112.672 319.868 112.267 320.142C111.863 320.415 111.389 320.552 110.845 320.552ZM107.995 323.014V314.48H109.16V318.627H109.325V323.014H107.995ZM110.643 319.371C110.986 319.371 111.268 319.285 111.491 319.113C111.713 318.942 111.877 318.71 111.983 318.419C112.092 318.123 112.147 317.795 112.147 317.434C112.147 317.077 112.092 316.752 111.983 316.461C111.874 316.165 111.704 315.932 111.474 315.76C111.245 315.585 110.953 315.498 110.599 315.498C110.264 315.498 109.99 315.58 109.779 315.744C109.567 315.904 109.41 316.13 109.308 316.422C109.21 316.71 109.16 317.048 109.16 317.434C109.16 317.817 109.21 318.154 109.308 318.446C109.41 318.738 109.569 318.966 109.784 319.13C110.003 319.29 110.289 319.371 110.643 319.371ZM116.4 320.552C115.973 320.552 115.612 320.472 115.316 320.311C115.021 320.147 114.797 319.93 114.644 319.66C114.494 319.391 114.419 319.093 114.419 318.769C114.419 318.484 114.467 318.229 114.562 318.003C114.656 317.773 114.802 317.576 114.999 317.412C115.196 317.245 115.451 317.108 115.765 317.002C116.002 316.925 116.279 316.856 116.596 316.794C116.917 316.732 117.264 316.676 117.636 316.625C118.011 316.57 118.403 316.512 118.812 316.45L118.341 316.718C118.345 316.309 118.254 316.008 118.068 315.815C117.882 315.622 117.568 315.525 117.127 315.525C116.861 315.525 116.604 315.587 116.356 315.711C116.108 315.835 115.935 316.048 115.836 316.351L114.633 315.974C114.779 315.474 115.056 315.073 115.464 314.77C115.876 314.468 116.431 314.316 117.127 314.316C117.652 314.316 118.113 314.402 118.511 314.573C118.912 314.745 119.209 315.026 119.403 315.416C119.508 315.624 119.572 315.837 119.594 316.056C119.616 316.271 119.627 316.506 119.627 316.761V320.388H118.473V319.108L118.664 319.316C118.398 319.742 118.086 320.056 117.729 320.257C117.375 320.454 116.932 320.552 116.4 320.552ZM116.662 319.502C116.961 319.502 117.216 319.449 117.428 319.343C117.639 319.237 117.807 319.108 117.931 318.955C118.059 318.802 118.144 318.658 118.188 318.523C118.258 318.355 118.296 318.163 118.303 317.948C118.314 317.73 118.319 317.553 118.319 317.418L118.724 317.538C118.327 317.6 117.986 317.655 117.701 317.702C117.417 317.75 117.173 317.795 116.968 317.839C116.764 317.879 116.584 317.925 116.427 317.976C116.274 318.03 116.144 318.094 116.039 318.167C115.933 318.24 115.851 318.324 115.792 318.419C115.738 318.514 115.71 318.625 115.71 318.752C115.71 318.898 115.747 319.028 115.82 319.141C115.893 319.25 115.998 319.338 116.137 319.403C116.279 319.469 116.454 319.502 116.662 319.502ZM121.496 323.014L122.634 319.89L122.656 320.809L120.08 314.48H121.453L123.28 319.163H122.93L124.707 314.48H126.026L122.733 323.014H121.496ZM126.184 320.388V319.037H127.535V320.388H126.184ZM131.853 320.552C131.244 320.552 130.725 320.417 130.294 320.147C129.864 319.874 129.534 319.502 129.304 319.031C129.078 318.561 128.963 318.029 128.96 317.434C128.963 316.829 129.082 316.293 129.315 315.826C129.552 315.356 129.888 314.987 130.322 314.721C130.756 314.451 131.272 314.316 131.87 314.316C132.541 314.316 133.108 314.486 133.571 314.825C134.038 315.16 134.342 315.62 134.484 316.203L133.172 316.559C133.069 316.242 132.9 315.996 132.663 315.821C132.426 315.642 132.156 315.553 131.853 315.553C131.51 315.553 131.228 315.635 131.005 315.799C130.783 315.959 130.619 316.182 130.513 316.466C130.407 316.75 130.354 317.073 130.354 317.434C130.354 317.996 130.48 318.45 130.732 318.796C130.984 319.143 131.357 319.316 131.853 319.316C132.203 319.316 132.479 319.236 132.679 319.075C132.883 318.915 133.037 318.683 133.139 318.38L134.484 318.681C134.302 319.283 133.983 319.746 133.527 320.071C133.071 320.392 132.513 320.552 131.853 320.552ZM138.029 320.552C137.439 320.552 136.923 320.419 136.481 320.153C136.04 319.887 135.697 319.52 135.453 319.053C135.212 318.583 135.092 318.043 135.092 317.434C135.092 316.814 135.216 316.271 135.464 315.804C135.712 315.337 136.057 314.973 136.498 314.71C136.939 314.448 137.45 314.316 138.029 314.316C138.624 314.316 139.142 314.449 139.583 314.716C140.024 314.982 140.367 315.35 140.611 315.821C140.855 316.287 140.978 316.825 140.978 317.434C140.978 318.047 140.854 318.588 140.606 319.059C140.361 319.526 140.019 319.892 139.577 320.158C139.136 320.421 138.62 320.552 138.029 320.552ZM138.029 319.316C138.554 319.316 138.945 319.141 139.2 318.791C139.455 318.441 139.583 317.988 139.583 317.434C139.583 316.862 139.453 316.406 139.194 316.067C138.936 315.724 138.547 315.553 138.029 315.553C137.676 315.553 137.384 315.633 137.154 315.793C136.928 315.95 136.76 316.171 136.651 316.455C136.542 316.736 136.487 317.062 136.487 317.434C136.487 318.007 136.616 318.464 136.875 318.807C137.138 319.146 137.522 319.316 138.029 319.316ZM149.277 320.388V316.8C149.277 316.395 149.177 316.079 148.976 315.853C148.776 315.624 148.504 315.509 148.161 315.509C147.95 315.509 147.76 315.558 147.593 315.656C147.425 315.751 147.292 315.893 147.193 316.083C147.095 316.269 147.046 316.492 147.046 316.75L146.46 316.406C146.457 315.997 146.548 315.638 146.734 315.328C146.923 315.015 147.179 314.77 147.5 314.595C147.821 314.42 148.178 314.333 148.572 314.333C149.224 314.333 149.724 314.53 150.07 314.923C150.421 315.314 150.596 315.828 150.596 316.466V320.388H149.277ZM142.172 320.388V314.48H143.337V316.313H143.501V320.388H142.172ZM145.733 320.388V316.816C145.733 316.404 145.633 316.083 145.432 315.853C145.231 315.624 144.958 315.509 144.611 315.509C144.276 315.509 144.006 315.624 143.802 315.853C143.601 316.083 143.501 316.382 143.501 316.75L142.91 316.357C142.91 315.974 143.005 315.629 143.195 315.323C143.384 315.016 143.64 314.776 143.961 314.601C144.285 314.422 144.648 314.333 145.049 314.333C145.49 314.333 145.859 314.428 146.154 314.617C146.453 314.803 146.675 315.058 146.821 315.383C146.971 315.704 147.046 316.067 147.046 316.471V320.388H145.733Z" fill="black"/>
<path d="M169.934 314.168C169.952 314.037 169.961 313.905 169.961 313.774C169.961 311.972 168.338 310.526 166.537 310.771C166.012 309.837 165.012 309.229 163.902 309.229C162.791 309.229 161.792 309.837 161.267 310.771C159.462 310.526 157.843 311.972 157.843 313.774C157.843 313.905 157.852 314.037 157.869 314.168C156.935 314.694 156.328 315.694 156.328 316.803C156.328 317.913 156.935 318.913 157.869 319.438C157.852 319.569 157.843 319.701 157.843 319.833C157.843 321.635 159.462 323.077 161.267 322.836C161.792 323.77 162.791 324.377 163.902 324.377C165.012 324.377 166.012 323.77 166.537 322.836C168.338 323.077 169.961 321.635 169.961 319.833C169.961 319.702 169.952 319.57 169.934 319.438C170.868 318.913 171.475 317.913 171.475 316.803C171.475 315.694 170.868 314.694 169.934 314.168ZM163.11 320.148L160.333 317.335L161.411 316.272L163.121 318.003L166.398 314.751L167.464 315.826L163.11 320.148Z" fill="#98F500"/>
<path d="M117.375 210.397L134.69 193.083L152.794 211.188L135.298 228.685H157.916V254.288H135.663L152.912 271.537L134.807 289.642L117.375 272.21V294.828H91.772V272.21L74.3403 289.642L56.2358 271.537L73.4849 254.288H51.2319V228.685H73.8491L56.353 211.188L74.4575 193.083L91.772 210.397V188.145H117.375V210.397ZM107.2 222.99C105.866 221.657 103.705 221.657 102.372 222.99L86.0776 239.284C84.7445 240.617 84.7446 242.779 86.0776 244.112L102.372 260.407C103.705 261.74 105.866 261.74 107.2 260.407L123.495 244.112C124.827 242.779 124.828 240.617 123.495 239.284L107.2 222.99Z" fill="#078AFF"/>
</g>
<defs>
<clipPath id="clip0_1650_3498">
<rect x="20" y="29" width="319.781" height="120.339" rx="16.8306" fill="white"/>
</clipPath>
<clipPath id="clip1_1650_3498">
<rect x="20" y="157.754" width="169.148" height="179.246" rx="16.8306" fill="white"/>
</clipPath>
</defs>
</svg>
